<?xml version="1.0" encoding="utf-8" standalone="no"?>
<!DOCTYPE svg PUBLIC "-//W3C//DTD SVG 1.1//EN"
  "http://www.w3.org/Graphics/SVG/1.1/DTD/svg11.dtd">
<svg height="345.6pt" version="1.1" viewBox="0 0 576 345.6" width="576pt" xmlns="http://www.w3.org/2000/svg" xmlns:xlink="http://www.w3.org/1999/xlink">
 <metadata>
  <rdf:RDF xmlns:cc="http://creativecommons.org/ns#" xmlns:dc="http://purl.org/dc/elements/1.1/" xmlns:rdf="http://www.w3.org/1999/02/22-rdf-syntax-ns#">
   <cc:Work>
    <dc:type rdf:resource="http://purl.org/dc/dcmitype/StillImage"/>
    <dc:date>2021-06-06T23:11:15.017934</dc:date>
    <dc:format>image/svg+xml</dc:format>
    <dc:creator>
     <cc:Agent>
      <dc:title>Matplotlib v3.4.2, https://matplotlib.org/</dc:title>
     </cc:Agent>
    </dc:creator>
   </cc:Work>
  </rdf:RDF>
 </metadata>
 <defs>
  <style type="text/css">*{stroke-linecap:butt;stroke-linejoin:round;}</style>
 </defs>
 <g id="figure_1">
  <g id="patch_1">
   <path d="M 0 345.6 
L 576 345.6 
L 576 0 
L 0 0 
z
" style="fill:#ffffff;"/>
  </g>
  <g id="axes_1">
   <g id="patch_2">
    <path d="M 30.13 317.72 
L 554.535 317.72 
L 554.535 10.8 
L 30.13 10.8 
z
" style="fill:#ffffff;"/>
   </g>
   <g id="matplotlib.axis_1">
    <g id="xtick_1">
     <g id="line2d_1">
      <path clip-path="url(#p4a5d4b9790)" d="M 30.13 317.72 
L 30.13 10.8 
" style="fill:none;stroke:#e5e7eb;stroke-dasharray:3.7,1.6;stroke-dashoffset:0;"/>
     </g>
     <g id="line2d_2">
      <defs>
       <path d="M 0 0 
L 0 3.5 
" id="m725853bc04" style="stroke:#000000;stroke-width:0.8;"/>
      </defs>
      <g>
       <use style="stroke:#000000;stroke-width:0.8;" x="30.13" xlink:href="#m725853bc04" y="317.72"/>
      </g>
     </g>
     <g id="text_1">
      <!-- 0.0 -->
      <g transform="translate(22.501875 331.993437)scale(0.1 -0.1)">
       <defs>
        <path d="M 2000 -64 
C 3027 -64 3618 807 3618 2327 
C 3618 3836 3018 4718 2000 4718 
C 982 4718 382 3836 382 2327 
C 382 807 973 -64 2000 -64 
z
M 2000 436 
C 1323 436 927 1116 927 2327 
C 927 3536 1327 4227 2000 4227 
C 2673 4227 3073 3536 3073 2327 
C 3073 1116 2677 436 2000 436 
z
" id="Inter-Regular-30" transform="scale(0.015625)"/>
        <path d="M 882 -36 
C 1107 -36 1291 148 1291 373 
C 1291 598 1107 782 882 782 
C 657 782 473 598 473 373 
C 473 148 657 -36 882 -36 
z
" id="Inter-Regular-2e" transform="scale(0.015625)"/>
       </defs>
       <use xlink:href="#Inter-Regular-30"/>
       <use x="62.500015" xlink:href="#Inter-Regular-2e"/>
       <use x="90.056839" xlink:href="#Inter-Regular-30"/>
      </g>
     </g>
    </g>
    <g id="xtick_2">
     <g id="line2d_3">
      <path clip-path="url(#p4a5d4b9790)" d="M 95.680625 317.72 
L 95.680625 10.8 
" style="fill:none;stroke:#e5e7eb;stroke-dasharray:3.7,1.6;stroke-dashoffset:0;"/>
     </g>
     <g id="line2d_4">
      <g>
       <use style="stroke:#000000;stroke-width:0.8;" x="95.680625" xlink:href="#m725853bc04" y="317.72"/>
      </g>
     </g>
     <g id="text_2">
      <!-- 2.5 -->
      <g transform="translate(88.236875 331.993437)scale(0.1 -0.1)">
       <defs>
        <path d="M 482 0 
L 3418 0 
L 3418 500 
L 1255 500 
L 1255 536 
L 2300 1655 
C 3100 2511 3336 2911 3336 3427 
C 3336 4145 2755 4718 1936 4718 
C 1121 4718 500 4164 500 3345 
L 1036 3345 
C 1036 3875 1380 4227 1918 4227 
C 2423 4227 2809 3918 2809 3427 
C 2809 2998 2557 2680 2018 2091 
L 482 409 
L 482 0 
z
" id="Inter-Regular-32" transform="scale(0.015625)"/>
        <path d="M 1936 -64 
C 2823 -64 3473 591 3473 1482 
C 3473 2384 2846 3045 1991 3045 
C 1677 3045 1373 2934 1182 2782 
L 1155 2782 
L 1318 4155 
L 3264 4155 
L 3264 4655 
L 846 4655 
L 564 2364 
L 1091 2300 
C 1284 2439 1614 2539 1900 2536 
C 2493 2532 2927 2082 2927 1473 
C 2927 875 2509 436 1936 436 
C 1459 436 1080 743 1036 1164 
L 491 1164 
C 525 455 1136 -64 1936 -64 
z
" id="Inter-Regular-35" transform="scale(0.015625)"/>
       </defs>
       <use xlink:href="#Inter-Regular-32"/>
       <use x="60.511383" xlink:href="#Inter-Regular-2e"/>
       <use x="88.068207" xlink:href="#Inter-Regular-35"/>
      </g>
     </g>
    </g>
    <g id="xtick_3">
     <g id="line2d_5">
      <path clip-path="url(#p4a5d4b9790)" d="M 161.23125 317.72 
L 161.23125 10.8 
" style="fill:none;stroke:#e5e7eb;stroke-dasharray:3.7,1.6;stroke-dashoffset:0;"/>
     </g>
     <g id="line2d_6">
      <g>
       <use style="stroke:#000000;stroke-width:0.8;" x="161.23125" xlink:href="#m725853bc04" y="317.72"/>
      </g>
     </g>
     <g id="text_3">
      <!-- 5.0 -->
      <g transform="translate(153.688281 331.993437)scale(0.1 -0.1)">
       <use xlink:href="#Inter-Regular-35"/>
       <use x="60.795471" xlink:href="#Inter-Regular-2e"/>
       <use x="88.352295" xlink:href="#Inter-Regular-30"/>
      </g>
     </g>
    </g>
    <g id="xtick_4">
     <g id="line2d_7">
      <path clip-path="url(#p4a5d4b9790)" d="M 226.781875 317.72 
L 226.781875 10.8 
" style="fill:none;stroke:#e5e7eb;stroke-dasharray:3.7,1.6;stroke-dashoffset:0;"/>
     </g>
     <g id="line2d_8">
      <g>
       <use style="stroke:#000000;stroke-width:0.8;" x="226.781875" xlink:href="#m725853bc04" y="317.72"/>
      </g>
     </g>
     <g id="text_4">
      <!-- 7.5 -->
      <g transform="translate(219.508437 331.993437)scale(0.1 -0.1)">
       <defs>
        <path d="M 627 0 
L 1218 0 
L 3291 4127 
L 3291 4655 
L 309 4655 
L 309 4155 
L 2709 4155 
L 2709 4118 
L 627 0 
z
" id="Inter-Regular-37" transform="scale(0.015625)"/>
       </defs>
       <use xlink:href="#Inter-Regular-37"/>
       <use x="57.10228" xlink:href="#Inter-Regular-2e"/>
       <use x="84.659103" xlink:href="#Inter-Regular-35"/>
      </g>
     </g>
    </g>
    <g id="xtick_5">
     <g id="line2d_9">
      <path clip-path="url(#p4a5d4b9790)" d="M 292.3325 317.72 
L 292.3325 10.8 
" style="fill:none;stroke:#e5e7eb;stroke-dasharray:3.7,1.6;stroke-dashoffset:0;"/>
     </g>
     <g id="line2d_10">
      <g>
       <use style="stroke:#000000;stroke-width:0.8;" x="292.3325" xlink:href="#m725853bc04" y="317.72"/>
      </g>
     </g>
     <g id="text_5">
      <!-- 10.0 -->
      <g transform="translate(282.381719 331.993437)scale(0.1 -0.1)">
       <defs>
        <path d="M 2118 4655 
L 1555 4655 
L 391 3882 
L 391 3309 
L 1527 4064 
L 1555 4064 
L 1555 0 
L 2118 0 
L 2118 4655 
z
" id="Inter-Regular-31" transform="scale(0.015625)"/>
       </defs>
       <use xlink:href="#Inter-Regular-31"/>
       <use x="46.448868" xlink:href="#Inter-Regular-30"/>
       <use x="108.948883" xlink:href="#Inter-Regular-2e"/>
       <use x="136.505707" xlink:href="#Inter-Regular-30"/>
      </g>
     </g>
    </g>
    <g id="xtick_6">
     <g id="line2d_11">
      <path clip-path="url(#p4a5d4b9790)" d="M 357.883125 317.72 
L 357.883125 10.8 
" style="fill:none;stroke:#e5e7eb;stroke-dasharray:3.7,1.6;stroke-dashoffset:0;"/>
     </g>
     <g id="line2d_12">
      <g>
       <use style="stroke:#000000;stroke-width:0.8;" x="357.883125" xlink:href="#m725853bc04" y="317.72"/>
      </g>
     </g>
     <g id="text_6">
      <!-- 12.5 -->
      <g transform="translate(348.116719 331.993437)scale(0.1 -0.1)">
       <use xlink:href="#Inter-Regular-31"/>
       <use x="46.448868" xlink:href="#Inter-Regular-32"/>
       <use x="106.960251" xlink:href="#Inter-Regular-2e"/>
       <use x="134.517075" xlink:href="#Inter-Regular-35"/>
      </g>
     </g>
    </g>
    <g id="xtick_7">
     <g id="line2d_13">
      <path clip-path="url(#p4a5d4b9790)" d="M 423.43375 317.72 
L 423.43375 10.8 
" style="fill:none;stroke:#e5e7eb;stroke-dasharray:3.7,1.6;stroke-dashoffset:0;"/>
     </g>
     <g id="line2d_14">
      <g>
       <use style="stroke:#000000;stroke-width:0.8;" x="423.43375" xlink:href="#m725853bc04" y="317.72"/>
      </g>
     </g>
     <g id="text_7">
      <!-- 15.0 -->
      <g transform="translate(413.568125 331.993437)scale(0.1 -0.1)">
       <use xlink:href="#Inter-Regular-31"/>
       <use x="46.448868" xlink:href="#Inter-Regular-35"/>
       <use x="107.244339" xlink:href="#Inter-Regular-2e"/>
       <use x="134.801163" xlink:href="#Inter-Regular-30"/>
      </g>
     </g>
    </g>
    <g id="xtick_8">
     <g id="line2d_15">
      <path clip-path="url(#p4a5d4b9790)" d="M 488.984375 317.72 
L 488.984375 10.8 
" style="fill:none;stroke:#e5e7eb;stroke-dasharray:3.7,1.6;stroke-dashoffset:0;"/>
     </g>
     <g id="line2d_16">
      <g>
       <use style="stroke:#000000;stroke-width:0.8;" x="488.984375" xlink:href="#m725853bc04" y="317.72"/>
      </g>
     </g>
     <g id="text_8">
      <!-- 17.5 -->
      <g transform="translate(479.388281 331.993437)scale(0.1 -0.1)">
       <use xlink:href="#Inter-Regular-31"/>
       <use x="46.448868" xlink:href="#Inter-Regular-37"/>
       <use x="103.551147" xlink:href="#Inter-Regular-2e"/>
       <use x="131.107971" xlink:href="#Inter-Regular-35"/>
      </g>
     </g>
    </g>
    <g id="xtick_9">
     <g id="line2d_17">
      <path clip-path="url(#p4a5d4b9790)" d="M 554.535 317.72 
L 554.535 10.8 
" style="fill:none;stroke:#e5e7eb;stroke-dasharray:3.7,1.6;stroke-dashoffset:0;"/>
     </g>
     <g id="line2d_18">
      <g>
       <use style="stroke:#000000;stroke-width:0.8;" x="554.535" xlink:href="#m725853bc04" y="317.72"/>
      </g>
     </g>
     <g id="text_9">
      <!-- 20.0 -->
      <g transform="translate(543.881094 331.993437)scale(0.1 -0.1)">
       <use xlink:href="#Inter-Regular-32"/>
       <use x="60.511383" xlink:href="#Inter-Regular-30"/>
       <use x="123.011398" xlink:href="#Inter-Regular-2e"/>
       <use x="150.568222" xlink:href="#Inter-Regular-30"/>
      </g>
     </g>
    </g>
   </g>
   <g id="matplotlib.axis_2">
    <g id="ytick_1">
     <g id="line2d_19">
      <path clip-path="url(#p4a5d4b9790)" d="M 30.13 303.727169 
L 554.535 303.727169 
" style="fill:none;stroke:#e5e7eb;stroke-dasharray:3.7,1.6;stroke-dashoffset:0;"/>
     </g>
     <g id="line2d_20">
      <defs>
       <path d="M 0 0 
L -3.5 0 
" id="m122d4efbd0" style="stroke:#000000;stroke-width:0.8;"/>
      </defs>
      <g>
       <use style="stroke:#000000;stroke-width:0.8;" x="30.13" xlink:href="#m122d4efbd0" y="303.727169"/>
      </g>
     </g>
     <g id="text_10">
      <!-- 0 -->
      <g transform="translate(16.88 307.363888)scale(0.1 -0.1)">
       <use xlink:href="#Inter-Regular-30"/>
      </g>
     </g>
    </g>
    <g id="ytick_2">
     <g id="line2d_21">
      <path clip-path="url(#p4a5d4b9790)" d="M 30.13 237.603147 
L 554.535 237.603147 
" style="fill:none;stroke:#e5e7eb;stroke-dasharray:3.7,1.6;stroke-dashoffset:0;"/>
     </g>
     <g id="line2d_22">
      <g>
       <use style="stroke:#000000;stroke-width:0.8;" x="30.13" xlink:href="#m122d4efbd0" y="237.603147"/>
      </g>
     </g>
     <g id="text_11">
      <!-- 5 -->
      <g transform="translate(17.050313 241.239866)scale(0.1 -0.1)">
       <use xlink:href="#Inter-Regular-35"/>
      </g>
     </g>
    </g>
    <g id="ytick_3">
     <g id="line2d_23">
      <path clip-path="url(#p4a5d4b9790)" d="M 30.13 171.479125 
L 554.535 171.479125 
" style="fill:none;stroke:#e5e7eb;stroke-dasharray:3.7,1.6;stroke-dashoffset:0;"/>
     </g>
     <g id="line2d_24">
      <g>
       <use style="stroke:#000000;stroke-width:0.8;" x="30.13" xlink:href="#m122d4efbd0" y="171.479125"/>
      </g>
     </g>
     <g id="text_12">
      <!-- 10 -->
      <g transform="translate(12.234688 175.115844)scale(0.1 -0.1)">
       <use xlink:href="#Inter-Regular-31"/>
       <use x="46.448868" xlink:href="#Inter-Regular-30"/>
      </g>
     </g>
    </g>
    <g id="ytick_4">
     <g id="line2d_25">
      <path clip-path="url(#p4a5d4b9790)" d="M 30.13 105.355103 
L 554.535 105.355103 
" style="fill:none;stroke:#e5e7eb;stroke-dasharray:3.7,1.6;stroke-dashoffset:0;"/>
     </g>
     <g id="line2d_26">
      <g>
       <use style="stroke:#000000;stroke-width:0.8;" x="30.13" xlink:href="#m122d4efbd0" y="105.355103"/>
      </g>
     </g>
     <g id="text_13">
      <!-- 15 -->
      <g transform="translate(12.405 108.991822)scale(0.1 -0.1)">
       <use xlink:href="#Inter-Regular-31"/>
       <use x="46.448868" xlink:href="#Inter-Regular-35"/>
      </g>
     </g>
    </g>
    <g id="ytick_5">
     <g id="line2d_27">
      <path clip-path="url(#p4a5d4b9790)" d="M 30.13 39.231082 
L 554.535 39.231082 
" style="fill:none;stroke:#e5e7eb;stroke-dasharray:3.7,1.6;stroke-dashoffset:0;"/>
     </g>
     <g id="line2d_28">
      <g>
       <use style="stroke:#000000;stroke-width:0.8;" x="30.13" xlink:href="#m122d4efbd0" y="39.231082"/>
      </g>
     </g>
     <g id="text_14">
      <!-- 20 -->
      <g transform="translate(10.828438 42.8678)scale(0.1 -0.1)">
       <use xlink:href="#Inter-Regular-32"/>
       <use x="60.511383" xlink:href="#Inter-Regular-30"/>
      </g>
     </g>
    </g>
   </g>
   <g id="line2d_29">
    <path clip-path="url(#p4a5d4b9790)" d="M 30.13 83.332365 
L 37.078366 82.879136 
L 43.633429 114.54889 
L 51.184861 177.796709 
L 55.380101 207.311292 
L 63.429718 252.695507 
L 68.673767 271.52611 
L 79.686273 293.096536 
L 102.104586 290.659289 
L 113.117091 266.678919 
L 119.672154 238.638293 
L 123.683852 212.038579 
L 127.879092 179.245742 
L 131.89079 143.129155 
L 145.000915 73.123235 
L 153.207853 74.577884 
L 226.781875 80.753793 
L 300.355897 74.577884 
L 308.562835 73.123235 
L 321.67296 143.129155 
L 325.684658 179.245742 
L 329.879898 212.038579 
L 333.891596 238.638293 
L 340.446659 266.678919 
L 351.459164 290.659289 
L 373.877478 293.096536 
L 384.889983 271.52611 
L 390.134033 252.695507 
L 398.183649 207.311292 
L 402.378889 177.796709 
L 409.930321 114.54889 
L 416.485384 82.879136 
L 426.186876 83.481017 
L 430.382116 83.67378 
L 436.937179 115.903244 
L 444.488611 179.396638 
L 448.683851 208.949282 
L 456.733468 254.209772 
L 461.977518 272.928617 
L 472.990023 294.08457 
L 495.408336 289.100223 
L 506.420841 263.015761 
L 512.975904 231.192732 
L 516.987602 199.739638 
L 521.182842 160.70343 
L 525.19454 117.499776 
L 538.304665 97.655886 
L 542.316364 132.708465 
L 546.511604 165.825187 
L 550.523302 194.108339 
L 555.767352 216.653524 
L 577 240.611055 
L 577 240.611055 
" style="fill:none;stroke:#ef4444;stroke-linecap:square;stroke-width:1.5;"/>
   </g>
   <g id="line2d_30">
    <path clip-path="url(#p4a5d4b9790)" d="M 30.13 200.877923 
L 37.078366 200.75288 
L 43.633429 183.783251 
L 51.184861 139.381672 
L 55.380101 111.609787 
L 63.429718 52.113409 
L 68.673767 29.689618 
L 79.686273 24.750909 
L 102.104586 24.756659 
L 113.117091 29.700855 
L 119.672154 65.45196 
L 123.683852 103.892971 
L 127.879092 140.437677 
L 131.89079 171.888416 
L 145.000915 220.946579 
L 149.012613 224.579728 
L 153.207853 228.183669 
L 226.781875 258.909711 
L 300.355897 228.183669 
L 304.551137 224.579728 
L 308.562835 220.946579 
L 321.67296 171.888416 
L 325.684658 140.437677 
L 329.879898 103.892971 
L 333.891596 65.45196 
L 340.446659 29.700855 
L 351.459164 24.756659 
L 373.877478 24.750909 
L 384.889983 29.689618 
L 390.134033 52.113409 
L 398.183649 111.609787 
L 402.378889 139.381672 
L 409.930321 183.783251 
L 416.485384 200.75288 
L 423.43375 200.877923 
L 430.382116 200.764131 
L 436.937179 183.808049 
L 444.488611 139.429787 
L 448.683851 111.673236 
L 456.733468 52.211044 
L 461.977518 29.804421 
L 472.990023 24.885048 
L 495.408336 24.92495 
L 506.420841 29.882399 
L 512.975904 72.461509 
L 516.987602 117.645966 
L 521.182842 159.607259 
L 525.19454 194.673775 
L 538.304665 233.013953 
L 542.316364 228.677682 
L 546.511604 223.884747 
L 550.523302 219.054529 
L 555.767352 221.32783 
L 577 243.312766 
L 577 243.312766 
" style="fill:none;stroke:#1d4ed8;stroke-linecap:square;stroke-width:1.5;"/>
   </g>
   <g id="line2d_31">
    <path clip-path="url(#p4a5d4b9790)" d="M 30.13 244.261814 
L 37.078366 244.26223 
L 43.633429 248.761039 
L 63.429718 275.584762 
L 68.673767 281.705799 
L 79.686273 292.654754 
L 102.104586 303.735548 
L 308.562835 303.769091 
L 351.459164 303.735548 
L 373.877478 292.654754 
L 384.889983 281.705799 
L 390.134033 275.584762 
L 409.930321 248.761039 
L 416.485384 244.26223 
L 430.382116 244.261398 
L 436.937179 248.759504 
L 456.733468 275.581411 
L 461.977518 281.701833 
L 472.990023 292.649197 
L 495.408336 303.726775 
L 577 303.743857 
L 577 303.743857 
" style="fill:none;stroke:#10b981;stroke-linecap:square;stroke-width:1.5;"/>
   </g>
   <g id="patch_3">
    <path d="M 30.13 317.72 
L 30.13 10.8 
" style="fill:none;stroke:#000000;stroke-linecap:square;stroke-linejoin:miter;stroke-width:0.8;"/>
   </g>
   <g id="patch_4">
    <path d="M 554.535 317.72 
L 554.535 10.8 
" style="fill:none;stroke:#000000;stroke-linecap:square;stroke-linejoin:miter;stroke-width:0.8;"/>
   </g>
   <g id="patch_5">
    <path d="M 30.13 317.72 
L 554.535 317.72 
" style="fill:none;stroke:#000000;stroke-linecap:square;stroke-linejoin:miter;stroke-width:0.8;"/>
   </g>
   <g id="patch_6">
    <path d="M 30.13 10.8 
L 554.535 10.8 
" style="fill:none;stroke:#000000;stroke-linecap:square;stroke-linejoin:miter;stroke-width:0.8;"/>
   </g>
  </g>
 </g>
 <defs>
  <clipPath id="p4a5d4b9790">
   <rect height="306.92" width="524.405" x="30.13" y="10.8"/>
  </clipPath>
 </defs>
</svg>
