<?xml version="1.0" encoding="utf-8" standalone="no"?>
<!DOCTYPE svg PUBLIC "-//W3C//DTD SVG 1.1//EN"
  "http://www.w3.org/Graphics/SVG/1.1/DTD/svg11.dtd">
<svg height="345.6pt" version="1.1" viewBox="0 0 576 345.6" width="576pt" xmlns="http://www.w3.org/2000/svg" xmlns:xlink="http://www.w3.org/1999/xlink">
 <metadata>
  <rdf:RDF xmlns:cc="http://creativecommons.org/ns#" xmlns:dc="http://purl.org/dc/elements/1.1/" xmlns:rdf="http://www.w3.org/1999/02/22-rdf-syntax-ns#">
   <cc:Work>
    <dc:type rdf:resource="http://purl.org/dc/dcmitype/StillImage"/>
    <dc:date>2021-06-06T23:11:14.349206</dc:date>
    <dc:format>image/svg+xml</dc:format>
    <dc:creator>
     <cc:Agent>
      <dc:title>Matplotlib v3.4.2, https://matplotlib.org/</dc:title>
     </cc:Agent>
    </dc:creator>
   </cc:Work>
  </rdf:RDF>
 </metadata>
 <defs>
  <style type="text/css">*{stroke-linecap:butt;stroke-linejoin:round;}</style>
 </defs>
 <g id="figure_1">
  <g id="patch_1">
   <path d="M 0 345.6 
L 576 345.6 
L 576 0 
L 0 0 
z
" style="fill:#ffffff;"/>
  </g>
  <g id="axes_1">
   <g id="patch_2">
    <path d="M 30.13 317.72 
L 554.535 317.72 
L 554.535 10.8 
L 30.13 10.8 
z
" style="fill:#ffffff;"/>
   </g>
   <g id="matplotlib.axis_1">
    <g id="xtick_1">
     <g id="line2d_1">
      <path clip-path="url(#p9ea033cb9e)" d="M 30.13 317.72 
L 30.13 10.8 
" style="fill:none;stroke:#e5e7eb;stroke-dasharray:3.7,1.6;stroke-dashoffset:0;"/>
     </g>
     <g id="line2d_2">
      <defs>
       <path d="M 0 0 
L 0 3.5 
" id="m15bcfdf54a" style="stroke:#000000;stroke-width:0.8;"/>
      </defs>
      <g>
       <use style="stroke:#000000;stroke-width:0.8;" x="30.13" xlink:href="#m15bcfdf54a" y="317.72"/>
      </g>
     </g>
     <g id="text_1">
      <!-- 0.0 -->
      <g transform="translate(22.501875 331.993437)scale(0.1 -0.1)">
       <defs>
        <path d="M 2000 -64 
C 3027 -64 3618 807 3618 2327 
C 3618 3836 3018 4718 2000 4718 
C 982 4718 382 3836 382 2327 
C 382 807 973 -64 2000 -64 
z
M 2000 436 
C 1323 436 927 1116 927 2327 
C 927 3536 1327 4227 2000 4227 
C 2673 4227 3073 3536 3073 2327 
C 3073 1116 2677 436 2000 436 
z
" id="Inter-Regular-30" transform="scale(0.015625)"/>
        <path d="M 882 -36 
C 1107 -36 1291 148 1291 373 
C 1291 598 1107 782 882 782 
C 657 782 473 598 473 373 
C 473 148 657 -36 882 -36 
z
" id="Inter-Regular-2e" transform="scale(0.015625)"/>
       </defs>
       <use xlink:href="#Inter-Regular-30"/>
       <use x="62.500015" xlink:href="#Inter-Regular-2e"/>
       <use x="90.056839" xlink:href="#Inter-Regular-30"/>
      </g>
     </g>
    </g>
    <g id="xtick_2">
     <g id="line2d_3">
      <path clip-path="url(#p9ea033cb9e)" d="M 95.680625 317.72 
L 95.680625 10.8 
" style="fill:none;stroke:#e5e7eb;stroke-dasharray:3.7,1.6;stroke-dashoffset:0;"/>
     </g>
     <g id="line2d_4">
      <g>
       <use style="stroke:#000000;stroke-width:0.8;" x="95.680625" xlink:href="#m15bcfdf54a" y="317.72"/>
      </g>
     </g>
     <g id="text_2">
      <!-- 2.5 -->
      <g transform="translate(88.236875 331.993437)scale(0.1 -0.1)">
       <defs>
        <path d="M 482 0 
L 3418 0 
L 3418 500 
L 1255 500 
L 1255 536 
L 2300 1655 
C 3100 2511 3336 2911 3336 3427 
C 3336 4145 2755 4718 1936 4718 
C 1121 4718 500 4164 500 3345 
L 1036 3345 
C 1036 3875 1380 4227 1918 4227 
C 2423 4227 2809 3918 2809 3427 
C 2809 2998 2557 2680 2018 2091 
L 482 409 
L 482 0 
z
" id="Inter-Regular-32" transform="scale(0.015625)"/>
        <path d="M 1936 -64 
C 2823 -64 3473 591 3473 1482 
C 3473 2384 2846 3045 1991 3045 
C 1677 3045 1373 2934 1182 2782 
L 1155 2782 
L 1318 4155 
L 3264 4155 
L 3264 4655 
L 846 4655 
L 564 2364 
L 1091 2300 
C 1284 2439 1614 2539 1900 2536 
C 2493 2532 2927 2082 2927 1473 
C 2927 875 2509 436 1936 436 
C 1459 436 1080 743 1036 1164 
L 491 1164 
C 525 455 1136 -64 1936 -64 
z
" id="Inter-Regular-35" transform="scale(0.015625)"/>
       </defs>
       <use xlink:href="#Inter-Regular-32"/>
       <use x="60.511383" xlink:href="#Inter-Regular-2e"/>
       <use x="88.068207" xlink:href="#Inter-Regular-35"/>
      </g>
     </g>
    </g>
    <g id="xtick_3">
     <g id="line2d_5">
      <path clip-path="url(#p9ea033cb9e)" d="M 161.23125 317.72 
L 161.23125 10.8 
" style="fill:none;stroke:#e5e7eb;stroke-dasharray:3.7,1.6;stroke-dashoffset:0;"/>
     </g>
     <g id="line2d_6">
      <g>
       <use style="stroke:#000000;stroke-width:0.8;" x="161.23125" xlink:href="#m15bcfdf54a" y="317.72"/>
      </g>
     </g>
     <g id="text_3">
      <!-- 5.0 -->
      <g transform="translate(153.688281 331.993437)scale(0.1 -0.1)">
       <use xlink:href="#Inter-Regular-35"/>
       <use x="60.795471" xlink:href="#Inter-Regular-2e"/>
       <use x="88.352295" xlink:href="#Inter-Regular-30"/>
      </g>
     </g>
    </g>
    <g id="xtick_4">
     <g id="line2d_7">
      <path clip-path="url(#p9ea033cb9e)" d="M 226.781875 317.72 
L 226.781875 10.8 
" style="fill:none;stroke:#e5e7eb;stroke-dasharray:3.7,1.6;stroke-dashoffset:0;"/>
     </g>
     <g id="line2d_8">
      <g>
       <use style="stroke:#000000;stroke-width:0.8;" x="226.781875" xlink:href="#m15bcfdf54a" y="317.72"/>
      </g>
     </g>
     <g id="text_4">
      <!-- 7.5 -->
      <g transform="translate(219.508437 331.993437)scale(0.1 -0.1)">
       <defs>
        <path d="M 627 0 
L 1218 0 
L 3291 4127 
L 3291 4655 
L 309 4655 
L 309 4155 
L 2709 4155 
L 2709 4118 
L 627 0 
z
" id="Inter-Regular-37" transform="scale(0.015625)"/>
       </defs>
       <use xlink:href="#Inter-Regular-37"/>
       <use x="57.10228" xlink:href="#Inter-Regular-2e"/>
       <use x="84.659103" xlink:href="#Inter-Regular-35"/>
      </g>
     </g>
    </g>
    <g id="xtick_5">
     <g id="line2d_9">
      <path clip-path="url(#p9ea033cb9e)" d="M 292.3325 317.72 
L 292.3325 10.8 
" style="fill:none;stroke:#e5e7eb;stroke-dasharray:3.7,1.6;stroke-dashoffset:0;"/>
     </g>
     <g id="line2d_10">
      <g>
       <use style="stroke:#000000;stroke-width:0.8;" x="292.3325" xlink:href="#m15bcfdf54a" y="317.72"/>
      </g>
     </g>
     <g id="text_5">
      <!-- 10.0 -->
      <g transform="translate(282.381719 331.993437)scale(0.1 -0.1)">
       <defs>
        <path d="M 2118 4655 
L 1555 4655 
L 391 3882 
L 391 3309 
L 1527 4064 
L 1555 4064 
L 1555 0 
L 2118 0 
L 2118 4655 
z
" id="Inter-Regular-31" transform="scale(0.015625)"/>
       </defs>
       <use xlink:href="#Inter-Regular-31"/>
       <use x="46.448868" xlink:href="#Inter-Regular-30"/>
       <use x="108.948883" xlink:href="#Inter-Regular-2e"/>
       <use x="136.505707" xlink:href="#Inter-Regular-30"/>
      </g>
     </g>
    </g>
    <g id="xtick_6">
     <g id="line2d_11">
      <path clip-path="url(#p9ea033cb9e)" d="M 357.883125 317.72 
L 357.883125 10.8 
" style="fill:none;stroke:#e5e7eb;stroke-dasharray:3.7,1.6;stroke-dashoffset:0;"/>
     </g>
     <g id="line2d_12">
      <g>
       <use style="stroke:#000000;stroke-width:0.8;" x="357.883125" xlink:href="#m15bcfdf54a" y="317.72"/>
      </g>
     </g>
     <g id="text_6">
      <!-- 12.5 -->
      <g transform="translate(348.116719 331.993437)scale(0.1 -0.1)">
       <use xlink:href="#Inter-Regular-31"/>
       <use x="46.448868" xlink:href="#Inter-Regular-32"/>
       <use x="106.960251" xlink:href="#Inter-Regular-2e"/>
       <use x="134.517075" xlink:href="#Inter-Regular-35"/>
      </g>
     </g>
    </g>
    <g id="xtick_7">
     <g id="line2d_13">
      <path clip-path="url(#p9ea033cb9e)" d="M 423.43375 317.72 
L 423.43375 10.8 
" style="fill:none;stroke:#e5e7eb;stroke-dasharray:3.7,1.6;stroke-dashoffset:0;"/>
     </g>
     <g id="line2d_14">
      <g>
       <use style="stroke:#000000;stroke-width:0.8;" x="423.43375" xlink:href="#m15bcfdf54a" y="317.72"/>
      </g>
     </g>
     <g id="text_7">
      <!-- 15.0 -->
      <g transform="translate(413.568125 331.993437)scale(0.1 -0.1)">
       <use xlink:href="#Inter-Regular-31"/>
       <use x="46.448868" xlink:href="#Inter-Regular-35"/>
       <use x="107.244339" xlink:href="#Inter-Regular-2e"/>
       <use x="134.801163" xlink:href="#Inter-Regular-30"/>
      </g>
     </g>
    </g>
    <g id="xtick_8">
     <g id="line2d_15">
      <path clip-path="url(#p9ea033cb9e)" d="M 488.984375 317.72 
L 488.984375 10.8 
" style="fill:none;stroke:#e5e7eb;stroke-dasharray:3.7,1.6;stroke-dashoffset:0;"/>
     </g>
     <g id="line2d_16">
      <g>
       <use style="stroke:#000000;stroke-width:0.8;" x="488.984375" xlink:href="#m15bcfdf54a" y="317.72"/>
      </g>
     </g>
     <g id="text_8">
      <!-- 17.5 -->
      <g transform="translate(479.388281 331.993437)scale(0.1 -0.1)">
       <use xlink:href="#Inter-Regular-31"/>
       <use x="46.448868" xlink:href="#Inter-Regular-37"/>
       <use x="103.551147" xlink:href="#Inter-Regular-2e"/>
       <use x="131.107971" xlink:href="#Inter-Regular-35"/>
      </g>
     </g>
    </g>
    <g id="xtick_9">
     <g id="line2d_17">
      <path clip-path="url(#p9ea033cb9e)" d="M 554.535 317.72 
L 554.535 10.8 
" style="fill:none;stroke:#e5e7eb;stroke-dasharray:3.7,1.6;stroke-dashoffset:0;"/>
     </g>
     <g id="line2d_18">
      <g>
       <use style="stroke:#000000;stroke-width:0.8;" x="554.535" xlink:href="#m15bcfdf54a" y="317.72"/>
      </g>
     </g>
     <g id="text_9">
      <!-- 20.0 -->
      <g transform="translate(543.881094 331.993437)scale(0.1 -0.1)">
       <use xlink:href="#Inter-Regular-32"/>
       <use x="60.511383" xlink:href="#Inter-Regular-30"/>
       <use x="123.011398" xlink:href="#Inter-Regular-2e"/>
       <use x="150.568222" xlink:href="#Inter-Regular-30"/>
      </g>
     </g>
    </g>
   </g>
   <g id="matplotlib.axis_2">
    <g id="ytick_1">
     <g id="line2d_19">
      <path clip-path="url(#p9ea033cb9e)" d="M 30.13 301.807117 
L 554.535 301.807117 
" style="fill:none;stroke:#e5e7eb;stroke-dasharray:3.7,1.6;stroke-dashoffset:0;"/>
     </g>
     <g id="line2d_20">
      <defs>
       <path d="M 0 0 
L -3.5 0 
" id="m21e98181d3" style="stroke:#000000;stroke-width:0.8;"/>
      </defs>
      <g>
       <use style="stroke:#000000;stroke-width:0.8;" x="30.13" xlink:href="#m21e98181d3" y="301.807117"/>
      </g>
     </g>
     <g id="text_10">
      <!-- 0 -->
      <g transform="translate(16.88 305.443836)scale(0.1 -0.1)">
       <use xlink:href="#Inter-Regular-30"/>
      </g>
     </g>
    </g>
    <g id="ytick_2">
     <g id="line2d_21">
      <path clip-path="url(#p9ea033cb9e)" d="M 30.13 242.651896 
L 554.535 242.651896 
" style="fill:none;stroke:#e5e7eb;stroke-dasharray:3.7,1.6;stroke-dashoffset:0;"/>
     </g>
     <g id="line2d_22">
      <g>
       <use style="stroke:#000000;stroke-width:0.8;" x="30.13" xlink:href="#m21e98181d3" y="242.651896"/>
      </g>
     </g>
     <g id="text_11">
      <!-- 5 -->
      <g transform="translate(17.050313 246.288615)scale(0.1 -0.1)">
       <use xlink:href="#Inter-Regular-35"/>
      </g>
     </g>
    </g>
    <g id="ytick_3">
     <g id="line2d_23">
      <path clip-path="url(#p9ea033cb9e)" d="M 30.13 183.496676 
L 554.535 183.496676 
" style="fill:none;stroke:#e5e7eb;stroke-dasharray:3.7,1.6;stroke-dashoffset:0;"/>
     </g>
     <g id="line2d_24">
      <g>
       <use style="stroke:#000000;stroke-width:0.8;" x="30.13" xlink:href="#m21e98181d3" y="183.496676"/>
      </g>
     </g>
     <g id="text_12">
      <!-- 10 -->
      <g transform="translate(12.234688 187.133395)scale(0.1 -0.1)">
       <use xlink:href="#Inter-Regular-31"/>
       <use x="46.448868" xlink:href="#Inter-Regular-30"/>
      </g>
     </g>
    </g>
    <g id="ytick_4">
     <g id="line2d_25">
      <path clip-path="url(#p9ea033cb9e)" d="M 30.13 124.341455 
L 554.535 124.341455 
" style="fill:none;stroke:#e5e7eb;stroke-dasharray:3.7,1.6;stroke-dashoffset:0;"/>
     </g>
     <g id="line2d_26">
      <g>
       <use style="stroke:#000000;stroke-width:0.8;" x="30.13" xlink:href="#m21e98181d3" y="124.341455"/>
      </g>
     </g>
     <g id="text_13">
      <!-- 15 -->
      <g transform="translate(12.405 127.978174)scale(0.1 -0.1)">
       <use xlink:href="#Inter-Regular-31"/>
       <use x="46.448868" xlink:href="#Inter-Regular-35"/>
      </g>
     </g>
    </g>
    <g id="ytick_5">
     <g id="line2d_27">
      <path clip-path="url(#p9ea033cb9e)" d="M 30.13 65.186235 
L 554.535 65.186235 
" style="fill:none;stroke:#e5e7eb;stroke-dasharray:3.7,1.6;stroke-dashoffset:0;"/>
     </g>
     <g id="line2d_28">
      <g>
       <use style="stroke:#000000;stroke-width:0.8;" x="30.13" xlink:href="#m21e98181d3" y="65.186235"/>
      </g>
     </g>
     <g id="text_14">
      <!-- 20 -->
      <g transform="translate(10.828438 68.822953)scale(0.1 -0.1)">
       <use xlink:href="#Inter-Regular-32"/>
       <use x="60.511383" xlink:href="#Inter-Regular-30"/>
      </g>
     </g>
    </g>
   </g>
   <g id="line2d_29">
    <path clip-path="url(#p9ea033cb9e)" d="M 30.13 106.482649 
L 103.704022 104.967553 
L 111.91096 104.096218 
L 125.021085 164.310146 
L 129.032783 195.221292 
L 133.228023 223.28444 
L 137.239721 246.044063 
L 143.794784 270.015942 
L 154.807289 290.449076 
L 177.225602 292.239633 
L 188.238107 273.576997 
L 193.482157 257.360831 
L 201.531774 218.43197 
L 205.727014 193.157305 
L 213.278446 139.05324 
L 219.833509 112.02338 
L 229.535001 112.643876 
L 233.730241 112.84923 
L 240.285304 140.461601 
L 247.836736 194.82333 
L 252.031976 220.139208 
L 260.081593 258.943269 
L 265.325643 275.044348 
L 276.338148 293.277332 
L 298.756461 288.853948 
L 309.768966 266.247132 
L 316.324029 238.467942 
L 320.335727 210.866884 
L 324.530967 176.585745 
L 328.542665 138.624123 
L 341.65279 121.166033 
L 345.664489 151.966226 
L 349.859729 181.055762 
L 353.871427 205.889307 
L 359.115477 226.04528 
L 423.43375 289.895141 
L 487.752023 209.438706 
L 492.996073 186.024573 
L 497.007772 156.863336 
L 501.203012 122.814011 
L 505.21471 86.855915 
L 518.324835 106.607375 
L 522.336533 150.767373 
L 526.531773 190.857569 
L 530.543471 223.370072 
L 537.098534 256.270072 
L 548.111039 283.831077 
L 570.529352 295.795532 
L 577 286.552671 
L 577 286.552671 
" style="fill:none;stroke:#ef4444;stroke-linecap:square;stroke-width:1.5;"/>
   </g>
   <g id="line2d_30">
    <path clip-path="url(#p9ea033cb9e)" d="M 30.13 258.027754 
L 103.704022 231.804824 
L 107.899261 228.791913 
L 111.91096 225.757667 
L 125.021085 182.247926 
L 129.032783 154.187172 
L 133.228023 121.628637 
L 137.239721 87.421194 
L 143.794784 55.976113 
L 154.807289 52.723346 
L 177.225602 55.092066 
L 188.238107 60.605099 
L 193.482157 80.4645 
L 201.531774 132.443842 
L 205.727014 156.726586 
L 213.278446 195.587683 
L 219.833509 210.351696 
L 226.781875 210.229825 
L 233.730241 209.892991 
L 240.285304 194.577235 
L 247.836736 154.767714 
L 252.031976 129.86152 
L 260.081593 76.492823 
L 265.325643 55.928521 
L 276.338148 49.595844 
L 298.756461 45.758096 
L 309.768966 48.42874 
L 316.324029 87.556372 
L 320.335727 129.659392 
L 324.530967 168.730241 
L 328.542665 201.350218 
L 341.65279 237.371405 
L 345.664489 233.640626 
L 349.859729 229.521068 
L 353.871427 225.37319 
L 359.115477 227.391833 
L 423.43375 286.866595 
L 487.752023 233.301993 
L 492.996073 231.227166 
L 497.007772 234.928707 
L 501.203012 238.590911 
L 505.21471 241.893335 
L 518.324835 208.821454 
L 522.336533 179.143416 
L 526.531773 143.652118 
L 530.543471 105.453048 
L 537.098534 69.600788 
L 548.111039 65.837897 
L 570.529352 66.623667 
L 577 69.275197 
L 577 69.275197 
" style="fill:none;stroke:#1d4ed8;stroke-linecap:square;stroke-width:1.5;"/>
   </g>
   <g id="line2d_31">
    <path clip-path="url(#p9ea033cb9e)" d="M 30.13 302.809592 
L 111.91096 302.686197 
L 133.228023 302.325969 
L 154.807289 301.920588 
L 177.225602 291.65338 
L 188.238107 281.68321 
L 193.482157 276.125718 
L 213.278446 251.830207 
L 219.833509 247.752819 
L 233.730241 247.740199 
L 240.285304 251.806933 
L 260.081593 276.074866 
L 265.325643 281.623065 
L 276.338148 291.569303 
L 298.756461 301.788103 
L 341.65279 302.358255 
L 359.115477 302.233912 
L 501.203012 302.306035 
L 505.21471 302.337969 
L 526.531773 302.12479 
L 548.111039 301.808618 
L 570.529352 291.616176 
L 577 285.779695 
L 577 285.779695 
" style="fill:none;stroke:#10b981;stroke-linecap:square;stroke-width:1.5;"/>
   </g>
   <g id="patch_3">
    <path d="M 30.13 317.72 
L 30.13 10.8 
" style="fill:none;stroke:#000000;stroke-linecap:square;stroke-linejoin:miter;stroke-width:0.8;"/>
   </g>
   <g id="patch_4">
    <path d="M 554.535 317.72 
L 554.535 10.8 
" style="fill:none;stroke:#000000;stroke-linecap:square;stroke-linejoin:miter;stroke-width:0.8;"/>
   </g>
   <g id="patch_5">
    <path d="M 30.13 317.72 
L 554.535 317.72 
" style="fill:none;stroke:#000000;stroke-linecap:square;stroke-linejoin:miter;stroke-width:0.8;"/>
   </g>
   <g id="patch_6">
    <path d="M 30.13 10.8 
L 554.535 10.8 
" style="fill:none;stroke:#000000;stroke-linecap:square;stroke-linejoin:miter;stroke-width:0.8;"/>
   </g>
  </g>
 </g>
 <defs>
  <clipPath id="p9ea033cb9e">
   <rect height="306.92" width="524.405" x="30.13" y="10.8"/>
  </clipPath>
 </defs>
</svg>
