<?xml version="1.0" encoding="utf-8" standalone="no"?>
<!DOCTYPE svg PUBLIC "-//W3C//DTD SVG 1.1//EN"
  "http://www.w3.org/Graphics/SVG/1.1/DTD/svg11.dtd">
<svg height="345.6pt" version="1.1" viewBox="0 0 576 345.6" width="576pt" xmlns="http://www.w3.org/2000/svg" xmlns:xlink="http://www.w3.org/1999/xlink">
 <metadata>
  <rdf:RDF xmlns:cc="http://creativecommons.org/ns#" xmlns:dc="http://purl.org/dc/elements/1.1/" xmlns:rdf="http://www.w3.org/1999/02/22-rdf-syntax-ns#">
   <cc:Work>
    <dc:type rdf:resource="http://purl.org/dc/dcmitype/StillImage"/>
    <dc:date>2021-06-06T23:11:05.670374</dc:date>
    <dc:format>image/svg+xml</dc:format>
    <dc:creator>
     <cc:Agent>
      <dc:title>Matplotlib v3.4.2, https://matplotlib.org/</dc:title>
     </cc:Agent>
    </dc:creator>
   </cc:Work>
  </rdf:RDF>
 </metadata>
 <defs>
  <style type="text/css">*{stroke-linecap:butt;stroke-linejoin:round;}</style>
 </defs>
 <g id="figure_1">
  <g id="patch_1">
   <path d="M 0 345.6 
L 576 345.6 
L 576 0 
L 0 0 
z
" style="fill:#ffffff;"/>
  </g>
  <g id="axes_1">
   <g id="patch_2">
    <path d="M 30.13 301.48 
L 554.4 301.48 
L 554.4 51.0736 
L 30.13 51.0736 
z
" style="fill:#ffffff;"/>
   </g>
   <g id="matplotlib.axis_1">
    <g id="xtick_1">
     <g id="line2d_1">
      <path clip-path="url(#pf63e46f5e2)" d="M 30.13 301.48 
L 30.13 51.0736 
" style="fill:none;stroke:#e5e7eb;stroke-dasharray:3.7,1.6;stroke-dashoffset:0;"/>
     </g>
     <g id="line2d_2">
      <defs>
       <path d="M 0 0 
L 0 3.5 
" id="mfe8f087014" style="stroke:#000000;stroke-width:0.8;"/>
      </defs>
      <g>
       <use style="stroke:#000000;stroke-width:0.8;" x="30.13" xlink:href="#mfe8f087014" y="301.48"/>
      </g>
     </g>
     <g id="text_1">
      <!-- 0.0 -->
      <g transform="translate(22.501875 315.753437)scale(0.1 -0.1)">
       <defs>
        <path d="M 2000 -64 
C 3027 -64 3618 807 3618 2327 
C 3618 3836 3018 4718 2000 4718 
C 982 4718 382 3836 382 2327 
C 382 807 973 -64 2000 -64 
z
M 2000 436 
C 1323 436 927 1116 927 2327 
C 927 3536 1327 4227 2000 4227 
C 2673 4227 3073 3536 3073 2327 
C 3073 1116 2677 436 2000 436 
z
" id="Inter-Regular-30" transform="scale(0.015625)"/>
        <path d="M 882 -36 
C 1107 -36 1291 148 1291 373 
C 1291 598 1107 782 882 782 
C 657 782 473 598 473 373 
C 473 148 657 -36 882 -36 
z
" id="Inter-Regular-2e" transform="scale(0.015625)"/>
       </defs>
       <use xlink:href="#Inter-Regular-30"/>
       <use x="62.500015" xlink:href="#Inter-Regular-2e"/>
       <use x="90.056839" xlink:href="#Inter-Regular-30"/>
      </g>
     </g>
    </g>
    <g id="xtick_2">
     <g id="line2d_3">
      <path clip-path="url(#pf63e46f5e2)" d="M 110.430688 301.48 
L 110.430688 51.0736 
" style="fill:none;stroke:#e5e7eb;stroke-dasharray:3.7,1.6;stroke-dashoffset:0;"/>
     </g>
     <g id="line2d_4">
      <g>
       <use style="stroke:#000000;stroke-width:0.8;" x="110.430688" xlink:href="#mfe8f087014" y="301.48"/>
      </g>
     </g>
     <g id="text_2">
      <!-- 4.6 -->
      <g transform="translate(102.724438 315.753437)scale(0.1 -0.1)">
       <defs>
        <path d="M 373 955 
L 2564 955 
L 2564 0 
L 3100 0 
L 3100 955 
L 3736 955 
L 3736 1455 
L 3100 1455 
L 3100 4655 
L 2418 4655 
L 373 1418 
L 373 955 
z
M 982 1455 
L 982 1491 
L 2527 3936 
L 2564 3936 
L 2564 1455 
L 982 1455 
z
" id="Inter-Regular-34" transform="scale(0.015625)"/>
        <path d="M 2027 -64 
C 2968 -75 3582 634 3582 1500 
C 3582 2400 2916 3045 2118 3045 
C 1639 3045 1227 2811 973 2427 
L 936 2427 
C 939 3570 1380 4227 2100 4227 
C 2591 4227 2886 3918 2991 3491 
L 3546 3491 
C 3432 4223 2882 4727 2100 4727 
C 1052 4727 409 3800 409 2145 
C 409 425 1264 -55 2027 -64 
z
M 2027 436 
C 1443 436 1016 934 1018 1491 
C 1021 2048 1468 2545 2046 2545 
C 2616 2545 3036 2077 3036 1500 
C 3036 909 2598 436 2027 436 
z
" id="Inter-Regular-36" transform="scale(0.015625)"/>
       </defs>
       <use xlink:href="#Inter-Regular-34"/>
       <use x="64.204559" xlink:href="#Inter-Regular-2e"/>
       <use x="91.761383" xlink:href="#Inter-Regular-36"/>
      </g>
     </g>
    </g>
    <g id="xtick_3">
     <g id="line2d_5">
      <path clip-path="url(#pf63e46f5e2)" d="M 161.1975 301.48 
L 161.1975 51.0736 
" style="fill:none;stroke:#e5e7eb;stroke-dasharray:3.7,1.6;stroke-dashoffset:0;"/>
     </g>
     <g id="line2d_6">
      <g>
       <use style="stroke:#000000;stroke-width:0.8;" x="161.1975" xlink:href="#mfe8f087014" y="301.48"/>
      </g>
     </g>
     <g id="text_3">
      <!-- 7.5 -->
      <g transform="translate(153.924062 315.753437)scale(0.1 -0.1)">
       <defs>
        <path d="M 627 0 
L 1218 0 
L 3291 4127 
L 3291 4655 
L 309 4655 
L 309 4155 
L 2709 4155 
L 2709 4118 
L 627 0 
z
" id="Inter-Regular-37" transform="scale(0.015625)"/>
        <path d="M 1936 -64 
C 2823 -64 3473 591 3473 1482 
C 3473 2384 2846 3045 1991 3045 
C 1677 3045 1373 2934 1182 2782 
L 1155 2782 
L 1318 4155 
L 3264 4155 
L 3264 4655 
L 846 4655 
L 564 2364 
L 1091 2300 
C 1284 2439 1614 2539 1900 2536 
C 2493 2532 2927 2082 2927 1473 
C 2927 875 2509 436 1936 436 
C 1459 436 1080 743 1036 1164 
L 491 1164 
C 525 455 1136 -64 1936 -64 
z
" id="Inter-Regular-35" transform="scale(0.015625)"/>
       </defs>
       <use xlink:href="#Inter-Regular-37"/>
       <use x="57.10228" xlink:href="#Inter-Regular-2e"/>
       <use x="84.659103" xlink:href="#Inter-Regular-35"/>
      </g>
     </g>
    </g>
    <g id="xtick_4">
     <g id="line2d_7">
      <path clip-path="url(#pf63e46f5e2)" d="M 211.964312 301.48 
L 211.964312 51.0736 
" style="fill:none;stroke:#e5e7eb;stroke-dasharray:3.7,1.6;stroke-dashoffset:0;"/>
     </g>
     <g id="line2d_8">
      <g>
       <use style="stroke:#000000;stroke-width:0.8;" x="211.964312" xlink:href="#mfe8f087014" y="301.48"/>
      </g>
     </g>
     <g id="text_4">
      <!-- 10.4 -->
      <g transform="translate(201.928374 315.753437)scale(0.1 -0.1)">
       <defs>
        <path d="M 2118 4655 
L 1555 4655 
L 391 3882 
L 391 3309 
L 1527 4064 
L 1555 4064 
L 1555 0 
L 2118 0 
L 2118 4655 
z
" id="Inter-Regular-31" transform="scale(0.015625)"/>
       </defs>
       <use xlink:href="#Inter-Regular-31"/>
       <use x="46.448868" xlink:href="#Inter-Regular-30"/>
       <use x="108.948883" xlink:href="#Inter-Regular-2e"/>
       <use x="136.505707" xlink:href="#Inter-Regular-34"/>
      </g>
     </g>
    </g>
    <g id="xtick_5">
     <g id="line2d_9">
      <path clip-path="url(#pf63e46f5e2)" d="M 292.265 301.48 
L 292.265 51.0736 
" style="fill:none;stroke:#e5e7eb;stroke-dasharray:3.7,1.6;stroke-dashoffset:0;"/>
     </g>
     <g id="line2d_10">
      <g>
       <use style="stroke:#000000;stroke-width:0.8;" x="292.265" xlink:href="#mfe8f087014" y="301.48"/>
      </g>
     </g>
     <g id="text_5">
      <!-- 15.0 -->
      <g transform="translate(282.399375 315.753437)scale(0.1 -0.1)">
       <use xlink:href="#Inter-Regular-31"/>
       <use x="46.448868" xlink:href="#Inter-Regular-35"/>
       <use x="107.244339" xlink:href="#Inter-Regular-2e"/>
       <use x="134.801163" xlink:href="#Inter-Regular-30"/>
      </g>
     </g>
    </g>
    <g id="xtick_6">
     <g id="line2d_11">
      <path clip-path="url(#pf63e46f5e2)" d="M 372.565688 301.48 
L 372.565688 51.0736 
" style="fill:none;stroke:#e5e7eb;stroke-dasharray:3.7,1.6;stroke-dashoffset:0;"/>
     </g>
     <g id="line2d_12">
      <g>
       <use style="stroke:#000000;stroke-width:0.8;" x="372.565688" xlink:href="#mfe8f087014" y="301.48"/>
      </g>
     </g>
     <g id="text_6">
      <!-- 19.6 -->
      <g transform="translate(362.62897 315.753437)scale(0.1 -0.1)">
       <defs>
        <path d="M 1964 4727 
C 1018 4736 409 4027 409 3164 
C 409 2264 1073 1618 1873 1618 
C 2355 1618 2764 1855 3018 2236 
L 3055 2236 
C 3055 1091 2609 436 1891 436 
C 1400 436 1100 745 1000 1173 
L 446 1173 
C 555 436 1109 -64 1891 -64 
C 2936 -64 3582 864 3582 2518 
C 3582 4236 2727 4718 1964 4727 
z
M 1964 4227 
C 2546 4227 2973 3727 2973 3173 
C 2973 2618 2518 2118 1946 2118 
C 1373 2118 955 2582 955 3164 
C 955 3755 1391 4227 1964 4227 
z
" id="Inter-Regular-39" transform="scale(0.015625)"/>
       </defs>
       <use xlink:href="#Inter-Regular-31"/>
       <use x="46.448868" xlink:href="#Inter-Regular-39"/>
       <use x="108.806839" xlink:href="#Inter-Regular-2e"/>
       <use x="136.363663" xlink:href="#Inter-Regular-36"/>
      </g>
     </g>
    </g>
    <g id="xtick_7">
     <g id="line2d_13">
      <path clip-path="url(#pf63e46f5e2)" d="M 423.3325 301.48 
L 423.3325 51.0736 
" style="fill:none;stroke:#e5e7eb;stroke-dasharray:3.7,1.6;stroke-dashoffset:0;"/>
     </g>
     <g id="line2d_14">
      <g>
       <use style="stroke:#000000;stroke-width:0.8;" x="423.3325" xlink:href="#mfe8f087014" y="301.48"/>
      </g>
     </g>
     <g id="text_7">
      <!-- 22.5 -->
      <g transform="translate(412.862969 315.753437)scale(0.1 -0.1)">
       <defs>
        <path d="M 482 0 
L 3418 0 
L 3418 500 
L 1255 500 
L 1255 536 
L 2300 1655 
C 3100 2511 3336 2911 3336 3427 
C 3336 4145 2755 4718 1936 4718 
C 1121 4718 500 4164 500 3345 
L 1036 3345 
C 1036 3875 1380 4227 1918 4227 
C 2423 4227 2809 3918 2809 3427 
C 2809 2998 2557 2680 2018 2091 
L 482 409 
L 482 0 
z
" id="Inter-Regular-32" transform="scale(0.015625)"/>
       </defs>
       <use xlink:href="#Inter-Regular-32"/>
       <use x="60.511383" xlink:href="#Inter-Regular-32"/>
       <use x="121.022766" xlink:href="#Inter-Regular-2e"/>
       <use x="148.57959" xlink:href="#Inter-Regular-35"/>
      </g>
     </g>
    </g>
    <g id="xtick_8">
     <g id="line2d_15">
      <path clip-path="url(#pf63e46f5e2)" d="M 474.099312 301.48 
L 474.099312 51.0736 
" style="fill:none;stroke:#e5e7eb;stroke-dasharray:3.7,1.6;stroke-dashoffset:0;"/>
     </g>
     <g id="line2d_16">
      <g>
       <use style="stroke:#000000;stroke-width:0.8;" x="474.099312" xlink:href="#mfe8f087014" y="301.48"/>
      </g>
     </g>
     <g id="text_8">
      <!-- 25.4 -->
      <g transform="translate(463.445405 315.753437)scale(0.1 -0.1)">
       <use xlink:href="#Inter-Regular-32"/>
       <use x="60.511383" xlink:href="#Inter-Regular-35"/>
       <use x="121.306854" xlink:href="#Inter-Regular-2e"/>
       <use x="148.863678" xlink:href="#Inter-Regular-34"/>
      </g>
     </g>
    </g>
    <g id="xtick_9">
     <g id="line2d_17">
      <path clip-path="url(#pf63e46f5e2)" d="M 554.4 301.48 
L 554.4 51.0736 
" style="fill:none;stroke:#e5e7eb;stroke-dasharray:3.7,1.6;stroke-dashoffset:0;"/>
     </g>
     <g id="line2d_18">
      <g>
       <use style="stroke:#000000;stroke-width:0.8;" x="554.4" xlink:href="#mfe8f087014" y="301.48"/>
      </g>
     </g>
     <g id="text_9">
      <!-- 30.0 -->
      <g transform="translate(543.589844 315.753437)scale(0.1 -0.1)">
       <defs>
        <path d="M 2055 -64 
C 2957 -64 3627 502 3627 1264 
C 3627 1855 3277 2284 2691 2382 
L 2691 2418 
C 3161 2561 3455 2948 3455 3473 
C 3455 4132 2934 4718 2073 4718 
C 1268 4718 600 4223 573 3491 
L 1118 3491 
C 1139 3955 1580 4227 2064 4227 
C 2577 4227 2909 3916 2909 3445 
C 2909 2955 2525 2636 1973 2636 
L 1600 2636 
L 1600 2136 
L 1973 2136 
C 2680 2136 3073 1777 3073 1264 
C 3073 770 2643 436 2046 436 
C 1507 436 1080 714 1046 1164 
L 473 1164 
C 507 432 1152 -64 2055 -64 
z
" id="Inter-Regular-33" transform="scale(0.015625)"/>
       </defs>
       <use xlink:href="#Inter-Regular-33"/>
       <use x="63.636383" xlink:href="#Inter-Regular-30"/>
       <use x="126.136398" xlink:href="#Inter-Regular-2e"/>
       <use x="153.693222" xlink:href="#Inter-Regular-30"/>
      </g>
     </g>
    </g>
    <g id="text_10">
     <!-- Orbit Position $s$ / m -->
     <g transform="translate(247.215 329.072187)scale(0.1 -0.1)">
      <defs>
       <path d="M 4491 2327 
C 4491 3800 3627 4718 2436 4718 
C 1246 4718 382 3800 382 2327 
C 382 855 1246 -64 2436 -64 
C 3627 -64 4491 855 4491 2327 
z
M 3946 2327 
C 3946 1118 3282 464 2436 464 
C 1591 464 927 1118 927 2327 
C 927 3536 1591 4191 2436 4191 
C 3282 4191 3946 3536 3946 2327 
z
" id="Inter-Regular-4f" transform="scale(0.015625)"/>
       <path d="M 491 0 
L 1027 0 
L 1027 2209 
C 1027 2682 1400 3027 1909 3027 
C 2052 3027 2200 3000 2236 2991 
L 2236 3536 
C 2175 3541 2034 3545 1955 3545 
C 1536 3545 1173 3309 1046 2964 
L 1009 2964 
L 1009 3491 
L 491 3491 
L 491 0 
z
" id="Inter-Regular-72" transform="scale(0.015625)"/>
       <path d="M 564 0 
L 1082 0 
L 1082 536 
L 1146 536 
C 1264 345 1491 -73 2164 -73 
C 3036 -73 3646 627 3646 1736 
C 3646 2836 3036 3536 2155 3536 
C 1473 3536 1264 3118 1146 2936 
L 1100 2936 
L 1100 4655 
L 564 4655 
L 564 0 
z
M 1091 1745 
C 1091 2527 1436 3055 2091 3055 
C 2773 3055 3109 2482 3109 1745 
C 3109 1000 2764 409 2091 409 
C 1446 409 1091 955 1091 1745 
z
" id="Inter-Regular-62" transform="scale(0.015625)"/>
       <path d="M 764 4073 
C 973 4073 1146 4236 1146 4436 
C 1146 4636 973 4800 764 4800 
C 555 4800 382 4636 382 4436 
C 382 4236 555 4073 764 4073 
z
M 491 0 
L 1027 0 
L 1027 3491 
L 491 3491 
L 491 0 
z
" id="Inter-Regular-69" transform="scale(0.015625)"/>
       <path d="M 2009 3491 
L 1264 3491 
L 1264 4327 
L 727 4327 
L 727 3491 
L 200 3491 
L 200 3036 
L 727 3036 
L 727 855 
C 727 245 1218 -45 1673 -45 
C 1873 -45 2000 -9 2073 18 
L 1964 500 
C 1918 491 1846 473 1727 473 
C 1491 473 1264 545 1264 1000 
L 1264 3036 
L 2009 3036 
L 2009 3491 
z
" id="Inter-Regular-74" transform="scale(0.015625)"/>
       <path id="Inter-Regular-20" transform="scale(0.015625)"/>
       <path d="M 564 0 
L 1127 0 
L 1127 1700 
L 2146 1700 
C 3230 1700 3718 2359 3718 3182 
C 3718 4005 3230 4655 2136 4655 
L 564 4655 
L 564 0 
z
M 2118 4155 
C 2875 4155 3164 3741 3164 3182 
C 3164 2623 2875 2200 2127 2200 
L 1127 2200 
L 1127 4155 
L 2118 4155 
z
" id="Inter-Regular-50" transform="scale(0.015625)"/>
       <path d="M 1909 -73 
C 2855 -73 3491 645 3491 1727 
C 3491 2818 2855 3536 1909 3536 
C 964 3536 327 2818 327 1727 
C 327 645 964 -73 1909 -73 
z
M 1909 409 
C 1191 409 864 1027 864 1727 
C 864 2427 1191 3055 1909 3055 
C 2627 3055 2955 2427 2955 1727 
C 2955 1027 2627 409 1909 409 
z
" id="Inter-Regular-6f" transform="scale(0.015625)"/>
       <path d="M 2964 2709 
C 2796 3205 2418 3536 1727 3536 
C 991 3536 446 3118 446 2527 
C 446 2045 732 1723 1373 1573 
L 1955 1436 
C 2307 1355 2473 1186 2473 945 
C 2473 645 2155 400 1655 400 
C 1216 400 941 589 846 964 
L 336 836 
C 461 243 950 -73 1664 -73 
C 2475 -73 3027 370 3027 973 
C 3027 1459 2723 1766 2100 1918 
L 1582 2045 
C 1168 2148 982 2286 982 2555 
C 982 2855 1300 3073 1727 3073 
C 2196 3073 2389 2814 2482 2573 
L 2964 2709 
z
" id="Inter-Regular-73" transform="scale(0.015625)"/>
       <path d="M 1027 2100 
C 1027 2709 1405 3055 1918 3055 
C 2416 3055 2718 2730 2718 2182 
L 2718 0 
L 3255 0 
L 3255 2218 
C 3255 3109 2780 3536 2073 3536 
C 1546 3536 1218 3300 1055 2945 
L 1009 2945 
L 1009 3491 
L 491 3491 
L 491 0 
L 1027 0 
L 1027 2100 
z
" id="Inter-Regular-6e" transform="scale(0.015625)"/>
       <path d="M 3200 3397 
L 3091 2853 
Q 2863 2978 2609 3040 
Q 2356 3103 2088 3103 
Q 1634 3103 1373 2948 
Q 1113 2794 1113 2528 
Q 1113 2219 1719 2053 
Q 1766 2041 1788 2034 
L 1972 1978 
Q 2547 1819 2739 1644 
Q 2931 1469 2931 1166 
Q 2931 609 2489 259 
Q 2047 -91 1331 -91 
Q 1053 -91 747 -37 
Q 441 16 72 128 
L 184 722 
Q 500 559 806 475 
Q 1113 391 1394 391 
Q 1816 391 2080 572 
Q 2344 753 2344 1031 
Q 2344 1331 1650 1516 
L 1591 1531 
L 1394 1581 
Q 956 1697 753 1886 
Q 550 2075 550 2369 
Q 550 2928 970 3256 
Q 1391 3584 2113 3584 
Q 2397 3584 2667 3537 
Q 2938 3491 3200 3397 
z
" id="DejaVuSans-Oblique-73" transform="scale(0.015625)"/>
       <path d="M 2136 4873 
L 1646 4873 
L 146 -700 
L 636 -700 
L 2136 4873 
z
" id="Inter-Regular-2f" transform="scale(0.015625)"/>
       <path d="M 491 0 
L 1027 0 
L 1027 2182 
C 1027 2693 1400 3055 1818 3055 
C 2225 3055 2509 2789 2509 2391 
L 2509 0 
L 3055 0 
L 3055 2273 
C 3055 2723 3336 3055 3827 3055 
C 4209 3055 4536 2852 4536 2336 
L 4536 0 
L 5073 0 
L 5073 2336 
C 5073 3157 4632 3536 4009 3536 
C 3509 3536 3143 3307 2964 2945 
L 2927 2945 
C 2755 3318 2450 3536 1991 3536 
C 1536 3536 1200 3318 1055 2945 
L 1009 2945 
L 1009 3491 
L 491 3491 
L 491 0 
z
" id="Inter-Regular-6d" transform="scale(0.015625)"/>
      </defs>
      <use transform="translate(0 0.859375)" xlink:href="#Inter-Regular-4f"/>
      <use transform="translate(76.136383 0.859375)" xlink:href="#Inter-Regular-72"/>
      <use transform="translate(113.352295 0.859375)" xlink:href="#Inter-Regular-62"/>
      <use transform="translate(175.426178 0.859375)" xlink:href="#Inter-Regular-69"/>
      <use transform="translate(199.147766 0.859375)" xlink:href="#Inter-Regular-74"/>
      <use transform="translate(235.511414 0.859375)" xlink:href="#Inter-Regular-20"/>
      <use transform="translate(263.636414 0.859375)" xlink:href="#Inter-Regular-50"/>
      <use transform="translate(327.130737 0.859375)" xlink:href="#Inter-Regular-6f"/>
      <use transform="translate(386.789841 0.859375)" xlink:href="#Inter-Regular-73"/>
      <use transform="translate(439.062576 0.859375)" xlink:href="#Inter-Regular-69"/>
      <use transform="translate(462.784164 0.859375)" xlink:href="#Inter-Regular-74"/>
      <use transform="translate(499.147812 0.859375)" xlink:href="#Inter-Regular-69"/>
      <use transform="translate(522.8694 0.859375)" xlink:href="#Inter-Regular-6f"/>
      <use transform="translate(582.528503 0.859375)" xlink:href="#Inter-Regular-6e"/>
      <use transform="translate(641.051239 0.859375)" xlink:href="#Inter-Regular-20"/>
      <use transform="translate(669.176239 0.859375)" xlink:href="#DejaVuSans-Oblique-73"/>
      <use transform="translate(721.275848 0.859375)" xlink:href="#Inter-Regular-20"/>
      <use transform="translate(749.400848 0.859375)" xlink:href="#Inter-Regular-2f"/>
      <use transform="translate(785.05426 0.859375)" xlink:href="#Inter-Regular-20"/>
      <use transform="translate(813.17926 0.859375)" xlink:href="#Inter-Regular-6d"/>
     </g>
    </g>
   </g>
   <g id="matplotlib.axis_2">
    <g id="ytick_1">
     <g id="line2d_19">
      <path clip-path="url(#pf63e46f5e2)" d="M 30.13 290.639794 
L 554.4 290.639794 
" style="fill:none;stroke:#e5e7eb;stroke-dasharray:3.7,1.6;stroke-dashoffset:0;"/>
     </g>
     <g id="line2d_20">
      <defs>
       <path d="M 0 0 
L -3.5 0 
" id="m15c14002c5" style="stroke:#000000;stroke-width:0.8;"/>
      </defs>
      <g>
       <use style="stroke:#000000;stroke-width:0.8;" x="30.13" xlink:href="#m15c14002c5" y="290.639794"/>
      </g>
     </g>
     <g id="text_11">
      <!-- 0 -->
      <g transform="translate(16.88 294.276513)scale(0.1 -0.1)">
       <use xlink:href="#Inter-Regular-30"/>
      </g>
     </g>
    </g>
    <g id="ytick_2">
     <g id="line2d_21">
      <path clip-path="url(#pf63e46f5e2)" d="M 30.13 241.463904 
L 554.4 241.463904 
" style="fill:none;stroke:#e5e7eb;stroke-dasharray:3.7,1.6;stroke-dashoffset:0;"/>
     </g>
     <g id="line2d_22">
      <g>
       <use style="stroke:#000000;stroke-width:0.8;" x="30.13" xlink:href="#m15c14002c5" y="241.463904"/>
      </g>
     </g>
     <g id="text_12">
      <!-- 5 -->
      <g transform="translate(17.050313 245.100623)scale(0.1 -0.1)">
       <use xlink:href="#Inter-Regular-35"/>
      </g>
     </g>
    </g>
    <g id="ytick_3">
     <g id="line2d_23">
      <path clip-path="url(#pf63e46f5e2)" d="M 30.13 192.288015 
L 554.4 192.288015 
" style="fill:none;stroke:#e5e7eb;stroke-dasharray:3.7,1.6;stroke-dashoffset:0;"/>
     </g>
     <g id="line2d_24">
      <g>
       <use style="stroke:#000000;stroke-width:0.8;" x="30.13" xlink:href="#m15c14002c5" y="192.288015"/>
      </g>
     </g>
     <g id="text_13">
      <!-- 10 -->
      <g transform="translate(12.234688 195.924733)scale(0.1 -0.1)">
       <use xlink:href="#Inter-Regular-31"/>
       <use x="46.448868" xlink:href="#Inter-Regular-30"/>
      </g>
     </g>
    </g>
    <g id="ytick_4">
     <g id="line2d_25">
      <path clip-path="url(#pf63e46f5e2)" d="M 30.13 143.112125 
L 554.4 143.112125 
" style="fill:none;stroke:#e5e7eb;stroke-dasharray:3.7,1.6;stroke-dashoffset:0;"/>
     </g>
     <g id="line2d_26">
      <g>
       <use style="stroke:#000000;stroke-width:0.8;" x="30.13" xlink:href="#m15c14002c5" y="143.112125"/>
      </g>
     </g>
     <g id="text_14">
      <!-- 15 -->
      <g transform="translate(12.405 146.748844)scale(0.1 -0.1)">
       <use xlink:href="#Inter-Regular-31"/>
       <use x="46.448868" xlink:href="#Inter-Regular-35"/>
      </g>
     </g>
    </g>
    <g id="ytick_5">
     <g id="line2d_27">
      <path clip-path="url(#pf63e46f5e2)" d="M 30.13 93.936235 
L 554.4 93.936235 
" style="fill:none;stroke:#e5e7eb;stroke-dasharray:3.7,1.6;stroke-dashoffset:0;"/>
     </g>
     <g id="line2d_28">
      <g>
       <use style="stroke:#000000;stroke-width:0.8;" x="30.13" xlink:href="#m15c14002c5" y="93.936235"/>
      </g>
     </g>
     <g id="text_15">
      <!-- 20 -->
      <g transform="translate(10.828438 97.572954)scale(0.1 -0.1)">
       <use xlink:href="#Inter-Regular-32"/>
       <use x="60.511383" xlink:href="#Inter-Regular-30"/>
      </g>
     </g>
    </g>
   </g>
   <g id="patch_3">
    <path d="M 30.13 301.48 
L 30.13 51.0736 
" style="fill:none;stroke:#000000;stroke-linecap:square;stroke-linejoin:miter;stroke-width:0.8;"/>
   </g>
   <g id="patch_4">
    <path d="M 554.4 301.48 
L 554.4 51.0736 
" style="fill:none;stroke:#000000;stroke-linecap:square;stroke-linejoin:miter;stroke-width:0.8;"/>
   </g>
   <g id="patch_5">
    <path d="M 30.13 301.48 
L 554.4 301.48 
" style="fill:none;stroke:#000000;stroke-linecap:square;stroke-linejoin:miter;stroke-width:0.8;"/>
   </g>
   <g id="patch_6">
    <path d="M 30.13 51.0736 
L 554.4 51.0736 
" style="fill:none;stroke:#000000;stroke-linecap:square;stroke-linejoin:miter;stroke-width:0.8;"/>
   </g>
   <g id="legend_1">
    <g id="line2d_29">
     <path d="M 39.13 22.95328 
L 59.13 22.95328 
" style="fill:none;stroke:#ef4444;stroke-linecap:square;stroke-width:1.3;"/>
    </g>
    <g id="line2d_30"/>
    <g id="text_16">
     <!-- $\beta_x$ / m -->
     <g transform="translate(67.13 26.45328)scale(0.1 -0.1)">
      <defs>
       <path d="M 872 216 
L 572 -1331 
L -6 -1331 
L 928 3478 
Q 1206 4903 2538 4903 
Q 3888 4903 3659 3700 
Q 3503 2844 2894 2531 
Q 3713 2250 3553 1416 
Q 3272 -69 1759 -66 
Q 1097 -63 872 216 
z
M 1019 966 
Q 1259 422 1875 425 
Q 2775 425 2966 1406 
Q 3138 2288 1675 2219 
L 1778 2750 
Q 2909 2731 3106 3750 
Q 3241 4438 2509 4434 
Q 1691 4434 1503 3459 
L 1019 966 
z
" id="DejaVuSans-Oblique-3b2" transform="scale(0.015625)"/>
       <path d="M 3841 3500 
L 2234 1784 
L 3219 0 
L 2559 0 
L 1819 1388 
L 531 0 
L -166 0 
L 1556 1844 
L 641 3500 
L 1300 3500 
L 1972 2234 
L 3144 3500 
L 3841 3500 
z
" id="DejaVuSans-Oblique-78" transform="scale(0.015625)"/>
      </defs>
      <use transform="translate(0 0.390625)" xlink:href="#DejaVuSans-Oblique-3b2"/>
      <use transform="translate(63.818359 -16.015625)scale(0.7)" xlink:href="#DejaVuSans-Oblique-78"/>
      <use transform="translate(107.978516 0.390625)" xlink:href="#Inter-Regular-20"/>
      <use transform="translate(136.103516 0.390625)" xlink:href="#Inter-Regular-2f"/>
      <use transform="translate(171.756927 0.390625)" xlink:href="#Inter-Regular-20"/>
      <use transform="translate(199.881927 0.390625)" xlink:href="#Inter-Regular-6d"/>
     </g>
    </g>
    <g id="line2d_31">
     <path d="M 257.065 22.95328 
L 277.065 22.95328 
" style="fill:none;stroke:#3b82f6;stroke-linecap:square;stroke-width:1.3;"/>
    </g>
    <g id="line2d_32"/>
    <g id="text_17">
     <!-- $\beta_y$ / m -->
     <g transform="translate(285.065 26.45328)scale(0.1 -0.1)">
      <defs>
       <path d="M 1588 -325 
Q 1188 -997 936 -1164 
Q 684 -1331 294 -1331 
L -159 -1331 
L -63 -850 
L 269 -850 
Q 509 -850 678 -719 
Q 847 -588 1056 -206 
L 1234 128 
L 459 3500 
L 1069 3500 
L 1650 819 
L 3256 3500 
L 3859 3500 
L 1588 -325 
z
" id="DejaVuSans-Oblique-79" transform="scale(0.015625)"/>
      </defs>
      <use transform="translate(0 0.390625)" xlink:href="#DejaVuSans-Oblique-3b2"/>
      <use transform="translate(63.818359 -16.015625)scale(0.7)" xlink:href="#DejaVuSans-Oblique-79"/>
      <use transform="translate(107.978516 0.390625)" xlink:href="#Inter-Regular-20"/>
      <use transform="translate(136.103516 0.390625)" xlink:href="#Inter-Regular-2f"/>
      <use transform="translate(171.756927 0.390625)" xlink:href="#Inter-Regular-20"/>
      <use transform="translate(199.881927 0.390625)" xlink:href="#Inter-Regular-6d"/>
     </g>
    </g>
    <g id="line2d_33">
     <path d="M 475 22.95328 
L 495 22.95328 
" style="fill:none;stroke:#10b981;stroke-linecap:square;stroke-width:1.3;"/>
    </g>
    <g id="line2d_34"/>
    <g id="text_18">
     <!-- 10 $\eta_x$ / m -->
     <g transform="translate(503 26.45328)scale(0.1 -0.1)">
      <defs>
       <path d="M 3703 2113 
L 3034 -1331 
L 2459 -1331 
L 3125 2094 
Q 3222 2591 3075 2838 
Q 2931 3084 2544 3084 
Q 2078 3084 1750 2788 
Q 1425 2491 1325 1978 
L 941 0 
L 363 0 
L 1044 3500 
L 1622 3500 
L 1516 2956 
Q 1781 3272 2094 3428 
Q 2403 3584 2769 3584 
Q 3372 3584 3609 3213 
Q 3844 2838 3703 2113 
z
" id="DejaVuSans-Oblique-3b7" transform="scale(0.015625)"/>
      </defs>
      <use transform="translate(0 0.859375)" xlink:href="#Inter-Regular-31"/>
      <use transform="translate(46.448868 0.859375)" xlink:href="#Inter-Regular-30"/>
      <use transform="translate(108.948883 0.859375)" xlink:href="#Inter-Regular-20"/>
      <use transform="translate(137.073883 0.859375)" xlink:href="#DejaVuSans-Oblique-3b7"/>
      <use transform="translate(200.452789 -15.546875)scale(0.7)" xlink:href="#DejaVuSans-Oblique-78"/>
      <use transform="translate(244.612946 0.859375)" xlink:href="#Inter-Regular-20"/>
      <use transform="translate(272.737946 0.859375)" xlink:href="#Inter-Regular-2f"/>
      <use transform="translate(308.391357 0.859375)" xlink:href="#Inter-Regular-20"/>
      <use transform="translate(336.516357 0.859375)" xlink:href="#Inter-Regular-6d"/>
     </g>
    </g>
   </g>
   <g id="line2d_35">
    <path clip-path="url(#pf63e46f5e2)" d="M 30.13 290.639896 
L 111.822818 290.535528 
L 113.214947 290.22273 
L 114.607076 289.701649 
L 116.173222 288.866934 
L 117.739368 287.769832 
L 119.305513 286.411326 
L 121.045675 284.596779 
L 122.785837 282.463032 
L 124.700014 279.750062 
L 126.614192 276.657361 
L 128.702386 272.855306 
L 130.964597 268.239068 
L 137.08108 254.318602 
L 138.828647 249.581557 
L 153.420828 207.224749 
L 154.294612 205.609432 
L 154.993638 204.68782 
L 155.692665 204.099629 
L 156.391692 203.847138 
L 158.314015 203.836612 
L 166.352822 203.931327 
L 166.877092 204.215269 
L 167.576118 204.88708 
L 168.275145 205.891538 
L 169.148928 207.608836 
L 170.022712 209.829307 
L 176.104244 227.675505 
L 185.139163 253.873143 
L 186.88673 258.066087 
L 192.996549 271.489642 
L 195.258759 275.748512 
L 197.346953 279.215868 
L 199.261131 281.998164 
L 201.175309 284.397715 
L 202.915471 286.244277 
L 204.655632 287.769813 
L 206.221778 288.866915 
L 207.787924 289.701628 
L 209.354069 290.273205 
L 210.746198 290.559948 
L 212.313825 290.639799 
L 373.957818 290.535506 
L 375.349947 290.222709 
L 376.742076 289.701628 
L 378.308222 288.866915 
L 379.874368 287.769813 
L 381.440513 286.411307 
L 383.180675 284.596762 
L 384.920837 282.463015 
L 386.835014 279.750047 
L 388.749192 276.657347 
L 390.837386 272.855293 
L 393.099597 268.239056 
L 399.21608 254.318593 
L 400.963647 249.581549 
L 415.555828 207.224745 
L 416.429612 205.609429 
L 417.128638 204.687818 
L 417.827665 204.099626 
L 418.526692 203.847136 
L 420.449015 203.836611 
L 428.487822 203.931329 
L 429.012092 204.215272 
L 429.711118 204.887083 
L 430.410145 205.891541 
L 431.283928 207.60884 
L 432.157712 209.829311 
L 438.239244 227.675511 
L 447.274163 253.873152 
L 449.02173 258.066096 
L 455.131549 271.489655 
L 457.393759 275.748526 
L 459.481953 279.215883 
L 461.396131 281.99818 
L 463.310309 284.397732 
L 465.050471 286.244295 
L 466.790632 287.769832 
L 468.356778 288.866934 
L 469.922924 289.701649 
L 471.489069 290.273226 
L 472.881198 290.55997 
L 474.448825 290.639822 
L 554.4 290.639896 
L 554.4 290.639896 
" style="fill:none;stroke:#10b981;stroke-linecap:square;stroke-width:1.3;"/>
   </g>
   <g id="line2d_36">
    <path clip-path="url(#pf63e46f5e2)" d="M 30.13 244.129566 
L 34.143682 244.019859 
L 38.157364 243.690738 
L 42.171045 243.142203 
L 46.184727 242.374254 
L 50.198409 241.386891 
L 54.386598 240.122669 
L 58.574788 238.619537 
L 62.762978 236.877498 
L 66.951167 234.896551 
L 71.139357 232.676695 
L 75.502055 230.110297 
L 79.865747 227.283994 
L 84.302382 224.144558 
L 85.160874 223.421417 
L 85.859901 222.514443 
L 86.733684 220.93065 
L 87.607468 218.825665 
L 88.481251 216.1699 
L 89.529791 212.202816 
L 90.578331 207.308077 
L 91.626871 201.386555 
L 92.850168 193.019121 
L 94.377104 180.524797 
L 96.747241 159.387821 
L 99.178543 135.747642 
L 103.265665 94.909891 
L 104.139448 89.148994 
L 104.838475 85.767533 
L 105.537502 83.519071 
L 106.061772 82.55534 
L 110.604705 75.653062 
L 119.305513 75.841546 
L 128.006322 75.806754 
L 130.964597 75.744062 
L 136.03254 84.093081 
L 136.55681 85.830271 
L 137.255837 89.074208 
L 137.954863 93.346298 
L 138.828647 100.062493 
L 142.810844 133.745541 
L 145.766486 156.611498 
L 148.552951 176.485277 
L 151.329774 194.664997 
L 152.896558 203.865456 
L 153.770342 207.635466 
L 154.469368 209.87258 
L 155.168395 211.455729 
L 155.692665 212.229098 
L 156.216935 212.655408 
L 156.741205 212.757276 
L 162.031566 212.897036 
L 166.003308 212.833217 
L 166.527578 212.534277 
L 167.051848 211.890474 
L 167.576118 210.896182 
L 168.275145 209.00979 
L 168.974172 206.455184 
L 169.847955 202.260729 
L 171.238777 193.855762 
L 173.842049 176.878908 
L 176.628514 157.1428 
L 179.411091 135.819848 
L 182.353204 111.519721 
L 184.440137 94.343016 
L 185.31392 89.208137 
L 186.012947 86.258227 
L 186.537217 84.742652 
L 187.061487 83.800566 
L 191.60442 76.999643 
L 200.305228 77.297929 
L 209.006037 77.371348 
L 211.964312 77.345086 
L 216.857498 85.299521 
L 217.381768 87.095873 
L 217.906038 89.711876 
L 218.605065 94.436962 
L 219.478848 102.231382 
L 220.527388 114.114316 
L 224.424462 162.487982 
L 226.681007 187.005938 
L 228.853451 208.126482 
L 229.894346 216.882267 
L 230.942886 223.893755 
L 231.991426 229.336247 
L 232.865209 232.824237 
L 233.738992 235.459624 
L 234.438019 237.001551 
L 235.137046 238.068815 
L 235.661316 238.568904 
L 236.185586 238.817044 
L 236.709856 238.815592 
L 237.234126 238.564535 
L 237.758396 238.061487 
L 241.480713 233.406674 
L 245.233612 228.351737 
L 246.426326 226.819553 
L 246.950596 226.522879 
L 247.474866 226.526038 
L 247.999136 226.828999 
L 248.523406 227.428901 
L 249.222433 228.680491 
L 254.450712 240.144565 
L 257.587381 246.319551 
L 260.549791 251.660816 
L 263.337941 256.252473 
L 266.126091 260.421909 
L 268.739982 263.947292 
L 271.353873 267.101582 
L 273.793504 269.710778 
L 276.233136 271.99671 
L 278.498508 273.829909 
L 280.76388 275.384377 
L 283.029252 276.660112 
L 285.120365 277.590318 
L 287.211478 278.283025 
L 289.30259 278.738232 
L 291.393703 278.95594 
L 293.484816 278.936149 
L 295.575928 278.678857 
L 297.667041 278.184067 
L 299.758154 277.451777 
L 301.849267 276.481987 
L 303.940379 275.274698 
L 306.205751 273.69879 
L 308.471123 271.84415 
L 310.736496 269.710778 
L 313.176127 267.101582 
L 315.615758 264.169123 
L 318.229649 260.668479 
L 320.84354 256.796743 
L 323.63169 252.257863 
L 326.419841 247.296763 
L 329.38225 241.562964 
L 332.34466 235.352518 
L 336.18135 227.196232 
L 336.70562 226.694819 
L 337.22989 226.491614 
L 337.75416 226.588536 
L 338.27843 226.984671 
L 338.962166 227.883938 
L 342.874531 233.179353 
L 346.604493 237.860176 
L 347.295874 238.564535 
L 347.820144 238.815592 
L 348.344414 238.817044 
L 348.868684 238.568904 
L 349.392954 238.068815 
L 350.091981 237.001551 
L 350.791008 235.459624 
L 351.490034 233.416984 
L 352.363818 230.106134 
L 353.237601 225.870873 
L 354.111384 220.599315 
L 355.159924 212.70731 
L 356.512104 200.291535 
L 358.532728 179.854559 
L 360.629808 156.415329 
L 362.817543 129.543151 
L 364.876395 104.028393 
L 365.750178 95.832244 
L 366.623962 89.711876 
L 367.322988 86.405152 
L 367.847258 84.885617 
L 368.895798 83.190933 
L 372.565688 77.345086 
L 381.266497 77.348122 
L 389.967306 77.12629 
L 393.099597 76.991384 
L 398.16754 85.180699 
L 398.69181 86.896998 
L 399.390837 90.108429 
L 400.089863 94.343016 
L 400.963647 101.00591 
L 404.945844 134.440354 
L 407.901486 157.1428 
L 410.687951 176.878908 
L 413.464774 194.937346 
L 415.031558 204.077237 
L 415.905342 207.818245 
L 416.604368 210.034443 
L 417.303395 211.598352 
L 417.827665 212.35821 
L 418.351935 212.771666 
L 418.876205 212.861197 
L 424.166566 212.877585 
L 428.138308 212.721118 
L 428.662578 212.409517 
L 429.186848 211.752435 
L 429.711118 210.74413 
L 430.410145 208.837698 
L 431.109172 206.261217 
L 431.982955 202.036316 
L 433.373777 193.576298 
L 435.977049 176.485277 
L 438.763514 156.611498 
L 441.546091 135.135105 
L 444.488204 110.655391 
L 446.575137 93.346298 
L 447.44892 88.165307 
L 448.147947 85.184197 
L 448.672217 83.648761 
L 449.196487 82.689798 
L 453.73942 75.748464 
L 462.440228 75.854705 
L 471.141037 75.737669 
L 474.099312 75.647015 
L 478.992498 83.519071 
L 479.516768 85.097988 
L 480.215795 88.199278 
L 480.914822 92.406176 
L 481.788605 99.14622 
L 482.837145 109.246824 
L 486.035192 142.596164 
L 488.648896 167.330534 
L 491.155562 188.899474 
L 492.378859 198.004151 
L 493.602156 205.453796 
L 494.825452 211.453882 
L 495.873992 215.569511 
L 496.922532 218.825665 
L 497.796316 220.93065 
L 498.670099 222.514443 
L 499.543882 223.599306 
L 500.56184 224.390396 
L 505.013766 227.519924 
L 509.376961 230.325149 
L 513.739659 232.870808 
L 518.102356 235.157234 
L 522.290546 237.108318 
L 526.478736 238.820494 
L 530.666925 240.293762 
L 534.855115 241.528121 
L 539.043305 242.523572 
L 543.056986 243.253362 
L 547.070668 243.763738 
L 551.08435 244.0547 
L 554.4 244.129566 
L 554.4 244.129566 
" style="fill:none;stroke:#3b82f6;stroke-linecap:square;stroke-width:1.3;"/>
   </g>
   <g id="patch_7">
    <path d="M 79.166721 57.035657 
L 81.962827 57.035657 
L 81.962827 45.111543 
L 79.166721 45.111543 
z
" style="fill:#10b981;"/>
   </g>
   <g id="patch_8">
    <path d="M 84.636604 57.035657 
L 93.374438 57.035657 
L 93.374438 45.111543 
L 84.636604 45.111543 
z
" style="fill:#ef4444;"/>
   </g>
   <g id="patch_9">
    <path d="M 96.048215 57.035657 
L 98.844321 57.035657 
L 98.844321 45.111543 
L 96.048215 45.111543 
z
" style="fill:#10b981;"/>
   </g>
   <g id="patch_10">
    <path d="M 101.518098 57.035657 
L 105.887015 57.035657 
L 105.887015 45.111543 
L 101.518098 45.111543 
z
" style="fill:#ef4444;"/>
   </g>
   <g id="patch_11">
    <path d="M 110.430688 57.035657 
L 130.964597 57.035657 
L 130.964597 45.111543 
L 110.430688 45.111543 
z
" style="fill:#fbbf24;"/>
   </g>
   <g id="patch_12">
    <path d="M 135.50827 57.035657 
L 139.003403 57.035657 
L 139.003403 45.111543 
L 135.50827 45.111543 
z
" style="fill:#ef4444;"/>
   </g>
   <g id="patch_13">
    <path d="M 144.368433 57.035657 
L 147.16454 57.035657 
L 147.16454 45.111543 
L 144.368433 45.111543 
z
" style="fill:#10b981;"/>
   </g>
   <g id="patch_14">
    <path d="M 152.197532 57.035657 
L 156.566448 57.035657 
L 156.566448 45.111543 
L 152.197532 45.111543 
z
" style="fill:#ef4444;"/>
   </g>
   <g id="patch_15">
    <path d="M 159.362555 57.035657 
L 163.032445 57.035657 
L 163.032445 45.111543 
L 159.362555 45.111543 
z
" style="fill:#10b981;"/>
   </g>
   <g id="patch_16">
    <path d="M 165.828552 57.035657 
L 170.197468 57.035657 
L 170.197468 45.111543 
L 165.828552 45.111543 
z
" style="fill:#ef4444;"/>
   </g>
   <g id="patch_17">
    <path d="M 175.23046 57.035657 
L 178.026567 57.035657 
L 178.026567 45.111543 
L 175.23046 45.111543 
z
" style="fill:#10b981;"/>
   </g>
   <g id="patch_18">
    <path d="M 183.391597 57.035657 
L 186.88673 57.035657 
L 186.88673 45.111543 
L 183.391597 45.111543 
z
" style="fill:#ef4444;"/>
   </g>
   <g id="patch_19">
    <path d="M 191.430403 57.035657 
L 211.964312 57.035657 
L 211.964312 45.111543 
L 191.430403 45.111543 
z
" style="fill:#fbbf24;"/>
   </g>
   <g id="patch_20">
    <path d="M 216.507985 57.035657 
L 220.876902 57.035657 
L 220.876902 45.111543 
L 216.507985 45.111543 
z
" style="fill:#ef4444;"/>
   </g>
   <g id="patch_21">
    <path d="M 223.550679 57.035657 
L 226.346785 57.035657 
L 226.346785 45.111543 
L 223.550679 45.111543 
z
" style="fill:#10b981;"/>
   </g>
   <g id="patch_22">
    <path d="M 229.020562 57.035657 
L 237.758396 57.035657 
L 237.758396 45.111543 
L 229.020562 45.111543 
z
" style="fill:#ef4444;"/>
   </g>
   <g id="patch_23">
    <path d="M 240.432173 57.035657 
L 243.228279 57.035657 
L 243.228279 45.111543 
L 240.432173 45.111543 
z
" style="fill:#10b981;"/>
   </g>
   <g id="patch_24">
    <path d="M 245.902056 57.035657 
L 249.39719 57.035657 
L 249.39719 45.111543 
L 245.902056 45.111543 
z
" style="fill:#ef4444;"/>
   </g>
   <g id="patch_25">
    <path d="M 335.13281 57.035657 
L 338.627944 57.035657 
L 338.627944 45.111543 
L 335.13281 45.111543 
z
" style="fill:#ef4444;"/>
   </g>
   <g id="patch_26">
    <path d="M 341.301721 57.035657 
L 344.097827 57.035657 
L 344.097827 45.111543 
L 341.301721 45.111543 
z
" style="fill:#10b981;"/>
   </g>
   <g id="patch_27">
    <path d="M 346.771604 57.035657 
L 355.509438 57.035657 
L 355.509438 45.111543 
L 346.771604 45.111543 
z
" style="fill:#ef4444;"/>
   </g>
   <g id="patch_28">
    <path d="M 358.183215 57.035657 
L 360.979321 57.035657 
L 360.979321 45.111543 
L 358.183215 45.111543 
z
" style="fill:#10b981;"/>
   </g>
   <g id="patch_29">
    <path d="M 363.653098 57.035657 
L 368.022015 57.035657 
L 368.022015 45.111543 
L 363.653098 45.111543 
z
" style="fill:#ef4444;"/>
   </g>
   <g id="patch_30">
    <path d="M 372.565688 57.035657 
L 393.099597 57.035657 
L 393.099597 45.111543 
L 372.565688 45.111543 
z
" style="fill:#fbbf24;"/>
   </g>
   <g id="patch_31">
    <path d="M 397.64327 57.035657 
L 401.138403 57.035657 
L 401.138403 45.111543 
L 397.64327 45.111543 
z
" style="fill:#ef4444;"/>
   </g>
   <g id="patch_32">
    <path d="M 406.503433 57.035657 
L 409.29954 57.035657 
L 409.29954 45.111543 
L 406.503433 45.111543 
z
" style="fill:#10b981;"/>
   </g>
   <g id="patch_33">
    <path d="M 414.332532 57.035657 
L 418.701448 57.035657 
L 418.701448 45.111543 
L 414.332532 45.111543 
z
" style="fill:#ef4444;"/>
   </g>
   <g id="patch_34">
    <path d="M 421.497555 57.035657 
L 425.167445 57.035657 
L 425.167445 45.111543 
L 421.497555 45.111543 
z
" style="fill:#10b981;"/>
   </g>
   <g id="patch_35">
    <path d="M 427.963552 57.035657 
L 432.332468 57.035657 
L 432.332468 45.111543 
L 427.963552 45.111543 
z
" style="fill:#ef4444;"/>
   </g>
   <g id="patch_36">
    <path d="M 437.36546 57.035657 
L 440.161567 57.035657 
L 440.161567 45.111543 
L 437.36546 45.111543 
z
" style="fill:#10b981;"/>
   </g>
   <g id="patch_37">
    <path d="M 445.526597 57.035657 
L 449.02173 57.035657 
L 449.02173 45.111543 
L 445.526597 45.111543 
z
" style="fill:#ef4444;"/>
   </g>
   <g id="patch_38">
    <path d="M 453.565403 57.035657 
L 474.099312 57.035657 
L 474.099312 45.111543 
L 453.565403 45.111543 
z
" style="fill:#fbbf24;"/>
   </g>
   <g id="patch_39">
    <path d="M 478.642985 57.035657 
L 483.011902 57.035657 
L 483.011902 45.111543 
L 478.642985 45.111543 
z
" style="fill:#ef4444;"/>
   </g>
   <g id="patch_40">
    <path d="M 485.685679 57.035657 
L 488.481785 57.035657 
L 488.481785 45.111543 
L 485.685679 45.111543 
z
" style="fill:#10b981;"/>
   </g>
   <g id="patch_41">
    <path d="M 491.155562 57.035657 
L 499.893396 57.035657 
L 499.893396 45.111543 
L 491.155562 45.111543 
z
" style="fill:#ef4444;"/>
   </g>
   <g id="patch_42">
    <path d="M 502.567173 57.035657 
L 505.363279 57.035657 
L 505.363279 45.111543 
L 502.567173 45.111543 
z
" style="fill:#10b981;"/>
   </g>
   <g id="line2d_37">
    <path clip-path="url(#pf63e46f5e2)" d="M 30.13 98.453732 
L 38.331871 98.342865 
L 46.533743 98.010265 
L 54.735614 97.455932 
L 62.937486 96.679865 
L 71.139357 95.682065 
L 79.341477 94.462492 
L 84.986118 93.605061 
L 85.335631 93.873562 
L 85.859901 94.688881 
L 86.384171 95.995435 
L 87.083198 98.489887 
L 87.782224 101.82323 
L 88.656008 107.123307 
L 89.704548 115.045342 
L 90.927844 126.235752 
L 92.325898 141.212739 
L 97.446268 199.103548 
L 99.512766 218.635197 
L 101.350987 234.013858 
L 102.566638 242.8342 
L 103.789935 250.192472 
L 105.013232 256.273509 
L 106.236528 261.308887 
L 107.984095 267.588777 
L 109.731662 273.038639 
L 111.126753 276.718016 
L 112.692899 280.18275 
L 114.085028 282.752508 
L 115.303141 284.601246 
L 116.521254 286.072604 
L 117.565351 287.03096 
L 118.609448 287.708169 
L 119.653545 288.103151 
L 120.523626 288.216245 
L 121.393707 288.132777 
L 122.263788 287.85284 
L 123.307885 287.258028 
L 124.351982 286.381707 
L 125.396079 285.225274 
L 126.614192 283.524557 
L 127.832306 281.448796 
L 129.224435 278.623076 
L 130.79058 274.875705 
L 132.013137 271.392556 
L 133.585947 266.28705 
L 135.333513 259.825739 
L 136.55681 254.604302 
L 137.780107 248.321552 
L 139.003403 240.768345 
L 140.734058 228.368877 
L 142.637778 213.101764 
L 144.717946 194.470001 
L 146.815026 173.625912 
L 149.073606 148.862231 
L 151.329774 121.728652 
L 153.420828 96.699444 
L 154.294612 89.28421 
L 154.993638 85.027825 
L 155.517908 82.858329 
L 156.042178 81.587257 
L 156.391692 81.244803 
L 156.915962 81.288785 
L 165.479038 82.715981 
L 166.003308 82.846374 
L 166.352822 83.302097 
L 166.702335 84.158553 
L 167.226605 86.186924 
L 167.750875 89.091413 
L 168.449902 94.282042 
L 169.323685 102.771354 
L 170.37102 115.557021 
L 172.80074 145.755553 
L 175.056909 171.218272 
L 177.32754 194.337023 
L 179.411091 213.33809 
L 181.314811 228.847664 
L 183.218531 242.589223 
L 184.440137 250.223595 
L 185.663433 256.594146 
L 186.88673 261.888442 
L 188.634297 268.32333 
L 190.207107 273.353363 
L 191.60442 277.199153 
L 193.170565 280.729084 
L 194.562694 283.315952 
L 195.780808 285.148082 
L 196.998921 286.573394 
L 198.043018 287.468925 
L 199.087115 288.061855 
L 199.957196 288.324111 
L 200.827277 288.375271 
L 201.697357 288.215278 
L 202.567438 287.844309 
L 203.611535 287.121253 
L 204.655632 286.096149 
L 205.699729 284.770632 
L 206.917843 282.847352 
L 208.135956 280.522246 
L 209.528085 277.379464 
L 211.094231 273.235556 
L 212.488582 268.930732 
L 214.061392 263.2613 
L 215.808958 256.115967 
L 217.207012 249.613679 
L 218.255552 243.629941 
L 219.304092 236.399096 
L 220.352632 227.683744 
L 221.712457 214.078054 
L 223.550679 193.322835 
L 225.473002 168.931913 
L 227.516563 139.99125 
L 230.768129 92.589935 
L 231.641912 83.918692 
L 232.340939 78.833246 
L 232.865209 76.157799 
L 233.389479 74.487376 
L 233.738992 73.940328 
L 234.088506 73.849503 
L 234.438019 74.215284 
L 234.787532 75.036129 
L 235.311802 77.11255 
L 235.836072 80.184943 
L 236.535099 85.779078 
L 237.408882 95.041154 
L 242.529253 156.312867 
L 244.89939 180.824463 
L 246.601083 196.480252 
L 247.649623 203.766666 
L 248.523406 208.389541 
L 249.39719 211.826543 
L 252.533859 221.775302 
L 255.496268 230.47755 
L 258.458678 238.50582 
L 261.246828 245.446163 
L 264.034979 251.789488 
L 266.648869 257.19414 
L 269.088501 261.765065 
L 271.528132 265.878897 
L 273.793504 269.2896 
L 276.058877 272.306178 
L 278.149989 274.740895 
L 280.241102 276.839789 
L 282.157955 278.468764 
L 284.074809 279.815555 
L 285.991662 280.88016 
L 287.734256 281.603113 
L 289.47685 282.092855 
L 291.219444 282.349386 
L 292.962038 282.372707 
L 294.704631 282.162818 
L 296.447225 281.719718 
L 298.189819 281.043408 
L 299.932413 280.133887 
L 301.849267 278.864056 
L 303.76612 277.31204 
L 305.682973 275.47784 
L 307.774086 273.155064 
L 309.865199 270.496465 
L 312.130571 267.237348 
L 314.395943 263.584107 
L 316.835574 259.209078 
L 319.275206 254.376958 
L 321.889097 248.692453 
L 324.502987 242.483224 
L 327.291138 235.281685 
L 330.253547 226.975895 
L 333.215957 217.996126 
L 335.482324 210.587593 
L 336.18135 207.56326 
L 337.055134 202.689667 
L 337.928917 196.480252 
L 338.962166 187.28609 
L 341.13461 165.559787 
L 343.398801 140.683821 
L 345.768938 112.203184 
L 347.820144 87.435584 
L 348.693928 80.184943 
L 349.392954 76.308577 
L 349.917224 74.568995 
L 350.266738 73.975369 
L 350.616251 73.837818 
L 350.965764 74.156923 
L 351.315278 74.931338 
L 351.839548 76.939004 
L 352.363818 79.944287 
L 353.062844 85.452598 
L 353.936628 94.61529 
L 354.985168 108.624056 
L 359.406511 173.570888 
L 361.313543 197.283292 
L 363.151765 217.581936 
L 364.526882 230.770371 
L 365.750178 240.184201 
L 366.973475 247.744774 
L 368.196772 253.798722 
L 370.119095 261.903472 
L 371.866662 268.336415 
L 373.261753 272.735959 
L 374.827899 276.950608 
L 376.394044 280.522246 
L 377.786174 283.146814 
L 379.004287 285.012329 
L 380.2224 286.47132 
L 381.266497 287.395899 
L 382.310594 288.017992 
L 383.180675 288.304607 
L 384.050756 288.380147 
L 384.920837 288.244529 
L 385.790917 287.897902 
L 386.835014 287.203977 
L 387.879111 286.207871 
L 388.923209 284.911174 
L 390.141322 283.02123 
L 391.359435 280.729084 
L 392.751564 277.623417 
L 393.97338 274.373194 
L 395.54619 269.503449 
L 397.119 263.91241 
L 398.517053 258.208502 
L 399.74035 252.164918 
L 400.963647 244.901252 
L 402.695993 232.770702 
L 404.599713 217.743314 
L 406.503433 200.947911 
L 408.600513 180.40011 
L 410.861503 155.842784 
L 413.117672 128.851902 
L 415.730585 97.419959 
L 416.604368 90.250105 
L 417.303395 86.186924 
L 417.827665 84.158553 
L 418.351935 83.023996 
L 418.701448 82.769401 
L 427.264525 81.351492 
L 428.138308 81.244803 
L 428.487822 81.587257 
L 428.837335 82.334103 
L 429.361605 84.205843 
L 429.885875 86.964251 
L 430.584902 91.978704 
L 431.458685 100.281468 
L 432.50602 112.898015 
L 434.93574 142.813214 
L 437.36546 169.950725 
L 439.637297 192.812025 
L 441.719156 211.629289 
L 443.795942 228.368877 
L 445.701353 241.933961 
L 446.92465 249.2917 
L 448.147947 255.410483 
L 449.546 261.184403 
L 451.293567 267.479709 
L 453.041133 272.944987 
L 454.435484 276.614752 
L 456.00163 280.09596 
L 457.393759 282.680624 
L 458.785889 284.777855 
L 460.004002 286.208376 
L 461.048099 287.131491 
L 462.092196 287.7733 
L 463.136293 288.132777 
L 464.006374 288.216245 
L 464.876455 288.103151 
L 465.746535 287.793621 
L 466.790632 287.163387 
L 467.834729 286.251794 
L 468.878826 285.060297 
L 470.09694 283.319009 
L 471.315053 281.203122 
L 472.707182 278.332203 
L 474.099312 274.986175 
L 475.672122 270.417461 
L 477.244932 265.176424 
L 478.992498 258.542244 
L 480.215795 252.941822 
L 481.439092 246.159376 
L 482.662388 237.96003 
L 484.181679 225.858402 
L 486.035192 209.310628 
L 487.957515 190.13069 
L 489.985785 167.666087 
L 493.776912 124.518967 
L 495.000209 113.612528 
L 496.048749 105.965534 
L 496.922532 100.912758 
L 497.796316 97.13622 
L 498.495342 95.070093 
L 499.019612 94.090448 
L 499.543882 93.605061 
L 499.893396 93.557372 
L 508.155406 94.929236 
L 516.357277 96.068568 
L 524.559149 96.986166 
L 532.76102 97.682032 
L 540.962891 98.156163 
L 549.164763 98.408562 
L 554.4 98.453732 
L 554.4 98.453732 
" style="fill:none;stroke:#ef4444;stroke-linecap:square;stroke-width:1.3;"/>
   </g>
   <g id="text_19">
    <!-- q4d -->
    <g transform="translate(81.516771 41.240736)scale(0.08 -0.08)">
     <defs>
      <path d="M 3409 -1309 
L 3409 3491 
L 2891 3491 
L 2891 2936 
L 2827 2936 
C 2709 3118 2500 3536 1818 3536 
C 936 3536 327 2836 327 1736 
C 327 627 936 -73 1809 -73 
C 2482 -73 2709 345 2827 536 
L 2873 536 
L 2873 -1309 
L 3409 -1309 
z
M 2882 1745 
C 2882 955 2527 409 1882 409 
C 1209 409 864 1000 864 1745 
C 864 2482 1200 3055 1882 3055 
C 2536 3055 2882 2527 2882 1745 
z
" id="Inter-Regular-71" transform="scale(0.015625)"/>
      <path d="M 1809 -73 
C 2482 -73 2709 345 2827 536 
L 2891 536 
L 2891 0 
L 3409 0 
L 3409 4655 
L 2873 4655 
L 2873 2936 
L 2827 2936 
C 2709 3118 2500 3536 1818 3536 
C 936 3536 327 2836 327 1736 
C 327 627 936 -73 1809 -73 
z
M 1882 409 
C 1209 409 864 1000 864 1745 
C 864 2482 1200 3055 1882 3055 
C 2536 3055 2882 2527 2882 1745 
C 2882 955 2527 409 1882 409 
z
" id="Inter-Regular-64" transform="scale(0.015625)"/>
     </defs>
     <use xlink:href="#Inter-Regular-71"/>
     <use x="60.937515" xlink:href="#Inter-Regular-34"/>
     <use x="125.142075" xlink:href="#Inter-Regular-64"/>
    </g>
   </g>
   <g id="text_20">
    <!-- q3d -->
    <g transform="translate(96.236307 65.128339)scale(0.08 -0.08)">
     <use xlink:href="#Inter-Regular-71"/>
     <use x="60.937515" xlink:href="#Inter-Regular-33"/>
     <use x="124.573898" xlink:href="#Inter-Regular-64"/>
    </g>
   </g>
   <g id="text_21">
    <!-- b -->
    <g transform="translate(118.214517 41.240736)scale(0.08 -0.08)">
     <use xlink:href="#Inter-Regular-62"/>
    </g>
   </g>
   <g id="text_22">
    <!-- q2 -->
    <g transform="translate(132.397712 65.128339)scale(0.08 -0.08)">
     <use xlink:href="#Inter-Regular-71"/>
     <use x="60.937515" xlink:href="#Inter-Regular-32"/>
    </g>
   </g>
   <g id="text_23">
    <!-- q1 -->
    <g transform="translate(150.086365 41.240736)scale(0.08 -0.08)">
     <use xlink:href="#Inter-Regular-71"/>
     <use x="60.937515" xlink:href="#Inter-Regular-31"/>
    </g>
   </g>
   <g id="text_24">
    <!-- q1 -->
    <g transform="translate(163.717385 65.088964)scale(0.08 -0.08)">
     <use xlink:href="#Inter-Regular-71"/>
     <use x="60.937515" xlink:href="#Inter-Regular-31"/>
    </g>
   </g>
   <g id="text_25">
    <!-- q2 -->
    <g transform="translate(180.281038 41.280111)scale(0.08 -0.08)">
     <use xlink:href="#Inter-Regular-71"/>
     <use x="60.937515" xlink:href="#Inter-Regular-32"/>
    </g>
   </g>
   <g id="text_26">
    <!-- b -->
    <g transform="translate(199.214233 65.088964)scale(0.08 -0.08)">
     <use xlink:href="#Inter-Regular-62"/>
    </g>
   </g>
   <g id="text_27">
    <!-- q3t -->
    <g transform="translate(212.254943 41.280111)scale(0.08 -0.08)">
     <use xlink:href="#Inter-Regular-71"/>
     <use x="60.937515" xlink:href="#Inter-Regular-33"/>
     <use x="124.573898" xlink:href="#Inter-Regular-74"/>
    </g>
   </g>
   <g id="text_28">
    <!-- q4t -->
    <g transform="translate(226.929479 65.088964)scale(0.08 -0.08)">
     <use xlink:href="#Inter-Regular-71"/>
     <use x="60.937515" xlink:href="#Inter-Regular-34"/>
     <use x="125.142075" xlink:href="#Inter-Regular-74"/>
    </g>
   </g>
   <g id="text_29">
    <!-- q5t -->
    <g transform="translate(241.325873 41.240736)scale(0.08 -0.08)">
     <use xlink:href="#Inter-Regular-71"/>
     <use x="60.937515" xlink:href="#Inter-Regular-35"/>
     <use x="121.732986" xlink:href="#Inter-Regular-74"/>
    </g>
   </g>
   <g id="text_30">
    <!-- q5t -->
    <g transform="translate(330.556627 65.088964)scale(0.08 -0.08)">
     <use xlink:href="#Inter-Regular-71"/>
     <use x="60.937515" xlink:href="#Inter-Regular-35"/>
     <use x="121.732986" xlink:href="#Inter-Regular-74"/>
    </g>
   </g>
   <g id="text_31">
    <!-- q4t -->
    <g transform="translate(344.680521 41.240736)scale(0.08 -0.08)">
     <use xlink:href="#Inter-Regular-71"/>
     <use x="60.937515" xlink:href="#Inter-Regular-34"/>
     <use x="125.142075" xlink:href="#Inter-Regular-74"/>
    </g>
   </g>
   <g id="text_32">
    <!-- q3t -->
    <g transform="translate(359.400057 65.128339)scale(0.08 -0.08)">
     <use xlink:href="#Inter-Regular-71"/>
     <use x="60.937515" xlink:href="#Inter-Regular-33"/>
     <use x="124.573898" xlink:href="#Inter-Regular-74"/>
    </g>
   </g>
   <g id="text_33">
    <!-- b -->
    <g transform="translate(380.349517 41.240736)scale(0.08 -0.08)">
     <use xlink:href="#Inter-Regular-62"/>
    </g>
   </g>
   <g id="text_34">
    <!-- q2 -->
    <g transform="translate(394.532712 65.128339)scale(0.08 -0.08)">
     <use xlink:href="#Inter-Regular-71"/>
     <use x="60.937515" xlink:href="#Inter-Regular-32"/>
    </g>
   </g>
   <g id="text_35">
    <!-- q1 -->
    <g transform="translate(412.221365 41.240736)scale(0.08 -0.08)">
     <use xlink:href="#Inter-Regular-71"/>
     <use x="60.937515" xlink:href="#Inter-Regular-31"/>
    </g>
   </g>
   <g id="text_36">
    <!-- q1 -->
    <g transform="translate(425.852385 65.088964)scale(0.08 -0.08)">
     <use xlink:href="#Inter-Regular-71"/>
     <use x="60.937515" xlink:href="#Inter-Regular-31"/>
    </g>
   </g>
   <g id="text_37">
    <!-- q2 -->
    <g transform="translate(442.416038 41.280111)scale(0.08 -0.08)">
     <use xlink:href="#Inter-Regular-71"/>
     <use x="60.937515" xlink:href="#Inter-Regular-32"/>
    </g>
   </g>
   <g id="text_38">
    <!-- b -->
    <g transform="translate(461.349233 65.088964)scale(0.08 -0.08)">
     <use xlink:href="#Inter-Regular-62"/>
    </g>
   </g>
   <g id="text_39">
    <!-- q3d -->
    <g transform="translate(473.361193 41.280111)scale(0.08 -0.08)">
     <use xlink:href="#Inter-Regular-71"/>
     <use x="60.937515" xlink:href="#Inter-Regular-33"/>
     <use x="124.573898" xlink:href="#Inter-Regular-64"/>
    </g>
   </g>
   <g id="text_40">
    <!-- q4d -->
    <g transform="translate(488.035729 65.088964)scale(0.08 -0.08)">
     <use xlink:href="#Inter-Regular-71"/>
     <use x="60.937515" xlink:href="#Inter-Regular-34"/>
     <use x="125.142075" xlink:href="#Inter-Regular-64"/>
    </g>
   </g>
  </g>
 </g>
 <defs>
  <clipPath id="pf63e46f5e2">
   <rect height="250.4064" width="524.27" x="30.13" y="51.0736"/>
  </clipPath>
 </defs>
</svg>
