<?xml version="1.0" encoding="utf-8" standalone="no"?>
<!DOCTYPE svg PUBLIC "-//W3C//DTD SVG 1.1//EN"
  "http://www.w3.org/Graphics/SVG/1.1/DTD/svg11.dtd">
<svg height="345.6pt" version="1.1" viewBox="0 0 576 345.6" width="576pt" xmlns="http://www.w3.org/2000/svg" xmlns:xlink="http://www.w3.org/1999/xlink">
 <metadata>
  <rdf:RDF xmlns:cc="http://creativecommons.org/ns#" xmlns:dc="http://purl.org/dc/elements/1.1/" xmlns:rdf="http://www.w3.org/1999/02/22-rdf-syntax-ns#">
   <cc:Work>
    <dc:type rdf:resource="http://purl.org/dc/dcmitype/StillImage"/>
    <dc:date>2021-06-06T23:11:15.649582</dc:date>
    <dc:format>image/svg+xml</dc:format>
    <dc:creator>
     <cc:Agent>
      <dc:title>Matplotlib v3.4.2, https://matplotlib.org/</dc:title>
     </cc:Agent>
    </dc:creator>
   </cc:Work>
  </rdf:RDF>
 </metadata>
 <defs>
  <style type="text/css">*{stroke-linecap:butt;stroke-linejoin:round;}</style>
 </defs>
 <g id="figure_1">
  <g id="patch_1">
   <path d="M 0 345.6 
L 576 345.6 
L 576 0 
L 0 0 
z
" style="fill:#ffffff;"/>
  </g>
  <g id="axes_1">
   <g id="patch_2">
    <path d="M 30.13 317.72 
L 554.535 317.72 
L 554.535 10.8 
L 30.13 10.8 
z
" style="fill:#ffffff;"/>
   </g>
   <g id="matplotlib.axis_1">
    <g id="xtick_1">
     <g id="line2d_1">
      <path clip-path="url(#pe892ed9d5b)" d="M 30.13 317.72 
L 30.13 10.8 
" style="fill:none;stroke:#e5e7eb;stroke-dasharray:3.7,1.6;stroke-dashoffset:0;"/>
     </g>
     <g id="line2d_2">
      <defs>
       <path d="M 0 0 
L 0 3.5 
" id="m791af66194" style="stroke:#000000;stroke-width:0.8;"/>
      </defs>
      <g>
       <use style="stroke:#000000;stroke-width:0.8;" x="30.13" xlink:href="#m791af66194" y="317.72"/>
      </g>
     </g>
     <g id="text_1">
      <!-- 0.0 -->
      <g transform="translate(22.501875 331.993437)scale(0.1 -0.1)">
       <defs>
        <path d="M 2000 -64 
C 3027 -64 3618 807 3618 2327 
C 3618 3836 3018 4718 2000 4718 
C 982 4718 382 3836 382 2327 
C 382 807 973 -64 2000 -64 
z
M 2000 436 
C 1323 436 927 1116 927 2327 
C 927 3536 1327 4227 2000 4227 
C 2673 4227 3073 3536 3073 2327 
C 3073 1116 2677 436 2000 436 
z
" id="Inter-Regular-30" transform="scale(0.015625)"/>
        <path d="M 882 -36 
C 1107 -36 1291 148 1291 373 
C 1291 598 1107 782 882 782 
C 657 782 473 598 473 373 
C 473 148 657 -36 882 -36 
z
" id="Inter-Regular-2e" transform="scale(0.015625)"/>
       </defs>
       <use xlink:href="#Inter-Regular-30"/>
       <use x="62.500015" xlink:href="#Inter-Regular-2e"/>
       <use x="90.056839" xlink:href="#Inter-Regular-30"/>
      </g>
     </g>
    </g>
    <g id="xtick_2">
     <g id="line2d_3">
      <path clip-path="url(#pe892ed9d5b)" d="M 95.680625 317.72 
L 95.680625 10.8 
" style="fill:none;stroke:#e5e7eb;stroke-dasharray:3.7,1.6;stroke-dashoffset:0;"/>
     </g>
     <g id="line2d_4">
      <g>
       <use style="stroke:#000000;stroke-width:0.8;" x="95.680625" xlink:href="#m791af66194" y="317.72"/>
      </g>
     </g>
     <g id="text_2">
      <!-- 2.5 -->
      <g transform="translate(88.236875 331.993437)scale(0.1 -0.1)">
       <defs>
        <path d="M 482 0 
L 3418 0 
L 3418 500 
L 1255 500 
L 1255 536 
L 2300 1655 
C 3100 2511 3336 2911 3336 3427 
C 3336 4145 2755 4718 1936 4718 
C 1121 4718 500 4164 500 3345 
L 1036 3345 
C 1036 3875 1380 4227 1918 4227 
C 2423 4227 2809 3918 2809 3427 
C 2809 2998 2557 2680 2018 2091 
L 482 409 
L 482 0 
z
" id="Inter-Regular-32" transform="scale(0.015625)"/>
        <path d="M 1936 -64 
C 2823 -64 3473 591 3473 1482 
C 3473 2384 2846 3045 1991 3045 
C 1677 3045 1373 2934 1182 2782 
L 1155 2782 
L 1318 4155 
L 3264 4155 
L 3264 4655 
L 846 4655 
L 564 2364 
L 1091 2300 
C 1284 2439 1614 2539 1900 2536 
C 2493 2532 2927 2082 2927 1473 
C 2927 875 2509 436 1936 436 
C 1459 436 1080 743 1036 1164 
L 491 1164 
C 525 455 1136 -64 1936 -64 
z
" id="Inter-Regular-35" transform="scale(0.015625)"/>
       </defs>
       <use xlink:href="#Inter-Regular-32"/>
       <use x="60.511383" xlink:href="#Inter-Regular-2e"/>
       <use x="88.068207" xlink:href="#Inter-Regular-35"/>
      </g>
     </g>
    </g>
    <g id="xtick_3">
     <g id="line2d_5">
      <path clip-path="url(#pe892ed9d5b)" d="M 161.23125 317.72 
L 161.23125 10.8 
" style="fill:none;stroke:#e5e7eb;stroke-dasharray:3.7,1.6;stroke-dashoffset:0;"/>
     </g>
     <g id="line2d_6">
      <g>
       <use style="stroke:#000000;stroke-width:0.8;" x="161.23125" xlink:href="#m791af66194" y="317.72"/>
      </g>
     </g>
     <g id="text_3">
      <!-- 5.0 -->
      <g transform="translate(153.688281 331.993437)scale(0.1 -0.1)">
       <use xlink:href="#Inter-Regular-35"/>
       <use x="60.795471" xlink:href="#Inter-Regular-2e"/>
       <use x="88.352295" xlink:href="#Inter-Regular-30"/>
      </g>
     </g>
    </g>
    <g id="xtick_4">
     <g id="line2d_7">
      <path clip-path="url(#pe892ed9d5b)" d="M 226.781875 317.72 
L 226.781875 10.8 
" style="fill:none;stroke:#e5e7eb;stroke-dasharray:3.7,1.6;stroke-dashoffset:0;"/>
     </g>
     <g id="line2d_8">
      <g>
       <use style="stroke:#000000;stroke-width:0.8;" x="226.781875" xlink:href="#m791af66194" y="317.72"/>
      </g>
     </g>
     <g id="text_4">
      <!-- 7.5 -->
      <g transform="translate(219.508437 331.993437)scale(0.1 -0.1)">
       <defs>
        <path d="M 627 0 
L 1218 0 
L 3291 4127 
L 3291 4655 
L 309 4655 
L 309 4155 
L 2709 4155 
L 2709 4118 
L 627 0 
z
" id="Inter-Regular-37" transform="scale(0.015625)"/>
       </defs>
       <use xlink:href="#Inter-Regular-37"/>
       <use x="57.10228" xlink:href="#Inter-Regular-2e"/>
       <use x="84.659103" xlink:href="#Inter-Regular-35"/>
      </g>
     </g>
    </g>
    <g id="xtick_5">
     <g id="line2d_9">
      <path clip-path="url(#pe892ed9d5b)" d="M 292.3325 317.72 
L 292.3325 10.8 
" style="fill:none;stroke:#e5e7eb;stroke-dasharray:3.7,1.6;stroke-dashoffset:0;"/>
     </g>
     <g id="line2d_10">
      <g>
       <use style="stroke:#000000;stroke-width:0.8;" x="292.3325" xlink:href="#m791af66194" y="317.72"/>
      </g>
     </g>
     <g id="text_5">
      <!-- 10.0 -->
      <g transform="translate(282.381719 331.993437)scale(0.1 -0.1)">
       <defs>
        <path d="M 2118 4655 
L 1555 4655 
L 391 3882 
L 391 3309 
L 1527 4064 
L 1555 4064 
L 1555 0 
L 2118 0 
L 2118 4655 
z
" id="Inter-Regular-31" transform="scale(0.015625)"/>
       </defs>
       <use xlink:href="#Inter-Regular-31"/>
       <use x="46.448868" xlink:href="#Inter-Regular-30"/>
       <use x="108.948883" xlink:href="#Inter-Regular-2e"/>
       <use x="136.505707" xlink:href="#Inter-Regular-30"/>
      </g>
     </g>
    </g>
    <g id="xtick_6">
     <g id="line2d_11">
      <path clip-path="url(#pe892ed9d5b)" d="M 357.883125 317.72 
L 357.883125 10.8 
" style="fill:none;stroke:#e5e7eb;stroke-dasharray:3.7,1.6;stroke-dashoffset:0;"/>
     </g>
     <g id="line2d_12">
      <g>
       <use style="stroke:#000000;stroke-width:0.8;" x="357.883125" xlink:href="#m791af66194" y="317.72"/>
      </g>
     </g>
     <g id="text_6">
      <!-- 12.5 -->
      <g transform="translate(348.116719 331.993437)scale(0.1 -0.1)">
       <use xlink:href="#Inter-Regular-31"/>
       <use x="46.448868" xlink:href="#Inter-Regular-32"/>
       <use x="106.960251" xlink:href="#Inter-Regular-2e"/>
       <use x="134.517075" xlink:href="#Inter-Regular-35"/>
      </g>
     </g>
    </g>
    <g id="xtick_7">
     <g id="line2d_13">
      <path clip-path="url(#pe892ed9d5b)" d="M 423.43375 317.72 
L 423.43375 10.8 
" style="fill:none;stroke:#e5e7eb;stroke-dasharray:3.7,1.6;stroke-dashoffset:0;"/>
     </g>
     <g id="line2d_14">
      <g>
       <use style="stroke:#000000;stroke-width:0.8;" x="423.43375" xlink:href="#m791af66194" y="317.72"/>
      </g>
     </g>
     <g id="text_7">
      <!-- 15.0 -->
      <g transform="translate(413.568125 331.993437)scale(0.1 -0.1)">
       <use xlink:href="#Inter-Regular-31"/>
       <use x="46.448868" xlink:href="#Inter-Regular-35"/>
       <use x="107.244339" xlink:href="#Inter-Regular-2e"/>
       <use x="134.801163" xlink:href="#Inter-Regular-30"/>
      </g>
     </g>
    </g>
    <g id="xtick_8">
     <g id="line2d_15">
      <path clip-path="url(#pe892ed9d5b)" d="M 488.984375 317.72 
L 488.984375 10.8 
" style="fill:none;stroke:#e5e7eb;stroke-dasharray:3.7,1.6;stroke-dashoffset:0;"/>
     </g>
     <g id="line2d_16">
      <g>
       <use style="stroke:#000000;stroke-width:0.8;" x="488.984375" xlink:href="#m791af66194" y="317.72"/>
      </g>
     </g>
     <g id="text_8">
      <!-- 17.5 -->
      <g transform="translate(479.388281 331.993437)scale(0.1 -0.1)">
       <use xlink:href="#Inter-Regular-31"/>
       <use x="46.448868" xlink:href="#Inter-Regular-37"/>
       <use x="103.551147" xlink:href="#Inter-Regular-2e"/>
       <use x="131.107971" xlink:href="#Inter-Regular-35"/>
      </g>
     </g>
    </g>
    <g id="xtick_9">
     <g id="line2d_17">
      <path clip-path="url(#pe892ed9d5b)" d="M 554.535 317.72 
L 554.535 10.8 
" style="fill:none;stroke:#e5e7eb;stroke-dasharray:3.7,1.6;stroke-dashoffset:0;"/>
     </g>
     <g id="line2d_18">
      <g>
       <use style="stroke:#000000;stroke-width:0.8;" x="554.535" xlink:href="#m791af66194" y="317.72"/>
      </g>
     </g>
     <g id="text_9">
      <!-- 20.0 -->
      <g transform="translate(543.881094 331.993437)scale(0.1 -0.1)">
       <use xlink:href="#Inter-Regular-32"/>
       <use x="60.511383" xlink:href="#Inter-Regular-30"/>
       <use x="123.011398" xlink:href="#Inter-Regular-2e"/>
       <use x="150.568222" xlink:href="#Inter-Regular-30"/>
      </g>
     </g>
    </g>
   </g>
   <g id="matplotlib.axis_2">
    <g id="ytick_1">
     <g id="line2d_19">
      <path clip-path="url(#pe892ed9d5b)" d="M 30.13 303.768959 
L 554.535 303.768959 
" style="fill:none;stroke:#e5e7eb;stroke-dasharray:3.7,1.6;stroke-dashoffset:0;"/>
     </g>
     <g id="line2d_20">
      <defs>
       <path d="M 0 0 
L -3.5 0 
" id="mcf3e80e95a" style="stroke:#000000;stroke-width:0.8;"/>
      </defs>
      <g>
       <use style="stroke:#000000;stroke-width:0.8;" x="30.13" xlink:href="#mcf3e80e95a" y="303.768959"/>
      </g>
     </g>
     <g id="text_10">
      <!-- 0 -->
      <g transform="translate(16.88 307.405677)scale(0.1 -0.1)">
       <use xlink:href="#Inter-Regular-30"/>
      </g>
     </g>
    </g>
    <g id="ytick_2">
     <g id="line2d_21">
      <path clip-path="url(#pe892ed9d5b)" d="M 30.13 239.948393 
L 554.535 239.948393 
" style="fill:none;stroke:#e5e7eb;stroke-dasharray:3.7,1.6;stroke-dashoffset:0;"/>
     </g>
     <g id="line2d_22">
      <g>
       <use style="stroke:#000000;stroke-width:0.8;" x="30.13" xlink:href="#mcf3e80e95a" y="239.948393"/>
      </g>
     </g>
     <g id="text_11">
      <!-- 5 -->
      <g transform="translate(17.050313 243.585111)scale(0.1 -0.1)">
       <use xlink:href="#Inter-Regular-35"/>
      </g>
     </g>
    </g>
    <g id="ytick_3">
     <g id="line2d_23">
      <path clip-path="url(#pe892ed9d5b)" d="M 30.13 176.127827 
L 554.535 176.127827 
" style="fill:none;stroke:#e5e7eb;stroke-dasharray:3.7,1.6;stroke-dashoffset:0;"/>
     </g>
     <g id="line2d_24">
      <g>
       <use style="stroke:#000000;stroke-width:0.8;" x="30.13" xlink:href="#mcf3e80e95a" y="176.127827"/>
      </g>
     </g>
     <g id="text_12">
      <!-- 10 -->
      <g transform="translate(12.234688 179.764545)scale(0.1 -0.1)">
       <use xlink:href="#Inter-Regular-31"/>
       <use x="46.448868" xlink:href="#Inter-Regular-30"/>
      </g>
     </g>
    </g>
    <g id="ytick_4">
     <g id="line2d_25">
      <path clip-path="url(#pe892ed9d5b)" d="M 30.13 112.307261 
L 554.535 112.307261 
" style="fill:none;stroke:#e5e7eb;stroke-dasharray:3.7,1.6;stroke-dashoffset:0;"/>
     </g>
     <g id="line2d_26">
      <g>
       <use style="stroke:#000000;stroke-width:0.8;" x="30.13" xlink:href="#mcf3e80e95a" y="112.307261"/>
      </g>
     </g>
     <g id="text_13">
      <!-- 15 -->
      <g transform="translate(12.405 115.943979)scale(0.1 -0.1)">
       <use xlink:href="#Inter-Regular-31"/>
       <use x="46.448868" xlink:href="#Inter-Regular-35"/>
      </g>
     </g>
    </g>
    <g id="ytick_5">
     <g id="line2d_27">
      <path clip-path="url(#pe892ed9d5b)" d="M 30.13 48.486695 
L 554.535 48.486695 
" style="fill:none;stroke:#e5e7eb;stroke-dasharray:3.7,1.6;stroke-dashoffset:0;"/>
     </g>
     <g id="line2d_28">
      <g>
       <use style="stroke:#000000;stroke-width:0.8;" x="30.13" xlink:href="#mcf3e80e95a" y="48.486695"/>
      </g>
     </g>
     <g id="text_14">
      <!-- 20 -->
      <g transform="translate(10.828438 52.123414)scale(0.1 -0.1)">
       <use xlink:href="#Inter-Regular-32"/>
       <use x="60.511383" xlink:href="#Inter-Regular-30"/>
      </g>
     </g>
    </g>
   </g>
   <g id="line2d_29">
    <path clip-path="url(#pe892ed9d5b)" d="M 30.13 54.349511 
L 103.704022 49.206395 
L 111.91096 47.995005 
L 125.021085 126.009191 
L 129.032783 166.076607 
L 133.228023 202.459101 
L 137.239721 231.973207 
L 143.794784 263.943973 
L 150.612049 283.453661 
L 181.420842 282.7224 
L 188.238107 262.88062 
L 193.482157 239.045694 
L 201.531774 183.207116 
L 205.727014 147.138449 
L 213.278446 70.184244 
L 219.833509 31.990936 
L 229.535001 33.425956 
L 233.730241 33.994355 
L 240.285304 73.603762 
L 247.836736 151.191953 
L 252.031976 187.366657 
L 260.081593 242.916311 
L 265.325643 266.455398 
L 272.142908 285.764738 
L 302.951701 277.839474 
L 309.768966 254.930987 
L 316.324029 215.573342 
L 320.335727 177.470819 
L 324.530967 130.249598 
L 328.542665 78.041534 
L 341.65279 55.581797 
L 345.664489 98.591367 
L 349.859729 139.158179 
L 353.871427 173.732637 
L 359.115477 201.484967 
L 423.43375 293.06413 
L 487.752023 201.484967 
L 492.996073 173.732637 
L 497.007772 139.158179 
L 501.203012 98.591367 
L 505.21471 55.581797 
L 518.324835 78.041534 
L 522.336533 130.249598 
L 526.531773 177.470819 
L 530.543471 215.573342 
L 537.098534 254.930987 
L 543.915799 277.839474 
L 574.724592 285.764738 
L 577 279.319834 
L 577 279.319834 
" style="fill:none;stroke:#ef4444;stroke-linecap:square;stroke-width:1.5;"/>
   </g>
   <g id="line2d_30">
    <path clip-path="url(#pe892ed9d5b)" d="M 30.13 243.407894 
L 103.704022 222.155897 
L 107.899261 219.663193 
L 111.91096 217.150286 
L 125.021085 171.730172 
L 129.032783 141.774563 
L 133.228023 107.119671 
L 137.239721 70.797797 
L 143.794784 34.070584 
L 150.612049 24.750909 
L 181.420842 24.876857 
L 188.238107 34.246991 
L 193.482157 58.407606 
L 201.531774 116.087253 
L 205.727014 143.032545 
L 213.278446 186.15388 
L 219.833509 202.681833 
L 226.781875 202.865312 
L 233.730241 202.821991 
L 240.285304 186.462375 
L 247.836736 143.629831 
L 252.031976 116.874242 
L 260.081593 59.617119 
L 265.325643 35.681553 
L 272.142908 26.495633 
L 302.951701 26.954669 
L 309.768966 36.324494 
L 316.324029 80.531555 
L 320.335727 124.21581 
L 324.530967 164.775115 
L 328.542665 198.660532 
L 341.65279 235.532729 
L 345.664489 231.240335 
L 349.859729 226.495514 
L 353.871427 221.713436 
L 359.115477 223.866123 
L 423.43375 288.632386 
L 487.752023 223.866123 
L 492.996073 221.713436 
L 497.007772 226.495514 
L 501.203012 231.240335 
L 505.21471 235.532729 
L 518.324835 198.660532 
L 522.336533 164.775115 
L 526.531773 124.21581 
L 530.543471 80.531555 
L 537.098534 36.324494 
L 543.915799 26.954669 
L 574.724592 26.495633 
L 577 29.56163 
L 577 29.56163 
" style="fill:none;stroke:#1d4ed8;stroke-linecap:square;stroke-width:1.5;"/>
   </g>
   <g id="line2d_31">
    <path clip-path="url(#pe892ed9d5b)" d="M 30.13 303.769091 
L 150.612049 303.768993 
L 181.420842 274.697252 
L 188.238107 261.49475 
L 193.482157 249.822032 
L 213.278446 199.546195 
L 219.833509 191.11562 
L 233.730241 191.115617 
L 240.285304 199.54619 
L 260.081593 249.822021 
L 265.325643 261.494737 
L 272.142908 274.697237 
L 302.951701 303.768964 
L 543.915799 303.768964 
L 574.724592 274.697237 
L 577 270.290621 
L 577 270.290621 
" style="fill:none;stroke:#10b981;stroke-linecap:square;stroke-width:1.5;"/>
   </g>
   <g id="patch_3">
    <path d="M 30.13 317.72 
L 30.13 10.8 
" style="fill:none;stroke:#000000;stroke-linecap:square;stroke-linejoin:miter;stroke-width:0.8;"/>
   </g>
   <g id="patch_4">
    <path d="M 554.535 317.72 
L 554.535 10.8 
" style="fill:none;stroke:#000000;stroke-linecap:square;stroke-linejoin:miter;stroke-width:0.8;"/>
   </g>
   <g id="patch_5">
    <path d="M 30.13 317.72 
L 554.535 317.72 
" style="fill:none;stroke:#000000;stroke-linecap:square;stroke-linejoin:miter;stroke-width:0.8;"/>
   </g>
   <g id="patch_6">
    <path d="M 30.13 10.8 
L 554.535 10.8 
" style="fill:none;stroke:#000000;stroke-linecap:square;stroke-linejoin:miter;stroke-width:0.8;"/>
   </g>
  </g>
 </g>
 <defs>
  <clipPath id="pe892ed9d5b">
   <rect height="306.92" width="524.405" x="30.13" y="10.8"/>
  </clipPath>
 </defs>
</svg>
