<?xml version="1.0" encoding="utf-8" standalone="no"?>
<!DOCTYPE svg PUBLIC "-//W3C//DTD SVG 1.1//EN"
  "http://www.w3.org/Graphics/SVG/1.1/DTD/svg11.dtd">
<svg height="345.6pt" version="1.1" viewBox="0 0 576 345.6" width="576pt" xmlns="http://www.w3.org/2000/svg" xmlns:xlink="http://www.w3.org/1999/xlink">
 <metadata>
  <rdf:RDF xmlns:cc="http://creativecommons.org/ns#" xmlns:dc="http://purl.org/dc/elements/1.1/" xmlns:rdf="http://www.w3.org/1999/02/22-rdf-syntax-ns#">
   <cc:Work>
    <dc:type rdf:resource="http://purl.org/dc/dcmitype/StillImage"/>
    <dc:date>2021-06-06T23:11:07.607886</dc:date>
    <dc:format>image/svg+xml</dc:format>
    <dc:creator>
     <cc:Agent>
      <dc:title>Matplotlib v3.4.2, https://matplotlib.org/</dc:title>
     </cc:Agent>
    </dc:creator>
   </cc:Work>
  </rdf:RDF>
 </metadata>
 <defs>
  <style type="text/css">*{stroke-linecap:butt;stroke-linejoin:round;}</style>
 </defs>
 <g id="figure_1">
  <g id="patch_1">
   <path d="M 0 345.6 
L 576 345.6 
L 576 0 
L 0 0 
z
" style="fill:#ffffff;"/>
  </g>
  <g id="axes_1">
   <g id="patch_2">
    <path d="M 72 307.584 
L 518.4 307.584 
L 518.4 41.472 
L 72 41.472 
z
" style="fill:#ffffff;"/>
   </g>
   <g id="matplotlib.axis_1">
    <g id="xtick_1">
     <g id="line2d_1">
      <path clip-path="url(#p270ec3b99e)" d="M 72 307.584 
L 72 41.472 
" style="fill:none;stroke:#e5e7eb;stroke-dasharray:3.7,1.6;stroke-dashoffset:0;"/>
     </g>
     <g id="line2d_2">
      <defs>
       <path d="M 0 0 
L 0 3.5 
" id="mcac6034c76" style="stroke:#000000;stroke-width:0.8;"/>
      </defs>
      <g>
       <use style="stroke:#000000;stroke-width:0.8;" x="72" xlink:href="#mcac6034c76" y="307.584"/>
      </g>
     </g>
     <g id="text_1">
      <!-- 0 -->
      <g transform="translate(68.875 321.857437)scale(0.1 -0.1)">
       <defs>
        <path d="M 2000 -64 
C 3027 -64 3618 807 3618 2327 
C 3618 3836 3018 4718 2000 4718 
C 982 4718 382 3836 382 2327 
C 382 807 973 -64 2000 -64 
z
M 2000 436 
C 1323 436 927 1116 927 2327 
C 927 3536 1327 4227 2000 4227 
C 2673 4227 3073 3536 3073 2327 
C 3073 1116 2677 436 2000 436 
z
" id="Inter-Regular-30" transform="scale(0.015625)"/>
       </defs>
       <use xlink:href="#Inter-Regular-30"/>
      </g>
     </g>
    </g>
    <g id="xtick_2">
     <g id="line2d_3">
      <path clip-path="url(#p270ec3b99e)" d="M 131.52 307.584 
L 131.52 41.472 
" style="fill:none;stroke:#e5e7eb;stroke-dasharray:3.7,1.6;stroke-dashoffset:0;"/>
     </g>
     <g id="line2d_4">
      <g>
       <use style="stroke:#000000;stroke-width:0.8;" x="131.52" xlink:href="#mcac6034c76" y="307.584"/>
      </g>
     </g>
     <g id="text_2">
      <!-- 2 -->
      <g transform="translate(128.494219 321.857437)scale(0.1 -0.1)">
       <defs>
        <path d="M 482 0 
L 3418 0 
L 3418 500 
L 1255 500 
L 1255 536 
L 2300 1655 
C 3100 2511 3336 2911 3336 3427 
C 3336 4145 2755 4718 1936 4718 
C 1121 4718 500 4164 500 3345 
L 1036 3345 
C 1036 3875 1380 4227 1918 4227 
C 2423 4227 2809 3918 2809 3427 
C 2809 2998 2557 2680 2018 2091 
L 482 409 
L 482 0 
z
" id="Inter-Regular-32" transform="scale(0.015625)"/>
       </defs>
       <use xlink:href="#Inter-Regular-32"/>
      </g>
     </g>
    </g>
    <g id="xtick_3">
     <g id="line2d_5">
      <path clip-path="url(#p270ec3b99e)" d="M 191.04 307.584 
L 191.04 41.472 
" style="fill:none;stroke:#e5e7eb;stroke-dasharray:3.7,1.6;stroke-dashoffset:0;"/>
     </g>
     <g id="line2d_6">
      <g>
       <use style="stroke:#000000;stroke-width:0.8;" x="191.04" xlink:href="#mcac6034c76" y="307.584"/>
      </g>
     </g>
     <g id="text_3">
      <!-- 4 -->
      <g transform="translate(187.829844 321.857437)scale(0.1 -0.1)">
       <defs>
        <path d="M 373 955 
L 2564 955 
L 2564 0 
L 3100 0 
L 3100 955 
L 3736 955 
L 3736 1455 
L 3100 1455 
L 3100 4655 
L 2418 4655 
L 373 1418 
L 373 955 
z
M 982 1455 
L 982 1491 
L 2527 3936 
L 2564 3936 
L 2564 1455 
L 982 1455 
z
" id="Inter-Regular-34" transform="scale(0.015625)"/>
       </defs>
       <use xlink:href="#Inter-Regular-34"/>
      </g>
     </g>
    </g>
    <g id="xtick_4">
     <g id="line2d_7">
      <path clip-path="url(#p270ec3b99e)" d="M 250.56 307.584 
L 250.56 41.472 
" style="fill:none;stroke:#e5e7eb;stroke-dasharray:3.7,1.6;stroke-dashoffset:0;"/>
     </g>
     <g id="line2d_8">
      <g>
       <use style="stroke:#000000;stroke-width:0.8;" x="250.56" xlink:href="#mcac6034c76" y="307.584"/>
      </g>
     </g>
     <g id="text_4">
      <!-- 6 -->
      <g transform="translate(247.442031 321.857437)scale(0.1 -0.1)">
       <defs>
        <path d="M 2027 -64 
C 2968 -75 3582 634 3582 1500 
C 3582 2400 2916 3045 2118 3045 
C 1639 3045 1227 2811 973 2427 
L 936 2427 
C 939 3570 1380 4227 2100 4227 
C 2591 4227 2886 3918 2991 3491 
L 3546 3491 
C 3432 4223 2882 4727 2100 4727 
C 1052 4727 409 3800 409 2145 
C 409 425 1264 -55 2027 -64 
z
M 2027 436 
C 1443 436 1016 934 1018 1491 
C 1021 2048 1468 2545 2046 2545 
C 2616 2545 3036 2077 3036 1500 
C 3036 909 2598 436 2027 436 
z
" id="Inter-Regular-36" transform="scale(0.015625)"/>
       </defs>
       <use xlink:href="#Inter-Regular-36"/>
      </g>
     </g>
    </g>
    <g id="xtick_5">
     <g id="line2d_9">
      <path clip-path="url(#p270ec3b99e)" d="M 310.08 307.584 
L 310.08 41.472 
" style="fill:none;stroke:#e5e7eb;stroke-dasharray:3.7,1.6;stroke-dashoffset:0;"/>
     </g>
     <g id="line2d_10">
      <g>
       <use style="stroke:#000000;stroke-width:0.8;" x="310.08" xlink:href="#mcac6034c76" y="307.584"/>
      </g>
     </g>
     <g id="text_5">
      <!-- 8 -->
      <g transform="translate(306.997187 321.857437)scale(0.1 -0.1)">
       <defs>
        <path d="M 1973 -64 
C 2902 -64 3550 480 3555 1236 
C 3550 1825 3157 2325 2655 2418 
L 2655 2445 
C 3091 2559 3377 2986 3382 3482 
C 3377 4191 2782 4718 1973 4718 
C 1155 4718 559 4191 564 3482 
C 559 2986 846 2559 1291 2445 
L 1291 2418 
C 780 2325 386 1825 391 1236 
C 386 480 1034 -64 1973 -64 
z
M 1973 2645 
C 1464 2645 1105 2964 1109 3445 
C 1105 3918 1450 4227 1973 4227 
C 2486 4227 2832 3918 2836 3445 
C 2832 2964 2473 2645 1973 2645 
z
M 1973 436 
C 1334 436 941 764 946 1264 
C 941 1789 1375 2164 1973 2164 
C 2561 2164 2996 1789 3000 1264 
C 2996 764 2602 436 1973 436 
z
" id="Inter-Regular-38" transform="scale(0.015625)"/>
       </defs>
       <use xlink:href="#Inter-Regular-38"/>
      </g>
     </g>
    </g>
    <g id="xtick_6">
     <g id="line2d_11">
      <path clip-path="url(#p270ec3b99e)" d="M 369.6 307.584 
L 369.6 41.472 
" style="fill:none;stroke:#e5e7eb;stroke-dasharray:3.7,1.6;stroke-dashoffset:0;"/>
     </g>
     <g id="line2d_12">
      <g>
       <use style="stroke:#000000;stroke-width:0.8;" x="369.6" xlink:href="#mcac6034c76" y="307.584"/>
      </g>
     </g>
     <g id="text_6">
      <!-- 10 -->
      <g transform="translate(364.152344 321.857437)scale(0.1 -0.1)">
       <defs>
        <path d="M 2118 4655 
L 1555 4655 
L 391 3882 
L 391 3309 
L 1527 4064 
L 1555 4064 
L 1555 0 
L 2118 0 
L 2118 4655 
z
" id="Inter-Regular-31" transform="scale(0.015625)"/>
       </defs>
       <use xlink:href="#Inter-Regular-31"/>
       <use x="46.448868" xlink:href="#Inter-Regular-30"/>
      </g>
     </g>
    </g>
    <g id="xtick_7">
     <g id="line2d_13">
      <path clip-path="url(#p270ec3b99e)" d="M 429.12 307.584 
L 429.12 41.472 
" style="fill:none;stroke:#e5e7eb;stroke-dasharray:3.7,1.6;stroke-dashoffset:0;"/>
     </g>
     <g id="line2d_14">
      <g>
       <use style="stroke:#000000;stroke-width:0.8;" x="429.12" xlink:href="#mcac6034c76" y="307.584"/>
      </g>
     </g>
     <g id="text_7">
      <!-- 12 -->
      <g transform="translate(423.771563 321.857437)scale(0.1 -0.1)">
       <use xlink:href="#Inter-Regular-31"/>
       <use x="46.448868" xlink:href="#Inter-Regular-32"/>
      </g>
     </g>
    </g>
    <g id="xtick_8">
     <g id="line2d_15">
      <path clip-path="url(#p270ec3b99e)" d="M 488.64 307.584 
L 488.64 41.472 
" style="fill:none;stroke:#e5e7eb;stroke-dasharray:3.7,1.6;stroke-dashoffset:0;"/>
     </g>
     <g id="line2d_16">
      <g>
       <use style="stroke:#000000;stroke-width:0.8;" x="488.64" xlink:href="#mcac6034c76" y="307.584"/>
      </g>
     </g>
     <g id="text_8">
      <!-- 14 -->
      <g transform="translate(483.107188 321.857437)scale(0.1 -0.1)">
       <use xlink:href="#Inter-Regular-31"/>
       <use x="46.448868" xlink:href="#Inter-Regular-34"/>
      </g>
     </g>
    </g>
    <g id="text_9">
     <!-- position s / m -->
     <g transform="translate(263.494531 335.516812)scale(0.1 -0.1)">
      <defs>
       <path d="M 491 -1309 
L 1027 -1309 
L 1027 536 
L 1073 536 
C 1191 345 1418 -73 2091 -73 
C 2964 -73 3573 627 3573 1736 
C 3573 2836 2964 3536 2082 3536 
C 1400 3536 1191 3118 1073 2936 
L 1009 2936 
L 1009 3491 
L 491 3491 
L 491 -1309 
z
M 1018 1745 
C 1018 2527 1364 3055 2018 3055 
C 2700 3055 3036 2482 3036 1745 
C 3036 1000 2691 409 2018 409 
C 1373 409 1018 955 1018 1745 
z
" id="Inter-Regular-70" transform="scale(0.015625)"/>
       <path d="M 1909 -73 
C 2855 -73 3491 645 3491 1727 
C 3491 2818 2855 3536 1909 3536 
C 964 3536 327 2818 327 1727 
C 327 645 964 -73 1909 -73 
z
M 1909 409 
C 1191 409 864 1027 864 1727 
C 864 2427 1191 3055 1909 3055 
C 2627 3055 2955 2427 2955 1727 
C 2955 1027 2627 409 1909 409 
z
" id="Inter-Regular-6f" transform="scale(0.015625)"/>
       <path d="M 2964 2709 
C 2796 3205 2418 3536 1727 3536 
C 991 3536 446 3118 446 2527 
C 446 2045 732 1723 1373 1573 
L 1955 1436 
C 2307 1355 2473 1186 2473 945 
C 2473 645 2155 400 1655 400 
C 1216 400 941 589 846 964 
L 336 836 
C 461 243 950 -73 1664 -73 
C 2475 -73 3027 370 3027 973 
C 3027 1459 2723 1766 2100 1918 
L 1582 2045 
C 1168 2148 982 2286 982 2555 
C 982 2855 1300 3073 1727 3073 
C 2196 3073 2389 2814 2482 2573 
L 2964 2709 
z
" id="Inter-Regular-73" transform="scale(0.015625)"/>
       <path d="M 764 4073 
C 973 4073 1146 4236 1146 4436 
C 1146 4636 973 4800 764 4800 
C 555 4800 382 4636 382 4436 
C 382 4236 555 4073 764 4073 
z
M 491 0 
L 1027 0 
L 1027 3491 
L 491 3491 
L 491 0 
z
" id="Inter-Regular-69" transform="scale(0.015625)"/>
       <path d="M 2009 3491 
L 1264 3491 
L 1264 4327 
L 727 4327 
L 727 3491 
L 200 3491 
L 200 3036 
L 727 3036 
L 727 855 
C 727 245 1218 -45 1673 -45 
C 1873 -45 2000 -9 2073 18 
L 1964 500 
C 1918 491 1846 473 1727 473 
C 1491 473 1264 545 1264 1000 
L 1264 3036 
L 2009 3036 
L 2009 3491 
z
" id="Inter-Regular-74" transform="scale(0.015625)"/>
       <path d="M 1027 2100 
C 1027 2709 1405 3055 1918 3055 
C 2416 3055 2718 2730 2718 2182 
L 2718 0 
L 3255 0 
L 3255 2218 
C 3255 3109 2780 3536 2073 3536 
C 1546 3536 1218 3300 1055 2945 
L 1009 2945 
L 1009 3491 
L 491 3491 
L 491 0 
L 1027 0 
L 1027 2100 
z
" id="Inter-Regular-6e" transform="scale(0.015625)"/>
       <path id="Inter-Regular-20" transform="scale(0.015625)"/>
       <path d="M 2136 4873 
L 1646 4873 
L 146 -700 
L 636 -700 
L 2136 4873 
z
" id="Inter-Regular-2f" transform="scale(0.015625)"/>
       <path d="M 491 0 
L 1027 0 
L 1027 2182 
C 1027 2693 1400 3055 1818 3055 
C 2225 3055 2509 2789 2509 2391 
L 2509 0 
L 3055 0 
L 3055 2273 
C 3055 2723 3336 3055 3827 3055 
C 4209 3055 4536 2852 4536 2336 
L 4536 0 
L 5073 0 
L 5073 2336 
C 5073 3157 4632 3536 4009 3536 
C 3509 3536 3143 3307 2964 2945 
L 2927 2945 
C 2755 3318 2450 3536 1991 3536 
C 1536 3536 1200 3318 1055 2945 
L 1009 2945 
L 1009 3491 
L 491 3491 
L 491 0 
z
" id="Inter-Regular-6d" transform="scale(0.015625)"/>
      </defs>
      <use xlink:href="#Inter-Regular-70"/>
      <use x="60.937515" xlink:href="#Inter-Regular-6f"/>
      <use x="120.596619" xlink:href="#Inter-Regular-73"/>
      <use x="172.869354" xlink:href="#Inter-Regular-69"/>
      <use x="196.590942" xlink:href="#Inter-Regular-74"/>
      <use x="232.95459" xlink:href="#Inter-Regular-69"/>
      <use x="256.676178" xlink:href="#Inter-Regular-6f"/>
      <use x="316.335281" xlink:href="#Inter-Regular-6e"/>
      <use x="374.858017" xlink:href="#Inter-Regular-20"/>
      <use x="402.983017" xlink:href="#Inter-Regular-73"/>
      <use x="455.255753" xlink:href="#Inter-Regular-20"/>
      <use x="483.380753" xlink:href="#Inter-Regular-2f"/>
      <use x="519.034164" xlink:href="#Inter-Regular-20"/>
      <use x="547.159164" xlink:href="#Inter-Regular-6d"/>
     </g>
    </g>
   </g>
   <g id="matplotlib.axis_2">
    <g id="ytick_1">
     <g id="line2d_17">
      <path clip-path="url(#p270ec3b99e)" d="M 72 295.487886 
L 518.4 295.487886 
" style="fill:none;stroke:#e5e7eb;stroke-dasharray:3.7,1.6;stroke-dashoffset:0;"/>
     </g>
     <g id="line2d_18">
      <defs>
       <path d="M 0 0 
L -3.5 0 
" id="m3b361ca838" style="stroke:#000000;stroke-width:0.8;"/>
      </defs>
      <g>
       <use style="stroke:#000000;stroke-width:0.8;" x="72" xlink:href="#m3b361ca838" y="295.487886"/>
      </g>
     </g>
     <g id="text_10">
      <!-- 0 -->
      <g transform="translate(58.75 299.124605)scale(0.1 -0.1)">
       <use xlink:href="#Inter-Regular-30"/>
      </g>
     </g>
    </g>
    <g id="ytick_2">
     <g id="line2d_19">
      <path clip-path="url(#p270ec3b99e)" d="M 72 240.602073 
L 518.4 240.602073 
" style="fill:none;stroke:#e5e7eb;stroke-dasharray:3.7,1.6;stroke-dashoffset:0;"/>
     </g>
     <g id="line2d_20">
      <g>
       <use style="stroke:#000000;stroke-width:0.8;" x="72" xlink:href="#m3b361ca838" y="240.602073"/>
      </g>
     </g>
     <g id="text_11">
      <!-- 5 -->
      <g transform="translate(58.920313 244.238791)scale(0.1 -0.1)">
       <defs>
        <path d="M 1936 -64 
C 2823 -64 3473 591 3473 1482 
C 3473 2384 2846 3045 1991 3045 
C 1677 3045 1373 2934 1182 2782 
L 1155 2782 
L 1318 4155 
L 3264 4155 
L 3264 4655 
L 846 4655 
L 564 2364 
L 1091 2300 
C 1284 2439 1614 2539 1900 2536 
C 2493 2532 2927 2082 2927 1473 
C 2927 875 2509 436 1936 436 
C 1459 436 1080 743 1036 1164 
L 491 1164 
C 525 455 1136 -64 1936 -64 
z
" id="Inter-Regular-35" transform="scale(0.015625)"/>
       </defs>
       <use xlink:href="#Inter-Regular-35"/>
      </g>
     </g>
    </g>
    <g id="ytick_3">
     <g id="line2d_21">
      <path clip-path="url(#p270ec3b99e)" d="M 72 185.716259 
L 518.4 185.716259 
" style="fill:none;stroke:#e5e7eb;stroke-dasharray:3.7,1.6;stroke-dashoffset:0;"/>
     </g>
     <g id="line2d_22">
      <g>
       <use style="stroke:#000000;stroke-width:0.8;" x="72" xlink:href="#m3b361ca838" y="185.716259"/>
      </g>
     </g>
     <g id="text_12">
      <!-- 10 -->
      <g transform="translate(54.104687 189.352978)scale(0.1 -0.1)">
       <use xlink:href="#Inter-Regular-31"/>
       <use x="46.448868" xlink:href="#Inter-Regular-30"/>
      </g>
     </g>
    </g>
    <g id="ytick_4">
     <g id="line2d_23">
      <path clip-path="url(#p270ec3b99e)" d="M 72 130.830446 
L 518.4 130.830446 
" style="fill:none;stroke:#e5e7eb;stroke-dasharray:3.7,1.6;stroke-dashoffset:0;"/>
     </g>
     <g id="line2d_24">
      <g>
       <use style="stroke:#000000;stroke-width:0.8;" x="72" xlink:href="#m3b361ca838" y="130.830446"/>
      </g>
     </g>
     <g id="text_13">
      <!-- 15 -->
      <g transform="translate(54.275 134.467164)scale(0.1 -0.1)">
       <use xlink:href="#Inter-Regular-31"/>
       <use x="46.448868" xlink:href="#Inter-Regular-35"/>
      </g>
     </g>
    </g>
    <g id="ytick_5">
     <g id="line2d_25">
      <path clip-path="url(#p270ec3b99e)" d="M 72 75.944632 
L 518.4 75.944632 
" style="fill:none;stroke:#e5e7eb;stroke-dasharray:3.7,1.6;stroke-dashoffset:0;"/>
     </g>
     <g id="line2d_26">
      <g>
       <use style="stroke:#000000;stroke-width:0.8;" x="72" xlink:href="#m3b361ca838" y="75.944632"/>
      </g>
     </g>
     <g id="text_14">
      <!-- 20 -->
      <g transform="translate(52.698437 79.581351)scale(0.1 -0.1)">
       <use xlink:href="#Inter-Regular-32"/>
       <use x="60.511383" xlink:href="#Inter-Regular-30"/>
      </g>
     </g>
    </g>
   </g>
   <g id="line2d_27">
    <path clip-path="url(#p270ec3b99e)" d="M 72 80.986665 
L 85.325515 80.874036 
L 98.65103 80.536147 
L 111.976545 79.972999 
L 125.30206 79.184592 
L 138.627574 78.170925 
L 151.953089 76.931999 
L 164.82144 75.521778 
L 165.696734 75.685358 
L 166.572028 76.381267 
L 167.447322 77.606127 
L 168.322616 79.353989 
L 169.197911 81.616366 
L 170.073205 84.38227 
L 170.948499 87.638271 
L 172.699087 95.555013 
L 174.449675 105.212996 
L 176.200264 116.424846 
L 177.950852 128.973041 
L 185.20704 183.718128 
L 188.064 202.491539 
L 190.837632 219.046457 
L 193.5696 233.743397 
L 195.4296 242.452379 
L 197.2896 249.807856 
L 199.1496 256.012771 
L 201.0096 261.23832 
L 203.5888 267.526943 
L 206.168 273.119733 
L 208.7472 278.01669 
L 210.540431 280.890009 
L 212.333662 283.461295 
L 214.126892 285.726377 
L 215.920123 287.681581 
L 217.713354 289.323736 
L 219.506585 290.650178 
L 221.299815 291.658755 
L 223.093046 292.347833 
L 224.886277 292.716292 
L 226.679508 292.763536 
L 228.472738 292.489488 
L 230.265969 291.894592 
L 232.0592 290.979813 
L 233.852431 289.746635 
L 235.645662 288.197058 
L 237.438892 286.333596 
L 239.232123 284.159272 
L 241.025354 281.677611 
L 242.818585 278.892639 
L 244.574933 275.801067 
L 247.154133 270.576965 
L 249.733333 264.657031 
L 252.303086 258.017302 
L 254.003657 252.841767 
L 255.704229 246.821304 
L 257.4048 239.82575 
L 260.145696 227.006493 
L 262.886592 212.82684 
L 265.627488 197.286789 
L 268.44576 179.889495 
L 271.30272 160.785336 
L 273.873984 142.327862 
L 277.302336 115.855555 
L 281.7336 80.483487 
L 282.6636 74.783533 
L 283.5936 70.065506 
L 284.5236 66.374068 
L 285.4536 63.744163 
L 286.3836 62.200686 
L 287.3136 61.758246 
L 301.18176 63.288911 
L 303.0864 63.481191 
L 304.0164 64.12241 
L 304.9464 65.85463 
L 305.8764 68.661455 
L 306.8064 72.516315 
L 307.7364 77.382719 
L 308.6664 83.214601 
L 309.5964 89.956755 
L 316.526016 145.701761 
L 319.09728 164.271358 
L 321.95424 183.448378 
L 324.772512 200.864209 
L 327.513408 216.371473 
L 330.254304 230.468233 
L 332.9952 243.154488 
L 334.695771 250.059955 
L 336.396343 256.005045 
L 338.096914 261.118289 
L 339.806933 265.575054 
L 342.386133 271.608089 
L 344.965333 276.894607 
L 346.6848 280.004221 
L 348.478031 282.787299 
L 350.271262 285.241702 
L 352.064492 287.363449 
L 353.857723 289.149097 
L 355.650954 290.595751 
L 357.444185 291.701063 
L 359.237415 292.463242 
L 361.030646 292.881051 
L 362.823877 292.953812 
L 364.617108 292.681408 
L 366.410338 292.064279 
L 368.203569 291.103428 
L 369.9968 289.800412 
L 371.790031 288.157345 
L 373.583262 286.176893 
L 375.376492 283.862266 
L 377.169723 281.217221 
L 378.962954 278.246047 
L 380.756185 274.953562 
L 382.512533 271.331225 
L 385.091733 265.261789 
L 387.670933 258.445835 
L 389.3904 253.487134 
L 391.2504 247.341978 
L 393.1104 239.840167 
L 394.9704 230.714394 
L 396.8304 219.639481 
L 399.562368 200.690103 
L 402.336 179.267947 
L 405.19296 154.90174 
L 407.966592 129.012846 
L 413.324442 77.112211 
L 414.199736 70.711355 
L 415.075031 65.255541 
L 415.950325 60.794496 
L 416.825619 57.368878 
L 417.700913 55.009909 
L 418.576207 53.739089 
L 419.451501 53.568 
L 420.326795 54.498202 
L 421.202089 56.521217 
L 422.077384 59.618606 
L 422.952678 63.76214 
L 423.827972 68.914053 
L 424.703266 75.027391 
L 432.03648 133.455111 
L 434.89344 153.922289 
L 437.625408 172.188269 
L 440.297006 188.583666 
L 441.997577 196.792363 
L 442.847863 200.144195 
L 443.698149 203.034086 
L 444.548434 205.486825 
L 446.28898 209.432671 
L 450.740277 218.627382 
L 455.191575 227.236442 
L 458.752613 233.702022 
L 462.313651 239.792786 
L 465.874689 245.508734 
L 469.435727 250.849865 
L 472.996765 255.81618 
L 476.557803 260.407679 
L 480.118841 264.624362 
L 483.679879 268.466228 
L 487.240917 271.933278 
L 490.801955 275.025512 
L 494.362993 277.74293 
L 497.033772 279.53502 
L 499.70455 281.116276 
L 502.375329 282.486698 
L 505.046107 283.646286 
L 507.716886 284.595039 
L 510.387664 285.332959 
L 513.058443 285.860044 
L 515.729221 286.176295 
L 518.4 286.281712 
L 518.4 286.281712 
" style="fill:none;stroke:#ef4444;stroke-linecap:square;stroke-width:1.5;"/>
   </g>
   <g id="line2d_28">
    <path clip-path="url(#p270ec3b99e)" d="M 72 243.577312 
L 78.218574 243.475958 
L 84.437147 243.171897 
L 90.655721 242.665128 
L 96.874294 241.955651 
L 103.092868 241.043467 
L 109.311442 239.928575 
L 115.530015 238.610975 
L 121.748589 237.090668 
L 127.967163 235.367653 
L 135.074104 233.15028 
L 142.181045 230.668146 
L 149.287986 227.921251 
L 156.45888 224.881292 
L 163.000128 221.873175 
L 165.696734 220.476944 
L 166.572028 219.770638 
L 167.447322 218.873341 
L 168.322616 217.780692 
L 169.197911 216.48738 
L 170.948499 213.272621 
L 172.699087 209.166491 
L 174.449675 204.089069 
L 176.200264 197.941527 
L 177.950852 190.60421 
L 179.70144 181.934304 
L 182.433408 166.79833 
L 185.20704 150.445912 
L 188.064 132.563949 
L 191.748288 107.948179 
L 195.4296 83.039322 
L 196.3596 77.964025 
L 197.2896 73.584238 
L 198.2196 69.930085 
L 199.1496 67.026698 
L 200.0796 64.894046 
L 201.0096 63.546799 
L 208.7472 55.531855 
L 223.093046 55.744185 
L 237.438892 55.722912 
L 243.7152 55.640148 
L 251.4528 63.698477 
L 252.303086 64.883113 
L 253.153371 66.683868 
L 254.003657 69.091029 
L 254.853943 72.091615 
L 255.704229 75.669446 
L 257.4048 84.47665 
L 261.059328 105.129667 
L 264.713856 124.701117 
L 268.44576 143.570787 
L 272.159808 161.230403 
L 275.58816 176.540092 
L 279.016512 190.897946 
L 280.8036 197.770898 
L 281.7336 200.686052 
L 282.6636 203.111786 
L 283.5936 205.0711 
L 284.5236 206.582568 
L 285.4536 207.660522 
L 286.3836 208.315182 
L 287.3136 208.552755 
L 295.9812 208.715556 
L 303.0864 208.673284 
L 304.0164 208.450233 
L 304.9464 207.810804 
L 305.8764 206.748934 
L 306.8064 205.254555 
L 307.7364 203.3135 
L 308.6664 200.907365 
L 309.5964 198.013337 
L 311.383488 191.185452 
L 314.81184 176.922277 
L 318.240192 161.716586 
L 321.95424 144.180151 
L 325.686144 125.445268 
L 329.340672 106.016511 
L 334.695771 76.778641 
L 335.546057 73.231528 
L 336.396343 70.25889 
L 337.246629 67.876756 
L 338.096914 66.097974 
L 338.9472 64.932135 
L 346.6848 57.032222 
L 361.030646 57.363276 
L 375.376492 57.459062 
L 381.6528 57.426988 
L 389.3904 65.485058 
L 390.3204 66.94847 
L 391.2504 69.416554 
L 392.1804 72.867405 
L 393.1104 77.270396 
L 394.0404 82.586449 
L 394.9704 88.768383 
L 396.8304 103.503229 
L 399.562368 126.538676 
L 402.336 148.408389 
L 405.19296 169.337044 
L 407.966592 188.103803 
L 410.69856 205.094409 
L 412.449148 214.437575 
L 414.199736 221.857916 
L 415.950325 227.626983 
L 416.825619 229.9604 
L 417.700913 231.955898 
L 418.576207 233.631693 
L 419.451501 235.00308 
L 420.326795 236.082578 
L 421.202089 236.880041 
L 422.077384 237.402748 
L 422.952678 237.655471 
L 423.827972 237.640516 
L 424.703266 237.357746 
L 425.57856 236.804581 
L 431.08416 232.315012 
L 436.714752 227.412221 
L 440.297006 224.281394 
L 441.147291 223.943342 
L 441.997577 223.908699 
L 442.847863 224.177762 
L 443.698149 224.748227 
L 444.548434 225.615207 
L 446.28898 228.121509 
L 450.740277 234.624159 
L 455.191575 240.712627 
L 459.642872 246.386914 
L 464.09417 251.647019 
L 468.545467 256.492943 
L 472.106505 260.071471 
L 475.667543 263.384923 
L 479.228581 266.433299 
L 482.78962 269.216599 
L 486.350658 271.734822 
L 489.911696 273.98797 
L 493.472734 275.976041 
L 497.033772 277.699036 
L 500.59481 279.156955 
L 504.155848 280.349798 
L 507.716886 281.277564 
L 511.277924 281.940255 
L 514.838962 282.337869 
L 518.4 282.470407 
L 518.4 282.470407 
" style="fill:none;stroke:#1d4ed8;stroke-linecap:square;stroke-width:1.5;"/>
   </g>
   <g id="line2d_29">
    <path clip-path="url(#p270ec3b99e)" d="M 72 295.488 
L 210.540431 295.421313 
L 213.230277 295.071732 
L 215.920123 294.422845 
L 218.609969 293.475241 
L 221.299815 292.229787 
L 223.989662 290.687619 
L 226.679508 288.850144 
L 229.369354 286.719038 
L 232.0592 284.296246 
L 234.749046 281.583978 
L 237.438892 278.58471 
L 240.128738 275.301178 
L 242.818585 271.736377 
L 246.2944 266.701435 
L 253.153371 256.536195 
L 255.704229 252.243609 
L 258.318432 247.335295 
L 280.8036 204.173306 
L 281.7336 202.706737 
L 282.6636 201.459867 
L 283.5936 200.43565 
L 284.5236 199.63651 
L 285.4536 199.064341 
L 286.3836 198.720496 
L 287.3136 198.605791 
L 303.0864 198.605789 
L 304.0164 198.720494 
L 304.9464 199.064338 
L 305.8764 199.636507 
L 306.8064 200.435647 
L 307.7364 201.459863 
L 308.6664 202.706733 
L 309.5964 204.173302 
L 312.240576 209.154733 
L 334.695771 252.2436 
L 337.246629 256.536185 
L 340.666667 261.655122 
L 348.478031 272.955686 
L 351.167877 276.427079 
L 353.857723 279.616175 
L 356.547569 282.520067 
L 359.237415 285.136104 
L 361.927262 287.461899 
L 364.617108 289.49533 
L 367.306954 291.234542 
L 369.9968 292.677947 
L 372.686646 293.82423 
L 375.376492 294.672343 
L 378.066338 295.221513 
L 380.756185 295.471239 
L 386.8112 295.487898 
L 518.4 295.487934 
L 518.4 295.487934 
" style="fill:none;stroke:#10b981;stroke-linecap:square;stroke-width:1.5;"/>
   </g>
   <g id="patch_3">
    <path d="M 72 307.584 
L 72 41.472 
" style="fill:none;stroke:#000000;stroke-linecap:square;stroke-linejoin:miter;stroke-width:0.8;"/>
   </g>
   <g id="patch_4">
    <path d="M 518.4 307.584 
L 518.4 41.472 
" style="fill:none;stroke:#000000;stroke-linecap:square;stroke-linejoin:miter;stroke-width:0.8;"/>
   </g>
   <g id="patch_5">
    <path d="M 72 307.584 
L 518.4 307.584 
" style="fill:none;stroke:#000000;stroke-linecap:square;stroke-linejoin:miter;stroke-width:0.8;"/>
   </g>
   <g id="patch_6">
    <path d="M 72 41.472 
L 518.4 41.472 
" style="fill:none;stroke:#000000;stroke-linecap:square;stroke-linejoin:miter;stroke-width:0.8;"/>
   </g>
   <g id="legend_1">
    <g id="line2d_30">
     <path d="M 81 12.5664 
L 101 12.5664 
" style="fill:none;stroke:#ef4444;stroke-linecap:square;stroke-width:1.5;"/>
    </g>
    <g id="line2d_31"/>
    <g id="text_15">
     <!-- $\beta_x$ / m -->
     <g transform="translate(109 16.0664)scale(0.1 -0.1)">
      <defs>
       <path d="M 872 216 
L 572 -1331 
L -6 -1331 
L 928 3478 
Q 1206 4903 2538 4903 
Q 3888 4903 3659 3700 
Q 3503 2844 2894 2531 
Q 3713 2250 3553 1416 
Q 3272 -69 1759 -66 
Q 1097 -63 872 216 
z
M 1019 966 
Q 1259 422 1875 425 
Q 2775 425 2966 1406 
Q 3138 2288 1675 2219 
L 1778 2750 
Q 2909 2731 3106 3750 
Q 3241 4438 2509 4434 
Q 1691 4434 1503 3459 
L 1019 966 
z
" id="DejaVuSans-Oblique-3b2" transform="scale(0.015625)"/>
       <path d="M 3841 3500 
L 2234 1784 
L 3219 0 
L 2559 0 
L 1819 1388 
L 531 0 
L -166 0 
L 1556 1844 
L 641 3500 
L 1300 3500 
L 1972 2234 
L 3144 3500 
L 3841 3500 
z
" id="DejaVuSans-Oblique-78" transform="scale(0.015625)"/>
      </defs>
      <use transform="translate(0 0.390625)" xlink:href="#DejaVuSans-Oblique-3b2"/>
      <use transform="translate(63.818359 -16.015625)scale(0.7)" xlink:href="#DejaVuSans-Oblique-78"/>
      <use transform="translate(107.978516 0.390625)" xlink:href="#Inter-Regular-20"/>
      <use transform="translate(136.103516 0.390625)" xlink:href="#Inter-Regular-2f"/>
      <use transform="translate(171.756927 0.390625)" xlink:href="#Inter-Regular-20"/>
      <use transform="translate(199.881927 0.390625)" xlink:href="#Inter-Regular-6d"/>
     </g>
    </g>
    <g id="line2d_32">
     <path d="M 260 12.5664 
L 280 12.5664 
" style="fill:none;stroke:#1d4ed8;stroke-linecap:square;stroke-width:1.5;"/>
    </g>
    <g id="line2d_33"/>
    <g id="text_16">
     <!-- $\beta_y$ / m -->
     <g transform="translate(288 16.0664)scale(0.1 -0.1)">
      <defs>
       <path d="M 1588 -325 
Q 1188 -997 936 -1164 
Q 684 -1331 294 -1331 
L -159 -1331 
L -63 -850 
L 269 -850 
Q 509 -850 678 -719 
Q 847 -588 1056 -206 
L 1234 128 
L 459 3500 
L 1069 3500 
L 1650 819 
L 3256 3500 
L 3859 3500 
L 1588 -325 
z
" id="DejaVuSans-Oblique-79" transform="scale(0.015625)"/>
      </defs>
      <use transform="translate(0 0.390625)" xlink:href="#DejaVuSans-Oblique-3b2"/>
      <use transform="translate(63.818359 -16.015625)scale(0.7)" xlink:href="#DejaVuSans-Oblique-79"/>
      <use transform="translate(107.978516 0.390625)" xlink:href="#Inter-Regular-20"/>
      <use transform="translate(136.103516 0.390625)" xlink:href="#Inter-Regular-2f"/>
      <use transform="translate(171.756927 0.390625)" xlink:href="#Inter-Regular-20"/>
      <use transform="translate(199.881927 0.390625)" xlink:href="#Inter-Regular-6d"/>
     </g>
    </g>
    <g id="line2d_34">
     <path d="M 439 12.5664 
L 459 12.5664 
" style="fill:none;stroke:#10b981;stroke-linecap:square;stroke-width:1.5;"/>
    </g>
    <g id="line2d_35"/>
    <g id="text_17">
     <!-- 10 $\eta_x$ / m -->
     <g transform="translate(467 16.0664)scale(0.1 -0.1)">
      <defs>
       <path d="M 3703 2113 
L 3034 -1331 
L 2459 -1331 
L 3125 2094 
Q 3222 2591 3075 2838 
Q 2931 3084 2544 3084 
Q 2078 3084 1750 2788 
Q 1425 2491 1325 1978 
L 941 0 
L 363 0 
L 1044 3500 
L 1622 3500 
L 1516 2956 
Q 1781 3272 2094 3428 
Q 2403 3584 2769 3584 
Q 3372 3584 3609 3213 
Q 3844 2838 3703 2113 
z
" id="DejaVuSans-Oblique-3b7" transform="scale(0.015625)"/>
      </defs>
      <use transform="translate(0 0.859375)" xlink:href="#Inter-Regular-31"/>
      <use transform="translate(46.448868 0.859375)" xlink:href="#Inter-Regular-30"/>
      <use transform="translate(108.948883 0.859375)" xlink:href="#Inter-Regular-20"/>
      <use transform="translate(137.073883 0.859375)" xlink:href="#DejaVuSans-Oblique-3b7"/>
      <use transform="translate(200.452789 -15.546875)scale(0.7)" xlink:href="#DejaVuSans-Oblique-78"/>
      <use transform="translate(244.612946 0.859375)" xlink:href="#Inter-Regular-20"/>
      <use transform="translate(272.737946 0.859375)" xlink:href="#Inter-Regular-2f"/>
      <use transform="translate(308.391357 0.859375)" xlink:href="#Inter-Regular-20"/>
      <use transform="translate(336.516357 0.859375)" xlink:href="#Inter-Regular-6d"/>
     </g>
    </g>
   </g>
   <g id="patch_7">
    <path d="M 155.50656 48.1248 
L 160.26816 48.1248 
L 160.26816 34.8192 
L 155.50656 34.8192 
z
" style="fill:#10b981;"/>
   </g>
   <g id="patch_8">
    <path d="M 164.82144 48.1248 
L 179.70144 48.1248 
L 179.70144 34.8192 
L 164.82144 34.8192 
z
" style="fill:#ef4444;"/>
   </g>
   <g id="patch_9">
    <path d="M 184.25472 48.1248 
L 189.01632 48.1248 
L 189.01632 34.8192 
L 184.25472 34.8192 
z
" style="fill:#10b981;"/>
   </g>
   <g id="patch_10">
    <path d="M 193.5696 48.1248 
L 201.0096 48.1248 
L 201.0096 34.8192 
L 193.5696 34.8192 
z
" style="fill:#ef4444;"/>
   </g>
   <g id="patch_11">
    <path d="M 208.7472 48.1248 
L 243.7152 48.1248 
L 243.7152 34.8192 
L 208.7472 34.8192 
z
" style="fill:#fbbf24;"/>
   </g>
   <g id="patch_12">
    <path d="M 251.4528 48.1248 
L 257.4048 48.1248 
L 257.4048 34.8192 
L 251.4528 34.8192 
z
" style="fill:#ef4444;"/>
   </g>
   <g id="patch_13">
    <path d="M 266.54112 48.1248 
L 271.30272 48.1248 
L 271.30272 34.8192 
L 266.54112 34.8192 
z
" style="fill:#10b981;"/>
   </g>
   <g id="patch_14">
    <path d="M 279.8736 48.1248 
L 287.3136 48.1248 
L 287.3136 34.8192 
L 279.8736 34.8192 
z
" style="fill:#ef4444;"/>
   </g>
   <g id="patch_15">
    <path d="M 292.0752 48.1248 
L 298.3248 48.1248 
L 298.3248 34.8192 
L 292.0752 34.8192 
z
" style="fill:#10b981;"/>
   </g>
   <g id="patch_16">
    <path d="M 303.0864 48.1248 
L 310.5264 48.1248 
L 310.5264 34.8192 
L 303.0864 34.8192 
z
" style="fill:#ef4444;"/>
   </g>
   <g id="patch_17">
    <path d="M 319.09728 48.1248 
L 323.85888 48.1248 
L 323.85888 34.8192 
L 319.09728 34.8192 
z
" style="fill:#10b981;"/>
   </g>
   <g id="patch_18">
    <path d="M 332.9952 48.1248 
L 338.9472 48.1248 
L 338.9472 34.8192 
L 332.9952 34.8192 
z
" style="fill:#ef4444;"/>
   </g>
   <g id="patch_19">
    <path d="M 346.6848 48.1248 
L 381.6528 48.1248 
L 381.6528 34.8192 
L 346.6848 34.8192 
z
" style="fill:#fbbf24;"/>
   </g>
   <g id="patch_20">
    <path d="M 389.3904 48.1248 
L 396.8304 48.1248 
L 396.8304 34.8192 
L 389.3904 34.8192 
z
" style="fill:#ef4444;"/>
   </g>
   <g id="patch_21">
    <path d="M 401.38368 48.1248 
L 406.14528 48.1248 
L 406.14528 34.8192 
L 401.38368 34.8192 
z
" style="fill:#10b981;"/>
   </g>
   <g id="patch_22">
    <path d="M 410.69856 48.1248 
L 425.57856 48.1248 
L 425.57856 34.8192 
L 410.69856 34.8192 
z
" style="fill:#ef4444;"/>
   </g>
   <g id="patch_23">
    <path d="M 430.13184 48.1248 
L 434.89344 48.1248 
L 434.89344 34.8192 
L 430.13184 34.8192 
z
" style="fill:#10b981;"/>
   </g>
   <g id="patch_24">
    <path d="M 439.44672 48.1248 
L 445.39872 48.1248 
L 445.39872 34.8192 
L 439.44672 34.8192 
z
" style="fill:#ef4444;"/>
   </g>
   <g id="patch_25">
    <path d="M 591.40128 48.1248 
L 597.35328 48.1248 
L 597.35328 34.8192 
L 591.40128 34.8192 
z
" style="fill:#ef4444;"/>
   </g>
   <g id="patch_26">
    <path d="M 601.90656 48.1248 
L 606.66816 48.1248 
L 606.66816 34.8192 
L 601.90656 34.8192 
z
" style="fill:#10b981;"/>
   </g>
   <g id="patch_27">
    <path d="M 611.22144 48.1248 
L 626.10144 48.1248 
L 626.10144 34.8192 
L 611.22144 34.8192 
z
" style="fill:#ef4444;"/>
   </g>
   <g id="patch_28">
    <path d="M 630.65472 48.1248 
L 635.41632 48.1248 
L 635.41632 34.8192 
L 630.65472 34.8192 
z
" style="fill:#10b981;"/>
   </g>
   <g id="patch_29">
    <path d="M 639.9696 48.1248 
L 647.4096 48.1248 
L 647.4096 34.8192 
L 639.9696 34.8192 
z
" style="fill:#ef4444;"/>
   </g>
   <g id="patch_30">
    <path d="M 655.1472 48.1248 
L 690.1152 48.1248 
L 690.1152 34.8192 
L 655.1472 34.8192 
z
" style="fill:#fbbf24;"/>
   </g>
   <g id="patch_31">
    <path d="M 697.8528 48.1248 
L 703.8048 48.1248 
L 703.8048 34.8192 
L 697.8528 34.8192 
z
" style="fill:#ef4444;"/>
   </g>
   <g id="patch_32">
    <path d="M 712.94112 48.1248 
L 717.70272 48.1248 
L 717.70272 34.8192 
L 712.94112 34.8192 
z
" style="fill:#10b981;"/>
   </g>
   <g id="patch_33">
    <path d="M 726.2736 48.1248 
L 733.7136 48.1248 
L 733.7136 34.8192 
L 726.2736 34.8192 
z
" style="fill:#ef4444;"/>
   </g>
   <g id="patch_34">
    <path d="M 738.4752 48.1248 
L 744.7248 48.1248 
L 744.7248 34.8192 
L 738.4752 34.8192 
z
" style="fill:#10b981;"/>
   </g>
   <g id="patch_35">
    <path d="M 749.4864 48.1248 
L 756.9264 48.1248 
L 756.9264 34.8192 
L 749.4864 34.8192 
z
" style="fill:#ef4444;"/>
   </g>
   <g id="patch_36">
    <path d="M 765.49728 48.1248 
L 770.25888 48.1248 
L 770.25888 34.8192 
L 765.49728 34.8192 
z
" style="fill:#10b981;"/>
   </g>
   <g id="patch_37">
    <path d="M 779.3952 48.1248 
L 785.3472 48.1248 
L 785.3472 34.8192 
L 779.3952 34.8192 
z
" style="fill:#ef4444;"/>
   </g>
   <g id="patch_38">
    <path d="M 793.0848 48.1248 
L 828.0528 48.1248 
L 828.0528 34.8192 
L 793.0848 34.8192 
z
" style="fill:#fbbf24;"/>
   </g>
   <g id="patch_39">
    <path d="M 835.7904 48.1248 
L 843.2304 48.1248 
L 843.2304 34.8192 
L 835.7904 34.8192 
z
" style="fill:#ef4444;"/>
   </g>
   <g id="patch_40">
    <path d="M 847.78368 48.1248 
L 852.54528 48.1248 
L 852.54528 34.8192 
L 847.78368 34.8192 
z
" style="fill:#10b981;"/>
   </g>
   <g id="patch_41">
    <path d="M 857.09856 48.1248 
L 871.97856 48.1248 
L 871.97856 34.8192 
L 857.09856 34.8192 
z
" style="fill:#ef4444;"/>
   </g>
   <g id="patch_42">
    <path d="M 876.53184 48.1248 
L 881.29344 48.1248 
L 881.29344 34.8192 
L 876.53184 34.8192 
z
" style="fill:#10b981;"/>
   </g>
   <g id="patch_43">
    <path d="M 1048.30656 48.1248 
L 1053.06816 48.1248 
L 1053.06816 34.8192 
L 1048.30656 34.8192 
z
" style="fill:#10b981;"/>
   </g>
   <g id="patch_44">
    <path d="M 1057.62144 48.1248 
L 1072.50144 48.1248 
L 1072.50144 34.8192 
L 1057.62144 34.8192 
z
" style="fill:#ef4444;"/>
   </g>
   <g id="patch_45">
    <path d="M 1077.05472 48.1248 
L 1081.81632 48.1248 
L 1081.81632 34.8192 
L 1077.05472 34.8192 
z
" style="fill:#10b981;"/>
   </g>
   <g id="patch_46">
    <path d="M 1086.3696 48.1248 
L 1093.8096 48.1248 
L 1093.8096 34.8192 
L 1086.3696 34.8192 
z
" style="fill:#ef4444;"/>
   </g>
   <g id="patch_47">
    <path d="M 1101.5472 48.1248 
L 1136.5152 48.1248 
L 1136.5152 34.8192 
L 1101.5472 34.8192 
z
" style="fill:#fbbf24;"/>
   </g>
   <g id="patch_48">
    <path d="M 1144.2528 48.1248 
L 1150.2048 48.1248 
L 1150.2048 34.8192 
L 1144.2528 34.8192 
z
" style="fill:#ef4444;"/>
   </g>
   <g id="patch_49">
    <path d="M 1159.34112 48.1248 
L 1164.10272 48.1248 
L 1164.10272 34.8192 
L 1159.34112 34.8192 
z
" style="fill:#10b981;"/>
   </g>
   <g id="patch_50">
    <path d="M 1172.6736 48.1248 
L 1180.1136 48.1248 
L 1180.1136 34.8192 
L 1172.6736 34.8192 
z
" style="fill:#ef4444;"/>
   </g>
   <g id="patch_51">
    <path d="M 1184.8752 48.1248 
L 1191.1248 48.1248 
L 1191.1248 34.8192 
L 1184.8752 34.8192 
z
" style="fill:#10b981;"/>
   </g>
   <g id="patch_52">
    <path d="M 1195.8864 48.1248 
L 1203.3264 48.1248 
L 1203.3264 34.8192 
L 1195.8864 34.8192 
z
" style="fill:#ef4444;"/>
   </g>
   <g id="patch_53">
    <path d="M 1211.89728 48.1248 
L 1216.65888 48.1248 
L 1216.65888 34.8192 
L 1211.89728 34.8192 
z
" style="fill:#10b981;"/>
   </g>
   <g id="patch_54">
    <path d="M 1225.7952 48.1248 
L 1231.7472 48.1248 
L 1231.7472 34.8192 
L 1225.7952 34.8192 
z
" style="fill:#ef4444;"/>
   </g>
   <g id="patch_55">
    <path d="M 1239.4848 48.1248 
L 1274.4528 48.1248 
L 1274.4528 34.8192 
L 1239.4848 34.8192 
z
" style="fill:#fbbf24;"/>
   </g>
   <g id="patch_56">
    <path d="M 1282.1904 48.1248 
L 1289.6304 48.1248 
L 1289.6304 34.8192 
L 1282.1904 34.8192 
z
" style="fill:#ef4444;"/>
   </g>
   <g id="patch_57">
    <path d="M 1294.18368 48.1248 
L 1298.94528 48.1248 
L 1298.94528 34.8192 
L 1294.18368 34.8192 
z
" style="fill:#10b981;"/>
   </g>
   <g id="patch_58">
    <path d="M 1303.49856 48.1248 
L 1318.37856 48.1248 
L 1318.37856 34.8192 
L 1303.49856 34.8192 
z
" style="fill:#ef4444;"/>
   </g>
   <g id="patch_59">
    <path d="M 1322.93184 48.1248 
L 1327.69344 48.1248 
L 1327.69344 34.8192 
L 1322.93184 34.8192 
z
" style="fill:#10b981;"/>
   </g>
   <g id="patch_60">
    <path d="M 1332.24672 48.1248 
L 1338.19872 48.1248 
L 1338.19872 34.8192 
L 1332.24672 34.8192 
z
" style="fill:#ef4444;"/>
   </g>
   <g id="patch_61">
    <path d="M 1484.20128 48.1248 
L 1490.15328 48.1248 
L 1490.15328 34.8192 
L 1484.20128 34.8192 
z
" style="fill:#ef4444;"/>
   </g>
   <g id="patch_62">
    <path d="M 1494.70656 48.1248 
L 1499.46816 48.1248 
L 1499.46816 34.8192 
L 1494.70656 34.8192 
z
" style="fill:#10b981;"/>
   </g>
   <g id="patch_63">
    <path d="M 1504.02144 48.1248 
L 1518.90144 48.1248 
L 1518.90144 34.8192 
L 1504.02144 34.8192 
z
" style="fill:#ef4444;"/>
   </g>
   <g id="patch_64">
    <path d="M 1523.45472 48.1248 
L 1528.21632 48.1248 
L 1528.21632 34.8192 
L 1523.45472 34.8192 
z
" style="fill:#10b981;"/>
   </g>
   <g id="patch_65">
    <path d="M 1532.7696 48.1248 
L 1540.2096 48.1248 
L 1540.2096 34.8192 
L 1532.7696 34.8192 
z
" style="fill:#ef4444;"/>
   </g>
   <g id="patch_66">
    <path d="M 1547.9472 48.1248 
L 1582.9152 48.1248 
L 1582.9152 34.8192 
L 1547.9472 34.8192 
z
" style="fill:#fbbf24;"/>
   </g>
   <g id="patch_67">
    <path d="M 1590.6528 48.1248 
L 1596.6048 48.1248 
L 1596.6048 34.8192 
L 1590.6528 34.8192 
z
" style="fill:#ef4444;"/>
   </g>
   <g id="patch_68">
    <path d="M 1605.74112 48.1248 
L 1610.50272 48.1248 
L 1610.50272 34.8192 
L 1605.74112 34.8192 
z
" style="fill:#10b981;"/>
   </g>
   <g id="patch_69">
    <path d="M 1619.0736 48.1248 
L 1626.5136 48.1248 
L 1626.5136 34.8192 
L 1619.0736 34.8192 
z
" style="fill:#ef4444;"/>
   </g>
   <g id="patch_70">
    <path d="M 1631.2752 48.1248 
L 1637.5248 48.1248 
L 1637.5248 34.8192 
L 1631.2752 34.8192 
z
" style="fill:#10b981;"/>
   </g>
   <g id="patch_71">
    <path d="M 1642.2864 48.1248 
L 1649.7264 48.1248 
L 1649.7264 34.8192 
L 1642.2864 34.8192 
z
" style="fill:#ef4444;"/>
   </g>
   <g id="patch_72">
    <path d="M 1658.29728 48.1248 
L 1663.05888 48.1248 
L 1663.05888 34.8192 
L 1658.29728 34.8192 
z
" style="fill:#10b981;"/>
   </g>
   <g id="patch_73">
    <path d="M 1672.1952 48.1248 
L 1678.1472 48.1248 
L 1678.1472 34.8192 
L 1672.1952 34.8192 
z
" style="fill:#ef4444;"/>
   </g>
   <g id="patch_74">
    <path d="M 1685.8848 48.1248 
L 1720.8528 48.1248 
L 1720.8528 34.8192 
L 1685.8848 34.8192 
z
" style="fill:#fbbf24;"/>
   </g>
   <g id="patch_75">
    <path d="M 1728.5904 48.1248 
L 1736.0304 48.1248 
L 1736.0304 34.8192 
L 1728.5904 34.8192 
z
" style="fill:#ef4444;"/>
   </g>
   <g id="patch_76">
    <path d="M 1740.58368 48.1248 
L 1745.34528 48.1248 
L 1745.34528 34.8192 
L 1740.58368 34.8192 
z
" style="fill:#10b981;"/>
   </g>
   <g id="patch_77">
    <path d="M 1749.89856 48.1248 
L 1764.77856 48.1248 
L 1764.77856 34.8192 
L 1749.89856 34.8192 
z
" style="fill:#ef4444;"/>
   </g>
   <g id="patch_78">
    <path d="M 1769.33184 48.1248 
L 1774.09344 48.1248 
L 1774.09344 34.8192 
L 1769.33184 34.8192 
z
" style="fill:#10b981;"/>
   </g>
   <g id="patch_79">
    <path d="M 1941.10656 48.1248 
L 1945.86816 48.1248 
L 1945.86816 34.8192 
L 1941.10656 34.8192 
z
" style="fill:#10b981;"/>
   </g>
   <g id="patch_80">
    <path d="M 1950.42144 48.1248 
L 1965.30144 48.1248 
L 1965.30144 34.8192 
L 1950.42144 34.8192 
z
" style="fill:#ef4444;"/>
   </g>
   <g id="patch_81">
    <path d="M 1969.85472 48.1248 
L 1974.61632 48.1248 
L 1974.61632 34.8192 
L 1969.85472 34.8192 
z
" style="fill:#10b981;"/>
   </g>
   <g id="patch_82">
    <path d="M 1979.1696 48.1248 
L 1986.6096 48.1248 
L 1986.6096 34.8192 
L 1979.1696 34.8192 
z
" style="fill:#ef4444;"/>
   </g>
   <g id="patch_83">
    <path d="M 1994.3472 48.1248 
L 2029.3152 48.1248 
L 2029.3152 34.8192 
L 1994.3472 34.8192 
z
" style="fill:#fbbf24;"/>
   </g>
   <g id="patch_84">
    <path d="M 2037.0528 48.1248 
L 2043.0048 48.1248 
L 2043.0048 34.8192 
L 2037.0528 34.8192 
z
" style="fill:#ef4444;"/>
   </g>
   <g id="patch_85">
    <path d="M 2052.14112 48.1248 
L 2056.90272 48.1248 
L 2056.90272 34.8192 
L 2052.14112 34.8192 
z
" style="fill:#10b981;"/>
   </g>
   <g id="patch_86">
    <path d="M 2065.4736 48.1248 
L 2072.9136 48.1248 
L 2072.9136 34.8192 
L 2065.4736 34.8192 
z
" style="fill:#ef4444;"/>
   </g>
   <g id="patch_87">
    <path d="M 2077.6752 48.1248 
L 2083.9248 48.1248 
L 2083.9248 34.8192 
L 2077.6752 34.8192 
z
" style="fill:#10b981;"/>
   </g>
   <g id="patch_88">
    <path d="M 2088.6864 48.1248 
L 2096.1264 48.1248 
L 2096.1264 34.8192 
L 2088.6864 34.8192 
z
" style="fill:#ef4444;"/>
   </g>
   <g id="patch_89">
    <path d="M 2104.69728 48.1248 
L 2109.45888 48.1248 
L 2109.45888 34.8192 
L 2104.69728 34.8192 
z
" style="fill:#10b981;"/>
   </g>
   <g id="patch_90">
    <path d="M 2118.5952 48.1248 
L 2124.5472 48.1248 
L 2124.5472 34.8192 
L 2118.5952 34.8192 
z
" style="fill:#ef4444;"/>
   </g>
   <g id="patch_91">
    <path d="M 2132.2848 48.1248 
L 2167.2528 48.1248 
L 2167.2528 34.8192 
L 2132.2848 34.8192 
z
" style="fill:#fbbf24;"/>
   </g>
   <g id="patch_92">
    <path d="M 2174.9904 48.1248 
L 2182.4304 48.1248 
L 2182.4304 34.8192 
L 2174.9904 34.8192 
z
" style="fill:#ef4444;"/>
   </g>
   <g id="patch_93">
    <path d="M 2186.98368 48.1248 
L 2191.74528 48.1248 
L 2191.74528 34.8192 
L 2186.98368 34.8192 
z
" style="fill:#10b981;"/>
   </g>
   <g id="patch_94">
    <path d="M 2196.29856 48.1248 
L 2211.17856 48.1248 
L 2211.17856 34.8192 
L 2196.29856 34.8192 
z
" style="fill:#ef4444;"/>
   </g>
   <g id="patch_95">
    <path d="M 2215.73184 48.1248 
L 2220.49344 48.1248 
L 2220.49344 34.8192 
L 2215.73184 34.8192 
z
" style="fill:#10b981;"/>
   </g>
   <g id="patch_96">
    <path d="M 2225.04672 48.1248 
L 2230.99872 48.1248 
L 2230.99872 34.8192 
L 2225.04672 34.8192 
z
" style="fill:#ef4444;"/>
   </g>
   <g id="patch_97">
    <path d="M 2377.00128 48.1248 
L 2382.95328 48.1248 
L 2382.95328 34.8192 
L 2377.00128 34.8192 
z
" style="fill:#ef4444;"/>
   </g>
   <g id="patch_98">
    <path d="M 2387.50656 48.1248 
L 2392.26816 48.1248 
L 2392.26816 34.8192 
L 2387.50656 34.8192 
z
" style="fill:#10b981;"/>
   </g>
   <g id="patch_99">
    <path d="M 2396.82144 48.1248 
L 2411.70144 48.1248 
L 2411.70144 34.8192 
L 2396.82144 34.8192 
z
" style="fill:#ef4444;"/>
   </g>
   <g id="patch_100">
    <path d="M 2416.25472 48.1248 
L 2421.01632 48.1248 
L 2421.01632 34.8192 
L 2416.25472 34.8192 
z
" style="fill:#10b981;"/>
   </g>
   <g id="patch_101">
    <path d="M 2425.5696 48.1248 
L 2433.0096 48.1248 
L 2433.0096 34.8192 
L 2425.5696 34.8192 
z
" style="fill:#ef4444;"/>
   </g>
   <g id="patch_102">
    <path d="M 2440.7472 48.1248 
L 2475.7152 48.1248 
L 2475.7152 34.8192 
L 2440.7472 34.8192 
z
" style="fill:#fbbf24;"/>
   </g>
   <g id="patch_103">
    <path d="M 2483.4528 48.1248 
L 2489.4048 48.1248 
L 2489.4048 34.8192 
L 2483.4528 34.8192 
z
" style="fill:#ef4444;"/>
   </g>
   <g id="patch_104">
    <path d="M 2498.54112 48.1248 
L 2503.30272 48.1248 
L 2503.30272 34.8192 
L 2498.54112 34.8192 
z
" style="fill:#10b981;"/>
   </g>
   <g id="patch_105">
    <path d="M 2511.8736 48.1248 
L 2519.3136 48.1248 
L 2519.3136 34.8192 
L 2511.8736 34.8192 
z
" style="fill:#ef4444;"/>
   </g>
   <g id="patch_106">
    <path d="M 2524.0752 48.1248 
L 2530.3248 48.1248 
L 2530.3248 34.8192 
L 2524.0752 34.8192 
z
" style="fill:#10b981;"/>
   </g>
   <g id="patch_107">
    <path d="M 2535.0864 48.1248 
L 2542.5264 48.1248 
L 2542.5264 34.8192 
L 2535.0864 34.8192 
z
" style="fill:#ef4444;"/>
   </g>
   <g id="patch_108">
    <path d="M 2551.09728 48.1248 
L 2555.85888 48.1248 
L 2555.85888 34.8192 
L 2551.09728 34.8192 
z
" style="fill:#10b981;"/>
   </g>
   <g id="patch_109">
    <path d="M 2564.9952 48.1248 
L 2570.9472 48.1248 
L 2570.9472 34.8192 
L 2564.9952 34.8192 
z
" style="fill:#ef4444;"/>
   </g>
   <g id="patch_110">
    <path d="M 2578.6848 48.1248 
L 2613.6528 48.1248 
L 2613.6528 34.8192 
L 2578.6848 34.8192 
z
" style="fill:#fbbf24;"/>
   </g>
   <g id="patch_111">
    <path d="M 2621.3904 48.1248 
L 2628.8304 48.1248 
L 2628.8304 34.8192 
L 2621.3904 34.8192 
z
" style="fill:#ef4444;"/>
   </g>
   <g id="patch_112">
    <path d="M 2633.38368 48.1248 
L 2638.14528 48.1248 
L 2638.14528 34.8192 
L 2633.38368 34.8192 
z
" style="fill:#10b981;"/>
   </g>
   <g id="patch_113">
    <path d="M 2642.69856 48.1248 
L 2657.57856 48.1248 
L 2657.57856 34.8192 
L 2642.69856 34.8192 
z
" style="fill:#ef4444;"/>
   </g>
   <g id="patch_114">
    <path d="M 2662.13184 48.1248 
L 2666.89344 48.1248 
L 2666.89344 34.8192 
L 2662.13184 34.8192 
z
" style="fill:#10b981;"/>
   </g>
   <g id="patch_115">
    <path d="M 2833.90656 48.1248 
L 2838.66816 48.1248 
L 2838.66816 34.8192 
L 2833.90656 34.8192 
z
" style="fill:#10b981;"/>
   </g>
   <g id="patch_116">
    <path d="M 2843.22144 48.1248 
L 2858.10144 48.1248 
L 2858.10144 34.8192 
L 2843.22144 34.8192 
z
" style="fill:#ef4444;"/>
   </g>
   <g id="patch_117">
    <path d="M 2862.65472 48.1248 
L 2867.41632 48.1248 
L 2867.41632 34.8192 
L 2862.65472 34.8192 
z
" style="fill:#10b981;"/>
   </g>
   <g id="patch_118">
    <path d="M 2871.9696 48.1248 
L 2879.4096 48.1248 
L 2879.4096 34.8192 
L 2871.9696 34.8192 
z
" style="fill:#ef4444;"/>
   </g>
   <g id="patch_119">
    <path d="M 2887.1472 48.1248 
L 2922.1152 48.1248 
L 2922.1152 34.8192 
L 2887.1472 34.8192 
z
" style="fill:#fbbf24;"/>
   </g>
   <g id="patch_120">
    <path d="M 2929.8528 48.1248 
L 2935.8048 48.1248 
L 2935.8048 34.8192 
L 2929.8528 34.8192 
z
" style="fill:#ef4444;"/>
   </g>
   <g id="patch_121">
    <path d="M 2944.94112 48.1248 
L 2949.70272 48.1248 
L 2949.70272 34.8192 
L 2944.94112 34.8192 
z
" style="fill:#10b981;"/>
   </g>
   <g id="patch_122">
    <path d="M 2958.2736 48.1248 
L 2965.7136 48.1248 
L 2965.7136 34.8192 
L 2958.2736 34.8192 
z
" style="fill:#ef4444;"/>
   </g>
   <g id="patch_123">
    <path d="M 2970.4752 48.1248 
L 2976.7248 48.1248 
L 2976.7248 34.8192 
L 2970.4752 34.8192 
z
" style="fill:#10b981;"/>
   </g>
   <g id="patch_124">
    <path d="M 2981.4864 48.1248 
L 2988.9264 48.1248 
L 2988.9264 34.8192 
L 2981.4864 34.8192 
z
" style="fill:#ef4444;"/>
   </g>
   <g id="patch_125">
    <path d="M 2997.49728 48.1248 
L 3002.25888 48.1248 
L 3002.25888 34.8192 
L 2997.49728 34.8192 
z
" style="fill:#10b981;"/>
   </g>
   <g id="patch_126">
    <path d="M 3011.3952 48.1248 
L 3017.3472 48.1248 
L 3017.3472 34.8192 
L 3011.3952 34.8192 
z
" style="fill:#ef4444;"/>
   </g>
   <g id="patch_127">
    <path d="M 3025.0848 48.1248 
L 3060.0528 48.1248 
L 3060.0528 34.8192 
L 3025.0848 34.8192 
z
" style="fill:#fbbf24;"/>
   </g>
   <g id="patch_128">
    <path d="M 3067.7904 48.1248 
L 3075.2304 48.1248 
L 3075.2304 34.8192 
L 3067.7904 34.8192 
z
" style="fill:#ef4444;"/>
   </g>
   <g id="patch_129">
    <path d="M 3079.78368 48.1248 
L 3084.54528 48.1248 
L 3084.54528 34.8192 
L 3079.78368 34.8192 
z
" style="fill:#10b981;"/>
   </g>
   <g id="patch_130">
    <path d="M 3089.09856 48.1248 
L 3103.97856 48.1248 
L 3103.97856 34.8192 
L 3089.09856 34.8192 
z
" style="fill:#ef4444;"/>
   </g>
   <g id="patch_131">
    <path d="M 3108.53184 48.1248 
L 3113.29344 48.1248 
L 3113.29344 34.8192 
L 3108.53184 34.8192 
z
" style="fill:#10b981;"/>
   </g>
   <g id="patch_132">
    <path d="M 3117.84672 48.1248 
L 3123.79872 48.1248 
L 3123.79872 34.8192 
L 3117.84672 34.8192 
z
" style="fill:#ef4444;"/>
   </g>
   <g id="patch_133">
    <path d="M 3269.80128 48.1248 
L 3275.75328 48.1248 
L 3275.75328 34.8192 
L 3269.80128 34.8192 
z
" style="fill:#ef4444;"/>
   </g>
   <g id="patch_134">
    <path d="M 3280.30656 48.1248 
L 3285.06816 48.1248 
L 3285.06816 34.8192 
L 3280.30656 34.8192 
z
" style="fill:#10b981;"/>
   </g>
   <g id="patch_135">
    <path d="M 3289.62144 48.1248 
L 3304.50144 48.1248 
L 3304.50144 34.8192 
L 3289.62144 34.8192 
z
" style="fill:#ef4444;"/>
   </g>
   <g id="patch_136">
    <path d="M 3309.05472 48.1248 
L 3313.81632 48.1248 
L 3313.81632 34.8192 
L 3309.05472 34.8192 
z
" style="fill:#10b981;"/>
   </g>
   <g id="patch_137">
    <path d="M 3318.3696 48.1248 
L 3325.8096 48.1248 
L 3325.8096 34.8192 
L 3318.3696 34.8192 
z
" style="fill:#ef4444;"/>
   </g>
   <g id="patch_138">
    <path d="M 3333.5472 48.1248 
L 3368.5152 48.1248 
L 3368.5152 34.8192 
L 3333.5472 34.8192 
z
" style="fill:#fbbf24;"/>
   </g>
   <g id="patch_139">
    <path d="M 3376.2528 48.1248 
L 3382.2048 48.1248 
L 3382.2048 34.8192 
L 3376.2528 34.8192 
z
" style="fill:#ef4444;"/>
   </g>
   <g id="patch_140">
    <path d="M 3391.34112 48.1248 
L 3396.10272 48.1248 
L 3396.10272 34.8192 
L 3391.34112 34.8192 
z
" style="fill:#10b981;"/>
   </g>
   <g id="patch_141">
    <path d="M 3404.6736 48.1248 
L 3412.1136 48.1248 
L 3412.1136 34.8192 
L 3404.6736 34.8192 
z
" style="fill:#ef4444;"/>
   </g>
   <g id="patch_142">
    <path d="M 3416.8752 48.1248 
L 3423.1248 48.1248 
L 3423.1248 34.8192 
L 3416.8752 34.8192 
z
" style="fill:#10b981;"/>
   </g>
   <g id="patch_143">
    <path d="M 3427.8864 48.1248 
L 3435.3264 48.1248 
L 3435.3264 34.8192 
L 3427.8864 34.8192 
z
" style="fill:#ef4444;"/>
   </g>
   <g id="patch_144">
    <path d="M 3443.89728 48.1248 
L 3448.65888 48.1248 
L 3448.65888 34.8192 
L 3443.89728 34.8192 
z
" style="fill:#10b981;"/>
   </g>
   <g id="patch_145">
    <path d="M 3457.7952 48.1248 
L 3463.7472 48.1248 
L 3463.7472 34.8192 
L 3457.7952 34.8192 
z
" style="fill:#ef4444;"/>
   </g>
   <g id="patch_146">
    <path d="M 3471.4848 48.1248 
L 3506.4528 48.1248 
L 3506.4528 34.8192 
L 3471.4848 34.8192 
z
" style="fill:#fbbf24;"/>
   </g>
   <g id="patch_147">
    <path d="M 3514.1904 48.1248 
L 3521.6304 48.1248 
L 3521.6304 34.8192 
L 3514.1904 34.8192 
z
" style="fill:#ef4444;"/>
   </g>
   <g id="patch_148">
    <path d="M 3526.18368 48.1248 
L 3530.94528 48.1248 
L 3530.94528 34.8192 
L 3526.18368 34.8192 
z
" style="fill:#10b981;"/>
   </g>
   <g id="patch_149">
    <path d="M 3535.49856 48.1248 
L 3550.37856 48.1248 
L 3550.37856 34.8192 
L 3535.49856 34.8192 
z
" style="fill:#ef4444;"/>
   </g>
   <g id="patch_150">
    <path d="M 3554.93184 48.1248 
L 3559.69344 48.1248 
L 3559.69344 34.8192 
L 3554.93184 34.8192 
z
" style="fill:#10b981;"/>
   </g>
   <g id="text_18">
    <!-- S4D -->
    <g transform="translate(152.890876 56.084631)scale(0.05 -0.05)">
     <defs>
      <path d="M 3109 3491 
L 3655 3491 
C 3630 4193 2982 4718 2082 4718 
C 1191 4718 491 4200 491 3418 
C 491 2791 946 2418 1673 2209 
L 2246 2045 
C 2736 1909 3173 1736 3173 1273 
C 3173 764 2682 427 2036 427 
C 1482 427 991 673 946 1200 
L 364 1200 
C 418 436 1036 -82 2036 -82 
C 3109 -82 3718 509 3718 1264 
C 3718 2136 2891 2418 2409 2545 
L 1936 2673 
C 1591 2764 1036 2945 1036 3445 
C 1036 3891 1446 4218 2064 4218 
C 2627 4218 3055 3950 3109 3491 
z
" id="Inter-Regular-53" transform="scale(0.015625)"/>
      <path d="M 2000 0 
C 3418 0 4218 882 4218 2336 
C 4218 3782 3418 4655 2064 4655 
L 564 4655 
L 564 0 
L 2000 0 
z
M 2027 4155 
C 3118 4155 3673 3464 3673 2336 
C 3673 1200 3118 500 1964 500 
L 1127 500 
L 1127 4155 
L 2027 4155 
z
" id="Inter-Regular-44" transform="scale(0.015625)"/>
     </defs>
     <use xlink:href="#Inter-Regular-53"/>
     <use x="63.778427" xlink:href="#Inter-Regular-34"/>
     <use x="127.982986" xlink:href="#Inter-Regular-44"/>
    </g>
   </g>
   <g id="text_19">
    <!-- Q4D -->
    <g transform="translate(166.955971 29.473431)scale(0.05 -0.05)">
     <defs>
      <path d="M 4491 2327 
C 4491 3800 3627 4718 2436 4718 
C 1246 4718 382 3800 382 2327 
C 382 855 1246 -64 2436 -64 
C 2741 -64 3023 -5 3275 109 
L 3682 -436 
L 4300 -436 
L 3693 370 
C 4189 777 4491 1455 4491 2327 
z
M 2255 1455 
L 2943 550 
C 2786 493 2616 464 2436 464 
C 1591 464 927 1118 927 2327 
C 927 3536 1591 4191 2436 4191 
C 3282 4191 3946 3536 3946 2327 
C 3946 1625 3723 1111 3368 802 
L 2873 1455 
L 2255 1455 
z
" id="Inter-Regular-51" transform="scale(0.015625)"/>
     </defs>
     <use xlink:href="#Inter-Regular-51"/>
     <use x="76.136383" xlink:href="#Inter-Regular-34"/>
     <use x="140.340942" xlink:href="#Inter-Regular-44"/>
    </g>
   </g>
   <g id="text_20">
    <!-- S3D -->
    <g transform="translate(181.653098 56.084631)scale(0.05 -0.05)">
     <defs>
      <path d="M 2055 -64 
C 2957 -64 3627 502 3627 1264 
C 3627 1855 3277 2284 2691 2382 
L 2691 2418 
C 3161 2561 3455 2948 3455 3473 
C 3455 4132 2934 4718 2073 4718 
C 1268 4718 600 4223 573 3491 
L 1118 3491 
C 1139 3955 1580 4227 2064 4227 
C 2577 4227 2909 3916 2909 3445 
C 2909 2955 2525 2636 1973 2636 
L 1600 2636 
L 1600 2136 
L 1973 2136 
C 2680 2136 3073 1777 3073 1264 
C 3073 770 2643 436 2046 436 
C 1507 436 1080 714 1046 1164 
L 473 1164 
C 507 432 1152 -64 2055 -64 
z
" id="Inter-Regular-33" transform="scale(0.015625)"/>
     </defs>
     <use xlink:href="#Inter-Regular-53"/>
     <use x="63.778427" xlink:href="#Inter-Regular-33"/>
     <use x="127.41481" xlink:href="#Inter-Regular-44"/>
    </g>
   </g>
   <g id="text_21">
    <!-- Q3D -->
    <g transform="translate(191.998194 29.473431)scale(0.05 -0.05)">
     <use xlink:href="#Inter-Regular-51"/>
     <use x="76.136383" xlink:href="#Inter-Regular-33"/>
     <use x="139.772766" xlink:href="#Inter-Regular-44"/>
    </g>
   </g>
   <g id="text_22">
    <!-- B -->
    <g transform="translate(224.604638 56.084631)scale(0.05 -0.05)">
     <defs>
      <path d="M 564 0 
L 2246 0 
C 3346 0 3800 536 3800 1236 
C 3800 1973 3291 2373 2864 2400 
L 2864 2445 
C 3264 2555 3618 2818 3618 3418 
C 3618 4100 3164 4655 2191 4655 
L 564 4655 
L 564 0 
z
M 1127 2609 
L 1127 4155 
L 2191 4155 
C 2809 4155 3082 3827 3082 3418 
C 3082 2927 2682 2609 2173 2609 
L 1127 2609 
z
M 1127 500 
L 1127 2118 
L 2273 2118 
C 2882 2118 3264 1709 3264 1236 
C 3264 827 2982 500 2246 500 
L 1127 500 
z
" id="Inter-Regular-42" transform="scale(0.015625)"/>
     </defs>
     <use xlink:href="#Inter-Regular-42"/>
    </g>
   </g>
   <g id="text_23">
    <!-- Q2 -->
    <g transform="translate(251.012394 29.473431)scale(0.05 -0.05)">
     <use xlink:href="#Inter-Regular-51"/>
     <use x="76.136383" xlink:href="#Inter-Regular-32"/>
    </g>
   </g>
   <g id="text_24">
    <!-- S2 -->
    <g transform="translate(265.814498 56.084631)scale(0.05 -0.05)">
     <use xlink:href="#Inter-Regular-53"/>
     <use x="63.778427" xlink:href="#Inter-Regular-32"/>
    </g>
   </g>
   <g id="text_25">
    <!-- Q1 -->
    <g transform="translate(280.528756 29.473431)scale(0.05 -0.05)">
     <use xlink:href="#Inter-Regular-51"/>
     <use x="76.136383" xlink:href="#Inter-Regular-31"/>
    </g>
   </g>
   <g id="text_26">
    <!-- S1 -->
    <g transform="translate(292.444141 56.084631)scale(0.05 -0.05)">
     <use xlink:href="#Inter-Regular-53"/>
     <use x="63.778427" xlink:href="#Inter-Regular-31"/>
    </g>
   </g>
   <g id="text_27">
    <!-- Q1 -->
    <g transform="translate(303.741556 29.473431)scale(0.05 -0.05)">
     <use xlink:href="#Inter-Regular-51"/>
     <use x="76.136383" xlink:href="#Inter-Regular-31"/>
    </g>
   </g>
   <g id="text_28">
    <!-- S2 -->
    <g transform="translate(318.370658 56.084631)scale(0.05 -0.05)">
     <use xlink:href="#Inter-Regular-53"/>
     <use x="63.778427" xlink:href="#Inter-Regular-32"/>
    </g>
   </g>
   <g id="text_29">
    <!-- Q2 -->
    <g transform="translate(332.554794 29.473431)scale(0.05 -0.05)">
     <use xlink:href="#Inter-Regular-51"/>
     <use x="76.136383" xlink:href="#Inter-Regular-32"/>
    </g>
   </g>
   <g id="text_30">
    <!-- B -->
    <g transform="translate(362.542238 56.084631)scale(0.05 -0.05)">
     <use xlink:href="#Inter-Regular-42"/>
    </g>
   </g>
   <g id="text_31">
    <!-- Q3T -->
    <g transform="translate(388.010791 29.473431)scale(0.05 -0.05)">
     <defs>
      <path d="M 309 4155 
L 1773 4155 
L 1773 0 
L 2336 0 
L 2336 4155 
L 3800 4155 
L 3800 4655 
L 309 4655 
L 309 4155 
z
" id="Inter-Regular-54" transform="scale(0.015625)"/>
     </defs>
     <use xlink:href="#Inter-Regular-51"/>
     <use x="76.136383" xlink:href="#Inter-Regular-33"/>
     <use x="139.772766" xlink:href="#Inter-Regular-54"/>
    </g>
   </g>
   <g id="text_32">
    <!-- S3T -->
    <g transform="translate(398.973855 56.084631)scale(0.05 -0.05)">
     <use xlink:href="#Inter-Regular-53"/>
     <use x="63.778427" xlink:href="#Inter-Regular-33"/>
     <use x="127.41481" xlink:href="#Inter-Regular-54"/>
    </g>
   </g>
   <g id="text_33">
    <!-- Q4T -->
    <g transform="translate(413.024888 29.473431)scale(0.05 -0.05)">
     <use xlink:href="#Inter-Regular-51"/>
     <use x="76.136383" xlink:href="#Inter-Regular-34"/>
     <use x="140.340942" xlink:href="#Inter-Regular-54"/>
    </g>
   </g>
   <g id="text_34">
    <!-- S4T -->
    <g transform="translate(427.707953 56.084631)scale(0.05 -0.05)">
     <use xlink:href="#Inter-Regular-53"/>
     <use x="63.778427" xlink:href="#Inter-Regular-34"/>
     <use x="127.982986" xlink:href="#Inter-Regular-54"/>
    </g>
   </g>
   <g id="text_35">
    <!-- Q5T -->
    <g transform="translate(437.394204 29.473431)scale(0.05 -0.05)">
     <use xlink:href="#Inter-Regular-51"/>
     <use x="76.136383" xlink:href="#Inter-Regular-35"/>
     <use x="136.931854" xlink:href="#Inter-Regular-54"/>
    </g>
   </g>
   <g id="text_36">
    <!-- Q5T -->
    <g transform="translate(589.348764 29.473431)scale(0.05 -0.05)">
     <use xlink:href="#Inter-Regular-51"/>
     <use x="76.136383" xlink:href="#Inter-Regular-35"/>
     <use x="136.931854" xlink:href="#Inter-Regular-54"/>
    </g>
   </g>
   <g id="text_37">
    <!-- S4T -->
    <g transform="translate(599.482673 56.084631)scale(0.05 -0.05)">
     <use xlink:href="#Inter-Regular-53"/>
     <use x="63.778427" xlink:href="#Inter-Regular-34"/>
     <use x="127.982986" xlink:href="#Inter-Regular-54"/>
    </g>
   </g>
   <g id="text_38">
    <!-- Q4T -->
    <g transform="translate(613.547768 29.473431)scale(0.05 -0.05)">
     <use xlink:href="#Inter-Regular-51"/>
     <use x="76.136383" xlink:href="#Inter-Regular-34"/>
     <use x="140.340942" xlink:href="#Inter-Regular-54"/>
    </g>
   </g>
   <g id="text_39">
    <!-- S3T -->
    <g transform="translate(628.244895 56.084631)scale(0.05 -0.05)">
     <use xlink:href="#Inter-Regular-53"/>
     <use x="63.778427" xlink:href="#Inter-Regular-33"/>
     <use x="127.41481" xlink:href="#Inter-Regular-54"/>
    </g>
   </g>
   <g id="text_40">
    <!-- Q3T -->
    <g transform="translate(638.589991 29.473431)scale(0.05 -0.05)">
     <use xlink:href="#Inter-Regular-51"/>
     <use x="76.136383" xlink:href="#Inter-Regular-33"/>
     <use x="139.772766" xlink:href="#Inter-Regular-54"/>
    </g>
   </g>
   <g id="text_41">
    <!-- B -->
    <g transform="translate(671.004638 56.084631)scale(0.05 -0.05)">
     <use xlink:href="#Inter-Regular-42"/>
    </g>
   </g>
   <g id="text_42">
    <!-- Q2 -->
    <g transform="translate(697.412394 29.473431)scale(0.05 -0.05)">
     <use xlink:href="#Inter-Regular-51"/>
     <use x="76.136383" xlink:href="#Inter-Regular-32"/>
    </g>
   </g>
   <g id="text_43">
    <!-- S2 -->
    <g transform="translate(712.214498 56.084631)scale(0.05 -0.05)">
     <use xlink:href="#Inter-Regular-53"/>
     <use x="63.778427" xlink:href="#Inter-Regular-32"/>
    </g>
   </g>
   <g id="text_44">
    <!-- Q1 -->
    <g transform="translate(726.928756 29.473431)scale(0.05 -0.05)">
     <use xlink:href="#Inter-Regular-51"/>
     <use x="76.136383" xlink:href="#Inter-Regular-31"/>
    </g>
   </g>
   <g id="text_45">
    <!-- S1 -->
    <g transform="translate(738.844141 56.084631)scale(0.05 -0.05)">
     <use xlink:href="#Inter-Regular-53"/>
     <use x="63.778427" xlink:href="#Inter-Regular-31"/>
    </g>
   </g>
   <g id="text_46">
    <!-- Q1 -->
    <g transform="translate(750.141556 29.473431)scale(0.05 -0.05)">
     <use xlink:href="#Inter-Regular-51"/>
     <use x="76.136383" xlink:href="#Inter-Regular-31"/>
    </g>
   </g>
   <g id="text_47">
    <!-- S2 -->
    <g transform="translate(764.770658 56.084631)scale(0.05 -0.05)">
     <use xlink:href="#Inter-Regular-53"/>
     <use x="63.778427" xlink:href="#Inter-Regular-32"/>
    </g>
   </g>
   <g id="text_48">
    <!-- Q2 -->
    <g transform="translate(778.954794 29.473431)scale(0.05 -0.05)">
     <use xlink:href="#Inter-Regular-51"/>
     <use x="76.136383" xlink:href="#Inter-Regular-32"/>
    </g>
   </g>
   <g id="text_49">
    <!-- B -->
    <g transform="translate(808.942238 56.084631)scale(0.05 -0.05)">
     <use xlink:href="#Inter-Regular-42"/>
    </g>
   </g>
   <g id="text_50">
    <!-- Q3D -->
    <g transform="translate(834.218994 29.473431)scale(0.05 -0.05)">
     <use xlink:href="#Inter-Regular-51"/>
     <use x="76.136383" xlink:href="#Inter-Regular-33"/>
     <use x="139.772766" xlink:href="#Inter-Regular-44"/>
    </g>
   </g>
   <g id="text_51">
    <!-- S3D -->
    <g transform="translate(845.182058 56.084631)scale(0.05 -0.05)">
     <use xlink:href="#Inter-Regular-53"/>
     <use x="63.778427" xlink:href="#Inter-Regular-33"/>
     <use x="127.41481" xlink:href="#Inter-Regular-44"/>
    </g>
   </g>
   <g id="text_52">
    <!-- Q4D -->
    <g transform="translate(859.233091 29.473431)scale(0.05 -0.05)">
     <use xlink:href="#Inter-Regular-51"/>
     <use x="76.136383" xlink:href="#Inter-Regular-34"/>
     <use x="140.340942" xlink:href="#Inter-Regular-44"/>
    </g>
   </g>
   <g id="text_53">
    <!-- S4D -->
    <g transform="translate(873.916156 56.084631)scale(0.05 -0.05)">
     <use xlink:href="#Inter-Regular-53"/>
     <use x="63.778427" xlink:href="#Inter-Regular-34"/>
     <use x="127.982986" xlink:href="#Inter-Regular-44"/>
    </g>
   </g>
   <g id="text_54">
    <!-- S4D -->
    <g transform="translate(1045.690876 56.084631)scale(0.05 -0.05)">
     <use xlink:href="#Inter-Regular-53"/>
     <use x="63.778427" xlink:href="#Inter-Regular-34"/>
     <use x="127.982986" xlink:href="#Inter-Regular-44"/>
    </g>
   </g>
   <g id="text_55">
    <!-- Q4D -->
    <g transform="translate(1059.755971 29.473431)scale(0.05 -0.05)">
     <use xlink:href="#Inter-Regular-51"/>
     <use x="76.136383" xlink:href="#Inter-Regular-34"/>
     <use x="140.340942" xlink:href="#Inter-Regular-44"/>
    </g>
   </g>
   <g id="text_56">
    <!-- S3D -->
    <g transform="translate(1074.453098 56.084631)scale(0.05 -0.05)">
     <use xlink:href="#Inter-Regular-53"/>
     <use x="63.778427" xlink:href="#Inter-Regular-33"/>
     <use x="127.41481" xlink:href="#Inter-Regular-44"/>
    </g>
   </g>
   <g id="text_57">
    <!-- Q3D -->
    <g transform="translate(1084.798194 29.473431)scale(0.05 -0.05)">
     <use xlink:href="#Inter-Regular-51"/>
     <use x="76.136383" xlink:href="#Inter-Regular-33"/>
     <use x="139.772766" xlink:href="#Inter-Regular-44"/>
    </g>
   </g>
   <g id="text_58">
    <!-- B -->
    <g transform="translate(1117.404638 56.084631)scale(0.05 -0.05)">
     <use xlink:href="#Inter-Regular-42"/>
    </g>
   </g>
   <g id="text_59">
    <!-- Q2 -->
    <g transform="translate(1143.812394 29.473431)scale(0.05 -0.05)">
     <use xlink:href="#Inter-Regular-51"/>
     <use x="76.136383" xlink:href="#Inter-Regular-32"/>
    </g>
   </g>
   <g id="text_60">
    <!-- S2 -->
    <g transform="translate(1158.614498 56.084631)scale(0.05 -0.05)">
     <use xlink:href="#Inter-Regular-53"/>
     <use x="63.778427" xlink:href="#Inter-Regular-32"/>
    </g>
   </g>
   <g id="text_61">
    <!-- Q1 -->
    <g transform="translate(1173.328756 29.473431)scale(0.05 -0.05)">
     <use xlink:href="#Inter-Regular-51"/>
     <use x="76.136383" xlink:href="#Inter-Regular-31"/>
    </g>
   </g>
   <g id="text_62">
    <!-- S1 -->
    <g transform="translate(1185.244141 56.084631)scale(0.05 -0.05)">
     <use xlink:href="#Inter-Regular-53"/>
     <use x="63.778427" xlink:href="#Inter-Regular-31"/>
    </g>
   </g>
   <g id="text_63">
    <!-- Q1 -->
    <g transform="translate(1196.541556 29.473431)scale(0.05 -0.05)">
     <use xlink:href="#Inter-Regular-51"/>
     <use x="76.136383" xlink:href="#Inter-Regular-31"/>
    </g>
   </g>
   <g id="text_64">
    <!-- S2 -->
    <g transform="translate(1211.170658 56.084631)scale(0.05 -0.05)">
     <use xlink:href="#Inter-Regular-53"/>
     <use x="63.778427" xlink:href="#Inter-Regular-32"/>
    </g>
   </g>
   <g id="text_65">
    <!-- Q2 -->
    <g transform="translate(1225.354794 29.473431)scale(0.05 -0.05)">
     <use xlink:href="#Inter-Regular-51"/>
     <use x="76.136383" xlink:href="#Inter-Regular-32"/>
    </g>
   </g>
   <g id="text_66">
    <!-- B -->
    <g transform="translate(1255.342238 56.084631)scale(0.05 -0.05)">
     <use xlink:href="#Inter-Regular-42"/>
    </g>
   </g>
   <g id="text_67">
    <!-- Q3T -->
    <g transform="translate(1280.810791 29.473431)scale(0.05 -0.05)">
     <use xlink:href="#Inter-Regular-51"/>
     <use x="76.136383" xlink:href="#Inter-Regular-33"/>
     <use x="139.772766" xlink:href="#Inter-Regular-54"/>
    </g>
   </g>
   <g id="text_68">
    <!-- S3T -->
    <g transform="translate(1291.773855 56.084631)scale(0.05 -0.05)">
     <use xlink:href="#Inter-Regular-53"/>
     <use x="63.778427" xlink:href="#Inter-Regular-33"/>
     <use x="127.41481" xlink:href="#Inter-Regular-54"/>
    </g>
   </g>
   <g id="text_69">
    <!-- Q4T -->
    <g transform="translate(1305.824888 29.473431)scale(0.05 -0.05)">
     <use xlink:href="#Inter-Regular-51"/>
     <use x="76.136383" xlink:href="#Inter-Regular-34"/>
     <use x="140.340942" xlink:href="#Inter-Regular-54"/>
    </g>
   </g>
   <g id="text_70">
    <!-- S4T -->
    <g transform="translate(1320.507953 56.084631)scale(0.05 -0.05)">
     <use xlink:href="#Inter-Regular-53"/>
     <use x="63.778427" xlink:href="#Inter-Regular-34"/>
     <use x="127.982986" xlink:href="#Inter-Regular-54"/>
    </g>
   </g>
   <g id="text_71">
    <!-- Q5T -->
    <g transform="translate(1330.194204 29.473431)scale(0.05 -0.05)">
     <use xlink:href="#Inter-Regular-51"/>
     <use x="76.136383" xlink:href="#Inter-Regular-35"/>
     <use x="136.931854" xlink:href="#Inter-Regular-54"/>
    </g>
   </g>
   <g id="text_72">
    <!-- Q5T -->
    <g transform="translate(1482.148764 29.473431)scale(0.05 -0.05)">
     <use xlink:href="#Inter-Regular-51"/>
     <use x="76.136383" xlink:href="#Inter-Regular-35"/>
     <use x="136.931854" xlink:href="#Inter-Regular-54"/>
    </g>
   </g>
   <g id="text_73">
    <!-- S4T -->
    <g transform="translate(1492.282673 56.084631)scale(0.05 -0.05)">
     <use xlink:href="#Inter-Regular-53"/>
     <use x="63.778427" xlink:href="#Inter-Regular-34"/>
     <use x="127.982986" xlink:href="#Inter-Regular-54"/>
    </g>
   </g>
   <g id="text_74">
    <!-- Q4T -->
    <g transform="translate(1506.347768 29.473431)scale(0.05 -0.05)">
     <use xlink:href="#Inter-Regular-51"/>
     <use x="76.136383" xlink:href="#Inter-Regular-34"/>
     <use x="140.340942" xlink:href="#Inter-Regular-54"/>
    </g>
   </g>
   <g id="text_75">
    <!-- S3T -->
    <g transform="translate(1521.044895 56.084631)scale(0.05 -0.05)">
     <use xlink:href="#Inter-Regular-53"/>
     <use x="63.778427" xlink:href="#Inter-Regular-33"/>
     <use x="127.41481" xlink:href="#Inter-Regular-54"/>
    </g>
   </g>
   <g id="text_76">
    <!-- Q3T -->
    <g transform="translate(1531.389991 29.473431)scale(0.05 -0.05)">
     <use xlink:href="#Inter-Regular-51"/>
     <use x="76.136383" xlink:href="#Inter-Regular-33"/>
     <use x="139.772766" xlink:href="#Inter-Regular-54"/>
    </g>
   </g>
   <g id="text_77">
    <!-- B -->
    <g transform="translate(1563.804638 56.084631)scale(0.05 -0.05)">
     <use xlink:href="#Inter-Regular-42"/>
    </g>
   </g>
   <g id="text_78">
    <!-- Q2 -->
    <g transform="translate(1590.212394 29.473431)scale(0.05 -0.05)">
     <use xlink:href="#Inter-Regular-51"/>
     <use x="76.136383" xlink:href="#Inter-Regular-32"/>
    </g>
   </g>
   <g id="text_79">
    <!-- S2 -->
    <g transform="translate(1605.014498 56.084631)scale(0.05 -0.05)">
     <use xlink:href="#Inter-Regular-53"/>
     <use x="63.778427" xlink:href="#Inter-Regular-32"/>
    </g>
   </g>
   <g id="text_80">
    <!-- Q1 -->
    <g transform="translate(1619.728756 29.473431)scale(0.05 -0.05)">
     <use xlink:href="#Inter-Regular-51"/>
     <use x="76.136383" xlink:href="#Inter-Regular-31"/>
    </g>
   </g>
   <g id="text_81">
    <!-- S1 -->
    <g transform="translate(1631.644141 56.084631)scale(0.05 -0.05)">
     <use xlink:href="#Inter-Regular-53"/>
     <use x="63.778427" xlink:href="#Inter-Regular-31"/>
    </g>
   </g>
   <g id="text_82">
    <!-- Q1 -->
    <g transform="translate(1642.941556 29.473431)scale(0.05 -0.05)">
     <use xlink:href="#Inter-Regular-51"/>
     <use x="76.136383" xlink:href="#Inter-Regular-31"/>
    </g>
   </g>
   <g id="text_83">
    <!-- S2 -->
    <g transform="translate(1657.570658 56.084631)scale(0.05 -0.05)">
     <use xlink:href="#Inter-Regular-53"/>
     <use x="63.778427" xlink:href="#Inter-Regular-32"/>
    </g>
   </g>
   <g id="text_84">
    <!-- Q2 -->
    <g transform="translate(1671.754794 29.473431)scale(0.05 -0.05)">
     <use xlink:href="#Inter-Regular-51"/>
     <use x="76.136383" xlink:href="#Inter-Regular-32"/>
    </g>
   </g>
   <g id="text_85">
    <!-- B -->
    <g transform="translate(1701.742238 56.084631)scale(0.05 -0.05)">
     <use xlink:href="#Inter-Regular-42"/>
    </g>
   </g>
   <g id="text_86">
    <!-- Q3D -->
    <g transform="translate(1727.018994 29.473431)scale(0.05 -0.05)">
     <use xlink:href="#Inter-Regular-51"/>
     <use x="76.136383" xlink:href="#Inter-Regular-33"/>
     <use x="139.772766" xlink:href="#Inter-Regular-44"/>
    </g>
   </g>
   <g id="text_87">
    <!-- S3D -->
    <g transform="translate(1737.982058 56.084631)scale(0.05 -0.05)">
     <use xlink:href="#Inter-Regular-53"/>
     <use x="63.778427" xlink:href="#Inter-Regular-33"/>
     <use x="127.41481" xlink:href="#Inter-Regular-44"/>
    </g>
   </g>
   <g id="text_88">
    <!-- Q4D -->
    <g transform="translate(1752.033091 29.473431)scale(0.05 -0.05)">
     <use xlink:href="#Inter-Regular-51"/>
     <use x="76.136383" xlink:href="#Inter-Regular-34"/>
     <use x="140.340942" xlink:href="#Inter-Regular-44"/>
    </g>
   </g>
   <g id="text_89">
    <!-- S4D -->
    <g transform="translate(1766.716156 56.084631)scale(0.05 -0.05)">
     <use xlink:href="#Inter-Regular-53"/>
     <use x="63.778427" xlink:href="#Inter-Regular-34"/>
     <use x="127.982986" xlink:href="#Inter-Regular-44"/>
    </g>
   </g>
   <g id="text_90">
    <!-- S4D -->
    <g transform="translate(1938.490876 56.084631)scale(0.05 -0.05)">
     <use xlink:href="#Inter-Regular-53"/>
     <use x="63.778427" xlink:href="#Inter-Regular-34"/>
     <use x="127.982986" xlink:href="#Inter-Regular-44"/>
    </g>
   </g>
   <g id="text_91">
    <!-- Q4D -->
    <g transform="translate(1952.555971 29.473431)scale(0.05 -0.05)">
     <use xlink:href="#Inter-Regular-51"/>
     <use x="76.136383" xlink:href="#Inter-Regular-34"/>
     <use x="140.340942" xlink:href="#Inter-Regular-44"/>
    </g>
   </g>
   <g id="text_92">
    <!-- S3D -->
    <g transform="translate(1967.253098 56.084631)scale(0.05 -0.05)">
     <use xlink:href="#Inter-Regular-53"/>
     <use x="63.778427" xlink:href="#Inter-Regular-33"/>
     <use x="127.41481" xlink:href="#Inter-Regular-44"/>
    </g>
   </g>
   <g id="text_93">
    <!-- Q3D -->
    <g transform="translate(1977.598194 29.473431)scale(0.05 -0.05)">
     <use xlink:href="#Inter-Regular-51"/>
     <use x="76.136383" xlink:href="#Inter-Regular-33"/>
     <use x="139.772766" xlink:href="#Inter-Regular-44"/>
    </g>
   </g>
   <g id="text_94">
    <!-- B -->
    <g transform="translate(2010.204638 56.084631)scale(0.05 -0.05)">
     <use xlink:href="#Inter-Regular-42"/>
    </g>
   </g>
   <g id="text_95">
    <!-- Q2 -->
    <g transform="translate(2036.612394 29.473431)scale(0.05 -0.05)">
     <use xlink:href="#Inter-Regular-51"/>
     <use x="76.136383" xlink:href="#Inter-Regular-32"/>
    </g>
   </g>
   <g id="text_96">
    <!-- S2 -->
    <g transform="translate(2051.414498 56.084631)scale(0.05 -0.05)">
     <use xlink:href="#Inter-Regular-53"/>
     <use x="63.778427" xlink:href="#Inter-Regular-32"/>
    </g>
   </g>
   <g id="text_97">
    <!-- Q1 -->
    <g transform="translate(2066.128756 29.473431)scale(0.05 -0.05)">
     <use xlink:href="#Inter-Regular-51"/>
     <use x="76.136383" xlink:href="#Inter-Regular-31"/>
    </g>
   </g>
   <g id="text_98">
    <!-- S1 -->
    <g transform="translate(2078.044141 56.084631)scale(0.05 -0.05)">
     <use xlink:href="#Inter-Regular-53"/>
     <use x="63.778427" xlink:href="#Inter-Regular-31"/>
    </g>
   </g>
   <g id="text_99">
    <!-- Q1 -->
    <g transform="translate(2089.341556 29.473431)scale(0.05 -0.05)">
     <use xlink:href="#Inter-Regular-51"/>
     <use x="76.136383" xlink:href="#Inter-Regular-31"/>
    </g>
   </g>
   <g id="text_100">
    <!-- S2 -->
    <g transform="translate(2103.970658 56.084631)scale(0.05 -0.05)">
     <use xlink:href="#Inter-Regular-53"/>
     <use x="63.778427" xlink:href="#Inter-Regular-32"/>
    </g>
   </g>
   <g id="text_101">
    <!-- Q2 -->
    <g transform="translate(2118.154794 29.473431)scale(0.05 -0.05)">
     <use xlink:href="#Inter-Regular-51"/>
     <use x="76.136383" xlink:href="#Inter-Regular-32"/>
    </g>
   </g>
   <g id="text_102">
    <!-- B -->
    <g transform="translate(2148.142238 56.084631)scale(0.05 -0.05)">
     <use xlink:href="#Inter-Regular-42"/>
    </g>
   </g>
   <g id="text_103">
    <!-- Q3T -->
    <g transform="translate(2173.610791 29.473431)scale(0.05 -0.05)">
     <use xlink:href="#Inter-Regular-51"/>
     <use x="76.136383" xlink:href="#Inter-Regular-33"/>
     <use x="139.772766" xlink:href="#Inter-Regular-54"/>
    </g>
   </g>
   <g id="text_104">
    <!-- S3T -->
    <g transform="translate(2184.573855 56.084631)scale(0.05 -0.05)">
     <use xlink:href="#Inter-Regular-53"/>
     <use x="63.778427" xlink:href="#Inter-Regular-33"/>
     <use x="127.41481" xlink:href="#Inter-Regular-54"/>
    </g>
   </g>
   <g id="text_105">
    <!-- Q4T -->
    <g transform="translate(2198.624888 29.473431)scale(0.05 -0.05)">
     <use xlink:href="#Inter-Regular-51"/>
     <use x="76.136383" xlink:href="#Inter-Regular-34"/>
     <use x="140.340942" xlink:href="#Inter-Regular-54"/>
    </g>
   </g>
   <g id="text_106">
    <!-- S4T -->
    <g transform="translate(2213.307953 56.084631)scale(0.05 -0.05)">
     <use xlink:href="#Inter-Regular-53"/>
     <use x="63.778427" xlink:href="#Inter-Regular-34"/>
     <use x="127.982986" xlink:href="#Inter-Regular-54"/>
    </g>
   </g>
   <g id="text_107">
    <!-- Q5T -->
    <g transform="translate(2222.994204 29.473431)scale(0.05 -0.05)">
     <use xlink:href="#Inter-Regular-51"/>
     <use x="76.136383" xlink:href="#Inter-Regular-35"/>
     <use x="136.931854" xlink:href="#Inter-Regular-54"/>
    </g>
   </g>
   <g id="text_108">
    <!-- Q5T -->
    <g transform="translate(2374.948764 29.473431)scale(0.05 -0.05)">
     <use xlink:href="#Inter-Regular-51"/>
     <use x="76.136383" xlink:href="#Inter-Regular-35"/>
     <use x="136.931854" xlink:href="#Inter-Regular-54"/>
    </g>
   </g>
   <g id="text_109">
    <!-- S4T -->
    <g transform="translate(2385.082673 56.084631)scale(0.05 -0.05)">
     <use xlink:href="#Inter-Regular-53"/>
     <use x="63.778427" xlink:href="#Inter-Regular-34"/>
     <use x="127.982986" xlink:href="#Inter-Regular-54"/>
    </g>
   </g>
   <g id="text_110">
    <!-- Q4T -->
    <g transform="translate(2399.147768 29.473431)scale(0.05 -0.05)">
     <use xlink:href="#Inter-Regular-51"/>
     <use x="76.136383" xlink:href="#Inter-Regular-34"/>
     <use x="140.340942" xlink:href="#Inter-Regular-54"/>
    </g>
   </g>
   <g id="text_111">
    <!-- S3T -->
    <g transform="translate(2413.844895 56.084631)scale(0.05 -0.05)">
     <use xlink:href="#Inter-Regular-53"/>
     <use x="63.778427" xlink:href="#Inter-Regular-33"/>
     <use x="127.41481" xlink:href="#Inter-Regular-54"/>
    </g>
   </g>
   <g id="text_112">
    <!-- Q3T -->
    <g transform="translate(2424.189991 29.473431)scale(0.05 -0.05)">
     <use xlink:href="#Inter-Regular-51"/>
     <use x="76.136383" xlink:href="#Inter-Regular-33"/>
     <use x="139.772766" xlink:href="#Inter-Regular-54"/>
    </g>
   </g>
   <g id="text_113">
    <!-- B -->
    <g transform="translate(2456.604638 56.084631)scale(0.05 -0.05)">
     <use xlink:href="#Inter-Regular-42"/>
    </g>
   </g>
   <g id="text_114">
    <!-- Q2 -->
    <g transform="translate(2483.012394 29.473431)scale(0.05 -0.05)">
     <use xlink:href="#Inter-Regular-51"/>
     <use x="76.136383" xlink:href="#Inter-Regular-32"/>
    </g>
   </g>
   <g id="text_115">
    <!-- S2 -->
    <g transform="translate(2497.814498 56.084631)scale(0.05 -0.05)">
     <use xlink:href="#Inter-Regular-53"/>
     <use x="63.778427" xlink:href="#Inter-Regular-32"/>
    </g>
   </g>
   <g id="text_116">
    <!-- Q1 -->
    <g transform="translate(2512.528756 29.473431)scale(0.05 -0.05)">
     <use xlink:href="#Inter-Regular-51"/>
     <use x="76.136383" xlink:href="#Inter-Regular-31"/>
    </g>
   </g>
   <g id="text_117">
    <!-- S1 -->
    <g transform="translate(2524.444141 56.084631)scale(0.05 -0.05)">
     <use xlink:href="#Inter-Regular-53"/>
     <use x="63.778427" xlink:href="#Inter-Regular-31"/>
    </g>
   </g>
   <g id="text_118">
    <!-- Q1 -->
    <g transform="translate(2535.741556 29.473431)scale(0.05 -0.05)">
     <use xlink:href="#Inter-Regular-51"/>
     <use x="76.136383" xlink:href="#Inter-Regular-31"/>
    </g>
   </g>
   <g id="text_119">
    <!-- S2 -->
    <g transform="translate(2550.370658 56.084631)scale(0.05 -0.05)">
     <use xlink:href="#Inter-Regular-53"/>
     <use x="63.778427" xlink:href="#Inter-Regular-32"/>
    </g>
   </g>
   <g id="text_120">
    <!-- Q2 -->
    <g transform="translate(2564.554794 29.473431)scale(0.05 -0.05)">
     <use xlink:href="#Inter-Regular-51"/>
     <use x="76.136383" xlink:href="#Inter-Regular-32"/>
    </g>
   </g>
   <g id="text_121">
    <!-- B -->
    <g transform="translate(2594.542238 56.084631)scale(0.05 -0.05)">
     <use xlink:href="#Inter-Regular-42"/>
    </g>
   </g>
   <g id="text_122">
    <!-- Q3D -->
    <g transform="translate(2619.818994 29.473431)scale(0.05 -0.05)">
     <use xlink:href="#Inter-Regular-51"/>
     <use x="76.136383" xlink:href="#Inter-Regular-33"/>
     <use x="139.772766" xlink:href="#Inter-Regular-44"/>
    </g>
   </g>
   <g id="text_123">
    <!-- S3D -->
    <g transform="translate(2630.782058 56.084631)scale(0.05 -0.05)">
     <use xlink:href="#Inter-Regular-53"/>
     <use x="63.778427" xlink:href="#Inter-Regular-33"/>
     <use x="127.41481" xlink:href="#Inter-Regular-44"/>
    </g>
   </g>
   <g id="text_124">
    <!-- Q4D -->
    <g transform="translate(2644.833091 29.473431)scale(0.05 -0.05)">
     <use xlink:href="#Inter-Regular-51"/>
     <use x="76.136383" xlink:href="#Inter-Regular-34"/>
     <use x="140.340942" xlink:href="#Inter-Regular-44"/>
    </g>
   </g>
   <g id="text_125">
    <!-- S4D -->
    <g transform="translate(2659.516156 56.084631)scale(0.05 -0.05)">
     <use xlink:href="#Inter-Regular-53"/>
     <use x="63.778427" xlink:href="#Inter-Regular-34"/>
     <use x="127.982986" xlink:href="#Inter-Regular-44"/>
    </g>
   </g>
   <g id="text_126">
    <!-- S4D -->
    <g transform="translate(2831.290876 56.084631)scale(0.05 -0.05)">
     <use xlink:href="#Inter-Regular-53"/>
     <use x="63.778427" xlink:href="#Inter-Regular-34"/>
     <use x="127.982986" xlink:href="#Inter-Regular-44"/>
    </g>
   </g>
   <g id="text_127">
    <!-- Q4D -->
    <g transform="translate(2845.355971 29.473431)scale(0.05 -0.05)">
     <use xlink:href="#Inter-Regular-51"/>
     <use x="76.136383" xlink:href="#Inter-Regular-34"/>
     <use x="140.340942" xlink:href="#Inter-Regular-44"/>
    </g>
   </g>
   <g id="text_128">
    <!-- S3D -->
    <g transform="translate(2860.053098 56.084631)scale(0.05 -0.05)">
     <use xlink:href="#Inter-Regular-53"/>
     <use x="63.778427" xlink:href="#Inter-Regular-33"/>
     <use x="127.41481" xlink:href="#Inter-Regular-44"/>
    </g>
   </g>
   <g id="text_129">
    <!-- Q3D -->
    <g transform="translate(2870.398194 29.473431)scale(0.05 -0.05)">
     <use xlink:href="#Inter-Regular-51"/>
     <use x="76.136383" xlink:href="#Inter-Regular-33"/>
     <use x="139.772766" xlink:href="#Inter-Regular-44"/>
    </g>
   </g>
   <g id="text_130">
    <!-- B -->
    <g transform="translate(2903.004637 56.084631)scale(0.05 -0.05)">
     <use xlink:href="#Inter-Regular-42"/>
    </g>
   </g>
   <g id="text_131">
    <!-- Q2 -->
    <g transform="translate(2929.412394 29.473431)scale(0.05 -0.05)">
     <use xlink:href="#Inter-Regular-51"/>
     <use x="76.136383" xlink:href="#Inter-Regular-32"/>
    </g>
   </g>
   <g id="text_132">
    <!-- S2 -->
    <g transform="translate(2944.214498 56.084631)scale(0.05 -0.05)">
     <use xlink:href="#Inter-Regular-53"/>
     <use x="63.778427" xlink:href="#Inter-Regular-32"/>
    </g>
   </g>
   <g id="text_133">
    <!-- Q1 -->
    <g transform="translate(2958.928756 29.473431)scale(0.05 -0.05)">
     <use xlink:href="#Inter-Regular-51"/>
     <use x="76.136383" xlink:href="#Inter-Regular-31"/>
    </g>
   </g>
   <g id="text_134">
    <!-- S1 -->
    <g transform="translate(2970.844141 56.084631)scale(0.05 -0.05)">
     <use xlink:href="#Inter-Regular-53"/>
     <use x="63.778427" xlink:href="#Inter-Regular-31"/>
    </g>
   </g>
   <g id="text_135">
    <!-- Q1 -->
    <g transform="translate(2982.141556 29.473431)scale(0.05 -0.05)">
     <use xlink:href="#Inter-Regular-51"/>
     <use x="76.136383" xlink:href="#Inter-Regular-31"/>
    </g>
   </g>
   <g id="text_136">
    <!-- S2 -->
    <g transform="translate(2996.770658 56.084631)scale(0.05 -0.05)">
     <use xlink:href="#Inter-Regular-53"/>
     <use x="63.778427" xlink:href="#Inter-Regular-32"/>
    </g>
   </g>
   <g id="text_137">
    <!-- Q2 -->
    <g transform="translate(3010.954794 29.473431)scale(0.05 -0.05)">
     <use xlink:href="#Inter-Regular-51"/>
     <use x="76.136383" xlink:href="#Inter-Regular-32"/>
    </g>
   </g>
   <g id="text_138">
    <!-- B -->
    <g transform="translate(3040.942237 56.084631)scale(0.05 -0.05)">
     <use xlink:href="#Inter-Regular-42"/>
    </g>
   </g>
   <g id="text_139">
    <!-- Q3T -->
    <g transform="translate(3066.410791 29.473431)scale(0.05 -0.05)">
     <use xlink:href="#Inter-Regular-51"/>
     <use x="76.136383" xlink:href="#Inter-Regular-33"/>
     <use x="139.772766" xlink:href="#Inter-Regular-54"/>
    </g>
   </g>
   <g id="text_140">
    <!-- S3T -->
    <g transform="translate(3077.373855 56.084631)scale(0.05 -0.05)">
     <use xlink:href="#Inter-Regular-53"/>
     <use x="63.778427" xlink:href="#Inter-Regular-33"/>
     <use x="127.41481" xlink:href="#Inter-Regular-54"/>
    </g>
   </g>
   <g id="text_141">
    <!-- Q4T -->
    <g transform="translate(3091.424888 29.473431)scale(0.05 -0.05)">
     <use xlink:href="#Inter-Regular-51"/>
     <use x="76.136383" xlink:href="#Inter-Regular-34"/>
     <use x="140.340942" xlink:href="#Inter-Regular-54"/>
    </g>
   </g>
   <g id="text_142">
    <!-- S4T -->
    <g transform="translate(3106.107952 56.084631)scale(0.05 -0.05)">
     <use xlink:href="#Inter-Regular-53"/>
     <use x="63.778427" xlink:href="#Inter-Regular-34"/>
     <use x="127.982986" xlink:href="#Inter-Regular-54"/>
    </g>
   </g>
   <g id="text_143">
    <!-- Q5T -->
    <g transform="translate(3115.794204 29.473431)scale(0.05 -0.05)">
     <use xlink:href="#Inter-Regular-51"/>
     <use x="76.136383" xlink:href="#Inter-Regular-35"/>
     <use x="136.931854" xlink:href="#Inter-Regular-54"/>
    </g>
   </g>
   <g id="text_144">
    <!-- Q5T -->
    <g transform="translate(3267.748764 29.473431)scale(0.05 -0.05)">
     <use xlink:href="#Inter-Regular-51"/>
     <use x="76.136383" xlink:href="#Inter-Regular-35"/>
     <use x="136.931854" xlink:href="#Inter-Regular-54"/>
    </g>
   </g>
   <g id="text_145">
    <!-- S4T -->
    <g transform="translate(3277.882672 56.084631)scale(0.05 -0.05)">
     <use xlink:href="#Inter-Regular-53"/>
     <use x="63.778427" xlink:href="#Inter-Regular-34"/>
     <use x="127.982986" xlink:href="#Inter-Regular-54"/>
    </g>
   </g>
   <g id="text_146">
    <!-- Q4T -->
    <g transform="translate(3291.947768 29.473431)scale(0.05 -0.05)">
     <use xlink:href="#Inter-Regular-51"/>
     <use x="76.136383" xlink:href="#Inter-Regular-34"/>
     <use x="140.340942" xlink:href="#Inter-Regular-54"/>
    </g>
   </g>
   <g id="text_147">
    <!-- S3T -->
    <g transform="translate(3306.644895 56.084631)scale(0.05 -0.05)">
     <use xlink:href="#Inter-Regular-53"/>
     <use x="63.778427" xlink:href="#Inter-Regular-33"/>
     <use x="127.41481" xlink:href="#Inter-Regular-54"/>
    </g>
   </g>
   <g id="text_148">
    <!-- Q3T -->
    <g transform="translate(3316.989991 29.473431)scale(0.05 -0.05)">
     <use xlink:href="#Inter-Regular-51"/>
     <use x="76.136383" xlink:href="#Inter-Regular-33"/>
     <use x="139.772766" xlink:href="#Inter-Regular-54"/>
    </g>
   </g>
   <g id="text_149">
    <!-- B -->
    <g transform="translate(3349.404637 56.084631)scale(0.05 -0.05)">
     <use xlink:href="#Inter-Regular-42"/>
    </g>
   </g>
   <g id="text_150">
    <!-- Q2 -->
    <g transform="translate(3375.812394 29.473431)scale(0.05 -0.05)">
     <use xlink:href="#Inter-Regular-51"/>
     <use x="76.136383" xlink:href="#Inter-Regular-32"/>
    </g>
   </g>
   <g id="text_151">
    <!-- S2 -->
    <g transform="translate(3390.614498 56.084631)scale(0.05 -0.05)">
     <use xlink:href="#Inter-Regular-53"/>
     <use x="63.778427" xlink:href="#Inter-Regular-32"/>
    </g>
   </g>
   <g id="text_152">
    <!-- Q1 -->
    <g transform="translate(3405.328756 29.473431)scale(0.05 -0.05)">
     <use xlink:href="#Inter-Regular-51"/>
     <use x="76.136383" xlink:href="#Inter-Regular-31"/>
    </g>
   </g>
   <g id="text_153">
    <!-- S1 -->
    <g transform="translate(3417.244141 56.084631)scale(0.05 -0.05)">
     <use xlink:href="#Inter-Regular-53"/>
     <use x="63.778427" xlink:href="#Inter-Regular-31"/>
    </g>
   </g>
   <g id="text_154">
    <!-- Q1 -->
    <g transform="translate(3428.541556 29.473431)scale(0.05 -0.05)">
     <use xlink:href="#Inter-Regular-51"/>
     <use x="76.136383" xlink:href="#Inter-Regular-31"/>
    </g>
   </g>
   <g id="text_155">
    <!-- S2 -->
    <g transform="translate(3443.170658 56.084631)scale(0.05 -0.05)">
     <use xlink:href="#Inter-Regular-53"/>
     <use x="63.778427" xlink:href="#Inter-Regular-32"/>
    </g>
   </g>
   <g id="text_156">
    <!-- Q2 -->
    <g transform="translate(3457.354794 29.473431)scale(0.05 -0.05)">
     <use xlink:href="#Inter-Regular-51"/>
     <use x="76.136383" xlink:href="#Inter-Regular-32"/>
    </g>
   </g>
   <g id="text_157">
    <!-- B -->
    <g transform="translate(3487.342237 56.084631)scale(0.05 -0.05)">
     <use xlink:href="#Inter-Regular-42"/>
    </g>
   </g>
   <g id="text_158">
    <!-- Q3D -->
    <g transform="translate(3512.618994 29.473431)scale(0.05 -0.05)">
     <use xlink:href="#Inter-Regular-51"/>
     <use x="76.136383" xlink:href="#Inter-Regular-33"/>
     <use x="139.772766" xlink:href="#Inter-Regular-44"/>
    </g>
   </g>
   <g id="text_159">
    <!-- S3D -->
    <g transform="translate(3523.582058 56.084631)scale(0.05 -0.05)">
     <use xlink:href="#Inter-Regular-53"/>
     <use x="63.778427" xlink:href="#Inter-Regular-33"/>
     <use x="127.41481" xlink:href="#Inter-Regular-44"/>
    </g>
   </g>
   <g id="text_160">
    <!-- Q4D -->
    <g transform="translate(3537.633091 29.473431)scale(0.05 -0.05)">
     <use xlink:href="#Inter-Regular-51"/>
     <use x="76.136383" xlink:href="#Inter-Regular-34"/>
     <use x="140.340942" xlink:href="#Inter-Regular-44"/>
    </g>
   </g>
   <g id="text_161">
    <!-- S4D -->
    <g transform="translate(3552.316156 56.084631)scale(0.05 -0.05)">
     <use xlink:href="#Inter-Regular-53"/>
     <use x="63.778427" xlink:href="#Inter-Regular-34"/>
     <use x="127.982986" xlink:href="#Inter-Regular-44"/>
    </g>
   </g>
  </g>
 </g>
 <defs>
  <clipPath id="p270ec3b99e">
   <rect height="266.112" width="446.4" x="72" y="41.472"/>
  </clipPath>
 </defs>
</svg>
