<?xml version="1.0" encoding="utf-8" standalone="no"?>
<!DOCTYPE svg PUBLIC "-//W3C//DTD SVG 1.1//EN"
  "http://www.w3.org/Graphics/SVG/1.1/DTD/svg11.dtd">
<svg height="345.6pt" version="1.1" viewBox="0 0 576 345.6" width="576pt" xmlns="http://www.w3.org/2000/svg" xmlns:xlink="http://www.w3.org/1999/xlink">
 <metadata>
  <rdf:RDF xmlns:cc="http://creativecommons.org/ns#" xmlns:dc="http://purl.org/dc/elements/1.1/" xmlns:rdf="http://www.w3.org/1999/02/22-rdf-syntax-ns#">
   <cc:Work>
    <dc:type rdf:resource="http://purl.org/dc/dcmitype/StillImage"/>
    <dc:date>2021-06-06T23:11:18.824269</dc:date>
    <dc:format>image/svg+xml</dc:format>
    <dc:creator>
     <cc:Agent>
      <dc:title>Matplotlib v3.4.2, https://matplotlib.org/</dc:title>
     </cc:Agent>
    </dc:creator>
   </cc:Work>
  </rdf:RDF>
 </metadata>
 <defs>
  <style type="text/css">*{stroke-linecap:butt;stroke-linejoin:round;}</style>
 </defs>
 <g id="figure_1">
  <g id="patch_1">
   <path d="M 0 345.6 
L 576 345.6 
L 576 0 
L 0 0 
z
" style="fill:#ffffff;"/>
  </g>
  <g id="axes_1">
   <g id="patch_2">
    <path d="M 37.78 317.72 
L 554.535 317.72 
L 554.535 10.8 
L 37.78 10.8 
z
" style="fill:#ffffff;"/>
   </g>
   <g id="matplotlib.axis_1">
    <g id="xtick_1">
     <g id="line2d_1">
      <path clip-path="url(#pc15967a985)" d="M 37.78 317.72 
L 37.78 10.8 
" style="fill:none;stroke:#e5e7eb;stroke-dasharray:3.7,1.6;stroke-dashoffset:0;"/>
     </g>
     <g id="line2d_2">
      <defs>
       <path d="M 0 0 
L 0 3.5 
" id="m1922d11454" style="stroke:#000000;stroke-width:0.8;"/>
      </defs>
      <g>
       <use style="stroke:#000000;stroke-width:0.8;" x="37.78" xlink:href="#m1922d11454" y="317.72"/>
      </g>
     </g>
     <g id="text_1">
      <!-- 0.0 -->
      <g transform="translate(30.151875 331.993437)scale(0.1 -0.1)">
       <defs>
        <path d="M 2000 -64 
C 3027 -64 3618 807 3618 2327 
C 3618 3836 3018 4718 2000 4718 
C 982 4718 382 3836 382 2327 
C 382 807 973 -64 2000 -64 
z
M 2000 436 
C 1323 436 927 1116 927 2327 
C 927 3536 1327 4227 2000 4227 
C 2673 4227 3073 3536 3073 2327 
C 3073 1116 2677 436 2000 436 
z
" id="Inter-Regular-30" transform="scale(0.015625)"/>
        <path d="M 882 -36 
C 1107 -36 1291 148 1291 373 
C 1291 598 1107 782 882 782 
C 657 782 473 598 473 373 
C 473 148 657 -36 882 -36 
z
" id="Inter-Regular-2e" transform="scale(0.015625)"/>
       </defs>
       <use xlink:href="#Inter-Regular-30"/>
       <use x="62.500015" xlink:href="#Inter-Regular-2e"/>
       <use x="90.056839" xlink:href="#Inter-Regular-30"/>
      </g>
     </g>
    </g>
    <g id="xtick_2">
     <g id="line2d_3">
      <path clip-path="url(#pc15967a985)" d="M 102.374375 317.72 
L 102.374375 10.8 
" style="fill:none;stroke:#e5e7eb;stroke-dasharray:3.7,1.6;stroke-dashoffset:0;"/>
     </g>
     <g id="line2d_4">
      <g>
       <use style="stroke:#000000;stroke-width:0.8;" x="102.374375" xlink:href="#m1922d11454" y="317.72"/>
      </g>
     </g>
     <g id="text_2">
      <!-- 2.5 -->
      <g transform="translate(94.930625 331.993437)scale(0.1 -0.1)">
       <defs>
        <path d="M 482 0 
L 3418 0 
L 3418 500 
L 1255 500 
L 1255 536 
L 2300 1655 
C 3100 2511 3336 2911 3336 3427 
C 3336 4145 2755 4718 1936 4718 
C 1121 4718 500 4164 500 3345 
L 1036 3345 
C 1036 3875 1380 4227 1918 4227 
C 2423 4227 2809 3918 2809 3427 
C 2809 2998 2557 2680 2018 2091 
L 482 409 
L 482 0 
z
" id="Inter-Regular-32" transform="scale(0.015625)"/>
        <path d="M 1936 -64 
C 2823 -64 3473 591 3473 1482 
C 3473 2384 2846 3045 1991 3045 
C 1677 3045 1373 2934 1182 2782 
L 1155 2782 
L 1318 4155 
L 3264 4155 
L 3264 4655 
L 846 4655 
L 564 2364 
L 1091 2300 
C 1284 2439 1614 2539 1900 2536 
C 2493 2532 2927 2082 2927 1473 
C 2927 875 2509 436 1936 436 
C 1459 436 1080 743 1036 1164 
L 491 1164 
C 525 455 1136 -64 1936 -64 
z
" id="Inter-Regular-35" transform="scale(0.015625)"/>
       </defs>
       <use xlink:href="#Inter-Regular-32"/>
       <use x="60.511383" xlink:href="#Inter-Regular-2e"/>
       <use x="88.068207" xlink:href="#Inter-Regular-35"/>
      </g>
     </g>
    </g>
    <g id="xtick_3">
     <g id="line2d_5">
      <path clip-path="url(#pc15967a985)" d="M 166.96875 317.72 
L 166.96875 10.8 
" style="fill:none;stroke:#e5e7eb;stroke-dasharray:3.7,1.6;stroke-dashoffset:0;"/>
     </g>
     <g id="line2d_6">
      <g>
       <use style="stroke:#000000;stroke-width:0.8;" x="166.96875" xlink:href="#m1922d11454" y="317.72"/>
      </g>
     </g>
     <g id="text_3">
      <!-- 5.0 -->
      <g transform="translate(159.425781 331.993437)scale(0.1 -0.1)">
       <use xlink:href="#Inter-Regular-35"/>
       <use x="60.795471" xlink:href="#Inter-Regular-2e"/>
       <use x="88.352295" xlink:href="#Inter-Regular-30"/>
      </g>
     </g>
    </g>
    <g id="xtick_4">
     <g id="line2d_7">
      <path clip-path="url(#pc15967a985)" d="M 231.563125 317.72 
L 231.563125 10.8 
" style="fill:none;stroke:#e5e7eb;stroke-dasharray:3.7,1.6;stroke-dashoffset:0;"/>
     </g>
     <g id="line2d_8">
      <g>
       <use style="stroke:#000000;stroke-width:0.8;" x="231.563125" xlink:href="#m1922d11454" y="317.72"/>
      </g>
     </g>
     <g id="text_4">
      <!-- 7.5 -->
      <g transform="translate(224.289687 331.993437)scale(0.1 -0.1)">
       <defs>
        <path d="M 627 0 
L 1218 0 
L 3291 4127 
L 3291 4655 
L 309 4655 
L 309 4155 
L 2709 4155 
L 2709 4118 
L 627 0 
z
" id="Inter-Regular-37" transform="scale(0.015625)"/>
       </defs>
       <use xlink:href="#Inter-Regular-37"/>
       <use x="57.10228" xlink:href="#Inter-Regular-2e"/>
       <use x="84.659103" xlink:href="#Inter-Regular-35"/>
      </g>
     </g>
    </g>
    <g id="xtick_5">
     <g id="line2d_9">
      <path clip-path="url(#pc15967a985)" d="M 296.1575 317.72 
L 296.1575 10.8 
" style="fill:none;stroke:#e5e7eb;stroke-dasharray:3.7,1.6;stroke-dashoffset:0;"/>
     </g>
     <g id="line2d_10">
      <g>
       <use style="stroke:#000000;stroke-width:0.8;" x="296.1575" xlink:href="#m1922d11454" y="317.72"/>
      </g>
     </g>
     <g id="text_5">
      <!-- 10.0 -->
      <g transform="translate(286.206719 331.993437)scale(0.1 -0.1)">
       <defs>
        <path d="M 2118 4655 
L 1555 4655 
L 391 3882 
L 391 3309 
L 1527 4064 
L 1555 4064 
L 1555 0 
L 2118 0 
L 2118 4655 
z
" id="Inter-Regular-31" transform="scale(0.015625)"/>
       </defs>
       <use xlink:href="#Inter-Regular-31"/>
       <use x="46.448868" xlink:href="#Inter-Regular-30"/>
       <use x="108.948883" xlink:href="#Inter-Regular-2e"/>
       <use x="136.505707" xlink:href="#Inter-Regular-30"/>
      </g>
     </g>
    </g>
    <g id="xtick_6">
     <g id="line2d_11">
      <path clip-path="url(#pc15967a985)" d="M 360.751875 317.72 
L 360.751875 10.8 
" style="fill:none;stroke:#e5e7eb;stroke-dasharray:3.7,1.6;stroke-dashoffset:0;"/>
     </g>
     <g id="line2d_12">
      <g>
       <use style="stroke:#000000;stroke-width:0.8;" x="360.751875" xlink:href="#m1922d11454" y="317.72"/>
      </g>
     </g>
     <g id="text_6">
      <!-- 12.5 -->
      <g transform="translate(350.985469 331.993437)scale(0.1 -0.1)">
       <use xlink:href="#Inter-Regular-31"/>
       <use x="46.448868" xlink:href="#Inter-Regular-32"/>
       <use x="106.960251" xlink:href="#Inter-Regular-2e"/>
       <use x="134.517075" xlink:href="#Inter-Regular-35"/>
      </g>
     </g>
    </g>
    <g id="xtick_7">
     <g id="line2d_13">
      <path clip-path="url(#pc15967a985)" d="M 425.34625 317.72 
L 425.34625 10.8 
" style="fill:none;stroke:#e5e7eb;stroke-dasharray:3.7,1.6;stroke-dashoffset:0;"/>
     </g>
     <g id="line2d_14">
      <g>
       <use style="stroke:#000000;stroke-width:0.8;" x="425.34625" xlink:href="#m1922d11454" y="317.72"/>
      </g>
     </g>
     <g id="text_7">
      <!-- 15.0 -->
      <g transform="translate(415.480625 331.993437)scale(0.1 -0.1)">
       <use xlink:href="#Inter-Regular-31"/>
       <use x="46.448868" xlink:href="#Inter-Regular-35"/>
       <use x="107.244339" xlink:href="#Inter-Regular-2e"/>
       <use x="134.801163" xlink:href="#Inter-Regular-30"/>
      </g>
     </g>
    </g>
    <g id="xtick_8">
     <g id="line2d_15">
      <path clip-path="url(#pc15967a985)" d="M 489.940625 317.72 
L 489.940625 10.8 
" style="fill:none;stroke:#e5e7eb;stroke-dasharray:3.7,1.6;stroke-dashoffset:0;"/>
     </g>
     <g id="line2d_16">
      <g>
       <use style="stroke:#000000;stroke-width:0.8;" x="489.940625" xlink:href="#m1922d11454" y="317.72"/>
      </g>
     </g>
     <g id="text_8">
      <!-- 17.5 -->
      <g transform="translate(480.344531 331.993437)scale(0.1 -0.1)">
       <use xlink:href="#Inter-Regular-31"/>
       <use x="46.448868" xlink:href="#Inter-Regular-37"/>
       <use x="103.551147" xlink:href="#Inter-Regular-2e"/>
       <use x="131.107971" xlink:href="#Inter-Regular-35"/>
      </g>
     </g>
    </g>
    <g id="xtick_9">
     <g id="line2d_17">
      <path clip-path="url(#pc15967a985)" d="M 554.535 317.72 
L 554.535 10.8 
" style="fill:none;stroke:#e5e7eb;stroke-dasharray:3.7,1.6;stroke-dashoffset:0;"/>
     </g>
     <g id="line2d_18">
      <g>
       <use style="stroke:#000000;stroke-width:0.8;" x="554.535" xlink:href="#m1922d11454" y="317.72"/>
      </g>
     </g>
     <g id="text_9">
      <!-- 20.0 -->
      <g transform="translate(543.881094 331.993437)scale(0.1 -0.1)">
       <use xlink:href="#Inter-Regular-32"/>
       <use x="60.511383" xlink:href="#Inter-Regular-30"/>
       <use x="123.011398" xlink:href="#Inter-Regular-2e"/>
       <use x="150.568222" xlink:href="#Inter-Regular-30"/>
      </g>
     </g>
    </g>
   </g>
   <g id="matplotlib.axis_2">
    <g id="ytick_1">
     <g id="line2d_19">
      <path clip-path="url(#pc15967a985)" d="M 37.78 303.726911 
L 554.535 303.726911 
" style="fill:none;stroke:#e5e7eb;stroke-dasharray:3.7,1.6;stroke-dashoffset:0;"/>
     </g>
     <g id="line2d_20">
      <defs>
       <path d="M 0 0 
L -3.5 0 
" id="m8bdcd9971e" style="stroke:#000000;stroke-width:0.8;"/>
      </defs>
      <g>
       <use style="stroke:#000000;stroke-width:0.8;" x="37.78" xlink:href="#m8bdcd9971e" y="303.726911"/>
      </g>
     </g>
     <g id="text_10">
      <!-- 0.0 -->
      <g transform="translate(15.52375 307.363629)scale(0.1 -0.1)">
       <use xlink:href="#Inter-Regular-30"/>
       <use x="62.500015" xlink:href="#Inter-Regular-2e"/>
       <use x="90.056839" xlink:href="#Inter-Regular-30"/>
      </g>
     </g>
    </g>
    <g id="ytick_2">
     <g id="line2d_21">
      <path clip-path="url(#pc15967a985)" d="M 37.78 266.20346 
L 554.535 266.20346 
" style="fill:none;stroke:#e5e7eb;stroke-dasharray:3.7,1.6;stroke-dashoffset:0;"/>
     </g>
     <g id="line2d_22">
      <g>
       <use style="stroke:#000000;stroke-width:0.8;" x="37.78" xlink:href="#m8bdcd9971e" y="266.20346"/>
      </g>
     </g>
     <g id="text_11">
      <!-- 2.5 -->
      <g transform="translate(15.8925 269.840179)scale(0.1 -0.1)">
       <use xlink:href="#Inter-Regular-32"/>
       <use x="60.511383" xlink:href="#Inter-Regular-2e"/>
       <use x="88.068207" xlink:href="#Inter-Regular-35"/>
      </g>
     </g>
    </g>
    <g id="ytick_3">
     <g id="line2d_23">
      <path clip-path="url(#pc15967a985)" d="M 37.78 228.68001 
L 554.535 228.68001 
" style="fill:none;stroke:#e5e7eb;stroke-dasharray:3.7,1.6;stroke-dashoffset:0;"/>
     </g>
     <g id="line2d_24">
      <g>
       <use style="stroke:#000000;stroke-width:0.8;" x="37.78" xlink:href="#m8bdcd9971e" y="228.68001"/>
      </g>
     </g>
     <g id="text_12">
      <!-- 5.0 -->
      <g transform="translate(15.694063 232.316729)scale(0.1 -0.1)">
       <use xlink:href="#Inter-Regular-35"/>
       <use x="60.795471" xlink:href="#Inter-Regular-2e"/>
       <use x="88.352295" xlink:href="#Inter-Regular-30"/>
      </g>
     </g>
    </g>
    <g id="ytick_4">
     <g id="line2d_25">
      <path clip-path="url(#pc15967a985)" d="M 37.78 191.15656 
L 554.535 191.15656 
" style="fill:none;stroke:#e5e7eb;stroke-dasharray:3.7,1.6;stroke-dashoffset:0;"/>
     </g>
     <g id="line2d_26">
      <g>
       <use style="stroke:#000000;stroke-width:0.8;" x="37.78" xlink:href="#m8bdcd9971e" y="191.15656"/>
      </g>
     </g>
     <g id="text_13">
      <!-- 7.5 -->
      <g transform="translate(16.233125 194.793278)scale(0.1 -0.1)">
       <use xlink:href="#Inter-Regular-37"/>
       <use x="57.10228" xlink:href="#Inter-Regular-2e"/>
       <use x="84.659103" xlink:href="#Inter-Regular-35"/>
      </g>
     </g>
    </g>
    <g id="ytick_5">
     <g id="line2d_27">
      <path clip-path="url(#pc15967a985)" d="M 37.78 153.633109 
L 554.535 153.633109 
" style="fill:none;stroke:#e5e7eb;stroke-dasharray:3.7,1.6;stroke-dashoffset:0;"/>
     </g>
     <g id="line2d_28">
      <g>
       <use style="stroke:#000000;stroke-width:0.8;" x="37.78" xlink:href="#m8bdcd9971e" y="153.633109"/>
      </g>
     </g>
     <g id="text_14">
      <!-- 10.0 -->
      <g transform="translate(10.878438 157.269828)scale(0.1 -0.1)">
       <use xlink:href="#Inter-Regular-31"/>
       <use x="46.448868" xlink:href="#Inter-Regular-30"/>
       <use x="108.948883" xlink:href="#Inter-Regular-2e"/>
       <use x="136.505707" xlink:href="#Inter-Regular-30"/>
      </g>
     </g>
    </g>
    <g id="ytick_6">
     <g id="line2d_29">
      <path clip-path="url(#pc15967a985)" d="M 37.78 116.109659 
L 554.535 116.109659 
" style="fill:none;stroke:#e5e7eb;stroke-dasharray:3.7,1.6;stroke-dashoffset:0;"/>
     </g>
     <g id="line2d_30">
      <g>
       <use style="stroke:#000000;stroke-width:0.8;" x="37.78" xlink:href="#m8bdcd9971e" y="116.109659"/>
      </g>
     </g>
     <g id="text_15">
      <!-- 12.5 -->
      <g transform="translate(11.247188 119.746378)scale(0.1 -0.1)">
       <use xlink:href="#Inter-Regular-31"/>
       <use x="46.448868" xlink:href="#Inter-Regular-32"/>
       <use x="106.960251" xlink:href="#Inter-Regular-2e"/>
       <use x="134.517075" xlink:href="#Inter-Regular-35"/>
      </g>
     </g>
    </g>
    <g id="ytick_7">
     <g id="line2d_31">
      <path clip-path="url(#pc15967a985)" d="M 37.78 78.586209 
L 554.535 78.586209 
" style="fill:none;stroke:#e5e7eb;stroke-dasharray:3.7,1.6;stroke-dashoffset:0;"/>
     </g>
     <g id="line2d_32">
      <g>
       <use style="stroke:#000000;stroke-width:0.8;" x="37.78" xlink:href="#m8bdcd9971e" y="78.586209"/>
      </g>
     </g>
     <g id="text_16">
      <!-- 15.0 -->
      <g transform="translate(11.04875 82.222927)scale(0.1 -0.1)">
       <use xlink:href="#Inter-Regular-31"/>
       <use x="46.448868" xlink:href="#Inter-Regular-35"/>
       <use x="107.244339" xlink:href="#Inter-Regular-2e"/>
       <use x="134.801163" xlink:href="#Inter-Regular-30"/>
      </g>
     </g>
    </g>
    <g id="ytick_8">
     <g id="line2d_33">
      <path clip-path="url(#pc15967a985)" d="M 37.78 41.062758 
L 554.535 41.062758 
" style="fill:none;stroke:#e5e7eb;stroke-dasharray:3.7,1.6;stroke-dashoffset:0;"/>
     </g>
     <g id="line2d_34">
      <g>
       <use style="stroke:#000000;stroke-width:0.8;" x="37.78" xlink:href="#m8bdcd9971e" y="41.062758"/>
      </g>
     </g>
     <g id="text_17">
      <!-- 17.5 -->
      <g transform="translate(11.587813 44.699477)scale(0.1 -0.1)">
       <use xlink:href="#Inter-Regular-31"/>
       <use x="46.448868" xlink:href="#Inter-Regular-37"/>
       <use x="103.551147" xlink:href="#Inter-Regular-2e"/>
       <use x="131.107971" xlink:href="#Inter-Regular-35"/>
      </g>
     </g>
    </g>
   </g>
   <g id="line2d_35">
    <path clip-path="url(#pc15967a985)" d="M 37.78 265.983682 
L 102.374375 228.67873 
L 104.95815 225.634646 
L 107.541925 222.471186 
L 112.709475 232.433851 
L 115.29325 244.340387 
L 117.877025 258.118176 
L 121.752688 278.493892 
L 132.087788 297.7767 
L 135.96345 297.901403 
L 138.547225 296.98941 
L 141.131 295.281316 
L 146.29855 292.10476 
L 148.882325 291.083759 
L 156.63365 285.524107 
L 159.217425 282.838673 
L 166.96875 272.285724 
L 169.552525 267.935858 
L 174.720075 269.844558 
L 178.595737 278.440869 
L 182.4714 285.434739 
L 186.347062 290.826169 
L 204.433488 282.030116 
L 208.30915 270.568356 
L 218.64425 274.65628 
L 222.519913 287.328999 
L 240.606338 292.344752 
L 244.482 283.277255 
L 254.8171 279.613813 
L 258.692763 287.644574 
L 276.779188 283.356676 
L 280.65485 272.127652 
L 290.98995 275.494952 
L 294.865613 287.703371 
L 303.908825 297.723149 
L 312.952038 287.703371 
L 316.8277 275.494952 
L 327.1628 272.127652 
L 331.038463 283.356676 
L 349.124888 287.644574 
L 353.00055 279.613813 
L 363.33565 283.277255 
L 367.211313 292.344752 
L 385.297738 287.328999 
L 389.1734 274.65628 
L 399.5085 270.568356 
L 403.384163 282.030116 
L 421.470588 290.826169 
L 425.34625 285.434739 
L 429.221913 278.440869 
L 433.097575 269.844558 
L 438.265125 267.935858 
L 440.8489 272.285724 
L 448.600225 282.838673 
L 451.184 285.524107 
L 458.935325 291.083759 
L 461.5191 292.10476 
L 466.68665 295.281316 
L 469.270425 296.98941 
L 471.8542 297.901403 
L 475.729863 297.7767 
L 486.064963 278.493892 
L 489.940625 258.118176 
L 492.5244 244.340387 
L 495.108175 232.433851 
L 500.275725 222.471186 
L 502.8595 225.634646 
L 505.443275 228.67873 
L 570.03765 265.983682 
" style="fill:none;stroke:#ef4444;stroke-linecap:square;stroke-width:1.5;"/>
   </g>
   <g id="line2d_36">
    <path clip-path="url(#pc15967a985)" d="M 37.78 232.941425 
L 102.374375 213.05021 
L 104.95815 211.427087 
L 107.541925 209.740312 
L 112.709475 184.708194 
L 115.29325 158.346752 
L 117.877025 119.367353 
L 121.752688 33.451286 
L 132.087788 24.750909 
L 135.96345 107.070164 
L 138.547225 153.950303 
L 141.131 194.430952 
L 146.29855 239.312712 
L 148.882325 249.921786 
L 156.63365 275.565795 
L 159.217425 282.052727 
L 166.96875 295.330309 
L 169.552525 297.695099 
L 174.720075 297.851804 
L 178.595737 294.204395 
L 182.4714 288.292975 
L 186.347062 280.117546 
L 204.433488 274.792657 
L 208.30915 282.310985 
L 218.64425 275.300748 
L 222.519913 259.632288 
L 240.606338 260.893463 
L 244.482 276.667592 
L 254.8171 284.263566 
L 258.692763 277.403412 
L 276.779188 288.510178 
L 280.65485 295.869243 
L 290.98995 295.515923 
L 294.865613 287.74452 
L 303.908825 273.708192 
L 312.952038 287.74452 
L 316.8277 295.515923 
L 327.1628 295.869243 
L 331.038463 288.510178 
L 349.124888 277.403412 
L 353.00055 284.263566 
L 363.33565 276.667592 
L 367.211313 260.893463 
L 385.297738 259.632288 
L 389.1734 275.300748 
L 399.5085 282.310985 
L 403.384163 274.792657 
L 421.470588 280.117546 
L 425.34625 288.292975 
L 429.221913 294.204395 
L 433.097575 297.851804 
L 438.265125 297.695099 
L 440.8489 295.330309 
L 448.600225 282.052727 
L 451.184 275.565795 
L 458.935325 249.921786 
L 461.5191 239.312712 
L 466.68665 194.430952 
L 469.270425 153.950303 
L 471.8542 107.070164 
L 475.729863 24.750909 
L 486.064963 33.451286 
L 489.940625 119.367353 
L 492.5244 158.346752 
L 495.108175 184.708194 
L 500.275725 209.740312 
L 502.8595 211.427087 
L 505.443275 213.05021 
L 570.03765 232.941425 
" style="fill:none;stroke:#1d4ed8;stroke-linecap:square;stroke-width:1.5;"/>
   </g>
   <g id="line2d_37">
    <path clip-path="url(#pc15967a985)" d="M 37.78 303.769091 
L 102.374375 303.769091 
L 104.95815 303.769091 
L 107.541925 303.769091 
L 112.709475 303.764776 
L 115.29325 303.760537 
L 117.877025 303.755345 
L 121.752688 303.746205 
L 132.087788 293.863191 
L 135.96345 285.95505 
L 138.547225 280.682956 
L 141.131 275.410862 
L 146.29855 268.602415 
L 148.882325 267.202348 
L 156.63365 263.002149 
L 159.217425 261.602083 
L 166.96875 257.401883 
L 169.552525 256.001817 
L 174.720075 260.558178 
L 178.595737 269.315198 
L 182.4714 278.072217 
L 186.347062 286.829237 
L 204.433488 287.99725 
L 208.30915 279.801184 
L 218.64425 278.256531 
L 222.519913 285.402656 
L 240.606338 274.419001 
L 244.482 261.932832 
L 254.8171 260.587222 
L 258.692763 272.161405 
L 276.779188 273.278052 
L 280.65485 262.253058 
L 290.98995 263.562891 
L 294.865613 275.47716 
L 303.908825 288.717125 
L 312.952038 275.47716 
L 316.8277 263.562891 
L 327.1628 262.253058 
L 331.038463 273.278052 
L 349.124888 272.161405 
L 353.00055 260.587222 
L 363.33565 261.932832 
L 367.211313 274.419001 
L 385.297738 285.402656 
L 389.1734 278.256531 
L 399.5085 279.801184 
L 403.384163 287.99725 
L 421.470588 286.829237 
L 425.34625 278.072217 
L 429.221913 269.315198 
L 433.097575 260.558178 
L 438.265125 256.001817 
L 440.8489 257.401883 
L 448.600225 261.602083 
L 451.184 263.002149 
L 458.935325 267.202348 
L 461.5191 268.602415 
L 466.68665 275.410862 
L 469.270425 280.682956 
L 471.8542 285.95505 
L 475.729863 293.863191 
L 486.064963 303.746205 
L 489.940625 303.755345 
L 492.5244 303.760537 
L 495.108175 303.764776 
L 500.275725 303.769091 
L 502.8595 303.769091 
L 505.443275 303.769091 
L 570.03765 303.769091 
" style="fill:none;stroke:#10b981;stroke-linecap:square;stroke-width:1.5;"/>
   </g>
   <g id="patch_3">
    <path d="M 37.78 317.72 
L 37.78 10.8 
" style="fill:none;stroke:#000000;stroke-linecap:square;stroke-linejoin:miter;stroke-width:0.8;"/>
   </g>
   <g id="patch_4">
    <path d="M 554.535 317.72 
L 554.535 10.8 
" style="fill:none;stroke:#000000;stroke-linecap:square;stroke-linejoin:miter;stroke-width:0.8;"/>
   </g>
   <g id="patch_5">
    <path d="M 37.78 317.72 
L 554.535 317.72 
" style="fill:none;stroke:#000000;stroke-linecap:square;stroke-linejoin:miter;stroke-width:0.8;"/>
   </g>
   <g id="patch_6">
    <path d="M 37.78 10.8 
L 554.535 10.8 
" style="fill:none;stroke:#000000;stroke-linecap:square;stroke-linejoin:miter;stroke-width:0.8;"/>
   </g>
  </g>
 </g>
 <defs>
  <clipPath id="pc15967a985">
   <rect height="306.92" width="516.755" x="37.78" y="10.8"/>
  </clipPath>
 </defs>
</svg>
