<?xml version="1.0" encoding="utf-8" standalone="no"?>
<!DOCTYPE svg PUBLIC "-//W3C//DTD SVG 1.1//EN"
  "http://www.w3.org/Graphics/SVG/1.1/DTD/svg11.dtd">
<svg height="345.6pt" version="1.1" viewBox="0 0 576 345.6" width="576pt" xmlns="http://www.w3.org/2000/svg" xmlns:xlink="http://www.w3.org/1999/xlink">
 <metadata>
  <rdf:RDF xmlns:cc="http://creativecommons.org/ns#" xmlns:dc="http://purl.org/dc/elements/1.1/" xmlns:rdf="http://www.w3.org/1999/02/22-rdf-syntax-ns#">
   <cc:Work>
    <dc:type rdf:resource="http://purl.org/dc/dcmitype/StillImage"/>
    <dc:date>2021-06-06T23:11:16.490784</dc:date>
    <dc:format>image/svg+xml</dc:format>
    <dc:creator>
     <cc:Agent>
      <dc:title>Matplotlib v3.4.2, https://matplotlib.org/</dc:title>
     </cc:Agent>
    </dc:creator>
   </cc:Work>
  </rdf:RDF>
 </metadata>
 <defs>
  <style type="text/css">*{stroke-linecap:butt;stroke-linejoin:round;}</style>
 </defs>
 <g id="figure_1">
  <g id="patch_1">
   <path d="M 0 345.6 
L 576 345.6 
L 576 0 
L 0 0 
z
" style="fill:#ffffff;"/>
  </g>
  <g id="axes_1">
   <g id="patch_2">
    <path d="M 28.78 317.72 
L 554.535 317.72 
L 554.535 10.8 
L 28.78 10.8 
z
" style="fill:#ffffff;"/>
   </g>
   <g id="matplotlib.axis_1">
    <g id="xtick_1">
     <g id="line2d_1">
      <path clip-path="url(#p3456555a6e)" d="M 28.78 317.72 
L 28.78 10.8 
" style="fill:none;stroke:#e5e7eb;stroke-dasharray:3.7,1.6;stroke-dashoffset:0;"/>
     </g>
     <g id="line2d_2">
      <defs>
       <path d="M 0 0 
L 0 3.5 
" id="mc972432866" style="stroke:#000000;stroke-width:0.8;"/>
      </defs>
      <g>
       <use style="stroke:#000000;stroke-width:0.8;" x="28.78" xlink:href="#mc972432866" y="317.72"/>
      </g>
     </g>
     <g id="text_1">
      <!-- 0.0 -->
      <g transform="translate(21.151875 331.993437)scale(0.1 -0.1)">
       <defs>
        <path d="M 2000 -64 
C 3027 -64 3618 807 3618 2327 
C 3618 3836 3018 4718 2000 4718 
C 982 4718 382 3836 382 2327 
C 382 807 973 -64 2000 -64 
z
M 2000 436 
C 1323 436 927 1116 927 2327 
C 927 3536 1327 4227 2000 4227 
C 2673 4227 3073 3536 3073 2327 
C 3073 1116 2677 436 2000 436 
z
" id="Inter-Regular-30" transform="scale(0.015625)"/>
        <path d="M 882 -36 
C 1107 -36 1291 148 1291 373 
C 1291 598 1107 782 882 782 
C 657 782 473 598 473 373 
C 473 148 657 -36 882 -36 
z
" id="Inter-Regular-2e" transform="scale(0.015625)"/>
       </defs>
       <use xlink:href="#Inter-Regular-30"/>
       <use x="62.500015" xlink:href="#Inter-Regular-2e"/>
       <use x="90.056839" xlink:href="#Inter-Regular-30"/>
      </g>
     </g>
    </g>
    <g id="xtick_2">
     <g id="line2d_3">
      <path clip-path="url(#p3456555a6e)" d="M 94.499375 317.72 
L 94.499375 10.8 
" style="fill:none;stroke:#e5e7eb;stroke-dasharray:3.7,1.6;stroke-dashoffset:0;"/>
     </g>
     <g id="line2d_4">
      <g>
       <use style="stroke:#000000;stroke-width:0.8;" x="94.499375" xlink:href="#mc972432866" y="317.72"/>
      </g>
     </g>
     <g id="text_2">
      <!-- 2.5 -->
      <g transform="translate(87.055625 331.993437)scale(0.1 -0.1)">
       <defs>
        <path d="M 482 0 
L 3418 0 
L 3418 500 
L 1255 500 
L 1255 536 
L 2300 1655 
C 3100 2511 3336 2911 3336 3427 
C 3336 4145 2755 4718 1936 4718 
C 1121 4718 500 4164 500 3345 
L 1036 3345 
C 1036 3875 1380 4227 1918 4227 
C 2423 4227 2809 3918 2809 3427 
C 2809 2998 2557 2680 2018 2091 
L 482 409 
L 482 0 
z
" id="Inter-Regular-32" transform="scale(0.015625)"/>
        <path d="M 1936 -64 
C 2823 -64 3473 591 3473 1482 
C 3473 2384 2846 3045 1991 3045 
C 1677 3045 1373 2934 1182 2782 
L 1155 2782 
L 1318 4155 
L 3264 4155 
L 3264 4655 
L 846 4655 
L 564 2364 
L 1091 2300 
C 1284 2439 1614 2539 1900 2536 
C 2493 2532 2927 2082 2927 1473 
C 2927 875 2509 436 1936 436 
C 1459 436 1080 743 1036 1164 
L 491 1164 
C 525 455 1136 -64 1936 -64 
z
" id="Inter-Regular-35" transform="scale(0.015625)"/>
       </defs>
       <use xlink:href="#Inter-Regular-32"/>
       <use x="60.511383" xlink:href="#Inter-Regular-2e"/>
       <use x="88.068207" xlink:href="#Inter-Regular-35"/>
      </g>
     </g>
    </g>
    <g id="xtick_3">
     <g id="line2d_5">
      <path clip-path="url(#p3456555a6e)" d="M 160.21875 317.72 
L 160.21875 10.8 
" style="fill:none;stroke:#e5e7eb;stroke-dasharray:3.7,1.6;stroke-dashoffset:0;"/>
     </g>
     <g id="line2d_6">
      <g>
       <use style="stroke:#000000;stroke-width:0.8;" x="160.21875" xlink:href="#mc972432866" y="317.72"/>
      </g>
     </g>
     <g id="text_3">
      <!-- 5.0 -->
      <g transform="translate(152.675781 331.993437)scale(0.1 -0.1)">
       <use xlink:href="#Inter-Regular-35"/>
       <use x="60.795471" xlink:href="#Inter-Regular-2e"/>
       <use x="88.352295" xlink:href="#Inter-Regular-30"/>
      </g>
     </g>
    </g>
    <g id="xtick_4">
     <g id="line2d_7">
      <path clip-path="url(#p3456555a6e)" d="M 225.938125 317.72 
L 225.938125 10.8 
" style="fill:none;stroke:#e5e7eb;stroke-dasharray:3.7,1.6;stroke-dashoffset:0;"/>
     </g>
     <g id="line2d_8">
      <g>
       <use style="stroke:#000000;stroke-width:0.8;" x="225.938125" xlink:href="#mc972432866" y="317.72"/>
      </g>
     </g>
     <g id="text_4">
      <!-- 7.5 -->
      <g transform="translate(218.664688 331.993437)scale(0.1 -0.1)">
       <defs>
        <path d="M 627 0 
L 1218 0 
L 3291 4127 
L 3291 4655 
L 309 4655 
L 309 4155 
L 2709 4155 
L 2709 4118 
L 627 0 
z
" id="Inter-Regular-37" transform="scale(0.015625)"/>
       </defs>
       <use xlink:href="#Inter-Regular-37"/>
       <use x="57.10228" xlink:href="#Inter-Regular-2e"/>
       <use x="84.659103" xlink:href="#Inter-Regular-35"/>
      </g>
     </g>
    </g>
    <g id="xtick_5">
     <g id="line2d_9">
      <path clip-path="url(#p3456555a6e)" d="M 291.6575 317.72 
L 291.6575 10.8 
" style="fill:none;stroke:#e5e7eb;stroke-dasharray:3.7,1.6;stroke-dashoffset:0;"/>
     </g>
     <g id="line2d_10">
      <g>
       <use style="stroke:#000000;stroke-width:0.8;" x="291.6575" xlink:href="#mc972432866" y="317.72"/>
      </g>
     </g>
     <g id="text_5">
      <!-- 10.0 -->
      <g transform="translate(281.706719 331.993437)scale(0.1 -0.1)">
       <defs>
        <path d="M 2118 4655 
L 1555 4655 
L 391 3882 
L 391 3309 
L 1527 4064 
L 1555 4064 
L 1555 0 
L 2118 0 
L 2118 4655 
z
" id="Inter-Regular-31" transform="scale(0.015625)"/>
       </defs>
       <use xlink:href="#Inter-Regular-31"/>
       <use x="46.448868" xlink:href="#Inter-Regular-30"/>
       <use x="108.948883" xlink:href="#Inter-Regular-2e"/>
       <use x="136.505707" xlink:href="#Inter-Regular-30"/>
      </g>
     </g>
    </g>
    <g id="xtick_6">
     <g id="line2d_11">
      <path clip-path="url(#p3456555a6e)" d="M 357.376875 317.72 
L 357.376875 10.8 
" style="fill:none;stroke:#e5e7eb;stroke-dasharray:3.7,1.6;stroke-dashoffset:0;"/>
     </g>
     <g id="line2d_12">
      <g>
       <use style="stroke:#000000;stroke-width:0.8;" x="357.376875" xlink:href="#mc972432866" y="317.72"/>
      </g>
     </g>
     <g id="text_6">
      <!-- 12.5 -->
      <g transform="translate(347.610469 331.993437)scale(0.1 -0.1)">
       <use xlink:href="#Inter-Regular-31"/>
       <use x="46.448868" xlink:href="#Inter-Regular-32"/>
       <use x="106.960251" xlink:href="#Inter-Regular-2e"/>
       <use x="134.517075" xlink:href="#Inter-Regular-35"/>
      </g>
     </g>
    </g>
    <g id="xtick_7">
     <g id="line2d_13">
      <path clip-path="url(#p3456555a6e)" d="M 423.09625 317.72 
L 423.09625 10.8 
" style="fill:none;stroke:#e5e7eb;stroke-dasharray:3.7,1.6;stroke-dashoffset:0;"/>
     </g>
     <g id="line2d_14">
      <g>
       <use style="stroke:#000000;stroke-width:0.8;" x="423.09625" xlink:href="#mc972432866" y="317.72"/>
      </g>
     </g>
     <g id="text_7">
      <!-- 15.0 -->
      <g transform="translate(413.230625 331.993437)scale(0.1 -0.1)">
       <use xlink:href="#Inter-Regular-31"/>
       <use x="46.448868" xlink:href="#Inter-Regular-35"/>
       <use x="107.244339" xlink:href="#Inter-Regular-2e"/>
       <use x="134.801163" xlink:href="#Inter-Regular-30"/>
      </g>
     </g>
    </g>
    <g id="xtick_8">
     <g id="line2d_15">
      <path clip-path="url(#p3456555a6e)" d="M 488.815625 317.72 
L 488.815625 10.8 
" style="fill:none;stroke:#e5e7eb;stroke-dasharray:3.7,1.6;stroke-dashoffset:0;"/>
     </g>
     <g id="line2d_16">
      <g>
       <use style="stroke:#000000;stroke-width:0.8;" x="488.815625" xlink:href="#mc972432866" y="317.72"/>
      </g>
     </g>
     <g id="text_8">
      <!-- 17.5 -->
      <g transform="translate(479.219531 331.993437)scale(0.1 -0.1)">
       <use xlink:href="#Inter-Regular-31"/>
       <use x="46.448868" xlink:href="#Inter-Regular-37"/>
       <use x="103.551147" xlink:href="#Inter-Regular-2e"/>
       <use x="131.107971" xlink:href="#Inter-Regular-35"/>
      </g>
     </g>
    </g>
    <g id="xtick_9">
     <g id="line2d_17">
      <path clip-path="url(#p3456555a6e)" d="M 554.535 317.72 
L 554.535 10.8 
" style="fill:none;stroke:#e5e7eb;stroke-dasharray:3.7,1.6;stroke-dashoffset:0;"/>
     </g>
     <g id="line2d_18">
      <g>
       <use style="stroke:#000000;stroke-width:0.8;" x="554.535" xlink:href="#mc972432866" y="317.72"/>
      </g>
     </g>
     <g id="text_9">
      <!-- 20.0 -->
      <g transform="translate(543.881094 331.993437)scale(0.1 -0.1)">
       <use xlink:href="#Inter-Regular-32"/>
       <use x="60.511383" xlink:href="#Inter-Regular-30"/>
       <use x="123.011398" xlink:href="#Inter-Regular-2e"/>
       <use x="150.568222" xlink:href="#Inter-Regular-30"/>
      </g>
     </g>
    </g>
   </g>
   <g id="matplotlib.axis_2">
    <g id="ytick_1">
     <g id="line2d_19">
      <path clip-path="url(#p3456555a6e)" d="M 28.78 303.503817 
L 554.535 303.503817 
" style="fill:none;stroke:#e5e7eb;stroke-dasharray:3.7,1.6;stroke-dashoffset:0;"/>
     </g>
     <g id="line2d_20">
      <defs>
       <path d="M 0 0 
L -3.5 0 
" id="mcea5d6818e" style="stroke:#000000;stroke-width:0.8;"/>
      </defs>
      <g>
       <use style="stroke:#000000;stroke-width:0.8;" x="28.78" xlink:href="#mcea5d6818e" y="303.503817"/>
      </g>
     </g>
     <g id="text_10">
      <!-- 0 -->
      <g transform="translate(15.53 307.140536)scale(0.1 -0.1)">
       <use xlink:href="#Inter-Regular-30"/>
      </g>
     </g>
    </g>
    <g id="ytick_2">
     <g id="line2d_21">
      <path clip-path="url(#p3456555a6e)" d="M 28.78 268.534422 
L 554.535 268.534422 
" style="fill:none;stroke:#e5e7eb;stroke-dasharray:3.7,1.6;stroke-dashoffset:0;"/>
     </g>
     <g id="line2d_22">
      <g>
       <use style="stroke:#000000;stroke-width:0.8;" x="28.78" xlink:href="#mcea5d6818e" y="268.534422"/>
      </g>
     </g>
     <g id="text_11">
      <!-- 2 -->
      <g transform="translate(15.728438 272.171141)scale(0.1 -0.1)">
       <use xlink:href="#Inter-Regular-32"/>
      </g>
     </g>
    </g>
    <g id="ytick_3">
     <g id="line2d_23">
      <path clip-path="url(#p3456555a6e)" d="M 28.78 233.565027 
L 554.535 233.565027 
" style="fill:none;stroke:#e5e7eb;stroke-dasharray:3.7,1.6;stroke-dashoffset:0;"/>
     </g>
     <g id="line2d_24">
      <g>
       <use style="stroke:#000000;stroke-width:0.8;" x="28.78" xlink:href="#mcea5d6818e" y="233.565027"/>
      </g>
     </g>
     <g id="text_12">
      <!-- 4 -->
      <g transform="translate(15.359688 237.201745)scale(0.1 -0.1)">
       <defs>
        <path d="M 373 955 
L 2564 955 
L 2564 0 
L 3100 0 
L 3100 955 
L 3736 955 
L 3736 1455 
L 3100 1455 
L 3100 4655 
L 2418 4655 
L 373 1418 
L 373 955 
z
M 982 1455 
L 982 1491 
L 2527 3936 
L 2564 3936 
L 2564 1455 
L 982 1455 
z
" id="Inter-Regular-34" transform="scale(0.015625)"/>
       </defs>
       <use xlink:href="#Inter-Regular-34"/>
      </g>
     </g>
    </g>
    <g id="ytick_4">
     <g id="line2d_25">
      <path clip-path="url(#p3456555a6e)" d="M 28.78 198.595631 
L 554.535 198.595631 
" style="fill:none;stroke:#e5e7eb;stroke-dasharray:3.7,1.6;stroke-dashoffset:0;"/>
     </g>
     <g id="line2d_26">
      <g>
       <use style="stroke:#000000;stroke-width:0.8;" x="28.78" xlink:href="#mcea5d6818e" y="198.595631"/>
      </g>
     </g>
     <g id="text_13">
      <!-- 6 -->
      <g transform="translate(15.544063 202.23235)scale(0.1 -0.1)">
       <defs>
        <path d="M 2027 -64 
C 2968 -75 3582 634 3582 1500 
C 3582 2400 2916 3045 2118 3045 
C 1639 3045 1227 2811 973 2427 
L 936 2427 
C 939 3570 1380 4227 2100 4227 
C 2591 4227 2886 3918 2991 3491 
L 3546 3491 
C 3432 4223 2882 4727 2100 4727 
C 1052 4727 409 3800 409 2145 
C 409 425 1264 -55 2027 -64 
z
M 2027 436 
C 1443 436 1016 934 1018 1491 
C 1021 2048 1468 2545 2046 2545 
C 2616 2545 3036 2077 3036 1500 
C 3036 909 2598 436 2027 436 
z
" id="Inter-Regular-36" transform="scale(0.015625)"/>
       </defs>
       <use xlink:href="#Inter-Regular-36"/>
      </g>
     </g>
    </g>
    <g id="ytick_5">
     <g id="line2d_27">
      <path clip-path="url(#p3456555a6e)" d="M 28.78 163.626236 
L 554.535 163.626236 
" style="fill:none;stroke:#e5e7eb;stroke-dasharray:3.7,1.6;stroke-dashoffset:0;"/>
     </g>
     <g id="line2d_28">
      <g>
       <use style="stroke:#000000;stroke-width:0.8;" x="28.78" xlink:href="#mcea5d6818e" y="163.626236"/>
      </g>
     </g>
     <g id="text_14">
      <!-- 8 -->
      <g transform="translate(15.614375 167.262954)scale(0.1 -0.1)">
       <defs>
        <path d="M 1973 -64 
C 2902 -64 3550 480 3555 1236 
C 3550 1825 3157 2325 2655 2418 
L 2655 2445 
C 3091 2559 3377 2986 3382 3482 
C 3377 4191 2782 4718 1973 4718 
C 1155 4718 559 4191 564 3482 
C 559 2986 846 2559 1291 2445 
L 1291 2418 
C 780 2325 386 1825 391 1236 
C 386 480 1034 -64 1973 -64 
z
M 1973 2645 
C 1464 2645 1105 2964 1109 3445 
C 1105 3918 1450 4227 1973 4227 
C 2486 4227 2832 3918 2836 3445 
C 2832 2964 2473 2645 1973 2645 
z
M 1973 436 
C 1334 436 941 764 946 1264 
C 941 1789 1375 2164 1973 2164 
C 2561 2164 2996 1789 3000 1264 
C 2996 764 2602 436 1973 436 
z
" id="Inter-Regular-38" transform="scale(0.015625)"/>
       </defs>
       <use xlink:href="#Inter-Regular-38"/>
      </g>
     </g>
    </g>
    <g id="ytick_6">
     <g id="line2d_29">
      <path clip-path="url(#p3456555a6e)" d="M 28.78 128.65684 
L 554.535 128.65684 
" style="fill:none;stroke:#e5e7eb;stroke-dasharray:3.7,1.6;stroke-dashoffset:0;"/>
     </g>
     <g id="line2d_30">
      <g>
       <use style="stroke:#000000;stroke-width:0.8;" x="28.78" xlink:href="#mcea5d6818e" y="128.65684"/>
      </g>
     </g>
     <g id="text_15">
      <!-- 10 -->
      <g transform="translate(10.884688 132.293559)scale(0.1 -0.1)">
       <use xlink:href="#Inter-Regular-31"/>
       <use x="46.448868" xlink:href="#Inter-Regular-30"/>
      </g>
     </g>
    </g>
    <g id="ytick_7">
     <g id="line2d_31">
      <path clip-path="url(#p3456555a6e)" d="M 28.78 93.687445 
L 554.535 93.687445 
" style="fill:none;stroke:#e5e7eb;stroke-dasharray:3.7,1.6;stroke-dashoffset:0;"/>
     </g>
     <g id="line2d_32">
      <g>
       <use style="stroke:#000000;stroke-width:0.8;" x="28.78" xlink:href="#mcea5d6818e" y="93.687445"/>
      </g>
     </g>
     <g id="text_16">
      <!-- 12 -->
      <g transform="translate(11.083125 97.324164)scale(0.1 -0.1)">
       <use xlink:href="#Inter-Regular-31"/>
       <use x="46.448868" xlink:href="#Inter-Regular-32"/>
      </g>
     </g>
    </g>
    <g id="ytick_8">
     <g id="line2d_33">
      <path clip-path="url(#p3456555a6e)" d="M 28.78 58.718049 
L 554.535 58.718049 
" style="fill:none;stroke:#e5e7eb;stroke-dasharray:3.7,1.6;stroke-dashoffset:0;"/>
     </g>
     <g id="line2d_34">
      <g>
       <use style="stroke:#000000;stroke-width:0.8;" x="28.78" xlink:href="#mcea5d6818e" y="58.718049"/>
      </g>
     </g>
     <g id="text_17">
      <!-- 14 -->
      <g transform="translate(10.714375 62.354768)scale(0.1 -0.1)">
       <use xlink:href="#Inter-Regular-31"/>
       <use x="46.448868" xlink:href="#Inter-Regular-34"/>
      </g>
     </g>
    </g>
    <g id="ytick_9">
     <g id="line2d_35">
      <path clip-path="url(#p3456555a6e)" d="M 28.78 23.748654 
L 554.535 23.748654 
" style="fill:none;stroke:#e5e7eb;stroke-dasharray:3.7,1.6;stroke-dashoffset:0;"/>
     </g>
     <g id="line2d_36">
      <g>
       <use style="stroke:#000000;stroke-width:0.8;" x="28.78" xlink:href="#mcea5d6818e" y="23.748654"/>
      </g>
     </g>
     <g id="text_18">
      <!-- 16 -->
      <g transform="translate(10.89875 27.385373)scale(0.1 -0.1)">
       <use xlink:href="#Inter-Regular-31"/>
       <use x="46.448868" xlink:href="#Inter-Regular-36"/>
      </g>
     </g>
    </g>
   </g>
   <g id="line2d_37">
    <path clip-path="url(#p3456555a6e)" d="M 28.78 272.940124 
L 94.499375 210.424231 
L 96.865273 196.974279 
L 99.494048 169.611659 
L 101.597068 145.435192 
L 104.225843 112.356646 
L 110.534903 156.617145 
L 113.163678 212.755181 
L 115.529575 246.899907 
L 118.15835 271.660264 
L 120.26137 286.272311 
L 122.890145 298.042073 
L 128.936328 297.729907 
L 131.565103 285.688615 
L 134.98251 252.529172 
L 137.611285 206.599272 
L 139.714305 159.261194 
L 142.34308 86.845897 
L 146.54912 24.750909 
L 147.863508 29.751339 
L 149.177895 34.700978 
L 150.229405 38.624121 
L 151.280915 42.514757 
L 153.90969 52.099134 
L 155.224078 56.815126 
L 157.852852 66.09476 
L 161.007383 112.499957 
L 163.636157 171.047152 
L 165.739177 210.163711 
L 168.367952 249.407916 
L 170.73385 272.276073 
L 173.362625 287.903097 
L 179.408807 302.416543 
L 185.45499 287.134664 
L 188.083765 271.17315 
L 190.449662 247.883385 
L 193.078437 207.962041 
L 195.181457 168.236366 
L 197.810232 108.843525 
L 201.490517 60.018779 
L 204.119292 60.168838 
L 205.43368 60.23443 
L 208.062455 60.34674 
L 209.63972 60.402046 
L 211.216985 60.448293 
L 213.84576 60.505238 
L 215.160147 60.524273 
L 217.788922 60.543469 
L 221.469207 109.466719 
L 224.097982 168.809827 
L 226.201002 208.480038 
L 228.829777 248.312458 
L 231.195675 271.537579 
L 233.82445 287.432908 
L 239.870632 302.425922 
L 245.916815 287.432908 
L 248.54559 271.537579 
L 250.911487 248.312458 
L 253.540262 208.480038 
L 255.643282 168.809827 
L 258.272057 109.466719 
L 261.952342 60.543469 
L 264.581117 60.524273 
L 265.895505 60.505238 
L 268.52428 60.448293 
L 270.101545 60.402046 
L 271.67881 60.34674 
L 274.307585 60.23443 
L 275.621972 60.168838 
L 278.250747 60.018779 
L 281.931032 108.843525 
L 284.559807 168.236366 
L 286.662827 207.962041 
L 289.291602 247.883385 
L 291.6575 271.17315 
L 294.286275 287.134664 
L 300.332457 302.416543 
L 306.37864 287.903097 
L 309.007415 272.276073 
L 311.373312 249.407916 
L 314.002087 210.163711 
L 316.105107 171.047152 
L 318.733882 112.499957 
L 321.888412 66.09476 
L 324.517187 56.815126 
L 325.831575 52.099134 
L 328.46035 42.514757 
L 329.51186 38.624121 
L 330.56337 34.700978 
L 331.877757 29.751339 
L 333.192145 24.750909 
L 337.398185 86.845897 
L 340.02696 159.261194 
L 342.12998 206.599272 
L 344.758755 252.529172 
L 348.176162 285.688615 
L 350.804937 297.729907 
L 356.85112 298.042073 
L 359.479895 286.272311 
L 361.582915 271.660264 
L 364.21169 246.899907 
L 366.577587 212.755181 
L 369.206362 156.617145 
L 375.515422 112.356646 
L 378.144197 145.435192 
L 380.247217 169.611659 
L 382.875992 196.974279 
L 385.24189 210.424231 
L 450.961265 272.940124 
L 516.68064 210.424231 
L 519.046537 196.974279 
L 521.675312 169.611659 
L 523.778332 145.435192 
L 526.407107 112.356646 
L 532.716167 156.617145 
L 535.344942 212.755181 
L 537.71084 246.899907 
L 540.339615 271.660264 
L 542.442635 286.272311 
L 545.07141 298.042073 
L 551.117592 297.729907 
L 553.746367 285.688615 
L 557.163775 252.529172 
" style="fill:none;stroke:#ef4444;stroke-linecap:square;stroke-width:1.5;"/>
   </g>
   <g id="line2d_38">
    <path clip-path="url(#p3456555a6e)" d="M 28.78 276.836779 
L 94.499375 205.185906 
L 96.865273 208.788532 
L 99.494048 221.772761 
L 101.597068 231.421228 
L 104.225843 242.558166 
L 110.534903 226.432847 
L 113.163678 197.092568 
L 115.529575 175.779462 
L 118.15835 160.903238 
L 120.26137 148.379761 
L 122.890145 131.947293 
L 128.936328 91.219174 
L 131.565103 72.282153 
L 134.98251 90.973851 
L 137.611285 134.699252 
L 139.714305 166.034496 
L 142.34308 200.647204 
L 146.54912 221.731592 
L 147.863508 220.140149 
L 149.177895 218.514855 
L 150.229405 217.190246 
L 151.280915 215.843972 
L 153.90969 212.383502 
L 155.224078 210.603668 
L 157.852852 206.944937 
L 161.007383 185.229577 
L 163.636157 148.286282 
L 165.739177 115.089593 
L 168.367952 69.041166 
L 170.73385 46.367696 
L 173.362625 46.06734 
L 179.408807 46.182525 
L 185.45499 46.172007 
L 188.083765 46.517678 
L 190.449662 69.216385 
L 193.078437 115.271088 
L 195.181457 148.468714 
L 197.810232 185.408075 
L 201.490517 208.027354 
L 204.119292 208.20139 
L 205.43368 208.26553 
L 208.062455 208.348046 
L 209.63972 208.366707 
L 211.216985 208.36223 
L 213.84576 208.303355 
L 215.160147 208.251036 
L 217.788922 208.100637 
L 221.469207 185.536493 
L 224.097982 148.663961 
L 226.201002 115.528572 
L 228.829777 69.562632 
L 231.195675 46.918842 
L 233.82445 46.596672 
L 239.870632 46.659637 
L 245.916815 46.596672 
L 248.54559 46.918842 
L 250.911487 69.562632 
L 253.540262 115.528572 
L 255.643282 148.663961 
L 258.272057 185.536493 
L 261.952342 208.100637 
L 264.581117 208.251036 
L 265.895505 208.303355 
L 268.52428 208.36223 
L 270.101545 208.366707 
L 271.67881 208.348046 
L 274.307585 208.26553 
L 275.621972 208.20139 
L 278.250747 208.027354 
L 281.931032 185.408075 
L 284.559807 148.468714 
L 286.662827 115.271088 
L 289.291602 69.216385 
L 291.6575 46.517678 
L 294.286275 46.172007 
L 300.332457 46.182525 
L 306.37864 46.06734 
L 309.007415 46.367696 
L 311.373312 69.041166 
L 314.002087 115.089593 
L 316.105107 148.286282 
L 318.733882 185.229577 
L 321.888412 206.944937 
L 324.517187 210.603668 
L 325.831575 212.383502 
L 328.46035 215.843972 
L 329.51186 217.190246 
L 330.56337 218.514855 
L 331.877757 220.140149 
L 333.192145 221.731592 
L 337.398185 200.647204 
L 340.02696 166.034496 
L 342.12998 134.699252 
L 344.758755 90.973851 
L 348.176162 72.282153 
L 350.804937 91.219174 
L 356.85112 131.947293 
L 359.479895 148.379761 
L 361.582915 160.903238 
L 364.21169 175.779462 
L 366.577587 197.092568 
L 369.206362 226.432847 
L 375.515422 242.558166 
L 378.144197 231.421228 
L 380.247217 221.772761 
L 382.875992 208.788532 
L 385.24189 205.185906 
L 450.961265 276.836779 
L 516.68064 205.185906 
L 519.046537 208.788532 
L 521.675312 221.772761 
L 523.778332 231.421228 
L 526.407107 242.558166 
L 532.716167 226.432847 
L 535.344942 197.092568 
L 537.71084 175.779462 
L 540.339615 160.903238 
L 542.442635 148.379761 
L 545.07141 131.947293 
L 551.117592 91.219174 
L 553.746367 72.282153 
L 557.163775 90.973851 
" style="fill:none;stroke:#1d4ed8;stroke-linecap:square;stroke-width:1.5;"/>
   </g>
   <g id="line2d_39">
    <path clip-path="url(#p3456555a6e)" d="M 28.78 303.703563 
L 94.499375 303.703563 
L 96.865273 303.712578 
L 99.494048 303.732761 
L 101.597068 303.748908 
L 104.225843 303.769091 
L 110.534903 303.728016 
L 113.163678 303.675542 
L 115.529575 303.634171 
L 118.15835 303.594137 
L 120.26137 303.56211 
L 122.890145 303.522077 
L 128.936328 294.850897 
L 131.565103 287.348486 
L 134.98251 275.713866 
L 137.611285 265.032795 
L 139.714305 256.487937 
L 142.34308 245.806865 
L 146.54912 237.972749 
L 147.863508 238.539624 
L 149.177895 239.1065 
L 150.229405 239.560001 
L 151.280915 240.013501 
L 153.90969 241.147253 
L 155.224078 241.870528 
L 157.852852 243.629882 
L 161.007383 250.504764 
L 163.636157 260.047256 
L 165.739177 267.68125 
L 168.367952 277.223742 
L 170.73385 284.750758 
L 173.362625 292.060127 
L 179.408807 300.470655 
L 185.45499 292.114091 
L 188.083765 284.82821 
L 190.449662 277.326162 
L 193.078437 267.816079 
L 195.181457 260.208013 
L 197.810232 250.69793 
L 201.490517 243.47626 
L 204.119292 242.856583 
L 205.43368 242.703146 
L 208.062455 242.709072 
L 209.63972 242.712627 
L 211.216985 242.716183 
L 213.84576 242.722109 
L 215.160147 242.881473 
L 217.788922 243.513002 
L 221.469207 250.746763 
L 224.097982 260.261956 
L 226.201002 267.87411 
L 228.829777 277.389302 
L 231.195675 284.898878 
L 233.82445 292.196503 
L 239.870632 300.580145 
L 245.916815 292.196503 
L 248.54559 284.898878 
L 250.911487 277.389302 
L 253.540262 267.87411 
L 255.643282 260.261956 
L 258.272057 250.746763 
L 261.952342 243.513002 
L 264.581117 242.881473 
L 265.895505 242.722109 
L 268.52428 242.716183 
L 270.101545 242.712627 
L 271.67881 242.709072 
L 274.307585 242.703146 
L 275.621972 242.856583 
L 278.250747 243.47626 
L 281.931032 250.69793 
L 284.559807 260.208013 
L 286.662827 267.816079 
L 289.291602 277.326162 
L 291.6575 284.82821 
L 294.286275 292.114091 
L 300.332457 300.470655 
L 306.37864 292.060127 
L 309.007415 284.750758 
L 311.373312 277.223742 
L 314.002087 267.68125 
L 316.105107 260.047256 
L 318.733882 250.504764 
L 321.888412 243.629882 
L 324.517187 241.870528 
L 325.831575 241.147253 
L 328.46035 240.013501 
L 329.51186 239.560001 
L 330.56337 239.1065 
L 331.877757 238.539624 
L 333.192145 237.972749 
L 337.398185 245.806865 
L 340.02696 256.487937 
L 342.12998 265.032795 
L 344.758755 275.713866 
L 348.176162 287.348486 
L 350.804937 294.850897 
L 356.85112 303.522077 
L 359.479895 303.56211 
L 361.582915 303.594137 
L 364.21169 303.634171 
L 366.577587 303.675542 
L 369.206362 303.728016 
L 375.515422 303.769091 
L 378.144197 303.748908 
L 380.247217 303.732761 
L 382.875992 303.712578 
L 385.24189 303.703563 
L 450.961265 303.703563 
L 516.68064 303.703563 
L 519.046537 303.712578 
L 521.675312 303.732761 
L 523.778332 303.748908 
L 526.407107 303.769091 
L 532.716167 303.728016 
L 535.344942 303.675542 
L 537.71084 303.634171 
L 540.339615 303.594137 
L 542.442635 303.56211 
L 545.07141 303.522077 
L 551.117592 294.850897 
L 553.746367 287.348486 
L 557.163775 275.713866 
" style="fill:none;stroke:#10b981;stroke-linecap:square;stroke-width:1.5;"/>
   </g>
   <g id="patch_3">
    <path d="M 28.78 317.72 
L 28.78 10.8 
" style="fill:none;stroke:#000000;stroke-linecap:square;stroke-linejoin:miter;stroke-width:0.8;"/>
   </g>
   <g id="patch_4">
    <path d="M 554.535 317.72 
L 554.535 10.8 
" style="fill:none;stroke:#000000;stroke-linecap:square;stroke-linejoin:miter;stroke-width:0.8;"/>
   </g>
   <g id="patch_5">
    <path d="M 28.78 317.72 
L 554.535 317.72 
" style="fill:none;stroke:#000000;stroke-linecap:square;stroke-linejoin:miter;stroke-width:0.8;"/>
   </g>
   <g id="patch_6">
    <path d="M 28.78 10.8 
L 554.535 10.8 
" style="fill:none;stroke:#000000;stroke-linecap:square;stroke-linejoin:miter;stroke-width:0.8;"/>
   </g>
  </g>
 </g>
 <defs>
  <clipPath id="p3456555a6e">
   <rect height="306.92" width="525.755" x="28.78" y="10.8"/>
  </clipPath>
 </defs>
</svg>
