<?xml version="1.0" encoding="utf-8" standalone="no"?>
<!DOCTYPE svg PUBLIC "-//W3C//DTD SVG 1.1//EN"
  "http://www.w3.org/Graphics/SVG/1.1/DTD/svg11.dtd">
<svg height="345.6pt" version="1.1" viewBox="0 0 576 345.6" width="576pt" xmlns="http://www.w3.org/2000/svg" xmlns:xlink="http://www.w3.org/1999/xlink">
 <metadata>
  <rdf:RDF xmlns:cc="http://creativecommons.org/ns#" xmlns:dc="http://purl.org/dc/elements/1.1/" xmlns:rdf="http://www.w3.org/1999/02/22-rdf-syntax-ns#">
   <cc:Work>
    <dc:type rdf:resource="http://purl.org/dc/dcmitype/StillImage"/>
    <dc:date>2021-06-06T23:11:17.295805</dc:date>
    <dc:format>image/svg+xml</dc:format>
    <dc:creator>
     <cc:Agent>
      <dc:title>Matplotlib v3.4.2, https://matplotlib.org/</dc:title>
     </cc:Agent>
    </dc:creator>
   </cc:Work>
  </rdf:RDF>
 </metadata>
 <defs>
  <style type="text/css">*{stroke-linecap:butt;stroke-linejoin:round;}</style>
 </defs>
 <g id="figure_1">
  <g id="patch_1">
   <path d="M 0 345.6 
L 576 345.6 
L 576 0 
L 0 0 
z
" style="fill:#ffffff;"/>
  </g>
  <g id="axes_1">
   <g id="patch_2">
    <path d="M 28.78 317.72 
L 554.535 317.72 
L 554.535 12.883389 
L 28.78 12.883389 
z
" style="fill:#ffffff;"/>
   </g>
   <g id="matplotlib.axis_1">
    <g id="xtick_1">
     <g id="line2d_1">
      <path clip-path="url(#p52707360f4)" d="M 28.78 317.72 
L 28.78 12.883389 
" style="fill:none;stroke:#e5e7eb;stroke-dasharray:3.7,1.6;stroke-dashoffset:0;"/>
     </g>
     <g id="line2d_2">
      <defs>
       <path d="M 0 0 
L 0 3.5 
" id="me31a553e7f" style="stroke:#000000;stroke-width:0.8;"/>
      </defs>
      <g>
       <use style="stroke:#000000;stroke-width:0.8;" x="28.78" xlink:href="#me31a553e7f" y="317.72"/>
      </g>
     </g>
     <g id="text_1">
      <!-- 0.0 -->
      <g transform="translate(21.151875 331.993437)scale(0.1 -0.1)">
       <defs>
        <path d="M 2000 -64 
C 3027 -64 3618 807 3618 2327 
C 3618 3836 3018 4718 2000 4718 
C 982 4718 382 3836 382 2327 
C 382 807 973 -64 2000 -64 
z
M 2000 436 
C 1323 436 927 1116 927 2327 
C 927 3536 1327 4227 2000 4227 
C 2673 4227 3073 3536 3073 2327 
C 3073 1116 2677 436 2000 436 
z
" id="Inter-Regular-30" transform="scale(0.015625)"/>
        <path d="M 882 -36 
C 1107 -36 1291 148 1291 373 
C 1291 598 1107 782 882 782 
C 657 782 473 598 473 373 
C 473 148 657 -36 882 -36 
z
" id="Inter-Regular-2e" transform="scale(0.015625)"/>
       </defs>
       <use xlink:href="#Inter-Regular-30"/>
       <use x="62.500015" xlink:href="#Inter-Regular-2e"/>
       <use x="90.056839" xlink:href="#Inter-Regular-30"/>
      </g>
     </g>
    </g>
    <g id="xtick_2">
     <g id="line2d_3">
      <path clip-path="url(#p52707360f4)" d="M 94.499375 317.72 
L 94.499375 12.883389 
" style="fill:none;stroke:#e5e7eb;stroke-dasharray:3.7,1.6;stroke-dashoffset:0;"/>
     </g>
     <g id="line2d_4">
      <g>
       <use style="stroke:#000000;stroke-width:0.8;" x="94.499375" xlink:href="#me31a553e7f" y="317.72"/>
      </g>
     </g>
     <g id="text_2">
      <!-- 2.5 -->
      <g transform="translate(87.055625 331.993437)scale(0.1 -0.1)">
       <defs>
        <path d="M 482 0 
L 3418 0 
L 3418 500 
L 1255 500 
L 1255 536 
L 2300 1655 
C 3100 2511 3336 2911 3336 3427 
C 3336 4145 2755 4718 1936 4718 
C 1121 4718 500 4164 500 3345 
L 1036 3345 
C 1036 3875 1380 4227 1918 4227 
C 2423 4227 2809 3918 2809 3427 
C 2809 2998 2557 2680 2018 2091 
L 482 409 
L 482 0 
z
" id="Inter-Regular-32" transform="scale(0.015625)"/>
        <path d="M 1936 -64 
C 2823 -64 3473 591 3473 1482 
C 3473 2384 2846 3045 1991 3045 
C 1677 3045 1373 2934 1182 2782 
L 1155 2782 
L 1318 4155 
L 3264 4155 
L 3264 4655 
L 846 4655 
L 564 2364 
L 1091 2300 
C 1284 2439 1614 2539 1900 2536 
C 2493 2532 2927 2082 2927 1473 
C 2927 875 2509 436 1936 436 
C 1459 436 1080 743 1036 1164 
L 491 1164 
C 525 455 1136 -64 1936 -64 
z
" id="Inter-Regular-35" transform="scale(0.015625)"/>
       </defs>
       <use xlink:href="#Inter-Regular-32"/>
       <use x="60.511383" xlink:href="#Inter-Regular-2e"/>
       <use x="88.068207" xlink:href="#Inter-Regular-35"/>
      </g>
     </g>
    </g>
    <g id="xtick_3">
     <g id="line2d_5">
      <path clip-path="url(#p52707360f4)" d="M 160.21875 317.72 
L 160.21875 12.883389 
" style="fill:none;stroke:#e5e7eb;stroke-dasharray:3.7,1.6;stroke-dashoffset:0;"/>
     </g>
     <g id="line2d_6">
      <g>
       <use style="stroke:#000000;stroke-width:0.8;" x="160.21875" xlink:href="#me31a553e7f" y="317.72"/>
      </g>
     </g>
     <g id="text_3">
      <!-- 5.0 -->
      <g transform="translate(152.675781 331.993437)scale(0.1 -0.1)">
       <use xlink:href="#Inter-Regular-35"/>
       <use x="60.795471" xlink:href="#Inter-Regular-2e"/>
       <use x="88.352295" xlink:href="#Inter-Regular-30"/>
      </g>
     </g>
    </g>
    <g id="xtick_4">
     <g id="line2d_7">
      <path clip-path="url(#p52707360f4)" d="M 225.938125 317.72 
L 225.938125 12.883389 
" style="fill:none;stroke:#e5e7eb;stroke-dasharray:3.7,1.6;stroke-dashoffset:0;"/>
     </g>
     <g id="line2d_8">
      <g>
       <use style="stroke:#000000;stroke-width:0.8;" x="225.938125" xlink:href="#me31a553e7f" y="317.72"/>
      </g>
     </g>
     <g id="text_4">
      <!-- 7.5 -->
      <g transform="translate(218.664688 331.993437)scale(0.1 -0.1)">
       <defs>
        <path d="M 627 0 
L 1218 0 
L 3291 4127 
L 3291 4655 
L 309 4655 
L 309 4155 
L 2709 4155 
L 2709 4118 
L 627 0 
z
" id="Inter-Regular-37" transform="scale(0.015625)"/>
       </defs>
       <use xlink:href="#Inter-Regular-37"/>
       <use x="57.10228" xlink:href="#Inter-Regular-2e"/>
       <use x="84.659103" xlink:href="#Inter-Regular-35"/>
      </g>
     </g>
    </g>
    <g id="xtick_5">
     <g id="line2d_9">
      <path clip-path="url(#p52707360f4)" d="M 291.6575 317.72 
L 291.6575 12.883389 
" style="fill:none;stroke:#e5e7eb;stroke-dasharray:3.7,1.6;stroke-dashoffset:0;"/>
     </g>
     <g id="line2d_10">
      <g>
       <use style="stroke:#000000;stroke-width:0.8;" x="291.6575" xlink:href="#me31a553e7f" y="317.72"/>
      </g>
     </g>
     <g id="text_5">
      <!-- 10.0 -->
      <g transform="translate(281.706719 331.993437)scale(0.1 -0.1)">
       <defs>
        <path d="M 2118 4655 
L 1555 4655 
L 391 3882 
L 391 3309 
L 1527 4064 
L 1555 4064 
L 1555 0 
L 2118 0 
L 2118 4655 
z
" id="Inter-Regular-31" transform="scale(0.015625)"/>
       </defs>
       <use xlink:href="#Inter-Regular-31"/>
       <use x="46.448868" xlink:href="#Inter-Regular-30"/>
       <use x="108.948883" xlink:href="#Inter-Regular-2e"/>
       <use x="136.505707" xlink:href="#Inter-Regular-30"/>
      </g>
     </g>
    </g>
    <g id="xtick_6">
     <g id="line2d_11">
      <path clip-path="url(#p52707360f4)" d="M 357.376875 317.72 
L 357.376875 12.883389 
" style="fill:none;stroke:#e5e7eb;stroke-dasharray:3.7,1.6;stroke-dashoffset:0;"/>
     </g>
     <g id="line2d_12">
      <g>
       <use style="stroke:#000000;stroke-width:0.8;" x="357.376875" xlink:href="#me31a553e7f" y="317.72"/>
      </g>
     </g>
     <g id="text_6">
      <!-- 12.5 -->
      <g transform="translate(347.610469 331.993437)scale(0.1 -0.1)">
       <use xlink:href="#Inter-Regular-31"/>
       <use x="46.448868" xlink:href="#Inter-Regular-32"/>
       <use x="106.960251" xlink:href="#Inter-Regular-2e"/>
       <use x="134.517075" xlink:href="#Inter-Regular-35"/>
      </g>
     </g>
    </g>
    <g id="xtick_7">
     <g id="line2d_13">
      <path clip-path="url(#p52707360f4)" d="M 423.09625 317.72 
L 423.09625 12.883389 
" style="fill:none;stroke:#e5e7eb;stroke-dasharray:3.7,1.6;stroke-dashoffset:0;"/>
     </g>
     <g id="line2d_14">
      <g>
       <use style="stroke:#000000;stroke-width:0.8;" x="423.09625" xlink:href="#me31a553e7f" y="317.72"/>
      </g>
     </g>
     <g id="text_7">
      <!-- 15.0 -->
      <g transform="translate(413.230625 331.993437)scale(0.1 -0.1)">
       <use xlink:href="#Inter-Regular-31"/>
       <use x="46.448868" xlink:href="#Inter-Regular-35"/>
       <use x="107.244339" xlink:href="#Inter-Regular-2e"/>
       <use x="134.801163" xlink:href="#Inter-Regular-30"/>
      </g>
     </g>
    </g>
    <g id="xtick_8">
     <g id="line2d_15">
      <path clip-path="url(#p52707360f4)" d="M 488.815625 317.72 
L 488.815625 12.883389 
" style="fill:none;stroke:#e5e7eb;stroke-dasharray:3.7,1.6;stroke-dashoffset:0;"/>
     </g>
     <g id="line2d_16">
      <g>
       <use style="stroke:#000000;stroke-width:0.8;" x="488.815625" xlink:href="#me31a553e7f" y="317.72"/>
      </g>
     </g>
     <g id="text_8">
      <!-- 17.5 -->
      <g transform="translate(479.219531 331.993437)scale(0.1 -0.1)">
       <use xlink:href="#Inter-Regular-31"/>
       <use x="46.448868" xlink:href="#Inter-Regular-37"/>
       <use x="103.551147" xlink:href="#Inter-Regular-2e"/>
       <use x="131.107971" xlink:href="#Inter-Regular-35"/>
      </g>
     </g>
    </g>
    <g id="xtick_9">
     <g id="line2d_17">
      <path clip-path="url(#p52707360f4)" d="M 554.535 317.72 
L 554.535 12.883389 
" style="fill:none;stroke:#e5e7eb;stroke-dasharray:3.7,1.6;stroke-dashoffset:0;"/>
     </g>
     <g id="line2d_18">
      <g>
       <use style="stroke:#000000;stroke-width:0.8;" x="554.535" xlink:href="#me31a553e7f" y="317.72"/>
      </g>
     </g>
     <g id="text_9">
      <!-- 20.0 -->
      <g transform="translate(543.881094 331.993437)scale(0.1 -0.1)">
       <use xlink:href="#Inter-Regular-32"/>
       <use x="60.511383" xlink:href="#Inter-Regular-30"/>
       <use x="123.011398" xlink:href="#Inter-Regular-2e"/>
       <use x="150.568222" xlink:href="#Inter-Regular-30"/>
      </g>
     </g>
    </g>
   </g>
   <g id="matplotlib.axis_2">
    <g id="ytick_1">
     <g id="line2d_19">
      <path clip-path="url(#p52707360f4)" d="M 28.78 304.017442 
L 554.535 304.017442 
" style="fill:none;stroke:#e5e7eb;stroke-dasharray:3.7,1.6;stroke-dashoffset:0;"/>
     </g>
     <g id="line2d_20">
      <defs>
       <path d="M 0 0 
L -3.5 0 
" id="mf098d26498" style="stroke:#000000;stroke-width:0.8;"/>
      </defs>
      <g>
       <use style="stroke:#000000;stroke-width:0.8;" x="28.78" xlink:href="#mf098d26498" y="304.017442"/>
      </g>
     </g>
     <g id="text_10">
      <!-- 0 -->
      <g transform="translate(15.53 307.654161)scale(0.1 -0.1)">
       <use xlink:href="#Inter-Regular-30"/>
      </g>
     </g>
    </g>
    <g id="ytick_2">
     <g id="line2d_21">
      <path clip-path="url(#p52707360f4)" d="M 28.78 255.853383 
L 554.535 255.853383 
" style="fill:none;stroke:#e5e7eb;stroke-dasharray:3.7,1.6;stroke-dashoffset:0;"/>
     </g>
     <g id="line2d_22">
      <g>
       <use style="stroke:#000000;stroke-width:0.8;" x="28.78" xlink:href="#mf098d26498" y="255.853383"/>
      </g>
     </g>
     <g id="text_11">
      <!-- 2 -->
      <g transform="translate(15.728438 259.490101)scale(0.1 -0.1)">
       <use xlink:href="#Inter-Regular-32"/>
      </g>
     </g>
    </g>
    <g id="ytick_3">
     <g id="line2d_23">
      <path clip-path="url(#p52707360f4)" d="M 28.78 207.689323 
L 554.535 207.689323 
" style="fill:none;stroke:#e5e7eb;stroke-dasharray:3.7,1.6;stroke-dashoffset:0;"/>
     </g>
     <g id="line2d_24">
      <g>
       <use style="stroke:#000000;stroke-width:0.8;" x="28.78" xlink:href="#mf098d26498" y="207.689323"/>
      </g>
     </g>
     <g id="text_12">
      <!-- 4 -->
      <g transform="translate(15.359688 211.326042)scale(0.1 -0.1)">
       <defs>
        <path d="M 373 955 
L 2564 955 
L 2564 0 
L 3100 0 
L 3100 955 
L 3736 955 
L 3736 1455 
L 3100 1455 
L 3100 4655 
L 2418 4655 
L 373 1418 
L 373 955 
z
M 982 1455 
L 982 1491 
L 2527 3936 
L 2564 3936 
L 2564 1455 
L 982 1455 
z
" id="Inter-Regular-34" transform="scale(0.015625)"/>
       </defs>
       <use xlink:href="#Inter-Regular-34"/>
      </g>
     </g>
    </g>
    <g id="ytick_4">
     <g id="line2d_25">
      <path clip-path="url(#p52707360f4)" d="M 28.78 159.525263 
L 554.535 159.525263 
" style="fill:none;stroke:#e5e7eb;stroke-dasharray:3.7,1.6;stroke-dashoffset:0;"/>
     </g>
     <g id="line2d_26">
      <g>
       <use style="stroke:#000000;stroke-width:0.8;" x="28.78" xlink:href="#mf098d26498" y="159.525263"/>
      </g>
     </g>
     <g id="text_13">
      <!-- 6 -->
      <g transform="translate(15.544063 163.161982)scale(0.1 -0.1)">
       <defs>
        <path d="M 2027 -64 
C 2968 -75 3582 634 3582 1500 
C 3582 2400 2916 3045 2118 3045 
C 1639 3045 1227 2811 973 2427 
L 936 2427 
C 939 3570 1380 4227 2100 4227 
C 2591 4227 2886 3918 2991 3491 
L 3546 3491 
C 3432 4223 2882 4727 2100 4727 
C 1052 4727 409 3800 409 2145 
C 409 425 1264 -55 2027 -64 
z
M 2027 436 
C 1443 436 1016 934 1018 1491 
C 1021 2048 1468 2545 2046 2545 
C 2616 2545 3036 2077 3036 1500 
C 3036 909 2598 436 2027 436 
z
" id="Inter-Regular-36" transform="scale(0.015625)"/>
       </defs>
       <use xlink:href="#Inter-Regular-36"/>
      </g>
     </g>
    </g>
    <g id="ytick_5">
     <g id="line2d_27">
      <path clip-path="url(#p52707360f4)" d="M 28.78 111.361204 
L 554.535 111.361204 
" style="fill:none;stroke:#e5e7eb;stroke-dasharray:3.7,1.6;stroke-dashoffset:0;"/>
     </g>
     <g id="line2d_28">
      <g>
       <use style="stroke:#000000;stroke-width:0.8;" x="28.78" xlink:href="#mf098d26498" y="111.361204"/>
      </g>
     </g>
     <g id="text_14">
      <!-- 8 -->
      <g transform="translate(15.614375 114.997922)scale(0.1 -0.1)">
       <defs>
        <path d="M 1973 -64 
C 2902 -64 3550 480 3555 1236 
C 3550 1825 3157 2325 2655 2418 
L 2655 2445 
C 3091 2559 3377 2986 3382 3482 
C 3377 4191 2782 4718 1973 4718 
C 1155 4718 559 4191 564 3482 
C 559 2986 846 2559 1291 2445 
L 1291 2418 
C 780 2325 386 1825 391 1236 
C 386 480 1034 -64 1973 -64 
z
M 1973 2645 
C 1464 2645 1105 2964 1109 3445 
C 1105 3918 1450 4227 1973 4227 
C 2486 4227 2832 3918 2836 3445 
C 2832 2964 2473 2645 1973 2645 
z
M 1973 436 
C 1334 436 941 764 946 1264 
C 941 1789 1375 2164 1973 2164 
C 2561 2164 2996 1789 3000 1264 
C 2996 764 2602 436 1973 436 
z
" id="Inter-Regular-38" transform="scale(0.015625)"/>
       </defs>
       <use xlink:href="#Inter-Regular-38"/>
      </g>
     </g>
    </g>
    <g id="ytick_6">
     <g id="line2d_29">
      <path clip-path="url(#p52707360f4)" d="M 28.78 63.197144 
L 554.535 63.197144 
" style="fill:none;stroke:#e5e7eb;stroke-dasharray:3.7,1.6;stroke-dashoffset:0;"/>
     </g>
     <g id="line2d_30">
      <g>
       <use style="stroke:#000000;stroke-width:0.8;" x="28.78" xlink:href="#mf098d26498" y="63.197144"/>
      </g>
     </g>
     <g id="text_15">
      <!-- 10 -->
      <g transform="translate(10.884688 66.833863)scale(0.1 -0.1)">
       <use xlink:href="#Inter-Regular-31"/>
       <use x="46.448868" xlink:href="#Inter-Regular-30"/>
      </g>
     </g>
    </g>
    <g id="ytick_7">
     <g id="line2d_31">
      <path clip-path="url(#p52707360f4)" d="M 28.78 15.033084 
L 554.535 15.033084 
" style="fill:none;stroke:#e5e7eb;stroke-dasharray:3.7,1.6;stroke-dashoffset:0;"/>
     </g>
     <g id="line2d_32">
      <g>
       <use style="stroke:#000000;stroke-width:0.8;" x="28.78" xlink:href="#mf098d26498" y="15.033084"/>
      </g>
     </g>
     <g id="text_16">
      <!-- 12 -->
      <g transform="translate(11.083125 18.669803)scale(0.1 -0.1)">
       <use xlink:href="#Inter-Regular-31"/>
       <use x="46.448868" xlink:href="#Inter-Regular-32"/>
      </g>
     </g>
    </g>
   </g>
   <g id="line2d_33">
    <path clip-path="url(#p52707360f4)" d="M 28.78 241.060438 
L 102.3857 168.840321 
L 104.751598 155.32225 
L 107.380373 128.686456 
L 109.483393 105.746962 
L 112.112168 75.03402 
L 119.472738 123.479993 
L 122.101513 177.759519 
L 124.730288 216.282222 
L 127.359063 243.006085 
L 129.462083 260.785767 
L 132.090858 278.51111 
L 147.863508 283.922501 
L 150.492283 268.583533 
L 152.595303 252.887477 
L 155.224078 228.986306 
L 158.11573 206.822593 
L 160.744505 193.746375 
L 161.796015 188.253515 
L 162.847525 182.610728 
L 165.4763 167.84783 
L 171.259605 184.393029 
L 173.88838 211.03578 
L 175.9914 229.857381 
L 178.620175 250.268634 
L 181.511827 264.790592 
L 184.140602 272.716564 
L 199.913252 294.534306 
L 215.685902 272.368434 
L 218.314677 264.384383 
L 221.20633 249.755446 
L 223.835105 229.193523 
L 225.938125 210.239519 
L 228.5669 183.416435 
L 232.247185 162.402576 
L 234.87596 162.505984 
L 235.92747 162.524393 
L 236.97898 162.529685 
L 239.607755 162.485532 
L 243.28804 183.5614 
L 245.916815 210.404075 
L 248.019835 229.366535 
L 250.64861 249.93001 
L 253.540262 264.565426 
L 256.169037 272.560568 
L 271.941687 294.603861 
L 287.714337 272.339098 
L 290.343112 264.307008 
L 293.234765 249.603537 
L 295.86354 228.944209 
L 297.96656 209.897519 
L 300.595335 182.940121 
L 304.27562 161.797063 
L 306.904395 161.870505 
L 307.955905 161.877033 
L 309.007415 161.870505 
L 311.63619 161.797063 
L 315.316475 182.940121 
L 317.94525 209.897519 
L 320.04827 228.944209 
L 322.677045 249.603537 
L 325.568697 264.307008 
L 328.197472 272.339098 
L 343.970122 294.603861 
L 359.742772 272.560568 
L 362.371547 264.565426 
L 365.2632 249.93001 
L 367.891975 229.366535 
L 369.994995 210.404075 
L 372.62377 183.5614 
L 376.304055 162.485532 
L 378.93283 162.529685 
L 379.98434 162.524393 
L 381.03585 162.505984 
L 383.664625 162.402576 
L 387.34491 183.416435 
L 389.973685 210.239519 
L 392.076705 229.193523 
L 394.70548 249.755446 
L 397.597132 264.384383 
L 400.225907 272.368434 
L 415.998557 294.534306 
L 431.771207 272.716564 
L 434.399982 264.790592 
L 437.291635 250.268634 
L 439.92041 229.857381 
L 442.02343 211.03578 
L 444.652205 184.393029 
L 450.43551 167.84783 
L 453.064285 182.610728 
L 454.115795 188.253515 
L 455.167305 193.746375 
L 457.79608 206.822593 
L 460.687732 228.986306 
L 463.316507 252.887477 
L 465.419527 268.583533 
L 468.048302 283.922501 
L 483.820952 278.51111 
L 486.449727 260.785767 
L 488.552747 243.006085 
L 491.181522 216.282222 
L 493.810297 177.759519 
L 496.439072 123.479993 
L 503.799642 75.03402 
L 506.428417 105.746962 
L 508.531437 128.686456 
L 511.160212 155.32225 
L 513.52611 168.840321 
L 577 231.119353 
" style="fill:none;stroke:#ef4444;stroke-linecap:square;stroke-width:1.5;"/>
   </g>
   <g id="line2d_34">
    <path clip-path="url(#p52707360f4)" d="M 28.78 245.333865 
L 102.3857 167.85457 
L 104.751598 171.313523 
L 107.380373 184.008876 
L 109.483393 193.639494 
L 112.112168 205.020684 
L 119.472738 173.285506 
L 122.101513 132.377436 
L 124.730288 98.04935 
L 127.359063 73.839891 
L 129.462083 53.465676 
L 132.090858 26.739599 
L 147.863508 88.463611 
L 150.492283 128.497434 
L 152.595303 157.523066 
L 155.224078 190.053322 
L 158.11573 211.008483 
L 160.744505 219.699329 
L 161.796015 223.019652 
L 162.847525 226.250823 
L 165.4763 233.938713 
L 171.259605 223.810761 
L 173.88838 205.03652 
L 175.9914 188.503194 
L 178.620175 165.944119 
L 181.511827 152.796288 
L 184.140602 153.210138 
L 199.913252 154.511548 
L 215.685902 153.019996 
L 218.314677 152.574557 
L 221.20633 165.709807 
L 223.835105 188.27928 
L 225.938125 204.822331 
L 228.5669 223.610487 
L 232.247185 235.558832 
L 234.87596 235.696893 
L 235.92747 235.704576 
L 236.97898 235.685092 
L 239.607755 235.517527 
L 243.28804 223.51648 
L 245.916815 204.67435 
L 248.019835 188.081987 
L 250.64861 165.443208 
L 253.540262 152.251062 
L 256.169037 152.669972 
L 271.941687 154.008831 
L 287.714337 152.564108 
L 290.343112 152.127609 
L 293.234765 165.312751 
L 295.86354 187.957319 
L 297.96656 204.555097 
L 300.595335 223.404974 
L 304.27562 235.401405 
L 306.904395 235.55391 
L 307.955905 235.567466 
L 309.007415 235.55391 
L 311.63619 235.401405 
L 315.316475 223.404974 
L 317.94525 204.555097 
L 320.04827 187.957319 
L 322.677045 165.312751 
L 325.568697 152.127609 
L 328.197472 152.564108 
L 343.970122 154.008831 
L 359.742772 152.669972 
L 362.371547 152.251062 
L 365.2632 165.443208 
L 367.891975 188.081987 
L 369.994995 204.67435 
L 372.62377 223.51648 
L 376.304055 235.517527 
L 378.93283 235.685092 
L 379.98434 235.704576 
L 381.03585 235.696893 
L 383.664625 235.558832 
L 387.34491 223.610487 
L 389.973685 204.822331 
L 392.076705 188.27928 
L 394.70548 165.709807 
L 397.597132 152.574557 
L 400.225907 153.019996 
L 415.998557 154.511548 
L 431.771207 153.210138 
L 434.399982 152.796288 
L 437.291635 165.944119 
L 439.92041 188.503194 
L 442.02343 205.03652 
L 444.652205 223.810761 
L 450.43551 233.938713 
L 453.064285 226.250823 
L 454.115795 223.019652 
L 455.167305 219.699329 
L 457.79608 211.008483 
L 460.687732 190.053322 
L 463.316507 157.523066 
L 465.419527 128.497434 
L 468.048302 88.463611 
L 483.820952 26.739599 
L 486.449727 53.465676 
L 488.552747 73.839891 
L 491.181522 98.04935 
L 493.810297 132.377436 
L 496.439072 173.285506 
L 503.799642 205.020684 
L 506.428417 193.639494 
L 508.531437 184.008876 
L 511.160212 171.313523 
L 513.52611 167.85457 
L 577 234.668855 
" style="fill:none;stroke:#1d4ed8;stroke-linecap:square;stroke-width:1.5;"/>
   </g>
   <g id="line2d_35">
    <path clip-path="url(#p52707360f4)" d="M 28.78 303.501697 
L 102.3857 303.501697 
L 104.751598 303.485538 
L 107.380373 303.44944 
L 109.483393 303.420562 
L 112.112168 303.384465 
L 119.472738 303.475647 
L 122.101513 303.573551 
L 124.730288 303.65869 
L 127.359063 303.73194 
L 129.462083 303.79054 
L 132.090858 303.86379 
L 147.863508 258.080162 
L 150.492283 241.725699 
L 152.595303 228.642128 
L 155.224078 212.287665 
L 158.11573 199.349532 
L 160.744505 192.38487 
L 161.796015 189.599005 
L 162.847525 186.81314 
L 165.4763 179.848478 
L 171.259605 188.803903 
L 173.88838 203.657778 
L 175.9914 215.540878 
L 178.620175 230.394753 
L 181.511827 243.531635 
L 184.140602 252.74821 
L 199.913252 280.195903 
L 215.685902 252.078637 
L 218.314677 242.750357 
L 221.20633 229.451992 
L 223.835105 214.413941 
L 225.938125 202.3835 
L 228.5669 187.345448 
L 232.247185 176.688348 
L 234.87596 176.703411 
L 235.92747 176.709437 
L 236.97898 176.715462 
L 239.607755 176.730525 
L 243.28804 187.425402 
L 245.916815 202.486578 
L 248.019835 214.535519 
L 250.64861 229.596696 
L 253.540262 242.92769 
L 256.169037 252.292633 
L 271.941687 280.629975 
L 287.714337 253.401715 
L 290.343112 244.221802 
L 293.234765 231.158288 
L 295.86354 216.402182 
L 297.96656 204.597297 
L 300.595335 189.841191 
L 304.27562 179.373413 
L 306.904395 179.373413 
L 307.955905 179.373413 
L 309.007415 179.373413 
L 311.63619 179.373413 
L 315.316475 189.841191 
L 317.94525 204.597297 
L 320.04827 216.402182 
L 322.677045 231.158288 
L 325.568697 244.221802 
L 328.197472 253.401715 
L 343.970122 280.629975 
L 359.742772 252.292633 
L 362.371547 242.92769 
L 365.2632 229.596696 
L 367.891975 214.535519 
L 369.994995 202.486578 
L 372.62377 187.425402 
L 376.304055 176.730525 
L 378.93283 176.715462 
L 379.98434 176.709437 
L 381.03585 176.703411 
L 383.664625 176.688348 
L 387.34491 187.345448 
L 389.973685 202.3835 
L 392.076705 214.413941 
L 394.70548 229.451992 
L 397.597132 242.750357 
L 400.225907 252.078637 
L 415.998557 280.195903 
L 431.771207 252.74821 
L 434.399982 243.531635 
L 437.291635 230.394753 
L 439.92041 215.540878 
L 442.02343 203.657778 
L 444.652205 188.803903 
L 450.43551 179.848478 
L 453.064285 186.81314 
L 454.115795 189.599005 
L 455.167305 192.38487 
L 457.79608 199.349532 
L 460.687732 212.287665 
L 463.316507 228.642128 
L 465.419527 241.725699 
L 468.048302 258.080162 
L 483.820952 303.86379 
L 486.449727 303.79054 
L 488.552747 303.73194 
L 491.181522 303.65869 
L 493.810297 303.573551 
L 496.439072 303.475647 
L 503.799642 303.384465 
L 506.428417 303.420562 
L 508.531437 303.44944 
L 511.160212 303.485538 
L 513.52611 303.501697 
L 577 303.501697 
" style="fill:none;stroke:#10b981;stroke-linecap:square;stroke-width:1.5;"/>
   </g>
   <g id="patch_3">
    <path d="M 28.78 317.72 
L 28.78 12.883389 
" style="fill:none;stroke:#000000;stroke-linecap:square;stroke-linejoin:miter;stroke-width:0.8;"/>
   </g>
   <g id="patch_4">
    <path d="M 554.535 317.72 
L 554.535 12.883389 
" style="fill:none;stroke:#000000;stroke-linecap:square;stroke-linejoin:miter;stroke-width:0.8;"/>
   </g>
   <g id="patch_5">
    <path d="M 28.78 317.72 
L 554.535 317.72 
" style="fill:none;stroke:#000000;stroke-linecap:square;stroke-linejoin:miter;stroke-width:0.8;"/>
   </g>
   <g id="patch_6">
    <path d="M 28.78 12.883389 
L 554.535 12.883389 
" style="fill:none;stroke:#000000;stroke-linecap:square;stroke-linejoin:miter;stroke-width:0.8;"/>
   </g>
  </g>
 </g>
 <defs>
  <clipPath id="p52707360f4">
   <rect height="304.836611" width="525.755" x="28.78" y="12.883389"/>
  </clipPath>
 </defs>
</svg>
