<?xml version="1.0" encoding="utf-8" standalone="no"?>
<!DOCTYPE svg PUBLIC "-//W3C//DTD SVG 1.1//EN"
  "http://www.w3.org/Graphics/SVG/1.1/DTD/svg11.dtd">
<svg height="345.6pt" version="1.1" viewBox="0 0 576 345.6" width="576pt" xmlns="http://www.w3.org/2000/svg" xmlns:xlink="http://www.w3.org/1999/xlink">
 <metadata>
  <rdf:RDF xmlns:cc="http://creativecommons.org/ns#" xmlns:dc="http://purl.org/dc/elements/1.1/" xmlns:rdf="http://www.w3.org/1999/02/22-rdf-syntax-ns#">
   <cc:Work>
    <dc:type rdf:resource="http://purl.org/dc/dcmitype/StillImage"/>
    <dc:date>2021-06-06T23:11:05.993168</dc:date>
    <dc:format>image/svg+xml</dc:format>
    <dc:creator>
     <cc:Agent>
      <dc:title>Matplotlib v3.4.2, https://matplotlib.org/</dc:title>
     </cc:Agent>
    </dc:creator>
   </cc:Work>
  </rdf:RDF>
 </metadata>
 <defs>
  <style type="text/css">*{stroke-linecap:butt;stroke-linejoin:round;}</style>
 </defs>
 <g id="figure_1">
  <g id="patch_1">
   <path d="M 0 345.6 
L 576 345.6 
L 576 0 
L 0 0 
z
" style="fill:#ffffff;"/>
  </g>
  <g id="axes_1">
   <g id="patch_2">
    <path d="M 37.78 301.48 
L 552.15 301.48 
L 552.15 51.0736 
L 37.78 51.0736 
z
" style="fill:#ffffff;"/>
   </g>
   <g id="matplotlib.axis_1">
    <g id="xtick_1">
     <g id="line2d_1">
      <path clip-path="url(#p41befe4f7f)" d="M 37.78 301.48 
L 37.78 51.0736 
" style="fill:none;stroke:#e5e7eb;stroke-dasharray:3.7,1.6;stroke-dashoffset:0;"/>
     </g>
     <g id="line2d_2">
      <defs>
       <path d="M 0 0 
L 0 3.5 
" id="m3ee7f504ff" style="stroke:#000000;stroke-width:0.8;"/>
      </defs>
      <g>
       <use style="stroke:#000000;stroke-width:0.8;" x="37.78" xlink:href="#m3ee7f504ff" y="301.48"/>
      </g>
     </g>
     <g id="text_1">
      <!-- 0.00 -->
      <g transform="translate(27.026875 315.753437)scale(0.1 -0.1)">
       <defs>
        <path d="M 2000 -64 
C 3027 -64 3618 807 3618 2327 
C 3618 3836 3018 4718 2000 4718 
C 982 4718 382 3836 382 2327 
C 382 807 973 -64 2000 -64 
z
M 2000 436 
C 1323 436 927 1116 927 2327 
C 927 3536 1327 4227 2000 4227 
C 2673 4227 3073 3536 3073 2327 
C 3073 1116 2677 436 2000 436 
z
" id="Inter-Regular-30" transform="scale(0.015625)"/>
        <path d="M 882 -36 
C 1107 -36 1291 148 1291 373 
C 1291 598 1107 782 882 782 
C 657 782 473 598 473 373 
C 473 148 657 -36 882 -36 
z
" id="Inter-Regular-2e" transform="scale(0.015625)"/>
       </defs>
       <use xlink:href="#Inter-Regular-30"/>
       <use x="62.500015" xlink:href="#Inter-Regular-2e"/>
       <use x="90.056839" xlink:href="#Inter-Regular-30"/>
       <use x="152.556854" xlink:href="#Inter-Regular-30"/>
      </g>
     </g>
    </g>
    <g id="xtick_2">
     <g id="line2d_3">
      <path clip-path="url(#p41befe4f7f)" d="M 221.300554 301.48 
L 221.300554 51.0736 
" style="fill:none;stroke:#e5e7eb;stroke-dasharray:3.7,1.6;stroke-dashoffset:0;"/>
     </g>
     <g id="line2d_4">
      <g>
       <use style="stroke:#000000;stroke-width:0.8;" x="221.300554" xlink:href="#m3ee7f504ff" y="301.48"/>
      </g>
     </g>
     <g id="text_2">
      <!-- 5.73 -->
      <g transform="translate(210.845085 315.753437)scale(0.1 -0.1)">
       <defs>
        <path d="M 1936 -64 
C 2823 -64 3473 591 3473 1482 
C 3473 2384 2846 3045 1991 3045 
C 1677 3045 1373 2934 1182 2782 
L 1155 2782 
L 1318 4155 
L 3264 4155 
L 3264 4655 
L 846 4655 
L 564 2364 
L 1091 2300 
C 1284 2439 1614 2539 1900 2536 
C 2493 2532 2927 2082 2927 1473 
C 2927 875 2509 436 1936 436 
C 1459 436 1080 743 1036 1164 
L 491 1164 
C 525 455 1136 -64 1936 -64 
z
" id="Inter-Regular-35" transform="scale(0.015625)"/>
        <path d="M 627 0 
L 1218 0 
L 3291 4127 
L 3291 4655 
L 309 4655 
L 309 4155 
L 2709 4155 
L 2709 4118 
L 627 0 
z
" id="Inter-Regular-37" transform="scale(0.015625)"/>
        <path d="M 2055 -64 
C 2957 -64 3627 502 3627 1264 
C 3627 1855 3277 2284 2691 2382 
L 2691 2418 
C 3161 2561 3455 2948 3455 3473 
C 3455 4132 2934 4718 2073 4718 
C 1268 4718 600 4223 573 3491 
L 1118 3491 
C 1139 3955 1580 4227 2064 4227 
C 2577 4227 2909 3916 2909 3445 
C 2909 2955 2525 2636 1973 2636 
L 1600 2636 
L 1600 2136 
L 1973 2136 
C 2680 2136 3073 1777 3073 1264 
C 3073 770 2643 436 2046 436 
C 1507 436 1080 714 1046 1164 
L 473 1164 
C 507 432 1152 -64 2055 -64 
z
" id="Inter-Regular-33" transform="scale(0.015625)"/>
       </defs>
       <use xlink:href="#Inter-Regular-35"/>
       <use x="60.795471" xlink:href="#Inter-Regular-2e"/>
       <use x="88.352295" xlink:href="#Inter-Regular-37"/>
       <use x="145.454575" xlink:href="#Inter-Regular-33"/>
      </g>
     </g>
    </g>
    <g id="xtick_3">
     <g id="line2d_5">
      <path clip-path="url(#p41befe4f7f)" d="M 368.629446 301.48 
L 368.629446 51.0736 
" style="fill:none;stroke:#e5e7eb;stroke-dasharray:3.7,1.6;stroke-dashoffset:0;"/>
     </g>
     <g id="line2d_6">
      <g>
       <use style="stroke:#000000;stroke-width:0.8;" x="368.629446" xlink:href="#m3ee7f504ff" y="301.48"/>
      </g>
     </g>
     <g id="text_3">
      <!-- 10.33 -->
      <g transform="translate(355.439602 315.753437)scale(0.1 -0.1)">
       <defs>
        <path d="M 2118 4655 
L 1555 4655 
L 391 3882 
L 391 3309 
L 1527 4064 
L 1555 4064 
L 1555 0 
L 2118 0 
L 2118 4655 
z
" id="Inter-Regular-31" transform="scale(0.015625)"/>
       </defs>
       <use xlink:href="#Inter-Regular-31"/>
       <use x="46.448868" xlink:href="#Inter-Regular-30"/>
       <use x="108.948883" xlink:href="#Inter-Regular-2e"/>
       <use x="136.505707" xlink:href="#Inter-Regular-33"/>
       <use x="200.14209" xlink:href="#Inter-Regular-33"/>
      </g>
     </g>
    </g>
    <g id="xtick_4">
     <g id="line2d_7">
      <path clip-path="url(#p41befe4f7f)" d="M 552.15 301.48 
L 552.15 51.0736 
" style="fill:none;stroke:#e5e7eb;stroke-dasharray:3.7,1.6;stroke-dashoffset:0;"/>
     </g>
     <g id="line2d_8">
      <g>
       <use style="stroke:#000000;stroke-width:0.8;" x="552.15" xlink:href="#m3ee7f504ff" y="301.48"/>
      </g>
     </g>
     <g id="text_4">
      <!-- 16.06 -->
      <g transform="translate(539.088281 315.753437)scale(0.1 -0.1)">
       <defs>
        <path d="M 2027 -64 
C 2968 -75 3582 634 3582 1500 
C 3582 2400 2916 3045 2118 3045 
C 1639 3045 1227 2811 973 2427 
L 936 2427 
C 939 3570 1380 4227 2100 4227 
C 2591 4227 2886 3918 2991 3491 
L 3546 3491 
C 3432 4223 2882 4727 2100 4727 
C 1052 4727 409 3800 409 2145 
C 409 425 1264 -55 2027 -64 
z
M 2027 436 
C 1443 436 1016 934 1018 1491 
C 1021 2048 1468 2545 2046 2545 
C 2616 2545 3036 2077 3036 1500 
C 3036 909 2598 436 2027 436 
z
" id="Inter-Regular-36" transform="scale(0.015625)"/>
       </defs>
       <use xlink:href="#Inter-Regular-31"/>
       <use x="46.448868" xlink:href="#Inter-Regular-36"/>
       <use x="108.806839" xlink:href="#Inter-Regular-2e"/>
       <use x="136.363663" xlink:href="#Inter-Regular-30"/>
       <use x="198.863678" xlink:href="#Inter-Regular-36"/>
      </g>
     </g>
    </g>
    <g id="text_5">
     <!-- Orbit Position $s$ / m -->
     <g transform="translate(249.915 329.072187)scale(0.1 -0.1)">
      <defs>
       <path d="M 4491 2327 
C 4491 3800 3627 4718 2436 4718 
C 1246 4718 382 3800 382 2327 
C 382 855 1246 -64 2436 -64 
C 3627 -64 4491 855 4491 2327 
z
M 3946 2327 
C 3946 1118 3282 464 2436 464 
C 1591 464 927 1118 927 2327 
C 927 3536 1591 4191 2436 4191 
C 3282 4191 3946 3536 3946 2327 
z
" id="Inter-Regular-4f" transform="scale(0.015625)"/>
       <path d="M 491 0 
L 1027 0 
L 1027 2209 
C 1027 2682 1400 3027 1909 3027 
C 2052 3027 2200 3000 2236 2991 
L 2236 3536 
C 2175 3541 2034 3545 1955 3545 
C 1536 3545 1173 3309 1046 2964 
L 1009 2964 
L 1009 3491 
L 491 3491 
L 491 0 
z
" id="Inter-Regular-72" transform="scale(0.015625)"/>
       <path d="M 564 0 
L 1082 0 
L 1082 536 
L 1146 536 
C 1264 345 1491 -73 2164 -73 
C 3036 -73 3646 627 3646 1736 
C 3646 2836 3036 3536 2155 3536 
C 1473 3536 1264 3118 1146 2936 
L 1100 2936 
L 1100 4655 
L 564 4655 
L 564 0 
z
M 1091 1745 
C 1091 2527 1436 3055 2091 3055 
C 2773 3055 3109 2482 3109 1745 
C 3109 1000 2764 409 2091 409 
C 1446 409 1091 955 1091 1745 
z
" id="Inter-Regular-62" transform="scale(0.015625)"/>
       <path d="M 764 4073 
C 973 4073 1146 4236 1146 4436 
C 1146 4636 973 4800 764 4800 
C 555 4800 382 4636 382 4436 
C 382 4236 555 4073 764 4073 
z
M 491 0 
L 1027 0 
L 1027 3491 
L 491 3491 
L 491 0 
z
" id="Inter-Regular-69" transform="scale(0.015625)"/>
       <path d="M 2009 3491 
L 1264 3491 
L 1264 4327 
L 727 4327 
L 727 3491 
L 200 3491 
L 200 3036 
L 727 3036 
L 727 855 
C 727 245 1218 -45 1673 -45 
C 1873 -45 2000 -9 2073 18 
L 1964 500 
C 1918 491 1846 473 1727 473 
C 1491 473 1264 545 1264 1000 
L 1264 3036 
L 2009 3036 
L 2009 3491 
z
" id="Inter-Regular-74" transform="scale(0.015625)"/>
       <path id="Inter-Regular-20" transform="scale(0.015625)"/>
       <path d="M 564 0 
L 1127 0 
L 1127 1700 
L 2146 1700 
C 3230 1700 3718 2359 3718 3182 
C 3718 4005 3230 4655 2136 4655 
L 564 4655 
L 564 0 
z
M 2118 4155 
C 2875 4155 3164 3741 3164 3182 
C 3164 2623 2875 2200 2127 2200 
L 1127 2200 
L 1127 4155 
L 2118 4155 
z
" id="Inter-Regular-50" transform="scale(0.015625)"/>
       <path d="M 1909 -73 
C 2855 -73 3491 645 3491 1727 
C 3491 2818 2855 3536 1909 3536 
C 964 3536 327 2818 327 1727 
C 327 645 964 -73 1909 -73 
z
M 1909 409 
C 1191 409 864 1027 864 1727 
C 864 2427 1191 3055 1909 3055 
C 2627 3055 2955 2427 2955 1727 
C 2955 1027 2627 409 1909 409 
z
" id="Inter-Regular-6f" transform="scale(0.015625)"/>
       <path d="M 2964 2709 
C 2796 3205 2418 3536 1727 3536 
C 991 3536 446 3118 446 2527 
C 446 2045 732 1723 1373 1573 
L 1955 1436 
C 2307 1355 2473 1186 2473 945 
C 2473 645 2155 400 1655 400 
C 1216 400 941 589 846 964 
L 336 836 
C 461 243 950 -73 1664 -73 
C 2475 -73 3027 370 3027 973 
C 3027 1459 2723 1766 2100 1918 
L 1582 2045 
C 1168 2148 982 2286 982 2555 
C 982 2855 1300 3073 1727 3073 
C 2196 3073 2389 2814 2482 2573 
L 2964 2709 
z
" id="Inter-Regular-73" transform="scale(0.015625)"/>
       <path d="M 1027 2100 
C 1027 2709 1405 3055 1918 3055 
C 2416 3055 2718 2730 2718 2182 
L 2718 0 
L 3255 0 
L 3255 2218 
C 3255 3109 2780 3536 2073 3536 
C 1546 3536 1218 3300 1055 2945 
L 1009 2945 
L 1009 3491 
L 491 3491 
L 491 0 
L 1027 0 
L 1027 2100 
z
" id="Inter-Regular-6e" transform="scale(0.015625)"/>
       <path d="M 3200 3397 
L 3091 2853 
Q 2863 2978 2609 3040 
Q 2356 3103 2088 3103 
Q 1634 3103 1373 2948 
Q 1113 2794 1113 2528 
Q 1113 2219 1719 2053 
Q 1766 2041 1788 2034 
L 1972 1978 
Q 2547 1819 2739 1644 
Q 2931 1469 2931 1166 
Q 2931 609 2489 259 
Q 2047 -91 1331 -91 
Q 1053 -91 747 -37 
Q 441 16 72 128 
L 184 722 
Q 500 559 806 475 
Q 1113 391 1394 391 
Q 1816 391 2080 572 
Q 2344 753 2344 1031 
Q 2344 1331 1650 1516 
L 1591 1531 
L 1394 1581 
Q 956 1697 753 1886 
Q 550 2075 550 2369 
Q 550 2928 970 3256 
Q 1391 3584 2113 3584 
Q 2397 3584 2667 3537 
Q 2938 3491 3200 3397 
z
" id="DejaVuSans-Oblique-73" transform="scale(0.015625)"/>
       <path d="M 2136 4873 
L 1646 4873 
L 146 -700 
L 636 -700 
L 2136 4873 
z
" id="Inter-Regular-2f" transform="scale(0.015625)"/>
       <path d="M 491 0 
L 1027 0 
L 1027 2182 
C 1027 2693 1400 3055 1818 3055 
C 2225 3055 2509 2789 2509 2391 
L 2509 0 
L 3055 0 
L 3055 2273 
C 3055 2723 3336 3055 3827 3055 
C 4209 3055 4536 2852 4536 2336 
L 4536 0 
L 5073 0 
L 5073 2336 
C 5073 3157 4632 3536 4009 3536 
C 3509 3536 3143 3307 2964 2945 
L 2927 2945 
C 2755 3318 2450 3536 1991 3536 
C 1536 3536 1200 3318 1055 2945 
L 1009 2945 
L 1009 3491 
L 491 3491 
L 491 0 
z
" id="Inter-Regular-6d" transform="scale(0.015625)"/>
      </defs>
      <use transform="translate(0 0.859375)" xlink:href="#Inter-Regular-4f"/>
      <use transform="translate(76.136383 0.859375)" xlink:href="#Inter-Regular-72"/>
      <use transform="translate(113.352295 0.859375)" xlink:href="#Inter-Regular-62"/>
      <use transform="translate(175.426178 0.859375)" xlink:href="#Inter-Regular-69"/>
      <use transform="translate(199.147766 0.859375)" xlink:href="#Inter-Regular-74"/>
      <use transform="translate(235.511414 0.859375)" xlink:href="#Inter-Regular-20"/>
      <use transform="translate(263.636414 0.859375)" xlink:href="#Inter-Regular-50"/>
      <use transform="translate(327.130737 0.859375)" xlink:href="#Inter-Regular-6f"/>
      <use transform="translate(386.789841 0.859375)" xlink:href="#Inter-Regular-73"/>
      <use transform="translate(439.062576 0.859375)" xlink:href="#Inter-Regular-69"/>
      <use transform="translate(462.784164 0.859375)" xlink:href="#Inter-Regular-74"/>
      <use transform="translate(499.147812 0.859375)" xlink:href="#Inter-Regular-69"/>
      <use transform="translate(522.8694 0.859375)" xlink:href="#Inter-Regular-6f"/>
      <use transform="translate(582.528503 0.859375)" xlink:href="#Inter-Regular-6e"/>
      <use transform="translate(641.051239 0.859375)" xlink:href="#Inter-Regular-20"/>
      <use transform="translate(669.176239 0.859375)" xlink:href="#DejaVuSans-Oblique-73"/>
      <use transform="translate(721.275848 0.859375)" xlink:href="#Inter-Regular-20"/>
      <use transform="translate(749.400848 0.859375)" xlink:href="#Inter-Regular-2f"/>
      <use transform="translate(785.05426 0.859375)" xlink:href="#Inter-Regular-20"/>
      <use transform="translate(813.17926 0.859375)" xlink:href="#Inter-Regular-6d"/>
     </g>
    </g>
   </g>
   <g id="matplotlib.axis_2">
    <g id="ytick_1">
     <g id="line2d_9">
      <path clip-path="url(#p41befe4f7f)" d="M 37.78 272.699233 
L 552.15 272.699233 
" style="fill:none;stroke:#e5e7eb;stroke-dasharray:3.7,1.6;stroke-dashoffset:0;"/>
     </g>
     <g id="line2d_10">
      <defs>
       <path d="M 0 0 
L -3.5 0 
" id="mfb304bc893" style="stroke:#000000;stroke-width:0.8;"/>
      </defs>
      <g>
       <use style="stroke:#000000;stroke-width:0.8;" x="37.78" xlink:href="#mfb304bc893" y="272.699233"/>
      </g>
     </g>
     <g id="text_6">
      <!-- 0.0 -->
      <g transform="translate(15.52375 276.335951)scale(0.1 -0.1)">
       <use xlink:href="#Inter-Regular-30"/>
       <use x="62.500015" xlink:href="#Inter-Regular-2e"/>
       <use x="90.056839" xlink:href="#Inter-Regular-30"/>
      </g>
     </g>
    </g>
    <g id="ytick_2">
     <g id="line2d_11">
      <path clip-path="url(#p41befe4f7f)" d="M 37.78 241.330592 
L 552.15 241.330592 
" style="fill:none;stroke:#e5e7eb;stroke-dasharray:3.7,1.6;stroke-dashoffset:0;"/>
     </g>
     <g id="line2d_12">
      <g>
       <use style="stroke:#000000;stroke-width:0.8;" x="37.78" xlink:href="#mfb304bc893" y="241.330592"/>
      </g>
     </g>
     <g id="text_7">
      <!-- 2.5 -->
      <g transform="translate(15.8925 244.96731)scale(0.1 -0.1)">
       <defs>
        <path d="M 482 0 
L 3418 0 
L 3418 500 
L 1255 500 
L 1255 536 
L 2300 1655 
C 3100 2511 3336 2911 3336 3427 
C 3336 4145 2755 4718 1936 4718 
C 1121 4718 500 4164 500 3345 
L 1036 3345 
C 1036 3875 1380 4227 1918 4227 
C 2423 4227 2809 3918 2809 3427 
C 2809 2998 2557 2680 2018 2091 
L 482 409 
L 482 0 
z
" id="Inter-Regular-32" transform="scale(0.015625)"/>
       </defs>
       <use xlink:href="#Inter-Regular-32"/>
       <use x="60.511383" xlink:href="#Inter-Regular-2e"/>
       <use x="88.068207" xlink:href="#Inter-Regular-35"/>
      </g>
     </g>
    </g>
    <g id="ytick_3">
     <g id="line2d_13">
      <path clip-path="url(#p41befe4f7f)" d="M 37.78 209.961951 
L 552.15 209.961951 
" style="fill:none;stroke:#e5e7eb;stroke-dasharray:3.7,1.6;stroke-dashoffset:0;"/>
     </g>
     <g id="line2d_14">
      <g>
       <use style="stroke:#000000;stroke-width:0.8;" x="37.78" xlink:href="#mfb304bc893" y="209.961951"/>
      </g>
     </g>
     <g id="text_8">
      <!-- 5.0 -->
      <g transform="translate(15.694063 213.598669)scale(0.1 -0.1)">
       <use xlink:href="#Inter-Regular-35"/>
       <use x="60.795471" xlink:href="#Inter-Regular-2e"/>
       <use x="88.352295" xlink:href="#Inter-Regular-30"/>
      </g>
     </g>
    </g>
    <g id="ytick_4">
     <g id="line2d_15">
      <path clip-path="url(#p41befe4f7f)" d="M 37.78 178.59331 
L 552.15 178.59331 
" style="fill:none;stroke:#e5e7eb;stroke-dasharray:3.7,1.6;stroke-dashoffset:0;"/>
     </g>
     <g id="line2d_16">
      <g>
       <use style="stroke:#000000;stroke-width:0.8;" x="37.78" xlink:href="#mfb304bc893" y="178.59331"/>
      </g>
     </g>
     <g id="text_9">
      <!-- 7.5 -->
      <g transform="translate(16.233125 182.230028)scale(0.1 -0.1)">
       <use xlink:href="#Inter-Regular-37"/>
       <use x="57.10228" xlink:href="#Inter-Regular-2e"/>
       <use x="84.659103" xlink:href="#Inter-Regular-35"/>
      </g>
     </g>
    </g>
    <g id="ytick_5">
     <g id="line2d_17">
      <path clip-path="url(#p41befe4f7f)" d="M 37.78 147.224669 
L 552.15 147.224669 
" style="fill:none;stroke:#e5e7eb;stroke-dasharray:3.7,1.6;stroke-dashoffset:0;"/>
     </g>
     <g id="line2d_18">
      <g>
       <use style="stroke:#000000;stroke-width:0.8;" x="37.78" xlink:href="#mfb304bc893" y="147.224669"/>
      </g>
     </g>
     <g id="text_10">
      <!-- 10.0 -->
      <g transform="translate(10.878438 150.861387)scale(0.1 -0.1)">
       <use xlink:href="#Inter-Regular-31"/>
       <use x="46.448868" xlink:href="#Inter-Regular-30"/>
       <use x="108.948883" xlink:href="#Inter-Regular-2e"/>
       <use x="136.505707" xlink:href="#Inter-Regular-30"/>
      </g>
     </g>
    </g>
    <g id="ytick_6">
     <g id="line2d_19">
      <path clip-path="url(#p41befe4f7f)" d="M 37.78 115.856028 
L 552.15 115.856028 
" style="fill:none;stroke:#e5e7eb;stroke-dasharray:3.7,1.6;stroke-dashoffset:0;"/>
     </g>
     <g id="line2d_20">
      <g>
       <use style="stroke:#000000;stroke-width:0.8;" x="37.78" xlink:href="#mfb304bc893" y="115.856028"/>
      </g>
     </g>
     <g id="text_11">
      <!-- 12.5 -->
      <g transform="translate(11.247188 119.492747)scale(0.1 -0.1)">
       <use xlink:href="#Inter-Regular-31"/>
       <use x="46.448868" xlink:href="#Inter-Regular-32"/>
       <use x="106.960251" xlink:href="#Inter-Regular-2e"/>
       <use x="134.517075" xlink:href="#Inter-Regular-35"/>
      </g>
     </g>
    </g>
    <g id="ytick_7">
     <g id="line2d_21">
      <path clip-path="url(#p41befe4f7f)" d="M 37.78 84.487387 
L 552.15 84.487387 
" style="fill:none;stroke:#e5e7eb;stroke-dasharray:3.7,1.6;stroke-dashoffset:0;"/>
     </g>
     <g id="line2d_22">
      <g>
       <use style="stroke:#000000;stroke-width:0.8;" x="37.78" xlink:href="#mfb304bc893" y="84.487387"/>
      </g>
     </g>
     <g id="text_12">
      <!-- 15.0 -->
      <g transform="translate(11.04875 88.124106)scale(0.1 -0.1)">
       <use xlink:href="#Inter-Regular-31"/>
       <use x="46.448868" xlink:href="#Inter-Regular-35"/>
       <use x="107.244339" xlink:href="#Inter-Regular-2e"/>
       <use x="134.801163" xlink:href="#Inter-Regular-30"/>
      </g>
     </g>
    </g>
    <g id="ytick_8">
     <g id="line2d_23">
      <path clip-path="url(#p41befe4f7f)" d="M 37.78 53.118746 
L 552.15 53.118746 
" style="fill:none;stroke:#e5e7eb;stroke-dasharray:3.7,1.6;stroke-dashoffset:0;"/>
     </g>
     <g id="line2d_24">
      <g>
       <use style="stroke:#000000;stroke-width:0.8;" x="37.78" xlink:href="#mfb304bc893" y="53.118746"/>
      </g>
     </g>
     <g id="text_13">
      <!-- 17.5 -->
      <g transform="translate(11.587813 56.755465)scale(0.1 -0.1)">
       <use xlink:href="#Inter-Regular-31"/>
       <use x="46.448868" xlink:href="#Inter-Regular-37"/>
       <use x="103.551147" xlink:href="#Inter-Regular-2e"/>
       <use x="131.107971" xlink:href="#Inter-Regular-35"/>
      </g>
     </g>
    </g>
   </g>
   <g id="patch_3">
    <path d="M 37.78 301.48 
L 37.78 51.0736 
" style="fill:none;stroke:#000000;stroke-linecap:square;stroke-linejoin:miter;stroke-width:0.8;"/>
   </g>
   <g id="patch_4">
    <path d="M 552.15 301.48 
L 552.15 51.0736 
" style="fill:none;stroke:#000000;stroke-linecap:square;stroke-linejoin:miter;stroke-width:0.8;"/>
   </g>
   <g id="patch_5">
    <path d="M 37.78 301.48 
L 552.15 301.48 
" style="fill:none;stroke:#000000;stroke-linecap:square;stroke-linejoin:miter;stroke-width:0.8;"/>
   </g>
   <g id="patch_6">
    <path d="M 37.78 51.0736 
L 552.15 51.0736 
" style="fill:none;stroke:#000000;stroke-linecap:square;stroke-linejoin:miter;stroke-width:0.8;"/>
   </g>
   <g id="legend_1">
    <g id="line2d_25">
     <path d="M 46.78 22.95328 
L 66.78 22.95328 
" style="fill:none;stroke:#ef4444;stroke-linecap:square;stroke-width:1.3;"/>
    </g>
    <g id="line2d_26"/>
    <g id="text_14">
     <!-- $\beta_x$ / m -->
     <g transform="translate(74.78 26.45328)scale(0.1 -0.1)">
      <defs>
       <path d="M 872 216 
L 572 -1331 
L -6 -1331 
L 928 3478 
Q 1206 4903 2538 4903 
Q 3888 4903 3659 3700 
Q 3503 2844 2894 2531 
Q 3713 2250 3553 1416 
Q 3272 -69 1759 -66 
Q 1097 -63 872 216 
z
M 1019 966 
Q 1259 422 1875 425 
Q 2775 425 2966 1406 
Q 3138 2288 1675 2219 
L 1778 2750 
Q 2909 2731 3106 3750 
Q 3241 4438 2509 4434 
Q 1691 4434 1503 3459 
L 1019 966 
z
" id="DejaVuSans-Oblique-3b2" transform="scale(0.015625)"/>
       <path d="M 3841 3500 
L 2234 1784 
L 3219 0 
L 2559 0 
L 1819 1388 
L 531 0 
L -166 0 
L 1556 1844 
L 641 3500 
L 1300 3500 
L 1972 2234 
L 3144 3500 
L 3841 3500 
z
" id="DejaVuSans-Oblique-78" transform="scale(0.015625)"/>
      </defs>
      <use transform="translate(0 0.390625)" xlink:href="#DejaVuSans-Oblique-3b2"/>
      <use transform="translate(63.818359 -16.015625)scale(0.7)" xlink:href="#DejaVuSans-Oblique-78"/>
      <use transform="translate(107.978516 0.390625)" xlink:href="#Inter-Regular-20"/>
      <use transform="translate(136.103516 0.390625)" xlink:href="#Inter-Regular-2f"/>
      <use transform="translate(171.756927 0.390625)" xlink:href="#Inter-Regular-20"/>
      <use transform="translate(199.881927 0.390625)" xlink:href="#Inter-Regular-6d"/>
     </g>
    </g>
    <g id="line2d_27">
     <path d="M 256.665 22.95328 
L 276.665 22.95328 
" style="fill:none;stroke:#3b82f6;stroke-linecap:square;stroke-width:1.3;"/>
    </g>
    <g id="line2d_28"/>
    <g id="text_15">
     <!-- $\beta_y$ / m -->
     <g transform="translate(284.665 26.45328)scale(0.1 -0.1)">
      <defs>
       <path d="M 1588 -325 
Q 1188 -997 936 -1164 
Q 684 -1331 294 -1331 
L -159 -1331 
L -63 -850 
L 269 -850 
Q 509 -850 678 -719 
Q 847 -588 1056 -206 
L 1234 128 
L 459 3500 
L 1069 3500 
L 1650 819 
L 3256 3500 
L 3859 3500 
L 1588 -325 
z
" id="DejaVuSans-Oblique-79" transform="scale(0.015625)"/>
      </defs>
      <use transform="translate(0 0.390625)" xlink:href="#DejaVuSans-Oblique-3b2"/>
      <use transform="translate(63.818359 -16.015625)scale(0.7)" xlink:href="#DejaVuSans-Oblique-79"/>
      <use transform="translate(107.978516 0.390625)" xlink:href="#Inter-Regular-20"/>
      <use transform="translate(136.103516 0.390625)" xlink:href="#Inter-Regular-2f"/>
      <use transform="translate(171.756927 0.390625)" xlink:href="#Inter-Regular-20"/>
      <use transform="translate(199.881927 0.390625)" xlink:href="#Inter-Regular-6d"/>
     </g>
    </g>
    <g id="line2d_29">
     <path d="M 466.55 22.95328 
L 486.55 22.95328 
" style="fill:none;stroke:#10b981;stroke-linecap:square;stroke-width:1.3;"/>
    </g>
    <g id="line2d_30"/>
    <g id="text_16">
     <!-- 100 $\eta_x$ / m -->
     <g transform="translate(494.55 26.45328)scale(0.1 -0.1)">
      <defs>
       <path d="M 3703 2113 
L 3034 -1331 
L 2459 -1331 
L 3125 2094 
Q 3222 2591 3075 2838 
Q 2931 3084 2544 3084 
Q 2078 3084 1750 2788 
Q 1425 2491 1325 1978 
L 941 0 
L 363 0 
L 1044 3500 
L 1622 3500 
L 1516 2956 
Q 1781 3272 2094 3428 
Q 2403 3584 2769 3584 
Q 3372 3584 3609 3213 
Q 3844 2838 3703 2113 
z
" id="DejaVuSans-Oblique-3b7" transform="scale(0.015625)"/>
      </defs>
      <use transform="translate(0 0.859375)" xlink:href="#Inter-Regular-31"/>
      <use transform="translate(46.448868 0.859375)" xlink:href="#Inter-Regular-30"/>
      <use transform="translate(108.948883 0.859375)" xlink:href="#Inter-Regular-30"/>
      <use transform="translate(171.448898 0.859375)" xlink:href="#Inter-Regular-20"/>
      <use transform="translate(199.573898 0.859375)" xlink:href="#DejaVuSans-Oblique-3b7"/>
      <use transform="translate(262.952805 -15.546875)scale(0.7)" xlink:href="#DejaVuSans-Oblique-78"/>
      <use transform="translate(307.112961 0.859375)" xlink:href="#Inter-Regular-20"/>
      <use transform="translate(335.237961 0.859375)" xlink:href="#Inter-Regular-2f"/>
      <use transform="translate(370.891373 0.859375)" xlink:href="#Inter-Regular-20"/>
      <use transform="translate(399.016373 0.859375)" xlink:href="#Inter-Regular-6d"/>
     </g>
    </g>
   </g>
   <g id="line2d_31">
    <path clip-path="url(#p41befe4f7f)" d="M 37.78 272.842575 
L 150.19835 272.732446 
L 153.401152 272.598959 
L 154.361993 272.276067 
L 155.322833 271.74367 
L 156.283674 271.001783 
L 157.564795 269.686771 
L 158.845915 267.999447 
L 160.447316 265.412897 
L 164.610959 258.236895 
L 166.21236 254.958335 
L 168.134041 250.456967 
L 177.101887 229.2165 
L 178.062727 227.595408 
L 179.023568 226.448214 
L 179.664128 225.952855 
L 180.304689 225.675894 
L 180.945249 225.618625 
L 182.54665 225.997942 
L 191.834776 228.469642 
L 195.678138 230.081896 
L 196.318699 230.624758 
L 197.279539 231.795619 
L 198.24038 233.38343 
L 199.841781 236.720166 
L 209.450187 257.017492 
L 211.371868 260.290645 
L 215.21523 266.400772 
L 216.496351 267.950823 
L 217.777472 269.137027 
L 219.058593 269.959322 
L 220.019433 270.3372 
L 220.980274 270.510343 
L 221.941115 270.478746 
L 222.901955 270.242409 
L 223.862796 269.80134 
L 224.823636 269.155552 
L 226.104757 267.976083 
L 227.385878 266.432765 
L 228.666999 264.52568 
L 233.471202 256.484355 
L 235.072603 253.231025 
L 244.616953 233.060315 
L 245.513737 231.65944 
L 246.410522 230.613913 
L 247.307306 229.932786 
L 247.905163 229.684189 
L 249.805492 229.399608 
L 252.688014 229.071169 
L 261.015299 229.077782 
L 264.538381 229.154246 
L 268.360391 229.711337 
L 268.958248 229.961416 
L 269.855032 230.64456 
L 270.751817 231.691837 
L 271.648601 233.094182 
L 272.865666 235.522285 
L 283.114633 257.128114 
L 285.036314 260.395254 
L 288.879676 266.495294 
L 290.160797 268.041996 
L 291.441918 269.224846 
L 292.723039 270.043782 
L 293.683879 270.419138 
L 294.64472 270.589757 
L 295.60556 270.555633 
L 296.566401 270.316768 
L 297.527242 269.873168 
L 298.488082 269.224846 
L 299.769203 268.041996 
L 301.050324 266.495294 
L 302.331445 264.584821 
L 307.135648 256.53154 
L 308.737049 253.275969 
L 318.281399 233.094182 
L 319.178183 231.691837 
L 320.074968 230.64456 
L 320.971752 229.961416 
L 321.569609 229.711337 
L 323.469938 229.421722 
L 326.35246 229.085629 
L 334.679745 229.070127 
L 338.202827 229.137236 
L 342.024837 229.684189 
L 342.622694 229.932786 
L 343.519478 230.613913 
L 344.416263 231.65944 
L 345.313047 233.060315 
L 346.530112 235.486874 
L 356.779078 257.080331 
L 358.70076 260.342856 
L 362.544122 266.432765 
L 363.825243 267.976083 
L 365.106364 269.155552 
L 366.387484 269.971111 
L 367.348325 270.343937 
L 368.309166 270.512027 
L 369.270006 270.475377 
L 370.230847 270.233988 
L 371.191687 269.787867 
L 372.152528 269.137027 
L 373.433649 267.950823 
L 374.71477 266.400772 
L 375.99589 264.486954 
L 380.800093 256.419533 
L 382.401494 253.1552 
L 392.0099 232.808745 
L 392.970741 231.358326 
L 393.931582 230.329314 
L 394.572142 229.882782 
L 396.493823 229.100921 
L 399.696625 227.950602 
L 409.305031 225.619757 
L 409.945592 225.78697 
L 410.586152 226.173355 
L 411.226712 226.777108 
L 412.187553 228.083857 
L 413.148394 229.859371 
L 414.429514 232.827458 
L 424.3582 256.324577 
L 426.279882 260.001946 
L 430.123244 266.489681 
L 431.404365 268.456177 
L 432.685486 270.050431 
L 433.966606 271.272354 
L 435.247727 272.121879 
L 436.208568 272.514608 
L 437.169408 272.697823 
L 440.37221 272.738192 
L 466.314907 272.86208 
L 495.140125 272.842575 
L 552.47028 272.842575 
L 552.47028 272.842575 
" style="fill:none;stroke:#10b981;stroke-linecap:square;stroke-width:1.3;"/>
   </g>
   <g id="line2d_32">
    <path clip-path="url(#p41befe4f7f)" d="M 37.78 253.562299 
L 41.623362 253.44383 
L 45.466725 253.088426 
L 49.310087 252.496085 
L 53.15345 251.666809 
L 56.996812 250.600595 
L 60.840174 249.297446 
L 64.683537 247.75736 
L 68.526899 245.980338 
L 72.370262 243.96638 
L 76.213624 241.715486 
L 80.377267 239.009641 
L 84.540909 236.025725 
L 88.704552 232.763738 
L 92.868194 229.22368 
L 97.031837 225.405551 
L 101.51576 220.982741 
L 105.999682 216.237434 
L 110.483605 211.169631 
L 114.967528 205.779331 
L 118.17033 201.809988 
L 118.49061 201.631996 
L 118.81089 201.610651 
L 119.131171 201.746049 
L 119.451451 202.037589 
L 120.092011 203.083256 
L 120.732572 204.729175 
L 123.935374 214.046982 
L 126.817895 221.80332 
L 129.700417 228.963109 
L 130.340978 230.273424 
L 130.981538 231.169809 
L 131.622098 231.669027 
L 132.262659 231.780414 
L 132.903219 231.506052 
L 133.54378 230.84081 
L 134.18434 229.77225 
L 134.8249 228.280388 
L 135.465461 226.337328 
L 136.426301 222.494788 
L 137.387142 217.391177 
L 139.308823 205.170447 
L 142.191345 186.440956 
L 143.152186 182.15821 
L 145.394147 174.710164 
L 148.917229 162.523441 
L 152.760592 148.382417 
L 156.603954 133.463164 
L 160.767597 116.344594 
L 163.329838 105.565353 
L 163.650118 104.736377 
L 163.970399 104.285601 
L 164.290679 104.215065 
L 164.610959 104.525087 
L 164.931239 105.214264 
L 165.5718 107.715928 
L 166.21236 111.674876 
L 166.85292 117.019609 
L 171.336843 160.265942 
L 173.578804 179.306242 
L 175.820766 196.566347 
L 176.781606 203.087302 
L 177.742447 207.98765 
L 178.383007 210.410114 
L 179.023568 212.211751 
L 179.664128 213.426298 
L 180.304689 214.076495 
L 180.624969 214.194173 
L 180.945249 214.174518 
L 181.585809 213.79097 
L 187.030573 209.792335 
L 192.475336 205.514406 
L 195.357858 203.059487 
L 195.998418 201.884735 
L 196.638979 200.04912 
L 197.279539 197.519299 
L 197.9201 194.249319 
L 198.88094 187.82268 
L 201.122902 169.645831 
L 203.364863 149.690263 
L 205.927105 124.705876 
L 208.809626 95.567137 
L 209.450187 91.510823 
L 210.090747 89.03109 
L 210.411027 88.397303 
L 210.731308 88.171921 
L 215.21523 87.977233 
L 226.745318 88.042155 
L 229.94812 88.132782 
L 231.869801 88.279551 
L 232.190081 88.508061 
L 232.510361 89.144722 
L 232.830641 90.186709 
L 233.471202 93.466375 
L 234.111762 98.288888 
L 235.072603 108.037247 
L 237.634844 134.477253 
L 240.197086 158.591428 
L 242.439047 177.783423 
L 244.318024 192.181521 
L 245.214809 197.204153 
L 246.111594 200.789779 
L 246.70945 202.44532 
L 247.307306 203.544055 
L 247.905163 204.10293 
L 248.524371 204.197499 
L 255.570535 204.404918 
L 262.6167 204.39314 
L 268.061463 204.235524 
L 268.360391 204.157154 
L 268.958248 203.601879 
L 269.556104 202.507229 
L 270.153961 200.856322 
L 270.751817 198.623695 
L 271.648601 194.106117 
L 272.545386 188.04293 
L 274.787347 169.901138 
L 277.029309 149.982916 
L 279.59155 125.044015 
L 282.474072 95.956174 
L 283.114633 91.905529 
L 283.755193 89.427968 
L 284.075473 88.793942 
L 284.395753 88.567437 
L 288.879676 88.35059 
L 300.409763 88.35674 
L 303.612565 88.430787 
L 305.534247 88.567437 
L 305.854527 88.793942 
L 306.174807 89.427968 
L 306.495087 90.466701 
L 307.135648 93.738065 
L 307.776208 98.55001 
L 308.737049 108.278959 
L 311.29929 134.668005 
L 313.861532 158.736819 
L 316.103493 177.893714 
L 317.98247 192.266029 
L 318.879255 197.278838 
L 319.776039 200.856322 
L 320.373896 202.507229 
L 320.971752 203.601879 
L 321.569609 204.157154 
L 322.188817 204.248392 
L 329.234981 204.41849 
L 336.281146 204.369388 
L 341.725909 204.182934 
L 342.024837 204.10293 
L 342.622694 203.544055 
L 343.22055 202.44532 
L 343.818406 200.789779 
L 344.416263 198.551895 
L 345.313047 194.02509 
L 346.209832 187.950774 
L 348.451793 169.776329 
L 350.693755 149.82117 
L 353.255996 124.834809 
L 356.138518 95.689496 
L 356.779078 91.629394 
L 357.419639 89.144722 
L 357.739919 88.508061 
L 358.060199 88.279551 
L 362.544122 88.039282 
L 374.074209 87.986638 
L 377.277011 88.044656 
L 379.198692 88.171921 
L 379.518973 88.397303 
L 379.839253 89.03109 
L 380.159533 90.070468 
L 380.800093 93.345762 
L 381.440654 98.165089 
L 382.401494 107.910872 
L 384.963736 134.347274 
L 387.525978 158.460452 
L 389.767939 177.653711 
L 391.36934 190.179781 
L 392.330181 195.980215 
L 392.970741 198.873553 
L 393.611301 201.051332 
L 394.251862 202.55311 
L 394.892422 203.406165 
L 400.337186 207.813453 
L 405.781949 211.944241 
L 408.984751 214.174518 
L 409.305031 214.194173 
L 409.625311 214.076495 
L 410.265872 213.426298 
L 410.906432 212.211751 
L 411.546993 210.410114 
L 412.187553 207.98765 
L 412.828113 204.899003 
L 413.788954 198.886754 
L 416.030915 181.880963 
L 418.272877 163.094976 
L 420.514838 142.528793 
L 424.03792 109.517106 
L 424.678481 106.279483 
L 425.319041 104.525087 
L 425.639321 104.215065 
L 425.959601 104.285601 
L 426.279882 104.736377 
L 426.600162 105.565353 
L 427.561002 109.534746 
L 432.044925 128.294591 
L 435.888288 143.507077 
L 440.05193 159.069496 
L 443.895293 172.550236 
L 447.098095 183.433811 
L 448.058935 188.161427 
L 449.019776 194.11298 
L 451.902298 213.455087 
L 453.183418 220.943157 
L 454.144259 225.185591 
L 455.1051 228.280388 
L 455.74566 229.77225 
L 456.38622 230.84081 
L 457.026781 231.506052 
L 457.667341 231.780414 
L 458.307902 231.669027 
L 458.948462 231.169809 
L 459.589022 230.273424 
L 460.229583 228.963109 
L 463.112105 221.80332 
L 465.994626 214.046982 
L 468.877148 205.694097 
L 469.837989 203.083256 
L 470.478549 202.037589 
L 470.798829 201.746049 
L 471.11911 201.610651 
L 471.43939 201.631996 
L 471.75967 201.809988 
L 472.720511 202.963245 
L 477.524714 208.898992 
L 482.328917 214.464526 
L 486.812839 219.32501 
L 491.296762 223.862997 
L 495.780685 228.078488 
L 499.944328 231.704106 
L 504.10797 235.051654 
L 508.271613 238.12113 
L 512.435255 240.912535 
L 516.598898 243.42587 
L 520.44226 245.499062 
L 524.285623 247.335318 
L 528.128985 248.934637 
L 531.972347 250.297021 
L 535.81571 251.422468 
L 539.659072 252.310979 
L 543.502435 252.962554 
L 547.345797 253.377192 
L 551.189159 253.554894 
L 552.47028 253.561476 
L 552.47028 253.561476 
" style="fill:none;stroke:#3b82f6;stroke-linecap:square;stroke-width:1.3;"/>
   </g>
   <g id="patch_7">
    <path d="M 117.85005 56.594023 
L 120.732572 56.594023 
L 120.732572 45.553177 
L 117.85005 45.553177 
z
" style="fill:#ef4444;"/>
   </g>
   <g id="patch_8">
    <path d="M 123.935374 56.594023 
L 126.497615 56.594023 
L 126.497615 45.553177 
L 123.935374 45.553177 
z
" style="fill:#10b981;"/>
   </g>
   <g id="patch_9">
    <path d="M 129.700417 56.594023 
L 137.387142 56.594023 
L 137.387142 45.553177 
L 129.700417 45.553177 
z
" style="fill:#ef4444;"/>
   </g>
   <g id="patch_10">
    <path d="M 140.589944 56.594023 
L 143.472466 56.594023 
L 143.472466 45.553177 
L 140.589944 45.553177 
z
" style="fill:#ef4444;"/>
   </g>
   <g id="patch_11">
    <path d="M 146.675268 56.594023 
L 149.237509 56.594023 
L 149.237509 45.553177 
L 146.675268 45.553177 
z
" style="fill:#10b981;"/>
   </g>
   <g id="patch_12">
    <path d="M 152.440311 56.594023 
L 159.806756 56.594023 
L 159.806756 45.553177 
L 152.440311 45.553177 
z
" style="fill:#fbbf24;"/>
   </g>
   <g id="patch_13">
    <path d="M 163.009558 56.594023 
L 167.1732 56.594023 
L 167.1732 45.553177 
L 163.009558 45.553177 
z
" style="fill:#ef4444;"/>
   </g>
   <g id="patch_14">
    <path d="M 170.376002 56.594023 
L 172.938244 56.594023 
L 172.938244 45.553177 
L 170.376002 45.553177 
z
" style="fill:#10b981;"/>
   </g>
   <g id="patch_15">
    <path d="M 176.141046 56.594023 
L 181.265529 56.594023 
L 181.265529 45.553177 
L 176.141046 45.553177 
z
" style="fill:#ef4444;"/>
   </g>
   <g id="patch_16">
    <path d="M 184.468331 56.594023 
L 187.030573 56.594023 
L 187.030573 45.553177 
L 184.468331 45.553177 
z
" style="fill:#10b981;"/>
   </g>
   <g id="patch_17">
    <path d="M 190.233375 53.833812 
L 191.834776 53.833812 
L 191.834776 42.792965 
L 190.233375 42.792965 
z
" style="fill:#fbbf24;"/>
   </g>
   <g id="patch_18">
    <path d="M 195.037578 56.594023 
L 198.88094 56.594023 
L 198.88094 45.553177 
L 195.037578 45.553177 
z
" style="fill:#ef4444;"/>
   </g>
   <g id="patch_19">
    <path d="M 202.083742 56.594023 
L 204.645984 56.594023 
L 204.645984 45.553177 
L 202.083742 45.553177 
z
" style="fill:#10b981;"/>
   </g>
   <g id="patch_20">
    <path d="M 207.848786 56.594023 
L 210.731308 56.594023 
L 210.731308 45.553177 
L 207.848786 45.553177 
z
" style="fill:#ef4444;"/>
   </g>
   <g id="patch_21">
    <path d="M 213.93411 56.594023 
L 221.300554 56.594023 
L 221.300554 45.553177 
L 213.93411 45.553177 
z
" style="fill:#fbbf24;"/>
   </g>
   <g id="patch_22">
    <path d="M 221.300554 56.594023 
L 228.666999 56.594023 
L 228.666999 45.553177 
L 221.300554 45.553177 
z
" style="fill:#fbbf24;"/>
   </g>
   <g id="patch_23">
    <path d="M 231.869801 56.594023 
L 234.752323 56.594023 
L 234.752323 45.553177 
L 231.869801 45.553177 
z
" style="fill:#ef4444;"/>
   </g>
   <g id="patch_24">
    <path d="M 237.955125 56.594023 
L 240.517366 56.594023 
L 240.517366 45.553177 
L 237.955125 45.553177 
z
" style="fill:#10b981;"/>
   </g>
   <g id="patch_25">
    <path d="M 243.720168 56.594023 
L 248.204091 56.594023 
L 248.204091 45.553177 
L 243.720168 45.553177 
z
" style="fill:#ef4444;"/>
   </g>
   <g id="patch_26">
    <path d="M 251.406893 53.833812 
L 253.008294 53.833812 
L 253.008294 42.792965 
L 251.406893 42.792965 
z
" style="fill:#fbbf24;"/>
   </g>
   <g id="patch_27">
    <path d="M 256.211096 56.594023 
L 260.054458 56.594023 
L 260.054458 45.553177 
L 256.211096 45.553177 
z
" style="fill:#10b981;"/>
   </g>
   <g id="patch_28">
    <path d="M 263.25726 53.833812 
L 264.858661 53.833812 
L 264.858661 42.792965 
L 263.25726 42.792965 
z
" style="fill:#fbbf24;"/>
   </g>
   <g id="patch_29">
    <path d="M 268.061463 56.594023 
L 272.545386 56.594023 
L 272.545386 45.553177 
L 268.061463 45.553177 
z
" style="fill:#ef4444;"/>
   </g>
   <g id="patch_30">
    <path d="M 275.748188 56.594023 
L 278.31043 56.594023 
L 278.31043 45.553177 
L 275.748188 45.553177 
z
" style="fill:#10b981;"/>
   </g>
   <g id="patch_31">
    <path d="M 281.513232 56.594023 
L 284.395753 56.594023 
L 284.395753 45.553177 
L 281.513232 45.553177 
z
" style="fill:#ef4444;"/>
   </g>
   <g id="patch_32">
    <path d="M 287.598555 56.594023 
L 294.965 56.594023 
L 294.965 45.553177 
L 287.598555 45.553177 
z
" style="fill:#fbbf24;"/>
   </g>
   <g id="patch_33">
    <path d="M 294.965 56.594023 
L 302.331445 56.594023 
L 302.331445 45.553177 
L 294.965 45.553177 
z
" style="fill:#fbbf24;"/>
   </g>
   <g id="patch_34">
    <path d="M 305.534247 56.594023 
L 308.416768 56.594023 
L 308.416768 45.553177 
L 305.534247 45.553177 
z
" style="fill:#ef4444;"/>
   </g>
   <g id="patch_35">
    <path d="M 311.61957 56.594023 
L 314.181812 56.594023 
L 314.181812 45.553177 
L 311.61957 45.553177 
z
" style="fill:#10b981;"/>
   </g>
   <g id="patch_36">
    <path d="M 317.384614 56.594023 
L 321.868537 56.594023 
L 321.868537 45.553177 
L 317.384614 45.553177 
z
" style="fill:#ef4444;"/>
   </g>
   <g id="patch_37">
    <path d="M 325.071339 53.833812 
L 326.67274 53.833812 
L 326.67274 42.792965 
L 325.071339 42.792965 
z
" style="fill:#fbbf24;"/>
   </g>
   <g id="patch_38">
    <path d="M 329.875542 56.594023 
L 333.718904 56.594023 
L 333.718904 45.553177 
L 329.875542 45.553177 
z
" style="fill:#10b981;"/>
   </g>
   <g id="patch_39">
    <path d="M 336.921706 53.833812 
L 338.523107 53.833812 
L 338.523107 42.792965 
L 336.921706 42.792965 
z
" style="fill:#fbbf24;"/>
   </g>
   <g id="patch_40">
    <path d="M 341.725909 56.594023 
L 346.209832 56.594023 
L 346.209832 45.553177 
L 341.725909 45.553177 
z
" style="fill:#ef4444;"/>
   </g>
   <g id="patch_41">
    <path d="M 349.412634 56.594023 
L 351.974875 56.594023 
L 351.974875 45.553177 
L 349.412634 45.553177 
z
" style="fill:#10b981;"/>
   </g>
   <g id="patch_42">
    <path d="M 355.177677 56.594023 
L 358.060199 56.594023 
L 358.060199 45.553177 
L 355.177677 45.553177 
z
" style="fill:#ef4444;"/>
   </g>
   <g id="patch_43">
    <path d="M 361.263001 56.594023 
L 368.629446 56.594023 
L 368.629446 45.553177 
L 361.263001 45.553177 
z
" style="fill:#fbbf24;"/>
   </g>
   <g id="patch_44">
    <path d="M 368.629446 56.594023 
L 375.99589 56.594023 
L 375.99589 45.553177 
L 368.629446 45.553177 
z
" style="fill:#fbbf24;"/>
   </g>
   <g id="patch_45">
    <path d="M 379.198692 56.594023 
L 382.081214 56.594023 
L 382.081214 45.553177 
L 379.198692 45.553177 
z
" style="fill:#ef4444;"/>
   </g>
   <g id="patch_46">
    <path d="M 385.284016 56.594023 
L 387.846258 56.594023 
L 387.846258 45.553177 
L 385.284016 45.553177 
z
" style="fill:#10b981;"/>
   </g>
   <g id="patch_47">
    <path d="M 391.04906 56.594023 
L 394.892422 56.594023 
L 394.892422 45.553177 
L 391.04906 45.553177 
z
" style="fill:#ef4444;"/>
   </g>
   <g id="patch_48">
    <path d="M 398.095224 53.833812 
L 399.696625 53.833812 
L 399.696625 42.792965 
L 398.095224 42.792965 
z
" style="fill:#fbbf24;"/>
   </g>
   <g id="patch_49">
    <path d="M 402.899427 56.594023 
L 405.461669 56.594023 
L 405.461669 45.553177 
L 402.899427 45.553177 
z
" style="fill:#10b981;"/>
   </g>
   <g id="patch_50">
    <path d="M 408.664471 56.594023 
L 413.788954 56.594023 
L 413.788954 45.553177 
L 408.664471 45.553177 
z
" style="fill:#ef4444;"/>
   </g>
   <g id="patch_51">
    <path d="M 416.991756 56.594023 
L 419.553998 56.594023 
L 419.553998 45.553177 
L 416.991756 45.553177 
z
" style="fill:#10b981;"/>
   </g>
   <g id="patch_52">
    <path d="M 422.7568 56.594023 
L 426.920442 56.594023 
L 426.920442 45.553177 
L 422.7568 45.553177 
z
" style="fill:#ef4444;"/>
   </g>
   <g id="patch_53">
    <path d="M 430.123244 56.594023 
L 437.489689 56.594023 
L 437.489689 45.553177 
L 430.123244 45.553177 
z
" style="fill:#fbbf24;"/>
   </g>
   <g id="patch_54">
    <path d="M 440.692491 56.594023 
L 443.254732 56.594023 
L 443.254732 45.553177 
L 440.692491 45.553177 
z
" style="fill:#10b981;"/>
   </g>
   <g id="patch_55">
    <path d="M 446.457534 56.594023 
L 449.340056 56.594023 
L 449.340056 45.553177 
L 446.457534 45.553177 
z
" style="fill:#ef4444;"/>
   </g>
   <g id="patch_56">
    <path d="M 452.542858 56.594023 
L 460.229583 56.594023 
L 460.229583 45.553177 
L 452.542858 45.553177 
z
" style="fill:#ef4444;"/>
   </g>
   <g id="patch_57">
    <path d="M 463.432385 56.594023 
L 465.994626 56.594023 
L 465.994626 45.553177 
L 463.432385 45.553177 
z
" style="fill:#10b981;"/>
   </g>
   <g id="patch_58">
    <path d="M 469.197428 56.594023 
L 472.07995 56.594023 
L 472.07995 45.553177 
L 469.197428 45.553177 
z
" style="fill:#ef4444;"/>
   </g>
   <g id="line2d_33">
    <path clip-path="url(#p41befe4f7f)" d="M 37.78 250.765962 
L 41.623362 250.662597 
L 45.466725 250.352505 
L 49.310087 249.835683 
L 53.47373 249.042506 
L 57.637372 248.00671 
L 61.801015 246.728295 
L 65.964658 245.207261 
L 70.1283 243.443608 
L 74.291943 241.437336 
L 78.455585 239.188445 
L 82.619228 236.696935 
L 87.103151 233.742439 
L 91.587073 230.506563 
L 96.070996 226.989306 
L 100.554919 223.190669 
L 105.038842 219.110651 
L 109.843045 214.426957 
L 114.647248 209.42025 
L 118.17033 205.469195 
L 118.81089 204.145466 
L 119.451451 202.192885 
L 120.092011 199.576842 
L 121.052852 194.389909 
L 123.615093 178.681028 
L 126.177335 161.513698 
L 128.739577 142.887917 
L 130.340978 131.161 
L 130.981538 128.063695 
L 131.622098 126.293065 
L 131.942379 125.916555 
L 132.262659 125.882118 
L 132.582939 126.189917 
L 132.903219 126.838515 
L 133.54378 129.144426 
L 134.18434 132.756866 
L 134.8249 137.608493 
L 135.785741 147.005657 
L 136.746582 158.589088 
L 139.949384 200.293861 
L 141.230504 214.246974 
L 142.511625 225.366324 
L 143.792746 234.088775 
L 145.394147 243.361533 
L 146.995548 251.339517 
L 148.276669 256.789666 
L 149.55779 261.41116 
L 150.83891 265.203997 
L 151.799751 267.504821 
L 152.760592 269.33925 
L 153.721432 270.707377 
L 154.682273 271.609812 
L 155.322833 271.95266 
L 155.963394 272.088463 
L 156.603954 272.017214 
L 157.244514 271.738918 
L 157.885075 271.253588 
L 158.845915 270.13747 
L 159.806756 268.55573 
L 160.767597 266.507196 
L 161.728437 263.992542 
L 163.009558 259.914598 
L 163.970399 256.158128 
L 164.931239 251.519533 
L 165.89208 245.809393 
L 166.85292 238.794538 
L 168.134041 227.339136 
L 169.735442 210.594933 
L 171.336843 191.210927 
L 172.938244 169.187118 
L 174.859925 139.274007 
L 177.742447 92.341519 
L 178.703288 81.716372 
L 179.343848 76.722843 
L 179.984408 73.514617 
L 180.304689 72.600044 
L 180.624969 72.15158 
L 180.945249 72.171321 
L 181.265529 72.659174 
L 187.350853 86.101315 
L 193.436177 99.017131 
L 195.357858 103.179023 
L 195.998418 106.016768 
L 196.638979 110.324582 
L 197.279539 116.024452 
L 198.24038 126.952119 
L 203.044583 188.748829 
L 204.966264 208.878608 
L 206.567665 223.537099 
L 208.169066 236.230329 
L 209.129907 242.407161 
L 210.090747 247.452699 
L 211.371868 252.856439 
L 212.973269 258.564906 
L 214.25439 262.400758 
L 215.535511 265.585441 
L 216.816631 268.124383 
L 217.777472 269.604495 
L 218.738313 270.720898 
L 219.699153 271.473462 
L 220.659994 271.862096 
L 221.300554 271.918978 
L 221.941115 271.814089 
L 222.581675 271.547434 
L 223.542516 270.844176 
L 224.503356 269.777063 
L 225.464197 268.346222 
L 226.425037 266.551821 
L 227.706158 263.594123 
L 228.987279 259.989213 
L 230.2684 255.731608 
L 231.869801 249.497937 
L 232.830641 245.011314 
L 233.791482 239.513694 
L 234.752323 232.784619 
L 236.353724 219.430705 
L 237.955125 204.136064 
L 239.556526 186.900696 
L 241.478207 163.656495 
L 243.399888 137.617648 
L 244.616953 120.963817 
L 245.513737 111.144673 
L 246.410522 103.88805 
L 247.008378 100.601696 
L 247.606235 98.618268 
L 247.905163 98.125485 
L 248.204091 97.968279 
L 259.413898 98.266169 
L 268.360391 98.512982 
L 268.65932 99.015965 
L 269.257176 101.017338 
L 269.855032 104.318138 
L 270.452889 108.867585 
L 271.349673 117.874869 
L 272.246458 129.218589 
L 274.787347 164.080373 
L 276.709029 187.298472 
L 278.63071 207.7163 
L 280.232111 222.59206 
L 281.833512 235.481013 
L 282.794352 241.754418 
L 283.755193 246.878638 
L 285.036314 252.367059 
L 286.637715 258.172446 
L 287.918836 262.081118 
L 289.199956 265.334371 
L 290.481077 267.937796 
L 291.441918 269.46358 
L 292.402758 270.623344 
L 293.363599 271.41695 
L 294.32444 271.844305 
L 294.965 271.925708 
L 295.60556 271.844305 
L 296.246121 271.6001 
L 297.206961 270.928569 
L 298.167802 269.890845 
L 299.128643 268.48705 
L 300.089483 266.71735 
L 301.370604 263.788933 
L 302.651725 260.209157 
L 303.932846 255.972624 
L 305.534247 249.75946 
L 306.495087 245.284717 
L 307.455928 239.802357 
L 308.416768 233.092533 
L 310.018169 219.772479 
L 311.61957 204.507792 
L 313.220971 187.298472 
L 315.142653 164.080373 
L 317.064334 138.062002 
L 318.281399 121.414322 
L 319.178183 111.589401 
L 320.074968 104.318138 
L 320.672824 101.017338 
L 321.27068 99.015965 
L 321.569609 98.512982 
L 321.868537 98.34481 
L 333.078344 98.217584 
L 342.024837 98.125485 
L 342.323765 98.618268 
L 342.622694 99.444732 
L 343.22055 102.084705 
L 343.818406 106.004788 
L 344.715191 114.148032 
L 345.611976 124.750003 
L 350.053194 183.220735 
L 351.974875 204.136064 
L 353.576276 219.430705 
L 355.177677 232.784619 
L 356.138518 239.513694 
L 357.099359 245.011314 
L 358.060199 249.497937 
L 359.6616 255.731608 
L 361.263001 260.952318 
L 362.544122 264.394073 
L 363.825243 267.190338 
L 364.786083 268.863574 
L 365.746924 270.173189 
L 366.707765 271.119029 
L 367.668605 271.700982 
L 368.309166 271.886754 
L 368.949726 271.910758 
L 369.590286 271.772991 
L 370.230847 271.473462 
L 371.191687 270.720898 
L 372.152528 269.604495 
L 373.113369 268.124383 
L 374.074209 266.280738 
L 375.35533 263.257433 
L 376.636451 259.585045 
L 377.917572 255.261381 
L 379.198692 250.289422 
L 380.159533 245.883226 
L 381.120374 240.485128 
L 382.081214 233.87866 
L 383.682615 220.759315 
L 385.284016 205.716038 
L 386.885417 188.748829 
L 388.807098 165.848589 
L 390.72878 140.177886 
L 392.0099 123.013154 
L 392.970741 113.00639 
L 393.611301 107.991182 
L 394.251862 104.410287 
L 394.892422 102.328555 
L 400.977746 89.551244 
L 407.06307 76.247607 
L 408.984751 72.171321 
L 409.305031 72.15158 
L 409.625311 72.600044 
L 409.945592 73.514617 
L 410.586152 76.722843 
L 411.226712 81.716372 
L 411.867273 88.401996 
L 412.828113 101.322047 
L 414.109234 122.891958 
L 416.030915 154.705727 
L 417.952597 182.71818 
L 419.553998 203.158107 
L 421.155399 220.958231 
L 422.7568 236.118552 
L 423.71764 243.629024 
L 424.678481 249.745744 
L 425.639321 254.718489 
L 426.600162 258.75032 
L 427.881283 263.050743 
L 429.162403 266.507196 
L 430.123244 268.55573 
L 431.084085 270.13747 
L 432.044925 271.253588 
L 432.685486 271.738918 
L 433.326046 272.017214 
L 433.966606 272.088463 
L 434.607167 271.95266 
L 435.247727 271.609812 
L 435.888288 271.059939 
L 436.849128 269.847027 
L 437.809969 268.16818 
L 438.770809 266.02273 
L 439.73165 263.41116 
L 441.012771 259.203995 
L 442.293892 254.168173 
L 443.575012 248.303696 
L 445.176413 239.807803 
L 446.777814 229.978462 
L 447.738655 222.837581 
L 448.699496 214.246974 
L 449.980616 200.293861 
L 451.582017 180.393123 
L 454.144259 147.005657 
L 455.1051 137.608493 
L 455.74566 132.756866 
L 456.38622 129.144426 
L 457.026781 126.838515 
L 457.347061 126.189917 
L 457.667341 125.882118 
L 457.987621 125.916555 
L 458.307902 126.293065 
L 458.628182 127.009894 
L 459.268742 129.449553 
L 459.909303 133.190052 
L 465.674346 174.525925 
L 468.236588 190.599418 
L 469.837989 199.576842 
L 470.478549 202.192885 
L 471.11911 204.145466 
L 471.75967 205.469195 
L 472.720511 206.61793 
L 477.524714 211.796911 
L 482.328917 216.652878 
L 487.13312 221.185833 
L 491.617042 225.12516 
L 496.100965 228.783107 
L 500.584888 232.159674 
L 505.068811 235.25486 
L 509.552733 238.068665 
L 513.716376 240.429534 
L 517.880019 242.547784 
L 522.043661 244.423415 
L 526.207304 246.056427 
L 530.370946 247.44682 
L 534.534589 248.594594 
L 538.698232 249.499749 
L 542.861874 250.162286 
L 547.025517 250.582203 
L 550.868879 250.754477 
L 552.47028 250.765244 
L 552.47028 250.765244 
" style="fill:none;stroke:#ef4444;stroke-linecap:square;stroke-width:1.3;"/>
   </g>
   <g id="text_17">
    <!-- uq3 -->
    <g transform="translate(111.984436 42.163378)scale(0.08 -0.08)">
     <defs>
      <path d="M 2691 1427 
C 2691 773 2191 473 1791 473 
C 1346 473 1027 800 1027 1309 
L 1027 3491 
L 491 3491 
L 491 1273 
C 491 382 964 -45 1618 -45 
C 2146 -45 2491 236 2655 591 
L 2691 591 
L 2691 0 
L 3227 0 
L 3227 3491 
L 2691 3491 
L 2691 1427 
z
" id="Inter-Regular-75" transform="scale(0.015625)"/>
      <path d="M 3409 -1309 
L 3409 3491 
L 2891 3491 
L 2891 2936 
L 2827 2936 
C 2709 3118 2500 3536 1818 3536 
C 936 3536 327 2836 327 1736 
C 327 627 936 -73 1809 -73 
C 2482 -73 2709 345 2827 536 
L 2873 536 
L 2873 -1309 
L 3409 -1309 
z
M 2882 1745 
C 2882 955 2527 409 1882 409 
C 1209 409 864 1000 864 1745 
C 864 2482 1200 3055 1882 3055 
C 2536 3055 2882 2527 2882 1745 
z
" id="Inter-Regular-71" transform="scale(0.015625)"/>
     </defs>
     <use xlink:href="#Inter-Regular-75"/>
     <use x="58.096603" xlink:href="#Inter-Regular-71"/>
     <use x="119.034119" xlink:href="#Inter-Regular-33"/>
    </g>
   </g>
   <g id="text_18">
    <!-- uq2 -->
    <g transform="translate(126.361905 64.245072)scale(0.08 -0.08)">
     <use xlink:href="#Inter-Regular-75"/>
     <use x="58.096603" xlink:href="#Inter-Regular-71"/>
     <use x="119.034119" xlink:href="#Inter-Regular-32"/>
    </g>
   </g>
   <g id="text_19">
    <!-- uq1 -->
    <g transform="translate(135.41183 42.124003)scale(0.08 -0.08)">
     <use xlink:href="#Inter-Regular-75"/>
     <use x="58.096603" xlink:href="#Inter-Regular-71"/>
     <use x="119.034119" xlink:href="#Inter-Regular-31"/>
    </g>
   </g>
   <g id="text_20">
    <!-- mb0 -->
    <g transform="translate(147.662909 64.205697)scale(0.08 -0.08)">
     <use xlink:href="#Inter-Regular-6d"/>
     <use x="86.931839" xlink:href="#Inter-Regular-62"/>
     <use x="149.005722" xlink:href="#Inter-Regular-30"/>
    </g>
   </g>
   <g id="text_21">
    <!-- mq1 -->
    <g transform="translate(157.318254 42.124003)scale(0.08 -0.08)">
     <use xlink:href="#Inter-Regular-6d"/>
     <use x="86.931839" xlink:href="#Inter-Regular-71"/>
     <use x="147.869354" xlink:href="#Inter-Regular-31"/>
    </g>
   </g>
   <g id="text_22">
    <!-- mq2 -->
    <g transform="translate(170.367663 64.245072)scale(0.08 -0.08)">
     <use xlink:href="#Inter-Regular-6d"/>
     <use x="86.931839" xlink:href="#Inter-Regular-71"/>
     <use x="147.869354" xlink:href="#Inter-Regular-32"/>
    </g>
   </g>
   <g id="text_23">
    <!-- b1 -->
    <g transform="translate(186.692825 42.124003)scale(0.08 -0.08)">
     <use xlink:href="#Inter-Regular-62"/>
     <use x="62.073883" xlink:href="#Inter-Regular-31"/>
    </g>
   </g>
   <g id="text_24">
    <!-- q1a -->
    <g transform="translate(190.408009 64.205697)scale(0.08 -0.08)">
     <defs>
      <path d="M 1518 -82 
C 2127 -82 2446 245 2555 473 
L 2582 473 
L 2582 0 
L 3118 0 
L 3118 2300 
C 3118 3409 2273 3536 1827 3536 
C 1300 3536 700 3355 427 2718 
L 936 2536 
C 1055 2791 1334 3064 1846 3064 
C 2339 3064 2582 2802 2582 2355 
L 2582 2336 
C 2582 2077 2318 2100 1682 2018 
C 1034 1934 327 1791 327 991 
C 327 309 855 -82 1518 -82 
z
M 1600 400 
C 1173 400 864 591 864 964 
C 864 1373 1236 1500 1655 1555 
C 1882 1582 2491 1645 2582 1755 
L 2582 1264 
C 2582 827 2236 400 1600 400 
z
" id="Inter-Regular-61" transform="scale(0.015625)"/>
     </defs>
     <use xlink:href="#Inter-Regular-71"/>
     <use x="60.937515" xlink:href="#Inter-Regular-31"/>
     <use x="107.386383" xlink:href="#Inter-Regular-61"/>
    </g>
   </g>
   <g id="text_25">
    <!-- q0 -->
    <g transform="translate(204.352547 42.163378)scale(0.08 -0.08)">
     <use xlink:href="#Inter-Regular-71"/>
     <use x="60.937515" xlink:href="#Inter-Regular-30"/>
    </g>
   </g>
   <g id="text_26">
    <!-- b0_reversed -->
    <g transform="translate(194.059832 64.205697)scale(0.08 -0.08)">
     <defs>
      <path d="M 2900 0 
L -9 0 
L -9 -500 
L 2900 -500 
L 2900 0 
z
" id="Inter-Regular-5f" transform="scale(0.015625)"/>
      <path d="M 1955 -73 
C 2664 -73 3182 282 3346 809 
L 2827 955 
C 2691 591 2375 409 1955 409 
C 1325 409 891 816 866 1564 
L 3400 1564 
L 3400 1791 
C 3400 3091 2627 3536 1900 3536 
C 955 3536 327 2791 327 1718 
C 327 645 946 -73 1955 -73 
z
M 1900 3055 
C 2482 3055 2855 2618 2855 2027 
L 866 2027 
C 902 2570 1289 3055 1900 3055 
z
" id="Inter-Regular-65" transform="scale(0.015625)"/>
      <path d="M 3346 3491 
L 2764 3491 
L 1800 709 
L 1764 709 
L 800 3491 
L 218 3491 
L 1509 0 
L 2055 0 
L 3346 3491 
z
" id="Inter-Regular-76" transform="scale(0.015625)"/>
      <path d="M 1809 -73 
C 2482 -73 2709 345 2827 536 
L 2891 536 
L 2891 0 
L 3409 0 
L 3409 4655 
L 2873 4655 
L 2873 2936 
L 2827 2936 
C 2709 3118 2500 3536 1818 3536 
C 936 3536 327 2836 327 1736 
C 327 627 936 -73 1809 -73 
z
M 1882 409 
C 1209 409 864 1000 864 1745 
C 864 2482 1200 3055 1882 3055 
C 2536 3055 2882 2527 2882 1745 
C 2882 955 2527 409 1882 409 
z
" id="Inter-Regular-64" transform="scale(0.015625)"/>
     </defs>
     <use xlink:href="#Inter-Regular-62"/>
     <use x="62.073883" xlink:href="#Inter-Regular-30"/>
     <use x="124.573898" xlink:href="#Inter-Regular-5f"/>
     <use x="169.744354" xlink:href="#Inter-Regular-72"/>
     <use x="206.960266" xlink:href="#Inter-Regular-65"/>
     <use x="265.198914" xlink:href="#Inter-Regular-76"/>
     <use x="320.880737" xlink:href="#Inter-Regular-65"/>
     <use x="379.119385" xlink:href="#Inter-Regular-72"/>
     <use x="416.335297" xlink:href="#Inter-Regular-73"/>
     <use x="468.608032" xlink:href="#Inter-Regular-65"/>
     <use x="526.84668" xlink:href="#Inter-Regular-64"/>
    </g>
   </g>
   <g id="text_27">
    <!-- b0 -->
    <g transform="translate(220.000651 42.124003)scale(0.08 -0.08)">
     <use xlink:href="#Inter-Regular-62"/>
     <use x="62.073883" xlink:href="#Inter-Regular-30"/>
    </g>
   </g>
   <g id="text_28">
    <!-- q0 -->
    <g transform="translate(228.373562 64.245072)scale(0.08 -0.08)">
     <use xlink:href="#Inter-Regular-71"/>
     <use x="60.937515" xlink:href="#Inter-Regular-30"/>
    </g>
   </g>
   <g id="text_29">
    <!-- q1 -->
    <g transform="translate(241.666505 42.124003)scale(0.08 -0.08)">
     <use xlink:href="#Inter-Regular-71"/>
     <use x="60.937515" xlink:href="#Inter-Regular-31"/>
    </g>
   </g>
   <g id="text_30">
    <!-- b1 -->
    <g transform="translate(247.866343 64.205697)scale(0.08 -0.08)">
     <use xlink:href="#Inter-Regular-62"/>
     <use x="62.073883" xlink:href="#Inter-Regular-31"/>
    </g>
   </g>
   <g id="text_31">
    <!-- b1 -->
    <g transform="translate(259.716711 42.124003)scale(0.08 -0.08)">
     <use xlink:href="#Inter-Regular-62"/>
     <use x="62.073883" xlink:href="#Inter-Regular-31"/>
    </g>
   </g>
   <g id="text_32">
    <!-- q1 -->
    <g transform="translate(266.0078 64.205697)scale(0.08 -0.08)">
     <use xlink:href="#Inter-Regular-71"/>
     <use x="60.937515" xlink:href="#Inter-Regular-31"/>
    </g>
   </g>
   <g id="text_33">
    <!-- q0 -->
    <g transform="translate(278.016993 42.163378)scale(0.08 -0.08)">
     <use xlink:href="#Inter-Regular-71"/>
     <use x="60.937515" xlink:href="#Inter-Regular-30"/>
    </g>
   </g>
   <g id="text_34">
    <!-- b0_reversed -->
    <g transform="translate(267.724278 64.205697)scale(0.08 -0.08)">
     <use xlink:href="#Inter-Regular-62"/>
     <use x="62.073883" xlink:href="#Inter-Regular-30"/>
     <use x="124.573898" xlink:href="#Inter-Regular-5f"/>
     <use x="169.744354" xlink:href="#Inter-Regular-72"/>
     <use x="206.960266" xlink:href="#Inter-Regular-65"/>
     <use x="265.198914" xlink:href="#Inter-Regular-76"/>
     <use x="320.880737" xlink:href="#Inter-Regular-65"/>
     <use x="379.119385" xlink:href="#Inter-Regular-72"/>
     <use x="416.335297" xlink:href="#Inter-Regular-73"/>
     <use x="468.608032" xlink:href="#Inter-Regular-65"/>
     <use x="526.84668" xlink:href="#Inter-Regular-64"/>
    </g>
   </g>
   <g id="text_35">
    <!-- b0 -->
    <g transform="translate(293.665097 42.124003)scale(0.08 -0.08)">
     <use xlink:href="#Inter-Regular-62"/>
     <use x="62.073883" xlink:href="#Inter-Regular-30"/>
    </g>
   </g>
   <g id="text_36">
    <!-- q0 -->
    <g transform="translate(302.038007 64.245072)scale(0.08 -0.08)">
     <use xlink:href="#Inter-Regular-71"/>
     <use x="60.937515" xlink:href="#Inter-Regular-30"/>
    </g>
   </g>
   <g id="text_37">
    <!-- q1 -->
    <g transform="translate(315.33095 42.124003)scale(0.08 -0.08)">
     <use xlink:href="#Inter-Regular-71"/>
     <use x="60.937515" xlink:href="#Inter-Regular-31"/>
    </g>
   </g>
   <g id="text_38">
    <!-- b1 -->
    <g transform="translate(321.530789 64.205697)scale(0.08 -0.08)">
     <use xlink:href="#Inter-Regular-62"/>
     <use x="62.073883" xlink:href="#Inter-Regular-31"/>
    </g>
   </g>
   <g id="text_39">
    <!-- b1 -->
    <g transform="translate(333.381157 42.124003)scale(0.08 -0.08)">
     <use xlink:href="#Inter-Regular-62"/>
     <use x="62.073883" xlink:href="#Inter-Regular-31"/>
    </g>
   </g>
   <g id="text_40">
    <!-- q1 -->
    <g transform="translate(339.672245 64.205697)scale(0.08 -0.08)">
     <use xlink:href="#Inter-Regular-71"/>
     <use x="60.937515" xlink:href="#Inter-Regular-31"/>
    </g>
   </g>
   <g id="text_41">
    <!-- q0 -->
    <g transform="translate(351.681438 42.163378)scale(0.08 -0.08)">
     <use xlink:href="#Inter-Regular-71"/>
     <use x="60.937515" xlink:href="#Inter-Regular-30"/>
    </g>
   </g>
   <g id="text_42">
    <!-- b0_reversed -->
    <g transform="translate(341.388724 64.205697)scale(0.08 -0.08)">
     <use xlink:href="#Inter-Regular-62"/>
     <use x="62.073883" xlink:href="#Inter-Regular-30"/>
     <use x="124.573898" xlink:href="#Inter-Regular-5f"/>
     <use x="169.744354" xlink:href="#Inter-Regular-72"/>
     <use x="206.960266" xlink:href="#Inter-Regular-65"/>
     <use x="265.198914" xlink:href="#Inter-Regular-76"/>
     <use x="320.880737" xlink:href="#Inter-Regular-65"/>
     <use x="379.119385" xlink:href="#Inter-Regular-72"/>
     <use x="416.335297" xlink:href="#Inter-Regular-73"/>
     <use x="468.608032" xlink:href="#Inter-Regular-65"/>
     <use x="526.84668" xlink:href="#Inter-Regular-64"/>
    </g>
   </g>
   <g id="text_43">
    <!-- b0 -->
    <g transform="translate(367.329543 42.124003)scale(0.08 -0.08)">
     <use xlink:href="#Inter-Regular-62"/>
     <use x="62.073883" xlink:href="#Inter-Regular-30"/>
    </g>
   </g>
   <g id="text_44">
    <!-- q0 -->
    <g transform="translate(375.702453 64.245072)scale(0.08 -0.08)">
     <use xlink:href="#Inter-Regular-71"/>
     <use x="60.937515" xlink:href="#Inter-Regular-30"/>
    </g>
   </g>
   <g id="text_45">
    <!-- q1a -->
    <g transform="translate(386.419491 42.124003)scale(0.08 -0.08)">
     <use xlink:href="#Inter-Regular-71"/>
     <use x="60.937515" xlink:href="#Inter-Regular-31"/>
     <use x="107.386383" xlink:href="#Inter-Regular-61"/>
    </g>
   </g>
   <g id="text_46">
    <!-- b1 -->
    <g transform="translate(394.554675 64.205697)scale(0.08 -0.08)">
     <use xlink:href="#Inter-Regular-62"/>
     <use x="62.073883" xlink:href="#Inter-Regular-31"/>
    </g>
   </g>
   <g id="text_47">
    <!-- mq2 -->
    <g transform="translate(402.891087 42.163378)scale(0.08 -0.08)">
     <use xlink:href="#Inter-Regular-6d"/>
     <use x="86.931839" xlink:href="#Inter-Regular-71"/>
     <use x="147.869354" xlink:href="#Inter-Regular-32"/>
    </g>
   </g>
   <g id="text_48">
    <!-- mq1 -->
    <g transform="translate(417.065496 64.205697)scale(0.08 -0.08)">
     <use xlink:href="#Inter-Regular-6d"/>
     <use x="86.931839" xlink:href="#Inter-Regular-71"/>
     <use x="147.869354" xlink:href="#Inter-Regular-31"/>
    </g>
   </g>
   <g id="text_49">
    <!-- mb0 -->
    <g transform="translate(425.345841 42.124003)scale(0.08 -0.08)">
     <use xlink:href="#Inter-Regular-6d"/>
     <use x="86.931839" xlink:href="#Inter-Regular-62"/>
     <use x="149.005722" xlink:href="#Inter-Regular-30"/>
    </g>
   </g>
   <g id="text_50">
    <!-- uq1 -->
    <g transform="translate(441.27942 64.205697)scale(0.08 -0.08)">
     <use xlink:href="#Inter-Regular-75"/>
     <use x="58.096603" xlink:href="#Inter-Regular-71"/>
     <use x="119.034119" xlink:href="#Inter-Regular-31"/>
    </g>
   </g>
   <g id="text_51">
    <!-- uq2 -->
    <g transform="translate(449.204345 42.163378)scale(0.08 -0.08)">
     <use xlink:href="#Inter-Regular-75"/>
     <use x="58.096603" xlink:href="#Inter-Regular-71"/>
     <use x="119.034119" xlink:href="#Inter-Regular-32"/>
    </g>
   </g>
   <g id="text_52">
    <!-- uq3 -->
    <g transform="translate(463.331814 64.245072)scale(0.08 -0.08)">
     <use xlink:href="#Inter-Regular-75"/>
     <use x="58.096603" xlink:href="#Inter-Regular-71"/>
     <use x="119.034119" xlink:href="#Inter-Regular-33"/>
    </g>
   </g>
   <g id="text_53">
    <g clip-path="url(#p41befe4f7f)">
     <!-- match_reversed -->
     <g style="opacity:0.5;" transform="translate(91.549652 291.728314)scale(0.1 -0.1)">
      <defs>
       <path d="M 200 0 
L 736 0 
L 1100 2182 
C 1182 2691 1618 3055 2036 3055 
C 2446 3055 2682 2791 2618 2391 
L 2218 0 
L 2764 0 
L 3146 2273 
C 3218 2727 3555 3055 4046 3055 
C 4427 3055 4718 2855 4636 2336 
L 4246 0 
L 4782 0 
L 5173 2336 
C 5309 3155 4927 3536 4309 3536 
C 3809 3536 3400 3309 3164 2945 
L 3127 2945 
C 3018 3318 2746 3536 2291 3536 
C 1836 3536 1464 3318 1255 2945 
L 1209 2945 
L 1300 3491 
L 782 3491 
L 200 0 
z
" id="Inter-Italic-6d" transform="scale(0.015625)"/>
       <path d="M 1218 -82 
C 1827 -82 2200 245 2346 473 
L 2373 473 
L 2291 0 
L 2827 0 
L 3209 2300 
C 3391 3409 2573 3536 2127 3536 
C 1600 3536 964 3355 591 2718 
L 1064 2536 
C 1227 2791 1573 3064 2082 3064 
C 2573 3064 2755 2800 2682 2355 
L 2682 2336 
C 2636 2082 2373 2100 1727 2018 
C 1064 1936 336 1791 200 991 
C 91 309 555 -82 1218 -82 
z
M 1373 400 
C 946 400 673 591 736 964 
C 800 1373 1200 1500 1627 1555 
C 1855 1582 2473 1645 2582 1755 
L 2500 1264 
C 2427 827 2009 400 1373 400 
z
" id="Inter-Italic-61" transform="scale(0.015625)"/>
       <path d="M 2300 3491 
L 1552 3491 
L 1691 4327 
L 1155 4327 
L 1016 3491 
L 491 3491 
L 418 3036 
L 941 3036 
L 582 855 
C 482 245 918 -45 1373 -45 
C 1573 -45 1709 -9 1791 18 
L 1755 500 
C 1709 491 1636 473 1518 473 
C 1282 473 1064 545 1136 1000 
L 1475 3036 
L 2227 3036 
L 2300 3491 
z
" id="Inter-Italic-74" transform="scale(0.015625)"/>
       <path d="M 1609 -73 
C 2380 -73 2961 400 3164 1018 
L 2627 1018 
C 2461 636 2107 409 1691 409 
C 1052 409 725 936 864 1745 
C 989 2536 1498 3055 2127 3055 
C 2598 3055 2834 2764 2864 2445 
L 3400 2445 
C 3416 3100 2934 3536 2200 3536 
C 1252 3536 498 2791 327 1727 
C 152 682 625 -73 1609 -73 
z
" id="Inter-Italic-63" transform="scale(0.015625)"/>
       <path d="M 1082 2100 
C 1191 2709 1636 3055 2164 3055 
C 2664 3055 2918 2736 2827 2182 
L 2464 0 
L 3000 0 
L 3373 2218 
C 3518 3118 3109 3536 2400 3536 
C 1846 3536 1491 3309 1273 2945 
L 1227 2945 
L 1509 4655 
L 973 4655 
L 200 0 
L 736 0 
L 1082 2100 
z
" id="Inter-Italic-68" transform="scale(0.015625)"/>
       <path d="M 2609 0 
L -300 0 
L -382 -500 
L 2527 -500 
L 2609 0 
z
" id="Inter-Italic-5f" transform="scale(0.015625)"/>
       <path d="M 200 0 
L 736 0 
L 1100 2209 
C 1182 2682 1609 3027 2118 3027 
C 2264 3027 2409 3000 2446 2991 
L 2536 3536 
C 2473 3545 2336 3545 2255 3545 
C 1836 3545 1427 3309 1246 2964 
L 1209 2964 
L 1300 3491 
L 782 3491 
L 200 0 
z
" id="Inter-Italic-72" transform="scale(0.015625)"/>
       <path d="M 1655 -73 
C 2366 -73 2939 282 3191 809 
L 2700 955 
C 2502 591 2166 409 1736 409 
C 1064 409 705 709 834 1564 
L 3373 1564 
L 3409 1791 
C 3630 3091 2930 3536 2200 3536 
C 1257 3536 502 2791 327 1718 
C 148 645 648 -73 1655 -73 
z
M 2118 3055 
C 2702 3055 3002 2618 2900 2027 
L 909 2027 
C 1016 2523 1532 3055 2118 3055 
z
" id="Inter-Italic-65" transform="scale(0.015625)"/>
       <path d="M 3636 3491 
L 3032 3491 
L 1605 709 
L 1568 709 
L 1068 3491 
L 509 3491 
L 1218 0 
L 1764 0 
L 3636 3491 
z
" id="Inter-Italic-76" transform="scale(0.015625)"/>
       <path d="M 3127 2709 
C 3036 3209 2718 3536 2027 3536 
C 1291 3536 673 3118 573 2527 
C 491 2045 727 1727 1346 1573 
L 1900 1436 
C 2246 1355 2382 1191 2336 945 
C 2291 645 1927 400 1427 400 
C 991 400 746 591 718 964 
L 182 836 
C 209 245 646 -73 1364 -73 
C 2173 -73 2800 373 2900 973 
C 2982 1464 2727 1764 2127 1918 
L 1627 2045 
C 1236 2145 1073 2291 1118 2555 
C 1164 2855 1518 3073 1946 3073 
C 2418 3073 2564 2818 2618 2573 
L 3127 2709 
z
" id="Inter-Italic-73" transform="scale(0.015625)"/>
       <path d="M 1518 -73 
C 2189 -73 2486 345 2636 536 
L 2700 536 
L 2609 0 
L 3127 0 
L 3900 4655 
L 3364 4655 
L 3077 2936 
L 3032 2936 
C 2946 3118 2805 3536 2123 3536 
C 1241 3536 516 2836 332 1736 
C 150 627 643 -73 1518 -73 
z
M 1650 409 
C 977 409 748 1000 873 1745 
C 993 2482 1407 3055 2086 3055 
C 2743 3055 3021 2527 2891 1745 
C 2759 955 2296 409 1650 409 
z
" id="Inter-Italic-64" transform="scale(0.015625)"/>
      </defs>
      <use xlink:href="#Inter-Italic-6d"/>
      <use x="86.931839" xlink:href="#Inter-Italic-61"/>
      <use x="143.323898" xlink:href="#Inter-Italic-74"/>
      <use x="179.687546" xlink:href="#Inter-Italic-63"/>
      <use x="235.511414" xlink:href="#Inter-Italic-68"/>
      <use x="294.602341" xlink:href="#Inter-Italic-5f"/>
      <use x="339.772797" xlink:href="#Inter-Italic-72"/>
      <use x="377.130753" xlink:href="#Inter-Italic-65"/>
      <use x="435.511444" xlink:href="#Inter-Italic-76"/>
      <use x="491.193268" xlink:href="#Inter-Italic-65"/>
      <use x="549.573959" xlink:href="#Inter-Italic-72"/>
      <use x="586.931915" xlink:href="#Inter-Italic-73"/>
      <use x="639.204651" xlink:href="#Inter-Italic-65"/>
      <use x="697.585342" xlink:href="#Inter-Italic-64"/>
     </g>
    </g>
   </g>
   <g id="text_54">
    <g clip-path="url(#p41befe4f7f)">
     <!-- mbacell -->
     <g style="opacity:0.5;" transform="translate(276.612656 291.728314)scale(0.1 -0.1)">
      <defs>
       <path d="M 273 0 
L 791 0 
L 882 536 
L 946 536 
C 1036 345 1191 -73 1864 -73 
C 2736 -73 3464 627 3646 1736 
C 3827 2836 3336 3536 2455 3536 
C 1773 3536 1491 3118 1346 2936 
L 1300 2936 
L 1582 4655 
L 1046 4655 
L 273 0 
z
M 1091 1745 
C 1218 2527 1655 3055 2309 3055 
C 2991 3055 3227 2482 3109 1745 
C 2982 1000 2546 409 1873 409 
C 1227 409 964 955 1091 1745 
z
" id="Inter-Italic-62" transform="scale(0.015625)"/>
       <path d="M 1509 4655 
L 973 4655 
L 200 0 
L 736 0 
L 1509 4655 
z
" id="Inter-Italic-6c" transform="scale(0.015625)"/>
      </defs>
      <use xlink:href="#Inter-Italic-6d"/>
      <use x="86.931839" xlink:href="#Inter-Italic-62"/>
      <use x="149.005722" xlink:href="#Inter-Italic-61"/>
      <use x="205.397781" xlink:href="#Inter-Italic-63"/>
      <use x="261.221649" xlink:href="#Inter-Italic-65"/>
      <use x="319.602341" xlink:href="#Inter-Italic-6c"/>
      <use x="343.323929" xlink:href="#Inter-Italic-6c"/>
     </g>
    </g>
   </g>
   <g id="text_55">
    <g clip-path="url(#p41befe4f7f)">
     <!-- match -->
     <g style="opacity:0.5;" transform="translate(445.659254 291.728314)scale(0.1 -0.1)">
      <use xlink:href="#Inter-Italic-6d"/>
      <use x="86.931839" xlink:href="#Inter-Italic-61"/>
      <use x="143.323898" xlink:href="#Inter-Italic-74"/>
      <use x="179.687546" xlink:href="#Inter-Italic-63"/>
      <use x="235.511414" xlink:href="#Inter-Italic-68"/>
     </g>
    </g>
   </g>
  </g>
 </g>
 <defs>
  <clipPath id="p41befe4f7f">
   <rect height="250.4064" width="514.37" x="37.78" y="51.0736"/>
  </clipPath>
 </defs>
</svg>
