<?xml version="1.0" encoding="utf-8" standalone="no"?>
<!DOCTYPE svg PUBLIC "-//W3C//DTD SVG 1.1//EN"
  "http://www.w3.org/Graphics/SVG/1.1/DTD/svg11.dtd">
<svg height="345.6pt" version="1.1" viewBox="0 0 576 345.6" width="576pt" xmlns="http://www.w3.org/2000/svg" xmlns:xlink="http://www.w3.org/1999/xlink">
 <metadata>
  <rdf:RDF xmlns:cc="http://creativecommons.org/ns#" xmlns:dc="http://purl.org/dc/elements/1.1/" xmlns:rdf="http://www.w3.org/1999/02/22-rdf-syntax-ns#">
   <cc:Work>
    <dc:type rdf:resource="http://purl.org/dc/dcmitype/StillImage"/>
    <dc:date>2021-06-06T23:11:05.508433</dc:date>
    <dc:format>image/svg+xml</dc:format>
    <dc:creator>
     <cc:Agent>
      <dc:title>Matplotlib v3.4.2, https://matplotlib.org/</dc:title>
     </cc:Agent>
    </dc:creator>
   </cc:Work>
  </rdf:RDF>
 </metadata>
 <defs>
  <style type="text/css">*{stroke-linecap:butt;stroke-linejoin:round;}</style>
 </defs>
 <g id="figure_1">
  <g id="patch_1">
   <path d="M 0 345.6 
L 576 345.6 
L 576 0 
L 0 0 
z
" style="fill:#ffffff;"/>
  </g>
  <g id="axes_1">
   <g id="patch_2">
    <path clip-path="url(#p19d22a3943)" d="M 76.376471 265.167674 
L 78.076396 265.167674 
" style="fill:#10b981;stroke:#10b981;stroke-linejoin:miter;stroke-width:6;"/>
   </g>
   <g id="patch_3">
    <path clip-path="url(#p19d22a3943)" d="M 78.076396 265.167674 
L 80.666759 265.167674 
" style="stroke:#000000;stroke-linejoin:miter;"/>
   </g>
   <g id="patch_4">
    <path clip-path="url(#p19d22a3943)" d="M 80.666759 265.167674 
L 84.714202 265.167674 
" style="fill:#ef4444;stroke:#ef4444;stroke-linejoin:miter;stroke-width:6;"/>
   </g>
   <g id="patch_5">
    <path clip-path="url(#p19d22a3943)" d="M 84.714202 265.167674 
L 89.376855 265.167674 
" style="stroke:#000000;stroke-linejoin:miter;"/>
   </g>
   <g id="patch_6">
    <path clip-path="url(#p19d22a3943)" d="M 89.376855 265.167674 
L 91.967218 265.167674 
" style="fill:#10b981;stroke:#10b981;stroke-linejoin:miter;stroke-width:6;"/>
   </g>
   <g id="patch_7">
    <path clip-path="url(#p19d22a3943)" d="M 91.967218 265.167674 
L 96.937477 265.167674 
" style="stroke:#000000;stroke-linejoin:miter;"/>
   </g>
   <g id="patch_8">
    <path clip-path="url(#p19d22a3943)" d="M 96.937477 265.167674 
L 100.175431 265.167674 
" style="fill:#ef4444;stroke:#ef4444;stroke-linejoin:miter;stroke-width:6;"/>
   </g>
   <g id="patch_9">
    <path clip-path="url(#p19d22a3943)" d="M 100.175431 265.167674 
L 106.975134 265.167674 
" style="stroke:#000000;stroke-linejoin:miter;"/>
   </g>
   <g id="patch_10">
    <path clip-path="url(#p19d22a3943)" d="M 106.975134 265.167674 
C 109.28264 265.167674 111.588754 265.054382 113.885148 264.828206 
C 116.181542 264.602031 118.465447 264.263246 120.728615 263.813074 
" style="fill:none;stroke:#fbbf24;stroke-linejoin:miter;stroke-width:6;"/>
   </g>
   <g id="patch_11">
    <path clip-path="url(#p19d22a3943)" d="M 120.728615 263.813074 
L 127.397663 262.486518 
" style="stroke:#000000;stroke-linejoin:miter;"/>
   </g>
   <g id="patch_12">
    <path clip-path="url(#p19d22a3943)" d="M 127.397663 262.486518 
L 131.367335 261.696901 
" style="fill:#ef4444;stroke:#ef4444;stroke-linejoin:miter;stroke-width:6;"/>
   </g>
   <g id="patch_13">
    <path clip-path="url(#p19d22a3943)" d="M 131.367335 261.696901 
L 133.796774 261.213656 
" style="stroke:#000000;stroke-linejoin:miter;"/>
   </g>
   <g id="patch_14">
    <path clip-path="url(#p19d22a3943)" d="M 133.796774 261.213656 
L 136.337364 260.708301 
" style="fill:#10b981;stroke:#10b981;stroke-linejoin:miter;stroke-width:6;"/>
   </g>
   <g id="patch_15">
    <path clip-path="url(#p19d22a3943)" d="M 136.337364 260.708301 
L 138.766803 260.225055 
" style="stroke:#000000;stroke-linejoin:miter;"/>
   </g>
   <g id="patch_16">
    <path clip-path="url(#p19d22a3943)" d="M 138.766803 260.225055 
L 146.706147 258.645822 
" style="fill:#ef4444;stroke:#ef4444;stroke-linejoin:miter;stroke-width:6;"/>
   </g>
   <g id="patch_17">
    <path clip-path="url(#p19d22a3943)" d="M 146.706147 258.645822 
L 149.135586 258.162576 
" style="stroke:#000000;stroke-linejoin:miter;"/>
   </g>
   <g id="patch_18">
    <path clip-path="url(#p19d22a3943)" d="M 149.135586 258.162576 
L 151.676176 257.657221 
" style="fill:#10b981;stroke:#10b981;stroke-linejoin:miter;stroke-width:6;"/>
   </g>
   <g id="patch_19">
    <path clip-path="url(#p19d22a3943)" d="M 151.676176 257.657221 
L 240.78737 239.931903 
" style="stroke:#000000;stroke-linejoin:miter;"/>
   </g>
   <g id="patch_20">
    <path clip-path="url(#p19d22a3943)" d="M 240.78737 239.931903 
L 243.32796 239.426548 
" style="fill:#10b981;stroke:#10b981;stroke-linejoin:miter;stroke-width:6;"/>
   </g>
   <g id="patch_21">
    <path clip-path="url(#p19d22a3943)" d="M 243.32796 239.426548 
L 245.757399 238.943303 
" style="stroke:#000000;stroke-linejoin:miter;"/>
   </g>
   <g id="patch_22">
    <path clip-path="url(#p19d22a3943)" d="M 245.757399 238.943303 
L 253.696742 237.364069 
" style="fill:#ef4444;stroke:#ef4444;stroke-linejoin:miter;stroke-width:6;"/>
   </g>
   <g id="patch_23">
    <path clip-path="url(#p19d22a3943)" d="M 253.696742 237.364069 
L 256.126181 236.880824 
" style="stroke:#000000;stroke-linejoin:miter;"/>
   </g>
   <g id="patch_24">
    <path clip-path="url(#p19d22a3943)" d="M 256.126181 236.880824 
L 258.666771 236.375469 
" style="fill:#10b981;stroke:#10b981;stroke-linejoin:miter;stroke-width:6;"/>
   </g>
   <g id="patch_25">
    <path clip-path="url(#p19d22a3943)" d="M 258.666771 236.375469 
L 261.096211 235.892223 
" style="stroke:#000000;stroke-linejoin:miter;"/>
   </g>
   <g id="patch_26">
    <path clip-path="url(#p19d22a3943)" d="M 261.096211 235.892223 
L 265.065882 235.102606 
" style="fill:#ef4444;stroke:#ef4444;stroke-linejoin:miter;stroke-width:6;"/>
   </g>
   <g id="patch_27">
    <path clip-path="url(#p19d22a3943)" d="M 265.065882 235.102606 
L 271.734931 233.77605 
" style="stroke:#000000;stroke-linejoin:miter;"/>
   </g>
   <g id="patch_28">
    <path clip-path="url(#p19d22a3943)" d="M 271.734931 233.77605 
C 273.998098 233.325878 276.237799 232.764862 278.445944 232.095029 
C 280.654089 231.425196 282.828016 230.647352 284.959873 229.764308 
" style="fill:none;stroke:#fbbf24;stroke-linejoin:miter;stroke-width:6;"/>
   </g>
   <g id="patch_29">
    <path clip-path="url(#p19d22a3943)" d="M 284.959873 229.764308 
L 291.241979 227.162174 
" style="stroke:#000000;stroke-linejoin:miter;"/>
   </g>
   <g id="patch_30">
    <path clip-path="url(#p19d22a3943)" d="M 291.241979 227.162174 
L 294.233459 225.923063 
" style="fill:#ef4444;stroke:#ef4444;stroke-linejoin:miter;stroke-width:6;"/>
   </g>
   <g id="patch_31">
    <path clip-path="url(#p19d22a3943)" d="M 294.233459 225.923063 
L 298.825379 224.021027 
" style="stroke:#000000;stroke-linejoin:miter;"/>
   </g>
   <g id="patch_32">
    <path clip-path="url(#p19d22a3943)" d="M 298.825379 224.021027 
L 301.218563 223.029738 
" style="fill:#10b981;stroke:#10b981;stroke-linejoin:miter;stroke-width:6;"/>
   </g>
   <g id="patch_33">
    <path clip-path="url(#p19d22a3943)" d="M 301.218563 223.029738 
L 305.526293 221.245418 
" style="stroke:#000000;stroke-linejoin:miter;"/>
   </g>
   <g id="patch_34">
    <path clip-path="url(#p19d22a3943)" d="M 305.526293 221.245418 
L 309.265642 219.696529 
" style="fill:#ef4444;stroke:#ef4444;stroke-linejoin:miter;stroke-width:6;"/>
   </g>
   <g id="patch_35">
    <path clip-path="url(#p19d22a3943)" d="M 309.265642 219.696529 
L 311.658825 218.70524 
" style="stroke:#000000;stroke-linejoin:miter;"/>
   </g>
   <g id="patch_36">
    <path clip-path="url(#p19d22a3943)" d="M 311.658825 218.70524 
L 314.799879 217.404173 
" style="fill:#10b981;stroke:#10b981;stroke-linejoin:miter;stroke-width:6;"/>
   </g>
   <g id="patch_37">
    <path clip-path="url(#p19d22a3943)" d="M 314.799879 217.404173 
L 317.193062 216.412884 
" style="stroke:#000000;stroke-linejoin:miter;"/>
   </g>
   <g id="patch_38">
    <path clip-path="url(#p19d22a3943)" d="M 317.193062 216.412884 
L 320.932411 214.863995 
" style="fill:#ef4444;stroke:#ef4444;stroke-linejoin:miter;stroke-width:6;"/>
   </g>
   <g id="patch_39">
    <path clip-path="url(#p19d22a3943)" d="M 320.932411 214.863995 
L 325.240141 213.079674 
" style="stroke:#000000;stroke-linejoin:miter;"/>
   </g>
   <g id="patch_40">
    <path clip-path="url(#p19d22a3943)" d="M 325.240141 213.079674 
L 327.633325 212.088385 
" style="fill:#10b981;stroke:#10b981;stroke-linejoin:miter;stroke-width:6;"/>
   </g>
   <g id="patch_41">
    <path clip-path="url(#p19d22a3943)" d="M 327.633325 212.088385 
L 332.225245 210.18635 
" style="stroke:#000000;stroke-linejoin:miter;"/>
   </g>
   <g id="patch_42">
    <path clip-path="url(#p19d22a3943)" d="M 332.225245 210.18635 
L 335.216725 208.947238 
" style="fill:#ef4444;stroke:#ef4444;stroke-linejoin:miter;stroke-width:6;"/>
   </g>
   <g id="patch_43">
    <path clip-path="url(#p19d22a3943)" d="M 335.216725 208.947238 
L 341.498831 206.345105 
" style="stroke:#000000;stroke-linejoin:miter;"/>
   </g>
   <g id="patch_44">
    <path clip-path="url(#p19d22a3943)" d="M 341.498831 206.345105 
C 343.630688 205.462061 345.717905 204.47488 347.752943 203.38713 
C 349.787981 202.29938 351.768387 201.11237 353.687007 199.830389 
" style="fill:none;stroke:#fbbf24;stroke-linejoin:miter;stroke-width:6;"/>
   </g>
   <g id="patch_45">
    <path clip-path="url(#p19d22a3943)" d="M 353.687007 199.830389 
L 359.340754 196.052676 
" style="stroke:#000000;stroke-linejoin:miter;"/>
   </g>
   <g id="patch_46">
    <path clip-path="url(#p19d22a3943)" d="M 359.340754 196.052676 
L 362.706079 193.804038 
" style="fill:#ef4444;stroke:#ef4444;stroke-linejoin:miter;stroke-width:6;"/>
   </g>
   <g id="patch_47">
    <path clip-path="url(#p19d22a3943)" d="M 362.706079 193.804038 
L 364.765658 192.427871 
" style="stroke:#000000;stroke-linejoin:miter;"/>
   </g>
   <g id="patch_48">
    <path clip-path="url(#p19d22a3943)" d="M 364.765658 192.427871 
L 366.919466 190.988742 
" style="fill:#10b981;stroke:#10b981;stroke-linejoin:miter;stroke-width:6;"/>
   </g>
   <g id="patch_49">
    <path clip-path="url(#p19d22a3943)" d="M 366.919466 190.988742 
L 368.979045 189.612576 
" style="stroke:#000000;stroke-linejoin:miter;"/>
   </g>
   <g id="patch_50">
    <path clip-path="url(#p19d22a3943)" d="M 368.979045 189.612576 
L 375.709696 185.115299 
" style="fill:#ef4444;stroke:#ef4444;stroke-linejoin:miter;stroke-width:6;"/>
   </g>
   <g id="patch_51">
    <path clip-path="url(#p19d22a3943)" d="M 375.709696 185.115299 
L 377.769275 183.739132 
" style="stroke:#000000;stroke-linejoin:miter;"/>
   </g>
   <g id="patch_52">
    <path clip-path="url(#p19d22a3943)" d="M 377.769275 183.739132 
L 379.923083 182.300003 
" style="fill:#10b981;stroke:#10b981;stroke-linejoin:miter;stroke-width:6;"/>
   </g>
   <g id="patch_53">
    <path clip-path="url(#p19d22a3943)" d="M 379.923083 182.300003 
L 381.982662 180.923837 
" style="stroke:#000000;stroke-linejoin:miter;"/>
   </g>
   <g id="patch_54">
    <path clip-path="url(#p19d22a3943)" d="M 381.982662 180.923837 
L 384.674923 179.124926 
" style="fill:#ef4444;stroke:#ef4444;stroke-linejoin:miter;stroke-width:6;"/>
   </g>
   <g id="patch_55">
    <path clip-path="url(#p19d22a3943)" d="M 384.674923 179.124926 
L 450.716066 134.997645 
" style="stroke:#000000;stroke-linejoin:miter;"/>
   </g>
   <g id="patch_56">
    <path clip-path="url(#p19d22a3943)" d="M 450.716066 134.997645 
L 453.408326 133.198734 
" style="fill:#ef4444;stroke:#ef4444;stroke-linejoin:miter;stroke-width:6;"/>
   </g>
   <g id="patch_57">
    <path clip-path="url(#p19d22a3943)" d="M 453.408326 133.198734 
L 455.467905 131.822567 
" style="stroke:#000000;stroke-linejoin:miter;"/>
   </g>
   <g id="patch_58">
    <path clip-path="url(#p19d22a3943)" d="M 455.467905 131.822567 
L 457.621713 130.383438 
" style="fill:#10b981;stroke:#10b981;stroke-linejoin:miter;stroke-width:6;"/>
   </g>
   <g id="patch_59">
    <path clip-path="url(#p19d22a3943)" d="M 457.621713 130.383438 
L 459.681292 129.007272 
" style="stroke:#000000;stroke-linejoin:miter;"/>
   </g>
   <g id="patch_60">
    <path clip-path="url(#p19d22a3943)" d="M 459.681292 129.007272 
L 466.411943 124.509995 
" style="fill:#ef4444;stroke:#ef4444;stroke-linejoin:miter;stroke-width:6;"/>
   </g>
   <g id="patch_61">
    <path clip-path="url(#p19d22a3943)" d="M 466.411943 124.509995 
L 468.471522 123.133828 
" style="stroke:#000000;stroke-linejoin:miter;"/>
   </g>
   <g id="patch_62">
    <path clip-path="url(#p19d22a3943)" d="M 468.471522 123.133828 
L 470.62533 121.694699 
" style="fill:#10b981;stroke:#10b981;stroke-linejoin:miter;stroke-width:6;"/>
   </g>
   <g id="patch_63">
    <path clip-path="url(#p19d22a3943)" d="M 470.62533 121.694699 
L 472.684909 120.318533 
" style="stroke:#000000;stroke-linejoin:miter;"/>
   </g>
   <g id="patch_64">
    <path clip-path="url(#p19d22a3943)" d="M 472.684909 120.318533 
L 476.050235 118.069894 
" style="fill:#ef4444;stroke:#ef4444;stroke-linejoin:miter;stroke-width:6;"/>
   </g>
   <g id="patch_65">
    <path clip-path="url(#p19d22a3943)" d="M 476.050235 118.069894 
L 481.703981 114.292182 
" style="stroke:#000000;stroke-linejoin:miter;"/>
   </g>
   <g id="patch_66">
    <path clip-path="url(#p19d22a3943)" d="M 481.703981 114.292182 
C 483.622602 113.0102 485.477124 111.634793 487.26085 110.170927 
C 489.044575 108.707061 490.755354 107.156502 492.387007 105.524849 
" style="fill:none;stroke:#fbbf24;stroke-linejoin:miter;stroke-width:6;"/>
   </g>
   <g id="patch_67">
    <path clip-path="url(#p19d22a3943)" d="M 492.387007 105.524849 
L 497.195123 100.716733 
" style="stroke:#000000;stroke-linejoin:miter;"/>
   </g>
   <g id="patch_68">
    <path clip-path="url(#p19d22a3943)" d="M 497.195123 100.716733 
L 499.484702 98.427154 
" style="fill:#ef4444;stroke:#ef4444;stroke-linejoin:miter;stroke-width:6;"/>
   </g>
   <g id="patch_69">
    <path clip-path="url(#p19d22a3943)" d="M 499.484702 98.427154 
L 502.999206 94.91265 
" style="stroke:#000000;stroke-linejoin:miter;"/>
   </g>
   <g id="patch_70">
    <path clip-path="url(#p19d22a3943)" d="M 502.999206 94.91265 
L 504.830869 93.080987 
" style="fill:#10b981;stroke:#10b981;stroke-linejoin:miter;stroke-width:6;"/>
   </g>
   <g id="patch_71">
    <path clip-path="url(#p19d22a3943)" d="M 504.830869 93.080987 
L 508.127863 89.783993 
" style="stroke:#000000;stroke-linejoin:miter;"/>
   </g>
   <g id="patch_72">
    <path clip-path="url(#p19d22a3943)" d="M 508.127863 89.783993 
L 510.989837 86.922019 
" style="fill:#ef4444;stroke:#ef4444;stroke-linejoin:miter;stroke-width:6;"/>
   </g>
   <g id="patch_73">
    <path clip-path="url(#p19d22a3943)" d="M 510.989837 86.922019 
L 512.8215 85.090355 
" style="stroke:#000000;stroke-linejoin:miter;"/>
   </g>
   <g id="patch_74">
    <path clip-path="url(#p19d22a3943)" d="M 512.8215 85.090355 
L 514.023529 83.888326 
" style="fill:#10b981;stroke:#10b981;stroke-linejoin:miter;stroke-width:6;"/>
   </g>
   <g id="text_1">
    <!-- q1 -->
    <g transform="translate(79.468762 274.830996)scale(0.06 -0.06)">
     <defs>
      <path d="M 3409 -1309 
L 3409 3491 
L 2891 3491 
L 2891 2936 
L 2827 2936 
C 2709 3118 2500 3536 1818 3536 
C 936 3536 327 2836 327 1736 
C 327 627 936 -73 1809 -73 
C 2482 -73 2709 345 2827 536 
L 2873 536 
L 2873 -1309 
L 3409 -1309 
z
M 2882 1745 
C 2882 955 2527 409 1882 409 
C 1209 409 864 1000 864 1745 
C 864 2482 1200 3055 1882 3055 
C 2536 3055 2882 2527 2882 1745 
z
" id="Inter-Regular-71" transform="scale(0.015625)"/>
      <path d="M 2118 4655 
L 1555 4655 
L 391 3882 
L 391 3309 
L 1527 4064 
L 1555 4064 
L 1555 0 
L 2118 0 
L 2118 4655 
z
" id="Inter-Regular-31" transform="scale(0.015625)"/>
     </defs>
     <use xlink:href="#Inter-Regular-71"/>
     <use x="60.937515" xlink:href="#Inter-Regular-31"/>
    </g>
   </g>
   <g id="text_2">
    <!-- q2 -->
    <g transform="translate(94.912861 258.670758)scale(0.06 -0.06)">
     <defs>
      <path d="M 482 0 
L 3418 0 
L 3418 500 
L 1255 500 
L 1255 536 
L 2300 1655 
C 3100 2511 3336 2911 3336 3427 
C 3336 4145 2755 4718 1936 4718 
C 1121 4718 500 4164 500 3345 
L 1036 3345 
C 1036 3875 1380 4227 1918 4227 
C 2423 4227 2809 3918 2809 3427 
C 2809 2998 2557 2680 2018 2091 
L 482 409 
L 482 0 
z
" id="Inter-Regular-32" transform="scale(0.015625)"/>
     </defs>
     <use xlink:href="#Inter-Regular-71"/>
     <use x="60.937515" xlink:href="#Inter-Regular-32"/>
    </g>
   </g>
   <g id="text_3">
    <!-- b -->
    <g transform="translate(112.782968 274.114717)scale(0.06 -0.06)">
     <defs>
      <path d="M 564 0 
L 1082 0 
L 1082 536 
L 1146 536 
C 1264 345 1491 -73 2164 -73 
C 3036 -73 3646 627 3646 1736 
C 3646 2836 3036 3536 2155 3536 
C 1473 3536 1264 3118 1146 2936 
L 1100 2936 
L 1100 4655 
L 564 4655 
L 564 0 
z
M 1091 1745 
C 1091 2527 1436 3055 2091 3055 
C 2773 3055 3109 2482 3109 1745 
C 3109 1000 2764 409 2091 409 
C 1446 409 1091 955 1091 1745 
z
" id="Inter-Regular-62" transform="scale(0.015625)"/>
     </defs>
     <use xlink:href="#Inter-Regular-62"/>
    </g>
   </g>
   <g id="text_4">
    <!-- q3d -->
    <g transform="translate(122.203578 255.750334)scale(0.06 -0.06)">
     <defs>
      <path d="M 2055 -64 
C 2957 -64 3627 502 3627 1264 
C 3627 1855 3277 2284 2691 2382 
L 2691 2418 
C 3161 2561 3455 2948 3455 3473 
C 3455 4132 2934 4718 2073 4718 
C 1268 4718 600 4223 573 3491 
L 1118 3491 
C 1139 3955 1580 4227 2064 4227 
C 2577 4227 2909 3916 2909 3445 
C 2909 2955 2525 2636 1973 2636 
L 1600 2636 
L 1600 2136 
L 1973 2136 
C 2680 2136 3073 1777 3073 1264 
C 3073 770 2643 436 2046 436 
C 1507 436 1080 714 1046 1164 
L 473 1164 
C 507 432 1152 -64 2055 -64 
z
" id="Inter-Regular-33" transform="scale(0.015625)"/>
      <path d="M 1809 -73 
C 2482 -73 2709 345 2827 536 
L 2891 536 
L 2891 0 
L 3409 0 
L 3409 4655 
L 2873 4655 
L 2873 2936 
L 2827 2936 
C 2709 3118 2500 3536 1818 3536 
C 936 3536 327 2836 327 1736 
C 327 627 936 -73 1809 -73 
z
M 1882 409 
C 1209 409 864 1000 864 1745 
C 864 2482 1200 3055 1882 3055 
C 2536 3055 2882 2527 2882 1745 
C 2882 955 2527 409 1882 409 
z
" id="Inter-Regular-64" transform="scale(0.015625)"/>
     </defs>
     <use xlink:href="#Inter-Regular-71"/>
     <use x="60.937515" xlink:href="#Inter-Regular-33"/>
     <use x="124.573898" xlink:href="#Inter-Regular-64"/>
    </g>
   </g>
   <g id="text_5">
    <!-- q4d -->
    <g transform="translate(138.699146 268.94322)scale(0.06 -0.06)">
     <defs>
      <path d="M 373 955 
L 2564 955 
L 2564 0 
L 3100 0 
L 3100 955 
L 3736 955 
L 3736 1455 
L 3100 1455 
L 3100 4655 
L 2418 4655 
L 373 1418 
L 373 955 
z
M 982 1455 
L 982 1491 
L 2527 3936 
L 2564 3936 
L 2564 1455 
L 982 1455 
z
" id="Inter-Regular-34" transform="scale(0.015625)"/>
     </defs>
     <use xlink:href="#Inter-Regular-71"/>
     <use x="60.937515" xlink:href="#Inter-Regular-34"/>
     <use x="125.142075" xlink:href="#Inter-Regular-64"/>
    </g>
   </g>
   <g id="text_6">
    <!-- q4d -->
    <g transform="translate(242.531274 231.78278)scale(0.06 -0.06)">
     <use xlink:href="#Inter-Regular-71"/>
     <use x="60.937515" xlink:href="#Inter-Regular-34"/>
     <use x="125.142075" xlink:href="#Inter-Regular-64"/>
    </g>
   </g>
   <g id="text_7">
    <!-- q3d -->
    <g transform="translate(259.060593 245.034727)scale(0.06 -0.06)">
     <use xlink:href="#Inter-Regular-71"/>
     <use x="60.937515" xlink:href="#Inter-Regular-33"/>
     <use x="124.573898" xlink:href="#Inter-Regular-64"/>
    </g>
   </g>
   <g id="text_8">
    <!-- b -->
    <g transform="translate(274.135237 225.592295)scale(0.06 -0.06)">
     <use xlink:href="#Inter-Regular-62"/>
    </g>
   </g>
   <g id="text_9">
    <!-- q2 -->
    <g transform="translate(292.191903 235.619286)scale(0.06 -0.06)">
     <use xlink:href="#Inter-Regular-71"/>
     <use x="60.937515" xlink:href="#Inter-Regular-32"/>
    </g>
   </g>
   <g id="text_10">
    <!-- q1 -->
    <g transform="translate(301.07647 214.560713)scale(0.06 -0.06)">
     <use xlink:href="#Inter-Regular-71"/>
     <use x="60.937515" xlink:href="#Inter-Regular-31"/>
    </g>
   </g>
   <g id="text_11">
    <!-- q1 -->
    <g transform="translate(318.938796 224.685575)scale(0.06 -0.06)">
     <use xlink:href="#Inter-Regular-71"/>
     <use x="60.937515" xlink:href="#Inter-Regular-31"/>
    </g>
   </g>
   <g id="text_12">
    <!-- q2 -->
    <g transform="translate(326.979613 203.686064)scale(0.06 -0.06)">
     <use xlink:href="#Inter-Regular-71"/>
     <use x="60.937515" xlink:href="#Inter-Regular-32"/>
    </g>
   </g>
   <g id="text_13">
    <!-- b -->
    <g transform="translate(349.546478 211.795235)scale(0.06 -0.06)">
     <use xlink:href="#Inter-Regular-62"/>
    </g>
   </g>
   <g id="text_14">
    <!-- q3t -->
    <g transform="translate(351.698015 189.795675)scale(0.06 -0.06)">
     <defs>
      <path d="M 2009 3491 
L 1264 3491 
L 1264 4327 
L 727 4327 
L 727 3491 
L 200 3491 
L 200 3036 
L 727 3036 
L 727 855 
C 727 245 1218 -45 1673 -45 
C 1873 -45 2000 -9 2073 18 
L 1964 500 
C 1918 491 1846 473 1727 473 
C 1491 473 1264 545 1264 1000 
L 1264 3036 
L 2009 3036 
L 2009 3491 
z
" id="Inter-Regular-74" transform="scale(0.015625)"/>
     </defs>
     <use xlink:href="#Inter-Regular-71"/>
     <use x="60.937515" xlink:href="#Inter-Regular-33"/>
     <use x="124.573898" xlink:href="#Inter-Regular-74"/>
    </g>
   </g>
   <g id="text_15">
    <!-- q4t -->
    <g transform="translate(371.996648 195.663025)scale(0.06 -0.06)">
     <use xlink:href="#Inter-Regular-71"/>
     <use x="60.937515" xlink:href="#Inter-Regular-34"/>
     <use x="125.142075" xlink:href="#Inter-Regular-74"/>
    </g>
   </g>
   <g id="text_16">
    <!-- q5t -->
    <g transform="translate(374.088703 174.862168)scale(0.06 -0.06)">
     <defs>
      <path d="M 1936 -64 
C 2823 -64 3473 591 3473 1482 
C 3473 2384 2846 3045 1991 3045 
C 1677 3045 1373 2934 1182 2782 
L 1155 2782 
L 1318 4155 
L 3264 4155 
L 3264 4655 
L 846 4655 
L 564 2364 
L 1091 2300 
C 1284 2439 1614 2539 1900 2536 
C 2493 2532 2927 2082 2927 1473 
C 2927 875 2509 436 1936 436 
C 1459 436 1080 743 1036 1164 
L 491 1164 
C 525 455 1136 -64 1936 -64 
z
" id="Inter-Regular-35" transform="scale(0.015625)"/>
     </defs>
     <use xlink:href="#Inter-Regular-71"/>
     <use x="60.937515" xlink:href="#Inter-Regular-35"/>
     <use x="121.732986" xlink:href="#Inter-Regular-74"/>
    </g>
   </g>
   <g id="text_17">
    <!-- q5t -->
    <g transform="translate(451.81666 142.397277)scale(0.06 -0.06)">
     <use xlink:href="#Inter-Regular-71"/>
     <use x="60.937515" xlink:href="#Inter-Regular-35"/>
     <use x="121.732986" xlink:href="#Inter-Regular-74"/>
    </g>
   </g>
   <g id="text_18">
    <!-- q4t -->
    <g transform="translate(453.704341 121.59642)scale(0.06 -0.06)">
     <use xlink:href="#Inter-Regular-71"/>
     <use x="60.937515" xlink:href="#Inter-Regular-34"/>
     <use x="125.142075" xlink:href="#Inter-Regular-74"/>
    </g>
   </g>
   <g id="text_19">
    <!-- q3t -->
    <g transform="translate(474.036724 127.522833)scale(0.06 -0.06)">
     <use xlink:href="#Inter-Regular-71"/>
     <use x="60.937515" xlink:href="#Inter-Regular-33"/>
     <use x="124.573898" xlink:href="#Inter-Regular-74"/>
    </g>
   </g>
   <g id="text_20">
    <!-- b -->
    <g transform="translate(480.04781 105.219522)scale(0.06 -0.06)">
     <use xlink:href="#Inter-Regular-62"/>
    </g>
   </g>
   <g id="text_21">
    <!-- q2 -->
    <g transform="translate(500.420266 106.89386)scale(0.06 -0.06)">
     <use xlink:href="#Inter-Regular-71"/>
     <use x="60.937515" xlink:href="#Inter-Regular-32"/>
    </g>
   </g>
   <g id="text_22">
    <!-- q1 -->
    <g transform="translate(500.613184 84.197495)scale(0.06 -0.06)">
     <use xlink:href="#Inter-Regular-71"/>
     <use x="60.937515" xlink:href="#Inter-Regular-31"/>
    </g>
   </g>
  </g>
 </g>
 <defs>
  <clipPath id="p19d22a3943">
   <rect height="190.032288" width="446.4" x="72" y="79.511856"/>
  </clipPath>
 </defs>
</svg>
