<?xml version="1.0" encoding="utf-8" standalone="no"?>
<!DOCTYPE svg PUBLIC "-//W3C//DTD SVG 1.1//EN"
  "http://www.w3.org/Graphics/SVG/1.1/DTD/svg11.dtd">
<svg height="345.6pt" version="1.1" viewBox="0 0 576 345.6" width="576pt" xmlns="http://www.w3.org/2000/svg" xmlns:xlink="http://www.w3.org/1999/xlink">
 <metadata>
  <rdf:RDF xmlns:cc="http://creativecommons.org/ns#" xmlns:dc="http://purl.org/dc/elements/1.1/" xmlns:rdf="http://www.w3.org/1999/02/22-rdf-syntax-ns#">
   <cc:Work>
    <dc:type rdf:resource="http://purl.org/dc/dcmitype/StillImage"/>
    <dc:date>2021-06-06T23:11:05.380474</dc:date>
    <dc:format>image/svg+xml</dc:format>
    <dc:creator>
     <cc:Agent>
      <dc:title>Matplotlib v3.4.2, https://matplotlib.org/</dc:title>
     </cc:Agent>
    </dc:creator>
   </cc:Work>
  </rdf:RDF>
 </metadata>
 <defs>
  <style type="text/css">*{stroke-linecap:butt;stroke-linejoin:round;}</style>
 </defs>
 <g id="figure_1">
  <g id="patch_1">
   <path d="M 0 345.6 
L 576 345.6 
L 576 0 
L 0 0 
z
" style="fill:#ffffff;"/>
  </g>
  <g id="axes_1">
   <g id="patch_2">
    <path d="M 30.13 301.48 
L 558.9 301.48 
L 558.9 51.0736 
L 30.13 51.0736 
z
" style="fill:#ffffff;"/>
   </g>
   <g id="matplotlib.axis_1">
    <g id="xtick_1">
     <g id="line2d_1">
      <path clip-path="url(#pdd8eb77551)" d="M 30.13 301.48 
L 30.13 51.0736 
" style="fill:none;stroke:#e5e7eb;stroke-dasharray:3.7,1.6;stroke-dashoffset:0;"/>
     </g>
     <g id="line2d_2">
      <defs>
       <path d="M 0 0 
L 0 3.5 
" id="ma13629acb0" style="stroke:#000000;stroke-width:0.8;"/>
      </defs>
      <g>
       <use style="stroke:#000000;stroke-width:0.8;" x="30.13" xlink:href="#ma13629acb0" y="301.48"/>
      </g>
     </g>
     <g id="text_1">
      <!-- 0 -->
      <g transform="translate(27.005 315.753437)scale(0.1 -0.1)">
       <defs>
        <path d="M 2000 -64 
C 3027 -64 3618 807 3618 2327 
C 3618 3836 3018 4718 2000 4718 
C 982 4718 382 3836 382 2327 
C 382 807 973 -64 2000 -64 
z
M 2000 436 
C 1323 436 927 1116 927 2327 
C 927 3536 1327 4227 2000 4227 
C 2673 4227 3073 3536 3073 2327 
C 3073 1116 2677 436 2000 436 
z
" id="Inter-Regular-30" transform="scale(0.015625)"/>
       </defs>
       <use xlink:href="#Inter-Regular-30"/>
      </g>
     </g>
    </g>
    <g id="xtick_2">
     <g id="line2d_3">
      <path clip-path="url(#pdd8eb77551)" d="M 294.515 301.48 
L 294.515 51.0736 
" style="fill:none;stroke:#e5e7eb;stroke-dasharray:3.7,1.6;stroke-dashoffset:0;"/>
     </g>
     <g id="line2d_4">
      <g>
       <use style="stroke:#000000;stroke-width:0.8;" x="294.515" xlink:href="#ma13629acb0" y="301.48"/>
      </g>
     </g>
     <g id="text_2">
      <!-- 15 -->
      <g transform="translate(289.1525 315.753437)scale(0.1 -0.1)">
       <defs>
        <path d="M 2118 4655 
L 1555 4655 
L 391 3882 
L 391 3309 
L 1527 4064 
L 1555 4064 
L 1555 0 
L 2118 0 
L 2118 4655 
z
" id="Inter-Regular-31" transform="scale(0.015625)"/>
        <path d="M 1936 -64 
C 2823 -64 3473 591 3473 1482 
C 3473 2384 2846 3045 1991 3045 
C 1677 3045 1373 2934 1182 2782 
L 1155 2782 
L 1318 4155 
L 3264 4155 
L 3264 4655 
L 846 4655 
L 564 2364 
L 1091 2300 
C 1284 2439 1614 2539 1900 2536 
C 2493 2532 2927 2082 2927 1473 
C 2927 875 2509 436 1936 436 
C 1459 436 1080 743 1036 1164 
L 491 1164 
C 525 455 1136 -64 1936 -64 
z
" id="Inter-Regular-35" transform="scale(0.015625)"/>
       </defs>
       <use xlink:href="#Inter-Regular-31"/>
       <use x="46.448868" xlink:href="#Inter-Regular-35"/>
      </g>
     </g>
    </g>
    <g id="xtick_3">
     <g id="line2d_5">
      <path clip-path="url(#pdd8eb77551)" d="M 558.9 301.48 
L 558.9 51.0736 
" style="fill:none;stroke:#e5e7eb;stroke-dasharray:3.7,1.6;stroke-dashoffset:0;"/>
     </g>
     <g id="line2d_6">
      <g>
       <use style="stroke:#000000;stroke-width:0.8;" x="558.9" xlink:href="#ma13629acb0" y="301.48"/>
      </g>
     </g>
     <g id="text_3">
      <!-- 30 -->
      <g transform="translate(552.592969 315.753437)scale(0.1 -0.1)">
       <defs>
        <path d="M 2055 -64 
C 2957 -64 3627 502 3627 1264 
C 3627 1855 3277 2284 2691 2382 
L 2691 2418 
C 3161 2561 3455 2948 3455 3473 
C 3455 4132 2934 4718 2073 4718 
C 1268 4718 600 4223 573 3491 
L 1118 3491 
C 1139 3955 1580 4227 2064 4227 
C 2577 4227 2909 3916 2909 3445 
C 2909 2955 2525 2636 1973 2636 
L 1600 2636 
L 1600 2136 
L 1973 2136 
C 2680 2136 3073 1777 3073 1264 
C 3073 770 2643 436 2046 436 
C 1507 436 1080 714 1046 1164 
L 473 1164 
C 507 432 1152 -64 2055 -64 
z
" id="Inter-Regular-33" transform="scale(0.015625)"/>
       </defs>
       <use xlink:href="#Inter-Regular-33"/>
       <use x="63.636383" xlink:href="#Inter-Regular-30"/>
      </g>
     </g>
    </g>
    <g id="text_4">
     <!-- Orbit Position $s$ / m -->
     <g transform="translate(249.465 329.072187)scale(0.1 -0.1)">
      <defs>
       <path d="M 4491 2327 
C 4491 3800 3627 4718 2436 4718 
C 1246 4718 382 3800 382 2327 
C 382 855 1246 -64 2436 -64 
C 3627 -64 4491 855 4491 2327 
z
M 3946 2327 
C 3946 1118 3282 464 2436 464 
C 1591 464 927 1118 927 2327 
C 927 3536 1591 4191 2436 4191 
C 3282 4191 3946 3536 3946 2327 
z
" id="Inter-Regular-4f" transform="scale(0.015625)"/>
       <path d="M 491 0 
L 1027 0 
L 1027 2209 
C 1027 2682 1400 3027 1909 3027 
C 2052 3027 2200 3000 2236 2991 
L 2236 3536 
C 2175 3541 2034 3545 1955 3545 
C 1536 3545 1173 3309 1046 2964 
L 1009 2964 
L 1009 3491 
L 491 3491 
L 491 0 
z
" id="Inter-Regular-72" transform="scale(0.015625)"/>
       <path d="M 564 0 
L 1082 0 
L 1082 536 
L 1146 536 
C 1264 345 1491 -73 2164 -73 
C 3036 -73 3646 627 3646 1736 
C 3646 2836 3036 3536 2155 3536 
C 1473 3536 1264 3118 1146 2936 
L 1100 2936 
L 1100 4655 
L 564 4655 
L 564 0 
z
M 1091 1745 
C 1091 2527 1436 3055 2091 3055 
C 2773 3055 3109 2482 3109 1745 
C 3109 1000 2764 409 2091 409 
C 1446 409 1091 955 1091 1745 
z
" id="Inter-Regular-62" transform="scale(0.015625)"/>
       <path d="M 764 4073 
C 973 4073 1146 4236 1146 4436 
C 1146 4636 973 4800 764 4800 
C 555 4800 382 4636 382 4436 
C 382 4236 555 4073 764 4073 
z
M 491 0 
L 1027 0 
L 1027 3491 
L 491 3491 
L 491 0 
z
" id="Inter-Regular-69" transform="scale(0.015625)"/>
       <path d="M 2009 3491 
L 1264 3491 
L 1264 4327 
L 727 4327 
L 727 3491 
L 200 3491 
L 200 3036 
L 727 3036 
L 727 855 
C 727 245 1218 -45 1673 -45 
C 1873 -45 2000 -9 2073 18 
L 1964 500 
C 1918 491 1846 473 1727 473 
C 1491 473 1264 545 1264 1000 
L 1264 3036 
L 2009 3036 
L 2009 3491 
z
" id="Inter-Regular-74" transform="scale(0.015625)"/>
       <path id="Inter-Regular-20" transform="scale(0.015625)"/>
       <path d="M 564 0 
L 1127 0 
L 1127 1700 
L 2146 1700 
C 3230 1700 3718 2359 3718 3182 
C 3718 4005 3230 4655 2136 4655 
L 564 4655 
L 564 0 
z
M 2118 4155 
C 2875 4155 3164 3741 3164 3182 
C 3164 2623 2875 2200 2127 2200 
L 1127 2200 
L 1127 4155 
L 2118 4155 
z
" id="Inter-Regular-50" transform="scale(0.015625)"/>
       <path d="M 1909 -73 
C 2855 -73 3491 645 3491 1727 
C 3491 2818 2855 3536 1909 3536 
C 964 3536 327 2818 327 1727 
C 327 645 964 -73 1909 -73 
z
M 1909 409 
C 1191 409 864 1027 864 1727 
C 864 2427 1191 3055 1909 3055 
C 2627 3055 2955 2427 2955 1727 
C 2955 1027 2627 409 1909 409 
z
" id="Inter-Regular-6f" transform="scale(0.015625)"/>
       <path d="M 2964 2709 
C 2796 3205 2418 3536 1727 3536 
C 991 3536 446 3118 446 2527 
C 446 2045 732 1723 1373 1573 
L 1955 1436 
C 2307 1355 2473 1186 2473 945 
C 2473 645 2155 400 1655 400 
C 1216 400 941 589 846 964 
L 336 836 
C 461 243 950 -73 1664 -73 
C 2475 -73 3027 370 3027 973 
C 3027 1459 2723 1766 2100 1918 
L 1582 2045 
C 1168 2148 982 2286 982 2555 
C 982 2855 1300 3073 1727 3073 
C 2196 3073 2389 2814 2482 2573 
L 2964 2709 
z
" id="Inter-Regular-73" transform="scale(0.015625)"/>
       <path d="M 1027 2100 
C 1027 2709 1405 3055 1918 3055 
C 2416 3055 2718 2730 2718 2182 
L 2718 0 
L 3255 0 
L 3255 2218 
C 3255 3109 2780 3536 2073 3536 
C 1546 3536 1218 3300 1055 2945 
L 1009 2945 
L 1009 3491 
L 491 3491 
L 491 0 
L 1027 0 
L 1027 2100 
z
" id="Inter-Regular-6e" transform="scale(0.015625)"/>
       <path d="M 3200 3397 
L 3091 2853 
Q 2863 2978 2609 3040 
Q 2356 3103 2088 3103 
Q 1634 3103 1373 2948 
Q 1113 2794 1113 2528 
Q 1113 2219 1719 2053 
Q 1766 2041 1788 2034 
L 1972 1978 
Q 2547 1819 2739 1644 
Q 2931 1469 2931 1166 
Q 2931 609 2489 259 
Q 2047 -91 1331 -91 
Q 1053 -91 747 -37 
Q 441 16 72 128 
L 184 722 
Q 500 559 806 475 
Q 1113 391 1394 391 
Q 1816 391 2080 572 
Q 2344 753 2344 1031 
Q 2344 1331 1650 1516 
L 1591 1531 
L 1394 1581 
Q 956 1697 753 1886 
Q 550 2075 550 2369 
Q 550 2928 970 3256 
Q 1391 3584 2113 3584 
Q 2397 3584 2667 3537 
Q 2938 3491 3200 3397 
z
" id="DejaVuSans-Oblique-73" transform="scale(0.015625)"/>
       <path d="M 2136 4873 
L 1646 4873 
L 146 -700 
L 636 -700 
L 2136 4873 
z
" id="Inter-Regular-2f" transform="scale(0.015625)"/>
       <path d="M 491 0 
L 1027 0 
L 1027 2182 
C 1027 2693 1400 3055 1818 3055 
C 2225 3055 2509 2789 2509 2391 
L 2509 0 
L 3055 0 
L 3055 2273 
C 3055 2723 3336 3055 3827 3055 
C 4209 3055 4536 2852 4536 2336 
L 4536 0 
L 5073 0 
L 5073 2336 
C 5073 3157 4632 3536 4009 3536 
C 3509 3536 3143 3307 2964 2945 
L 2927 2945 
C 2755 3318 2450 3536 1991 3536 
C 1536 3536 1200 3318 1055 2945 
L 1009 2945 
L 1009 3491 
L 491 3491 
L 491 0 
z
" id="Inter-Regular-6d" transform="scale(0.015625)"/>
      </defs>
      <use transform="translate(0 0.859375)" xlink:href="#Inter-Regular-4f"/>
      <use transform="translate(76.136383 0.859375)" xlink:href="#Inter-Regular-72"/>
      <use transform="translate(113.352295 0.859375)" xlink:href="#Inter-Regular-62"/>
      <use transform="translate(175.426178 0.859375)" xlink:href="#Inter-Regular-69"/>
      <use transform="translate(199.147766 0.859375)" xlink:href="#Inter-Regular-74"/>
      <use transform="translate(235.511414 0.859375)" xlink:href="#Inter-Regular-20"/>
      <use transform="translate(263.636414 0.859375)" xlink:href="#Inter-Regular-50"/>
      <use transform="translate(327.130737 0.859375)" xlink:href="#Inter-Regular-6f"/>
      <use transform="translate(386.789841 0.859375)" xlink:href="#Inter-Regular-73"/>
      <use transform="translate(439.062576 0.859375)" xlink:href="#Inter-Regular-69"/>
      <use transform="translate(462.784164 0.859375)" xlink:href="#Inter-Regular-74"/>
      <use transform="translate(499.147812 0.859375)" xlink:href="#Inter-Regular-69"/>
      <use transform="translate(522.8694 0.859375)" xlink:href="#Inter-Regular-6f"/>
      <use transform="translate(582.528503 0.859375)" xlink:href="#Inter-Regular-6e"/>
      <use transform="translate(641.051239 0.859375)" xlink:href="#Inter-Regular-20"/>
      <use transform="translate(669.176239 0.859375)" xlink:href="#DejaVuSans-Oblique-73"/>
      <use transform="translate(721.275848 0.859375)" xlink:href="#Inter-Regular-20"/>
      <use transform="translate(749.400848 0.859375)" xlink:href="#Inter-Regular-2f"/>
      <use transform="translate(785.05426 0.859375)" xlink:href="#Inter-Regular-20"/>
      <use transform="translate(813.17926 0.859375)" xlink:href="#Inter-Regular-6d"/>
     </g>
    </g>
   </g>
   <g id="matplotlib.axis_2">
    <g id="ytick_1">
     <g id="line2d_7">
      <path clip-path="url(#pdd8eb77551)" d="M 30.13 272.864084 
L 558.9 272.864084 
" style="fill:none;stroke:#e5e7eb;stroke-dasharray:3.7,1.6;stroke-dashoffset:0;"/>
     </g>
     <g id="line2d_8">
      <defs>
       <path d="M 0 0 
L -3.5 0 
" id="m89b604bfec" style="stroke:#000000;stroke-width:0.8;"/>
      </defs>
      <g>
       <use style="stroke:#000000;stroke-width:0.8;" x="30.13" xlink:href="#m89b604bfec" y="272.864084"/>
      </g>
     </g>
     <g id="text_5">
      <!-- 0 -->
      <g transform="translate(16.88 276.500802)scale(0.1 -0.1)">
       <use xlink:href="#Inter-Regular-30"/>
      </g>
     </g>
    </g>
    <g id="ytick_2">
     <g id="line2d_9">
      <path clip-path="url(#pdd8eb77551)" d="M 30.13 225.290437 
L 558.9 225.290437 
" style="fill:none;stroke:#e5e7eb;stroke-dasharray:3.7,1.6;stroke-dashoffset:0;"/>
     </g>
     <g id="line2d_10">
      <g>
       <use style="stroke:#000000;stroke-width:0.8;" x="30.13" xlink:href="#m89b604bfec" y="225.290437"/>
      </g>
     </g>
     <g id="text_6">
      <!-- 5 -->
      <g transform="translate(17.050313 228.927156)scale(0.1 -0.1)">
       <use xlink:href="#Inter-Regular-35"/>
      </g>
     </g>
    </g>
    <g id="ytick_3">
     <g id="line2d_11">
      <path clip-path="url(#pdd8eb77551)" d="M 30.13 177.71679 
L 558.9 177.71679 
" style="fill:none;stroke:#e5e7eb;stroke-dasharray:3.7,1.6;stroke-dashoffset:0;"/>
     </g>
     <g id="line2d_12">
      <g>
       <use style="stroke:#000000;stroke-width:0.8;" x="30.13" xlink:href="#m89b604bfec" y="177.71679"/>
      </g>
     </g>
     <g id="text_7">
      <!-- 10 -->
      <g transform="translate(12.234688 181.353509)scale(0.1 -0.1)">
       <use xlink:href="#Inter-Regular-31"/>
       <use x="46.448868" xlink:href="#Inter-Regular-30"/>
      </g>
     </g>
    </g>
    <g id="ytick_4">
     <g id="line2d_13">
      <path clip-path="url(#pdd8eb77551)" d="M 30.13 130.143144 
L 558.9 130.143144 
" style="fill:none;stroke:#e5e7eb;stroke-dasharray:3.7,1.6;stroke-dashoffset:0;"/>
     </g>
     <g id="line2d_14">
      <g>
       <use style="stroke:#000000;stroke-width:0.8;" x="30.13" xlink:href="#m89b604bfec" y="130.143144"/>
      </g>
     </g>
     <g id="text_8">
      <!-- 15 -->
      <g transform="translate(12.405 133.779863)scale(0.1 -0.1)">
       <use xlink:href="#Inter-Regular-31"/>
       <use x="46.448868" xlink:href="#Inter-Regular-35"/>
      </g>
     </g>
    </g>
    <g id="ytick_5">
     <g id="line2d_15">
      <path clip-path="url(#pdd8eb77551)" d="M 30.13 82.569497 
L 558.9 82.569497 
" style="fill:none;stroke:#e5e7eb;stroke-dasharray:3.7,1.6;stroke-dashoffset:0;"/>
     </g>
     <g id="line2d_16">
      <g>
       <use style="stroke:#000000;stroke-width:0.8;" x="30.13" xlink:href="#m89b604bfec" y="82.569497"/>
      </g>
     </g>
     <g id="text_9">
      <!-- 20 -->
      <g transform="translate(10.828438 86.206216)scale(0.1 -0.1)">
       <defs>
        <path d="M 482 0 
L 3418 0 
L 3418 500 
L 1255 500 
L 1255 536 
L 2300 1655 
C 3100 2511 3336 2911 3336 3427 
C 3336 4145 2755 4718 1936 4718 
C 1121 4718 500 4164 500 3345 
L 1036 3345 
C 1036 3875 1380 4227 1918 4227 
C 2423 4227 2809 3918 2809 3427 
C 2809 2998 2557 2680 2018 2091 
L 482 409 
L 482 0 
z
" id="Inter-Regular-32" transform="scale(0.015625)"/>
       </defs>
       <use xlink:href="#Inter-Regular-32"/>
       <use x="60.511383" xlink:href="#Inter-Regular-30"/>
      </g>
     </g>
    </g>
   </g>
   <g id="patch_3">
    <path d="M 30.13 301.48 
L 30.13 51.0736 
" style="fill:none;stroke:#000000;stroke-linecap:square;stroke-linejoin:miter;stroke-width:0.8;"/>
   </g>
   <g id="patch_4">
    <path d="M 558.9 301.48 
L 558.9 51.0736 
" style="fill:none;stroke:#000000;stroke-linecap:square;stroke-linejoin:miter;stroke-width:0.8;"/>
   </g>
   <g id="patch_5">
    <path d="M 30.13 301.48 
L 558.9 301.48 
" style="fill:none;stroke:#000000;stroke-linecap:square;stroke-linejoin:miter;stroke-width:0.8;"/>
   </g>
   <g id="patch_6">
    <path d="M 30.13 51.0736 
L 558.9 51.0736 
" style="fill:none;stroke:#000000;stroke-linecap:square;stroke-linejoin:miter;stroke-width:0.8;"/>
   </g>
   <g id="legend_1">
    <g id="line2d_17">
     <path d="M 39.13 22.95328 
L 59.13 22.95328 
" style="fill:none;stroke:#ef4444;stroke-linecap:square;stroke-width:1.3;"/>
    </g>
    <g id="line2d_18"/>
    <g id="text_10">
     <!-- $\beta_x$ / m -->
     <g transform="translate(67.13 26.45328)scale(0.1 -0.1)">
      <defs>
       <path d="M 872 216 
L 572 -1331 
L -6 -1331 
L 928 3478 
Q 1206 4903 2538 4903 
Q 3888 4903 3659 3700 
Q 3503 2844 2894 2531 
Q 3713 2250 3553 1416 
Q 3272 -69 1759 -66 
Q 1097 -63 872 216 
z
M 1019 966 
Q 1259 422 1875 425 
Q 2775 425 2966 1406 
Q 3138 2288 1675 2219 
L 1778 2750 
Q 2909 2731 3106 3750 
Q 3241 4438 2509 4434 
Q 1691 4434 1503 3459 
L 1019 966 
z
" id="DejaVuSans-Oblique-3b2" transform="scale(0.015625)"/>
       <path d="M 3841 3500 
L 2234 1784 
L 3219 0 
L 2559 0 
L 1819 1388 
L 531 0 
L -166 0 
L 1556 1844 
L 641 3500 
L 1300 3500 
L 1972 2234 
L 3144 3500 
L 3841 3500 
z
" id="DejaVuSans-Oblique-78" transform="scale(0.015625)"/>
      </defs>
      <use transform="translate(0 0.390625)" xlink:href="#DejaVuSans-Oblique-3b2"/>
      <use transform="translate(63.818359 -16.015625)scale(0.7)" xlink:href="#DejaVuSans-Oblique-78"/>
      <use transform="translate(107.978516 0.390625)" xlink:href="#Inter-Regular-20"/>
      <use transform="translate(136.103516 0.390625)" xlink:href="#Inter-Regular-2f"/>
      <use transform="translate(171.756927 0.390625)" xlink:href="#Inter-Regular-20"/>
      <use transform="translate(199.881927 0.390625)" xlink:href="#Inter-Regular-6d"/>
     </g>
    </g>
    <g id="line2d_19">
     <path d="M 259.315 22.95328 
L 279.315 22.95328 
" style="fill:none;stroke:#3b82f6;stroke-linecap:square;stroke-width:1.3;"/>
    </g>
    <g id="line2d_20"/>
    <g id="text_11">
     <!-- $\beta_y$ / m -->
     <g transform="translate(287.315 26.45328)scale(0.1 -0.1)">
      <defs>
       <path d="M 1588 -325 
Q 1188 -997 936 -1164 
Q 684 -1331 294 -1331 
L -159 -1331 
L -63 -850 
L 269 -850 
Q 509 -850 678 -719 
Q 847 -588 1056 -206 
L 1234 128 
L 459 3500 
L 1069 3500 
L 1650 819 
L 3256 3500 
L 3859 3500 
L 1588 -325 
z
" id="DejaVuSans-Oblique-79" transform="scale(0.015625)"/>
      </defs>
      <use transform="translate(0 0.390625)" xlink:href="#DejaVuSans-Oblique-3b2"/>
      <use transform="translate(63.818359 -16.015625)scale(0.7)" xlink:href="#DejaVuSans-Oblique-79"/>
      <use transform="translate(107.978516 0.390625)" xlink:href="#Inter-Regular-20"/>
      <use transform="translate(136.103516 0.390625)" xlink:href="#Inter-Regular-2f"/>
      <use transform="translate(171.756927 0.390625)" xlink:href="#Inter-Regular-20"/>
      <use transform="translate(199.881927 0.390625)" xlink:href="#Inter-Regular-6d"/>
     </g>
    </g>
    <g id="line2d_21">
     <path d="M 479.5 22.95328 
L 499.5 22.95328 
" style="fill:none;stroke:#10b981;stroke-linecap:square;stroke-width:1.3;"/>
    </g>
    <g id="line2d_22"/>
    <g id="text_12">
     <!-- 10 $\eta_x$ / m -->
     <g transform="translate(507.5 26.45328)scale(0.1 -0.1)">
      <defs>
       <path d="M 3703 2113 
L 3034 -1331 
L 2459 -1331 
L 3125 2094 
Q 3222 2591 3075 2838 
Q 2931 3084 2544 3084 
Q 2078 3084 1750 2788 
Q 1425 2491 1325 1978 
L 941 0 
L 363 0 
L 1044 3500 
L 1622 3500 
L 1516 2956 
Q 1781 3272 2094 3428 
Q 2403 3584 2769 3584 
Q 3372 3584 3609 3213 
Q 3844 2838 3703 2113 
z
" id="DejaVuSans-Oblique-3b7" transform="scale(0.015625)"/>
      </defs>
      <use transform="translate(0 0.859375)" xlink:href="#Inter-Regular-31"/>
      <use transform="translate(46.448868 0.859375)" xlink:href="#Inter-Regular-30"/>
      <use transform="translate(108.948883 0.859375)" xlink:href="#Inter-Regular-20"/>
      <use transform="translate(137.073883 0.859375)" xlink:href="#DejaVuSans-Oblique-3b7"/>
      <use transform="translate(200.452789 -15.546875)scale(0.7)" xlink:href="#DejaVuSans-Oblique-78"/>
      <use transform="translate(244.612946 0.859375)" xlink:href="#Inter-Regular-20"/>
      <use transform="translate(272.737946 0.859375)" xlink:href="#Inter-Regular-2f"/>
      <use transform="translate(308.391357 0.859375)" xlink:href="#Inter-Regular-20"/>
      <use transform="translate(336.516357 0.859375)" xlink:href="#Inter-Regular-6d"/>
     </g>
    </g>
   </g>
   <g id="line2d_23">
    <path clip-path="url(#pdd8eb77551)" d="M 30.13 230.081087 
L 35.505828 230.165323 
L 36.387112 230.505626 
L 37.268395 231.105442 
L 38.149678 231.961098 
L 39.207218 233.318103 
L 54.277163 254.988515 
L 56.215987 257.208125 
L 65.370061 266.800971 
L 67.472844 268.583333 
L 69.400395 269.94683 
L 71.327946 271.050856 
L 73.255497 271.894714 
L 75.007817 272.435641 
L 76.760136 272.76083 
L 78.512455 272.870111 
L 236.614685 272.877416 
L 247.884864 272.76083 
L 249.637183 272.435641 
L 251.389503 271.894714 
L 253.317054 271.050856 
L 255.244605 269.94683 
L 257.172156 268.583333 
L 259.274939 266.800971 
L 261.378747 264.710358 
L 270.367837 254.988515 
L 272.130403 252.616723 
L 286.495322 231.961098 
L 287.552862 230.964871 
L 288.434145 230.416714 
L 289.315428 230.128616 
L 290.372968 230.081353 
L 299.890828 230.164635 
L 300.772112 230.50483 
L 301.653395 231.104544 
L 302.534678 231.960102 
L 303.592218 233.316999 
L 318.662163 254.985908 
L 320.600987 257.205244 
L 329.755061 266.796667 
L 331.857844 268.578698 
L 333.785395 269.941894 
L 335.712946 271.045623 
L 337.640497 271.889186 
L 339.392817 272.429849 
L 341.145136 272.754777 
L 342.897455 272.8638 
L 511.043241 272.853769 
L 512.79556 272.679963 
L 514.547879 272.290292 
L 516.300198 271.684958 
L 518.227749 270.770381 
L 520.155301 269.595813 
L 522.082852 268.161995 
L 524.185635 266.303223 
L 526.468773 263.956273 
L 534.752837 254.985908 
L 536.515403 252.614312 
L 550.880322 231.960102 
L 551.937862 230.963993 
L 552.819145 230.41594 
L 553.700428 230.12795 
L 554.757968 230.080822 
L 558.9 230.081087 
L 558.9 230.081087 
" style="fill:none;stroke:#10b981;stroke-linecap:square;stroke-width:1.3;"/>
   </g>
   <g id="line2d_24">
    <path clip-path="url(#pdd8eb77551)" d="M 30.13 198.868075 
L 34.977058 198.753184 
L 35.505828 198.458511 
L 36.034598 197.831598 
L 36.563368 196.866908 
L 37.268395 195.040054 
L 37.973422 192.5685 
L 38.854705 188.512274 
L 40.257465 180.383855 
L 42.883082 163.952667 
L 45.517207 146.078635 
L 48.325374 125.49081 
L 51.29274 102.016927 
L 53.572137 84.06059 
L 54.277163 80.229738 
L 54.98219 77.53823 
L 55.51096 76.287468 
L 55.863473 75.824444 
L 56.5685 75.457364 
L 63.792974 72.159169 
L 72.55457 72.232934 
L 78.688712 72.242647 
L 86.267748 76.036649 
L 86.620262 76.677492 
L 87.149032 78.228451 
L 87.677802 80.47664 
L 88.382828 84.529848 
L 89.264112 91.216594 
L 90.321652 101.434393 
L 93.018379 129.091197 
L 95.485972 152.244148 
L 97.861031 172.584838 
L 99.416496 184.554881 
L 100.650292 192.324438 
L 101.884089 198.662194 
L 103.117886 203.743472 
L 104.175426 207.206208 
L 105.232966 209.919925 
L 106.114249 211.649384 
L 106.995532 212.921601 
L 108.190773 214.137654 
L 112.336109 218.038273 
L 116.384995 221.548293 
L 120.433127 224.761433 
L 124.305254 227.557706 
L 128.177381 230.082976 
L 132.049508 232.33724 
L 135.745629 234.236232 
L 139.44175 235.888295 
L 143.137871 237.293431 
L 146.657987 238.402086 
L 150.178102 239.28677 
L 153.698217 239.947484 
L 157.218333 240.384227 
L 160.738448 240.596999 
L 164.258563 240.5858 
L 167.778679 240.350631 
L 171.298794 239.891491 
L 174.818909 239.208381 
L 178.339025 238.3013 
L 181.85914 237.170248 
L 185.555261 235.741595 
L 189.251382 234.066014 
L 192.947504 232.143506 
L 196.643625 229.97407 
L 200.515752 227.436482 
L 204.387878 224.62789 
L 208.260005 221.548293 
L 212.308891 218.038273 
L 216.454227 214.137654 
L 218.001981 212.466295 
L 218.883264 211.013687 
L 219.764548 209.094875 
L 220.645831 206.682805 
L 221.703371 203.088825 
L 222.760911 198.662194 
L 223.818451 193.313 
L 225.052248 185.760162 
L 226.278333 176.669058 
L 228.637969 156.869929 
L 231.097851 134.225824 
L 233.649167 108.579067 
L 235.380888 91.216594 
L 236.262172 84.529848 
L 236.967198 80.47664 
L 237.672225 77.633333 
L 238.200995 76.317542 
L 238.553508 75.835038 
L 239.258535 75.46517 
L 246.483009 72.163114 
L 255.244605 72.232069 
L 261.378747 72.238415 
L 268.957783 76.01872 
L 269.310297 76.630486 
L 269.839067 78.102267 
L 270.367837 80.229738 
L 271.072863 84.06059 
L 271.954147 90.379283 
L 276.145075 124.158887 
L 279.127793 146.078635 
L 281.93696 165.091102 
L 284.562576 181.430099 
L 286.142808 190.268786 
L 287.024092 193.887048 
L 287.729118 196.032043 
L 288.434145 197.547924 
L 288.962915 198.286669 
L 289.491685 198.691655 
L 290.020455 198.784626 
L 295.356225 198.866017 
L 299.362058 198.761587 
L 299.890828 198.467863 
L 300.419598 197.841946 
L 300.948368 196.878307 
L 301.653395 195.052959 
L 302.358422 192.583049 
L 303.239705 188.529114 
L 304.642465 180.404842 
L 307.268082 163.98226 
L 309.902207 146.117928 
L 312.710374 125.54162 
L 315.67774 102.081224 
L 317.957137 84.135665 
L 318.662163 80.30753 
L 319.36719 77.618298 
L 319.89596 76.368938 
L 320.248473 75.906695 
L 320.9535 75.540949 
L 328.177974 72.256252 
L 336.93957 72.344342 
L 343.073712 72.363956 
L 350.652748 76.20247 
L 351.005262 76.947715 
L 351.534032 78.782984 
L 352.062802 81.464118 
L 352.767828 86.312636 
L 353.649112 94.308984 
L 354.706652 106.47749 
L 357.066288 135.116979 
L 359.342202 160.159245 
L 361.571849 182.234732 
L 363.448982 198.756003 
L 364.506522 206.097092 
L 365.564062 211.846716 
L 366.445346 215.581019 
L 367.326629 218.460299 
L 368.207912 220.560181 
L 368.912939 221.716631 
L 369.617966 222.429354 
L 370.146736 222.680176 
L 370.675506 222.690651 
L 371.204276 222.46088 
L 371.733046 221.988691 
L 375.487313 217.598053 
L 379.272425 212.830506 
L 380.475376 211.38719 
L 381.004146 211.112372 
L 381.532916 211.123549 
L 382.061686 211.420616 
L 382.590456 212.000796 
L 383.295483 213.20501 
L 388.568638 224.211916 
L 391.73223 230.140599 
L 394.720068 235.268815 
L 397.53215 239.677322 
L 400.344232 243.68045 
L 402.980558 247.065215 
L 405.616885 250.093689 
L 408.077457 252.598811 
L 410.538029 254.793564 
L 412.822845 256.553642 
L 415.107662 258.046105 
L 417.392478 259.270955 
L 419.50154 260.164058 
L 421.610601 260.829134 
L 423.719663 261.266184 
L 425.828724 261.475209 
L 427.937786 261.456206 
L 430.046847 261.209178 
L 432.155909 260.734123 
L 434.26497 260.031042 
L 436.374032 259.099935 
L 438.658848 257.833914 
L 440.943665 256.300279 
L 443.228482 254.49903 
L 445.689053 252.259939 
L 448.149625 249.710478 
L 450.610197 246.850649 
L 453.246524 243.442131 
L 455.88285 239.677322 
L 458.694932 235.268815 
L 461.507014 230.454927 
L 464.494852 224.895995 
L 467.658444 218.511259 
L 470.824544 212.000796 
L 471.353314 211.420616 
L 471.882084 211.123549 
L 472.410854 211.112372 
L 472.939624 211.38719 
L 473.468394 211.945432 
L 477.398917 216.952604 
L 481.176318 221.416965 
L 482.210724 222.46088 
L 482.739494 222.690651 
L 483.268264 222.680176 
L 483.797034 222.429354 
L 484.325804 221.935818 
L 485.030831 220.891825 
L 485.735858 219.39025 
L 486.440884 217.405873 
L 487.322168 214.194866 
L 488.203451 210.092427 
L 489.084734 204.990805 
L 490.142274 197.35922 
L 491.50606 185.360556 
L 493.544028 165.614569 
L 495.659108 142.972437 
L 497.865621 117.018623 
L 499.942145 92.545504 
L 500.823428 84.967359 
L 501.528455 80.477736 
L 502.233482 77.464326 
L 502.762252 76.20247 
L 503.114765 75.843486 
L 510.868009 72.283625 
L 519.629605 72.338333 
L 525.763747 72.33459 
L 533.342783 76.100595 
L 533.695297 76.711518 
L 534.224067 78.181809 
L 534.752837 80.30753 
L 535.457863 84.135665 
L 536.339147 90.45039 
L 540.530075 124.210452 
L 543.512793 146.117928 
L 546.32196 165.120089 
L 548.947576 181.450549 
L 550.527808 190.284675 
L 551.409092 193.900756 
L 552.114118 196.044179 
L 552.819145 197.558616 
L 553.347915 198.296347 
L 553.876685 198.700369 
L 554.405455 198.792415 
L 558.9 198.868075 
L 558.9 198.868075 
" style="fill:none;stroke:#3b82f6;stroke-linecap:square;stroke-width:1.3;"/>
   </g>
   <g id="patch_7">
    <path d="M 30.13 56.594023 
L 31.980695 56.594023 
L 31.980695 45.553177 
L 30.13 45.553177 
z
" style="fill:#10b981;"/>
   </g>
   <g id="patch_8">
    <path d="M 34.800802 56.594023 
L 39.207218 56.594023 
L 39.207218 45.553177 
L 34.800802 45.553177 
z
" style="fill:#ef4444;"/>
   </g>
   <g id="patch_9">
    <path d="M 44.28341 56.594023 
L 47.103517 56.594023 
L 47.103517 45.553177 
L 44.28341 45.553177 
z
" style="fill:#10b981;"/>
   </g>
   <g id="patch_10">
    <path d="M 52.514597 56.594023 
L 56.03973 56.594023 
L 56.03973 45.553177 
L 52.514597 45.553177 
z
" style="fill:#ef4444;"/>
   </g>
   <g id="patch_11">
    <path d="M 63.44251 56.594023 
L 78.512455 56.594023 
L 78.512455 45.553177 
L 63.44251 45.553177 
z
" style="fill:#fbbf24;"/>
   </g>
   <g id="patch_12">
    <path d="M 85.915235 56.594023 
L 90.321652 56.594023 
L 90.321652 45.553177 
L 85.915235 45.553177 
z
" style="fill:#ef4444;"/>
   </g>
   <g id="patch_13">
    <path d="M 93.018379 56.594023 
L 95.838485 56.594023 
L 95.838485 45.553177 
L 93.018379 45.553177 
z
" style="fill:#10b981;"/>
   </g>
   <g id="patch_14">
    <path d="M 98.535212 56.594023 
L 107.348046 56.594023 
L 107.348046 45.553177 
L 98.535212 45.553177 
z
" style="fill:#ef4444;"/>
   </g>
   <g id="patch_15">
    <path d="M 110.044773 56.594023 
L 112.864879 56.594023 
L 112.864879 45.553177 
L 110.044773 45.553177 
z
" style="fill:#10b981;"/>
   </g>
   <g id="patch_16">
    <path d="M 211.780121 56.594023 
L 214.600227 56.594023 
L 214.600227 45.553177 
L 211.780121 45.553177 
z
" style="fill:#10b981;"/>
   </g>
   <g id="patch_17">
    <path d="M 217.296954 56.594023 
L 226.109788 56.594023 
L 226.109788 45.553177 
L 217.296954 45.553177 
z
" style="fill:#ef4444;"/>
   </g>
   <g id="patch_18">
    <path d="M 228.806515 56.594023 
L 231.626621 56.594023 
L 231.626621 45.553177 
L 228.806515 45.553177 
z
" style="fill:#10b981;"/>
   </g>
   <g id="patch_19">
    <path d="M 234.323348 56.594023 
L 238.729765 56.594023 
L 238.729765 45.553177 
L 234.323348 45.553177 
z
" style="fill:#ef4444;"/>
   </g>
   <g id="patch_20">
    <path d="M 246.132545 56.594023 
L 261.20249 56.594023 
L 261.20249 45.553177 
L 246.132545 45.553177 
z
" style="fill:#fbbf24;"/>
   </g>
   <g id="patch_21">
    <path d="M 268.60527 56.594023 
L 272.130403 56.594023 
L 272.130403 45.553177 
L 268.60527 45.553177 
z
" style="fill:#ef4444;"/>
   </g>
   <g id="patch_22">
    <path d="M 277.541483 56.594023 
L 280.36159 56.594023 
L 280.36159 45.553177 
L 277.541483 45.553177 
z
" style="fill:#10b981;"/>
   </g>
   <g id="patch_23">
    <path d="M 285.437782 56.594023 
L 289.844198 56.594023 
L 289.844198 45.553177 
L 285.437782 45.553177 
z
" style="fill:#ef4444;"/>
   </g>
   <g id="patch_24">
    <path d="M 292.664305 56.594023 
L 296.365695 56.594023 
L 296.365695 45.553177 
L 292.664305 45.553177 
z
" style="fill:#10b981;"/>
   </g>
   <g id="patch_25">
    <path d="M 299.185802 56.594023 
L 303.592218 56.594023 
L 303.592218 45.553177 
L 299.185802 45.553177 
z
" style="fill:#ef4444;"/>
   </g>
   <g id="patch_26">
    <path d="M 308.66841 56.594023 
L 311.488517 56.594023 
L 311.488517 45.553177 
L 308.66841 45.553177 
z
" style="fill:#10b981;"/>
   </g>
   <g id="patch_27">
    <path d="M 316.899597 56.594023 
L 320.42473 56.594023 
L 320.42473 45.553177 
L 316.899597 45.553177 
z
" style="fill:#ef4444;"/>
   </g>
   <g id="patch_28">
    <path d="M 327.82751 56.594023 
L 342.897455 56.594023 
L 342.897455 45.553177 
L 327.82751 45.553177 
z
" style="fill:#fbbf24;"/>
   </g>
   <g id="patch_29">
    <path d="M 350.300235 56.594023 
L 354.706652 56.594023 
L 354.706652 45.553177 
L 350.300235 45.553177 
z
" style="fill:#ef4444;"/>
   </g>
   <g id="patch_30">
    <path d="M 357.403379 56.594023 
L 360.223485 56.594023 
L 360.223485 45.553177 
L 357.403379 45.553177 
z
" style="fill:#10b981;"/>
   </g>
   <g id="patch_31">
    <path d="M 362.920212 56.594023 
L 371.733046 56.594023 
L 371.733046 45.553177 
L 362.920212 45.553177 
z
" style="fill:#ef4444;"/>
   </g>
   <g id="patch_32">
    <path d="M 374.429773 56.594023 
L 377.249879 56.594023 
L 377.249879 45.553177 
L 374.429773 45.553177 
z
" style="fill:#10b981;"/>
   </g>
   <g id="patch_33">
    <path d="M 379.946606 56.594023 
L 383.47174 56.594023 
L 383.47174 45.553177 
L 379.946606 45.553177 
z
" style="fill:#ef4444;"/>
   </g>
   <g id="patch_34">
    <path d="M 469.94326 56.594023 
L 473.468394 56.594023 
L 473.468394 45.553177 
L 469.94326 45.553177 
z
" style="fill:#ef4444;"/>
   </g>
   <g id="patch_35">
    <path d="M 476.165121 56.594023 
L 478.985227 56.594023 
L 478.985227 45.553177 
L 476.165121 45.553177 
z
" style="fill:#10b981;"/>
   </g>
   <g id="patch_36">
    <path d="M 481.681954 56.594023 
L 490.494788 56.594023 
L 490.494788 45.553177 
L 481.681954 45.553177 
z
" style="fill:#ef4444;"/>
   </g>
   <g id="patch_37">
    <path d="M 493.191515 56.594023 
L 496.011621 56.594023 
L 496.011621 45.553177 
L 493.191515 45.553177 
z
" style="fill:#10b981;"/>
   </g>
   <g id="patch_38">
    <path d="M 498.708348 56.594023 
L 503.114765 56.594023 
L 503.114765 45.553177 
L 498.708348 45.553177 
z
" style="fill:#ef4444;"/>
   </g>
   <g id="patch_39">
    <path d="M 510.517545 56.594023 
L 525.58749 56.594023 
L 525.58749 45.553177 
L 510.517545 45.553177 
z
" style="fill:#fbbf24;"/>
   </g>
   <g id="patch_40">
    <path d="M 532.99027 56.594023 
L 536.515403 56.594023 
L 536.515403 45.553177 
L 532.99027 45.553177 
z
" style="fill:#ef4444;"/>
   </g>
   <g id="patch_41">
    <path d="M 541.926483 56.594023 
L 544.74659 56.594023 
L 544.74659 45.553177 
L 541.926483 45.553177 
z
" style="fill:#10b981;"/>
   </g>
   <g id="patch_42">
    <path d="M 549.822782 56.594023 
L 554.229198 56.594023 
L 554.229198 45.553177 
L 549.822782 45.553177 
z
" style="fill:#ef4444;"/>
   </g>
   <g id="patch_43">
    <path d="M 557.049305 56.594023 
L 558.9 56.594023 
L 558.9 45.553177 
L 557.049305 45.553177 
z
" style="fill:#10b981;"/>
   </g>
   <g id="line2d_25">
    <path clip-path="url(#pdd8eb77551)" d="M 30.13 114.298645 
L 35.153315 114.100492 
L 35.505828 114.539026 
L 36.034598 115.775123 
L 36.563368 117.695029 
L 37.268395 121.288489 
L 38.149678 127.359056 
L 39.030962 135.043166 
L 42.007876 163.02136 
L 44.28341 182.262044 
L 46.574747 199.735262 
L 48.674476 214.072275 
L 50.594536 225.780303 
L 52.514597 236.1488 
L 53.748393 241.79988 
L 54.98219 246.422082 
L 56.215987 250.192183 
L 57.978553 254.80915 
L 59.74112 258.811484 
L 61.32743 261.888075 
L 62.91374 264.466813 
L 64.31867 266.32001 
L 65.720525 267.779209 
L 66.947148 268.74414 
L 68.173772 269.416949 
L 69.225163 269.76061 
L 70.276555 269.888882 
L 71.327946 269.801671 
L 72.379338 269.499041 
L 73.430729 268.98122 
L 74.657353 268.105646 
L 75.883976 266.938602 
L 77.1106 265.481282 
L 78.512455 263.462255 
L 79.922508 261.011881 
L 81.508818 257.785017 
L 83.095128 254.0603 
L 84.857695 249.337825 
L 86.444005 244.511613 
L 87.501545 240.608574 
L 88.559085 235.931744 
L 89.616625 230.344738 
L 90.827288 222.701854 
L 92.681288 209.472948 
L 94.604689 194.076953 
L 96.681213 175.543955 
L 98.887726 153.742515 
L 100.650292 137.224306 
L 102.060346 126.088976 
L 103.117886 119.219099 
L 104.175426 113.776156 
L 105.056709 110.410802 
L 105.761736 108.519807 
L 106.290506 107.580686 
L 106.819276 107.057726 
L 107.171789 106.941682 
L 108.190773 107.1206 
L 116.032983 108.551158 
L 123.953243 109.769174 
L 131.873502 110.759287 
L 139.793762 111.521496 
L 147.714021 112.055803 
L 155.458275 112.357873 
L 163.202529 112.442056 
L 170.946783 112.308353 
L 178.691036 111.956763 
L 186.43529 111.387287 
L 194.35555 110.579497 
L 202.275809 109.543803 
L 210.196069 108.280207 
L 217.825724 107.057726 
L 218.178238 107.359951 
L 218.707008 108.160777 
L 219.235778 109.374823 
L 219.940804 111.62541 
L 220.822088 115.424499 
L 221.703371 120.268398 
L 222.760911 127.363319 
L 223.994708 137.224306 
L 225.581018 151.98361 
L 228.982771 184.886372 
L 231.097851 202.752817 
L 233.14353 218.074379 
L 234.852118 229.31407 
L 236.085915 235.931744 
L 237.319712 241.309482 
L 238.553508 245.660929 
L 240.316075 250.819104 
L 242.078642 255.357189 
L 243.841208 259.280642 
L 245.427518 262.286239 
L 246.833473 264.518759 
L 248.235328 266.3495 
L 249.637183 267.8019 
L 250.863807 268.760856 
L 252.09043 269.427673 
L 253.141822 269.766188 
L 254.193213 269.889311 
L 255.244605 269.79695 
L 256.295996 269.489175 
L 257.347388 268.966215 
L 258.574011 268.08466 
L 259.800635 266.911657 
L 261.027258 265.448405 
L 262.26003 263.662551 
L 263.670083 261.247412 
L 265.256393 258.060188 
L 266.842703 254.375111 
L 268.60527 249.696681 
L 269.839067 245.817851 
L 271.072863 241.060044 
L 272.304954 235.261562 
L 274.050464 225.780303 
L 275.970524 214.072275 
L 277.893996 201.00034 
L 280.009076 185.074399 
L 282.287042 166.103926 
L 284.562576 145.271254 
L 286.671578 126.010511 
L 287.552862 120.281811 
L 288.257888 116.980004 
L 288.786658 115.286448 
L 289.315428 114.281012 
L 289.667942 113.997643 
L 290.196712 113.999981 
L 297.952005 114.487214 
L 299.362058 114.590788 
L 299.714572 114.916094 
L 300.067085 115.54993 
L 300.595855 117.07341 
L 301.124625 119.27177 
L 301.829652 123.21838 
L 302.710935 129.693542 
L 303.767259 139.465911 
L 306.217835 162.549619 
L 308.493369 181.996509 
L 310.78349 199.635259 
L 312.884925 214.114801 
L 314.804985 225.91728 
L 316.725046 236.356793 
L 317.957137 242.117649 
L 319.190933 246.846995 
L 320.42473 250.70573 
L 322.187297 255.349639 
L 323.949863 259.356117 
L 325.536173 262.416943 
L 326.946227 264.704224 
L 328.353206 266.571298 
L 329.579829 267.860481 
L 330.806453 268.847512 
L 332.033076 269.53138 
L 333.084468 269.875724 
L 334.135859 269.996559 
L 335.187251 269.893797 
L 336.238642 269.567512 
L 337.290034 269.017952 
L 338.516657 268.095161 
L 339.74328 266.869977 
L 340.969904 265.343652 
L 342.371759 263.23255 
L 343.778738 260.696055 
L 345.365048 257.33435 
L 346.951358 253.456325 
L 348.713925 248.54185 
L 350.476492 242.982632 
L 351.534032 238.96447 
L 352.591572 234.031177 
L 353.649112 228.007252 
L 354.706652 220.678394 
L 356.392106 207.019378 
L 358.284662 189.758024 
L 360.223485 169.964099 
L 362.246031 147.039017 
L 364.330266 123.413845 
L 365.211549 115.916222 
L 366.092832 110.330662 
L 366.797859 107.338841 
L 367.326629 105.991072 
L 367.679142 105.527009 
L 368.031656 105.412987 
L 368.384169 105.649486 
L 368.736682 106.235512 
L 369.265452 107.764146 
L 369.794222 110.05894 
L 370.499249 114.272059 
L 371.380532 121.28911 
L 376.544853 167.936538 
L 378.935334 186.645881 
L 380.651633 198.610211 
L 381.709173 204.156257 
L 382.590456 207.650404 
L 383.47174 210.218003 
L 386.635332 217.579397 
L 389.798924 224.381698 
L 392.786761 230.292729 
L 395.774598 235.705062 
L 398.58668 240.343466 
L 401.223007 244.290768 
L 403.859334 247.84981 
L 406.319906 250.821287 
L 408.780477 253.454548 
L 411.065294 255.596876 
L 413.350111 257.447578 
L 415.634927 259.006654 
L 417.743989 260.186962 
L 419.85305 261.118784 
L 421.962112 261.80212 
L 424.071173 262.236971 
L 426.00448 262.417296 
L 427.937786 262.388823 
L 429.871092 262.151554 
L 431.804399 261.705487 
L 433.91346 260.980737 
L 436.022522 260.0075 
L 438.131583 258.785778 
L 440.240644 257.31557 
L 442.525461 255.442435 
L 444.810278 253.277674 
L 447.270849 250.620255 
L 449.731421 247.62462 
L 452.367748 244.039693 
L 455.004075 240.066507 
L 457.816157 235.400495 
L 460.628239 230.292729 
L 463.616076 224.381698 
L 466.603913 217.97197 
L 469.767505 210.641636 
L 470.648287 208.235571 
L 471.52957 204.933215 
L 472.410854 200.633511 
L 473.292137 195.224423 
L 475.153848 181.558725 
L 477.398917 163.545404 
L 479.827955 142.197633 
L 483.092008 113.098258 
L 483.797034 109.210068 
L 484.325804 107.168611 
L 484.854574 105.898927 
L 485.207088 105.487449 
L 485.559601 105.426179 
L 485.912114 105.715373 
L 486.264628 106.353819 
L 486.793398 107.960084 
L 487.322168 110.330662 
L 488.027194 114.640722 
L 488.908478 121.770084 
L 489.966018 132.627461 
L 494.425311 182.807382 
L 496.348712 201.103779 
L 498.202712 216.750186 
L 499.589632 226.882817 
L 500.647172 233.108198 
L 501.704712 238.210112 
L 502.762252 242.370058 
L 504.348562 247.482463 
L 506.287385 252.993562 
L 508.049952 257.33435 
L 509.636262 260.696055 
L 511.043241 263.23255 
L 512.445096 265.343652 
L 513.846951 267.063473 
L 515.073575 268.245527 
L 516.300198 269.125035 
L 517.35159 269.637407 
L 518.402981 269.92645 
L 519.454373 269.991947 
L 520.505764 269.83385 
L 521.557156 269.452276 
L 522.608547 268.847512 
L 523.835171 267.860481 
L 525.061794 266.571298 
L 526.292517 264.96145 
L 527.70257 262.725163 
L 529.112623 260.08092 
L 530.698933 256.618512 
L 532.285243 252.639785 
L 533.695297 248.598271 
L 534.929093 244.261619 
L 536.16289 238.957901 
L 537.562709 231.780522 
L 539.308219 221.783168 
L 541.228279 209.485065 
L 543.336536 194.41165 
L 545.446754 177.678678 
L 547.722288 157.790015 
L 551.585348 123.21838 
L 552.290375 119.27177 
L 552.995402 116.489809 
L 553.524172 115.194573 
L 553.876685 114.714767 
L 554.229198 114.54428 
L 558.9 114.298645 
L 558.9 114.298645 
" style="fill:none;stroke:#ef4444;stroke-linecap:square;stroke-width:1.3;"/>
   </g>
   <g id="text_13">
    <!-- q1 -->
    <g transform="translate(32.708385 42.124003)scale(0.08 -0.08)">
     <defs>
      <path d="M 3409 -1309 
L 3409 3491 
L 2891 3491 
L 2891 2936 
L 2827 2936 
C 2709 3118 2500 3536 1818 3536 
C 936 3536 327 2836 327 1736 
C 327 627 936 -73 1809 -73 
C 2482 -73 2709 345 2827 536 
L 2873 536 
L 2873 -1309 
L 3409 -1309 
z
M 2882 1745 
C 2882 955 2527 409 1882 409 
C 1209 409 864 1000 864 1745 
C 864 2482 1200 3055 1882 3055 
C 2536 3055 2882 2527 2882 1745 
z
" id="Inter-Regular-71" transform="scale(0.015625)"/>
     </defs>
     <use xlink:href="#Inter-Regular-71"/>
     <use x="60.937515" xlink:href="#Inter-Regular-31"/>
    </g>
   </g>
   <g id="text_14">
    <!-- q2 -->
    <g transform="translate(49.419038 64.245072)scale(0.08 -0.08)">
     <use xlink:href="#Inter-Regular-71"/>
     <use x="60.937515" xlink:href="#Inter-Regular-32"/>
    </g>
   </g>
   <g id="text_15">
    <!-- b -->
    <g transform="translate(68.494358 42.124003)scale(0.08 -0.08)">
     <use xlink:href="#Inter-Regular-62"/>
    </g>
   </g>
   <g id="text_16">
    <!-- q3d -->
    <g transform="translate(80.652193 64.245072)scale(0.08 -0.08)">
     <defs>
      <path d="M 1809 -73 
C 2482 -73 2709 345 2827 536 
L 2891 536 
L 2891 0 
L 3409 0 
L 3409 4655 
L 2873 4655 
L 2873 2936 
L 2827 2936 
C 2709 3118 2500 3536 1818 3536 
C 936 3536 327 2836 327 1736 
C 327 627 936 -73 1809 -73 
z
M 1882 409 
C 1209 409 864 1000 864 1745 
C 864 2482 1200 3055 1882 3055 
C 2536 3055 2882 2527 2882 1745 
C 2882 955 2527 409 1882 409 
z
" id="Inter-Regular-64" transform="scale(0.015625)"/>
     </defs>
     <use xlink:href="#Inter-Regular-71"/>
     <use x="60.937515" xlink:href="#Inter-Regular-33"/>
     <use x="124.573898" xlink:href="#Inter-Regular-64"/>
    </g>
   </g>
   <g id="text_17">
    <!-- q4d -->
    <g transform="translate(95.452879 42.124003)scale(0.08 -0.08)">
     <defs>
      <path d="M 373 955 
L 2564 955 
L 2564 0 
L 3100 0 
L 3100 955 
L 3736 955 
L 3736 1455 
L 3100 1455 
L 3100 4655 
L 2418 4655 
L 373 1418 
L 373 955 
z
M 982 1455 
L 982 1491 
L 2527 3936 
L 2564 3936 
L 2564 1455 
L 982 1455 
z
" id="Inter-Regular-34" transform="scale(0.015625)"/>
     </defs>
     <use xlink:href="#Inter-Regular-71"/>
     <use x="60.937515" xlink:href="#Inter-Regular-34"/>
     <use x="125.142075" xlink:href="#Inter-Regular-64"/>
    </g>
   </g>
   <g id="text_18">
    <!-- q4d -->
    <g transform="translate(214.214621 64.205697)scale(0.08 -0.08)">
     <use xlink:href="#Inter-Regular-71"/>
     <use x="60.937515" xlink:href="#Inter-Regular-34"/>
     <use x="125.142075" xlink:href="#Inter-Regular-64"/>
    </g>
   </g>
   <g id="text_19">
    <!-- q3d -->
    <g transform="translate(229.060307 42.163378)scale(0.08 -0.08)">
     <use xlink:href="#Inter-Regular-71"/>
     <use x="60.937515" xlink:href="#Inter-Regular-33"/>
     <use x="124.573898" xlink:href="#Inter-Regular-64"/>
    </g>
   </g>
   <g id="text_20">
    <!-- b -->
    <g transform="translate(251.184393 64.205697)scale(0.08 -0.08)">
     <use xlink:href="#Inter-Regular-62"/>
    </g>
   </g>
   <g id="text_21">
    <!-- q2 -->
    <g transform="translate(265.509712 42.163378)scale(0.08 -0.08)">
     <use xlink:href="#Inter-Regular-71"/>
     <use x="60.937515" xlink:href="#Inter-Regular-32"/>
    </g>
   </g>
   <g id="text_22">
    <!-- q1 -->
    <g transform="translate(283.345365 64.205697)scale(0.08 -0.08)">
     <use xlink:href="#Inter-Regular-71"/>
     <use x="60.937515" xlink:href="#Inter-Regular-31"/>
    </g>
   </g>
   <g id="text_23">
    <!-- q1 -->
    <g transform="translate(297.093385 42.124003)scale(0.08 -0.08)">
     <use xlink:href="#Inter-Regular-71"/>
     <use x="60.937515" xlink:href="#Inter-Regular-31"/>
    </g>
   </g>
   <g id="text_24">
    <!-- q2 -->
    <g transform="translate(313.804038 64.245072)scale(0.08 -0.08)">
     <use xlink:href="#Inter-Regular-71"/>
     <use x="60.937515" xlink:href="#Inter-Regular-32"/>
    </g>
   </g>
   <g id="text_25">
    <!-- b -->
    <g transform="translate(332.879358 42.124003)scale(0.08 -0.08)">
     <use xlink:href="#Inter-Regular-62"/>
    </g>
   </g>
   <g id="text_26">
    <!-- q3t -->
    <g transform="translate(346.065943 64.245072)scale(0.08 -0.08)">
     <use xlink:href="#Inter-Regular-71"/>
     <use x="60.937515" xlink:href="#Inter-Regular-33"/>
     <use x="124.573898" xlink:href="#Inter-Regular-74"/>
    </g>
   </g>
   <g id="text_27">
    <!-- q4t -->
    <g transform="translate(360.866629 42.124003)scale(0.08 -0.08)">
     <use xlink:href="#Inter-Regular-71"/>
     <use x="60.937515" xlink:href="#Inter-Regular-34"/>
     <use x="125.142075" xlink:href="#Inter-Regular-74"/>
    </g>
   </g>
   <g id="text_28">
    <!-- q5t -->
    <g transform="translate(375.385423 64.205697)scale(0.08 -0.08)">
     <use xlink:href="#Inter-Regular-71"/>
     <use x="60.937515" xlink:href="#Inter-Regular-35"/>
     <use x="121.732986" xlink:href="#Inter-Regular-74"/>
    </g>
   </g>
   <g id="text_29">
    <!-- q5t -->
    <g transform="translate(465.382077 42.124003)scale(0.08 -0.08)">
     <use xlink:href="#Inter-Regular-71"/>
     <use x="60.937515" xlink:href="#Inter-Regular-35"/>
     <use x="121.732986" xlink:href="#Inter-Regular-74"/>
    </g>
   </g>
   <g id="text_30">
    <!-- q4t -->
    <g transform="translate(479.628371 64.205697)scale(0.08 -0.08)">
     <use xlink:href="#Inter-Regular-71"/>
     <use x="60.937515" xlink:href="#Inter-Regular-34"/>
     <use x="125.142075" xlink:href="#Inter-Regular-74"/>
    </g>
   </g>
   <g id="text_31">
    <!-- q3t -->
    <g transform="translate(494.474057 42.163378)scale(0.08 -0.08)">
     <use xlink:href="#Inter-Regular-71"/>
     <use x="60.937515" xlink:href="#Inter-Regular-33"/>
     <use x="124.573898" xlink:href="#Inter-Regular-74"/>
    </g>
   </g>
   <g id="text_32">
    <!-- b -->
    <g transform="translate(515.569393 64.205697)scale(0.08 -0.08)">
     <use xlink:href="#Inter-Regular-62"/>
    </g>
   </g>
   <g id="text_33">
    <!-- q2 -->
    <g transform="translate(529.894712 42.163378)scale(0.08 -0.08)">
     <use xlink:href="#Inter-Regular-71"/>
     <use x="60.937515" xlink:href="#Inter-Regular-32"/>
    </g>
   </g>
   <g id="text_34">
    <!-- q1 -->
    <g transform="translate(547.730365 64.205697)scale(0.08 -0.08)">
     <use xlink:href="#Inter-Regular-71"/>
     <use x="60.937515" xlink:href="#Inter-Regular-31"/>
    </g>
   </g>
   <g id="text_35">
    <g clip-path="url(#pdd8eb77551)">
     <!-- doublet -->
     <g style="opacity:0.5;" transform="translate(144.2975 291.728314)scale(0.1 -0.1)">
      <defs>
       <path d="M 1518 -73 
C 2189 -73 2486 345 2636 536 
L 2700 536 
L 2609 0 
L 3127 0 
L 3900 4655 
L 3364 4655 
L 3077 2936 
L 3032 2936 
C 2946 3118 2805 3536 2123 3536 
C 1241 3536 516 2836 332 1736 
C 150 627 643 -73 1518 -73 
z
M 1650 409 
C 977 409 748 1000 873 1745 
C 993 2482 1407 3055 2086 3055 
C 2743 3055 3021 2527 2891 1745 
C 2759 955 2296 409 1650 409 
z
" id="Inter-Italic-64" transform="scale(0.015625)"/>
       <path d="M 1646 -73 
C 2573 -73 3309 627 3482 1691 
C 3661 2800 3136 3536 2173 3536 
C 1246 3536 509 2836 336 1764 
C 159 664 682 -73 1646 -73 
z
M 1655 409 
C 955 409 746 1009 855 1691 
C 971 2409 1427 3055 2164 3055 
C 2864 3055 3073 2445 2964 1764 
C 2848 1043 2391 409 1655 409 
z
" id="Inter-Italic-6f" transform="scale(0.015625)"/>
       <path d="M 2636 1427 
C 2527 773 1982 473 1582 473 
C 1136 473 873 800 955 1309 
L 1318 3491 
L 782 3491 
L 409 1273 
C 264 382 664 -45 1318 -45 
C 1846 -45 2246 236 2464 591 
L 2500 591 
L 2400 0 
L 2936 0 
L 3518 3491 
L 2982 3491 
L 2636 1427 
z
" id="Inter-Italic-75" transform="scale(0.015625)"/>
       <path d="M 273 0 
L 791 0 
L 882 536 
L 946 536 
C 1036 345 1191 -73 1864 -73 
C 2736 -73 3464 627 3646 1736 
C 3827 2836 3336 3536 2455 3536 
C 1773 3536 1491 3118 1346 2936 
L 1300 2936 
L 1582 4655 
L 1046 4655 
L 273 0 
z
M 1091 1745 
C 1218 2527 1655 3055 2309 3055 
C 2991 3055 3227 2482 3109 1745 
C 2982 1000 2546 409 1873 409 
C 1227 409 964 955 1091 1745 
z
" id="Inter-Italic-62" transform="scale(0.015625)"/>
       <path d="M 1509 4655 
L 973 4655 
L 200 0 
L 736 0 
L 1509 4655 
z
" id="Inter-Italic-6c" transform="scale(0.015625)"/>
       <path d="M 1655 -73 
C 2366 -73 2939 282 3191 809 
L 2700 955 
C 2502 591 2166 409 1736 409 
C 1064 409 705 709 834 1564 
L 3373 1564 
L 3409 1791 
C 3630 3091 2930 3536 2200 3536 
C 1257 3536 502 2791 327 1718 
C 148 645 648 -73 1655 -73 
z
M 2118 3055 
C 2702 3055 3002 2618 2900 2027 
L 909 2027 
C 1016 2523 1532 3055 2118 3055 
z
" id="Inter-Italic-65" transform="scale(0.015625)"/>
       <path d="M 2300 3491 
L 1552 3491 
L 1691 4327 
L 1155 4327 
L 1016 3491 
L 491 3491 
L 418 3036 
L 941 3036 
L 582 855 
C 482 245 918 -45 1373 -45 
C 1573 -45 1709 -9 1791 18 
L 1755 500 
C 1709 491 1636 473 1518 473 
C 1282 473 1064 545 1136 1000 
L 1475 3036 
L 2227 3036 
L 2300 3491 
z
" id="Inter-Italic-74" transform="scale(0.015625)"/>
      </defs>
      <use xlink:href="#Inter-Italic-64"/>
      <use x="62.215927" xlink:href="#Inter-Italic-6f"/>
      <use x="121.875031" xlink:href="#Inter-Italic-75"/>
      <use x="179.971634" xlink:href="#Inter-Italic-62"/>
      <use x="242.045517" xlink:href="#Inter-Italic-6c"/>
      <use x="265.767105" xlink:href="#Inter-Italic-65"/>
      <use x="324.147797" xlink:href="#Inter-Italic-74"/>
     </g>
    </g>
   </g>
   <g id="text_36">
    <g clip-path="url(#pdd8eb77551)">
     <!-- triplet -->
     <g style="opacity:0.5;" transform="translate(412.866094 291.848627)scale(0.1 -0.1)">
      <defs>
       <path d="M 200 0 
L 736 0 
L 1100 2209 
C 1182 2682 1609 3027 2118 3027 
C 2264 3027 2409 3000 2446 2991 
L 2536 3536 
C 2473 3545 2336 3545 2255 3545 
C 1836 3545 1427 3309 1246 2964 
L 1209 2964 
L 1300 3491 
L 782 3491 
L 200 0 
z
" id="Inter-Italic-72" transform="scale(0.015625)"/>
       <path d="M 1214 4082 
C 1423 4082 1596 4245 1596 4445 
C 1596 4645 1423 4809 1214 4809 
C 1005 4809 832 4645 832 4445 
C 832 4245 1005 4082 1214 4082 
z
M 200 0 
L 736 0 
L 1318 3491 
L 782 3491 
L 200 0 
z
" id="Inter-Italic-69" transform="scale(0.015625)"/>
       <path d="M -18 -1309 
L 518 -1309 
L 827 536 
L 873 536 
C 964 345 1118 -73 1791 -73 
C 2664 -73 3391 627 3573 1736 
C 3755 2836 3264 3536 2382 3536 
C 1700 3536 1418 3118 1273 2936 
L 1209 2936 
L 1300 3491 
L 782 3491 
L -18 -1309 
z
M 1018 1745 
C 1146 2527 1582 3055 2236 3055 
C 2918 3055 3155 2482 3036 1745 
C 2909 1000 2473 409 1800 409 
C 1155 409 891 955 1018 1745 
z
" id="Inter-Italic-70" transform="scale(0.015625)"/>
      </defs>
      <use xlink:href="#Inter-Italic-74"/>
      <use x="36.363647" xlink:href="#Inter-Italic-72"/>
      <use x="73.721603" xlink:href="#Inter-Italic-69"/>
      <use x="97.443192" xlink:href="#Inter-Italic-70"/>
      <use x="158.380707" xlink:href="#Inter-Italic-6c"/>
      <use x="182.102295" xlink:href="#Inter-Italic-65"/>
      <use x="240.482986" xlink:href="#Inter-Italic-74"/>
     </g>
    </g>
   </g>
  </g>
 </g>
 <defs>
  <clipPath id="pdd8eb77551">
   <rect height="250.4064" width="528.77" x="30.13" y="51.0736"/>
  </clipPath>
 </defs>
</svg>
