<?xml version="1.0" encoding="utf-8" standalone="no"?>
<!DOCTYPE svg PUBLIC "-//W3C//DTD SVG 1.1//EN"
  "http://www.w3.org/Graphics/SVG/1.1/DTD/svg11.dtd">
<svg height="345.6pt" version="1.1" viewBox="0 0 576 345.6" width="576pt" xmlns="http://www.w3.org/2000/svg" xmlns:xlink="http://www.w3.org/1999/xlink">
 <metadata>
  <rdf:RDF xmlns:cc="http://creativecommons.org/ns#" xmlns:dc="http://purl.org/dc/elements/1.1/" xmlns:rdf="http://www.w3.org/1999/02/22-rdf-syntax-ns#">
   <cc:Work>
    <dc:type rdf:resource="http://purl.org/dc/dcmitype/StillImage"/>
    <dc:date>2021-06-06T23:11:10.382338</dc:date>
    <dc:format>image/svg+xml</dc:format>
    <dc:creator>
     <cc:Agent>
      <dc:title>Matplotlib v3.4.2, https://matplotlib.org/</dc:title>
     </cc:Agent>
    </dc:creator>
   </cc:Work>
  </rdf:RDF>
 </metadata>
 <defs>
  <style type="text/css">*{stroke-linecap:butt;stroke-linejoin:round;}</style>
 </defs>
 <g id="figure_1">
  <g id="patch_1">
   <path d="M 0 345.6 
L 576 345.6 
L 576 0 
L 0 0 
z
" style="fill:#ffffff;"/>
  </g>
  <g id="axes_1">
   <g id="patch_2">
    <path d="M 35.35 301.48 
L 565.2 301.48 
L 565.2 14.520575 
L 35.35 14.520575 
z
" style="fill:#ffffff;"/>
   </g>
   <g id="matplotlib.axis_1">
    <g id="xtick_1">
     <g id="line2d_1">
      <path clip-path="url(#p49296a9407)" d="M 59.434091 301.48 
L 59.434091 14.520575 
" style="fill:none;stroke:#e5e7eb;stroke-dasharray:3.7,1.6;stroke-dashoffset:0;"/>
     </g>
     <g id="line2d_2">
      <defs>
       <path d="M 0 0 
L 0 3.5 
" id="m59c0ae2105" style="stroke:#000000;stroke-width:0.8;"/>
      </defs>
      <g>
       <use style="stroke:#000000;stroke-width:0.8;" x="59.434091" xlink:href="#m59c0ae2105" y="301.48"/>
      </g>
     </g>
     <g id="text_1">
      <!-- −0.020 -->
      <g transform="translate(42.359872 315.753437)scale(0.1 -0.1)">
       <defs>
        <path d="M 3564 2073 
L 655 2073 
L 655 1564 
L 3564 1564 
L 3564 2073 
z
" id="Inter-Regular-2212" transform="scale(0.015625)"/>
        <path d="M 2000 -64 
C 3027 -64 3618 807 3618 2327 
C 3618 3836 3018 4718 2000 4718 
C 982 4718 382 3836 382 2327 
C 382 807 973 -64 2000 -64 
z
M 2000 436 
C 1323 436 927 1116 927 2327 
C 927 3536 1327 4227 2000 4227 
C 2673 4227 3073 3536 3073 2327 
C 3073 1116 2677 436 2000 436 
z
" id="Inter-Regular-30" transform="scale(0.015625)"/>
        <path d="M 882 -36 
C 1107 -36 1291 148 1291 373 
C 1291 598 1107 782 882 782 
C 657 782 473 598 473 373 
C 473 148 657 -36 882 -36 
z
" id="Inter-Regular-2e" transform="scale(0.015625)"/>
        <path d="M 482 0 
L 3418 0 
L 3418 500 
L 1255 500 
L 1255 536 
L 2300 1655 
C 3100 2511 3336 2911 3336 3427 
C 3336 4145 2755 4718 1936 4718 
C 1121 4718 500 4164 500 3345 
L 1036 3345 
C 1036 3875 1380 4227 1918 4227 
C 2423 4227 2809 3918 2809 3427 
C 2809 2998 2557 2680 2018 2091 
L 482 409 
L 482 0 
z
" id="Inter-Regular-32" transform="scale(0.015625)"/>
       </defs>
       <use xlink:href="#Inter-Regular-2212"/>
       <use x="65.909103" xlink:href="#Inter-Regular-30"/>
       <use x="128.409119" xlink:href="#Inter-Regular-2e"/>
       <use x="155.965942" xlink:href="#Inter-Regular-30"/>
       <use x="218.465958" xlink:href="#Inter-Regular-32"/>
       <use x="278.977341" xlink:href="#Inter-Regular-30"/>
      </g>
     </g>
    </g>
    <g id="xtick_2">
     <g id="line2d_3">
      <path clip-path="url(#p49296a9407)" d="M 119.644318 301.48 
L 119.644318 14.520575 
" style="fill:none;stroke:#e5e7eb;stroke-dasharray:3.7,1.6;stroke-dashoffset:0;"/>
     </g>
     <g id="line2d_4">
      <g>
       <use style="stroke:#000000;stroke-width:0.8;" x="119.644318" xlink:href="#m59c0ae2105" y="301.48"/>
      </g>
     </g>
     <g id="text_2">
      <!-- −0.015 -->
      <g transform="translate(103.358381 315.753437)scale(0.1 -0.1)">
       <defs>
        <path d="M 2118 4655 
L 1555 4655 
L 391 3882 
L 391 3309 
L 1527 4064 
L 1555 4064 
L 1555 0 
L 2118 0 
L 2118 4655 
z
" id="Inter-Regular-31" transform="scale(0.015625)"/>
        <path d="M 1936 -64 
C 2823 -64 3473 591 3473 1482 
C 3473 2384 2846 3045 1991 3045 
C 1677 3045 1373 2934 1182 2782 
L 1155 2782 
L 1318 4155 
L 3264 4155 
L 3264 4655 
L 846 4655 
L 564 2364 
L 1091 2300 
C 1284 2439 1614 2539 1900 2536 
C 2493 2532 2927 2082 2927 1473 
C 2927 875 2509 436 1936 436 
C 1459 436 1080 743 1036 1164 
L 491 1164 
C 525 455 1136 -64 1936 -64 
z
" id="Inter-Regular-35" transform="scale(0.015625)"/>
       </defs>
       <use xlink:href="#Inter-Regular-2212"/>
       <use x="65.909103" xlink:href="#Inter-Regular-30"/>
       <use x="128.409119" xlink:href="#Inter-Regular-2e"/>
       <use x="155.965942" xlink:href="#Inter-Regular-30"/>
       <use x="218.465958" xlink:href="#Inter-Regular-31"/>
       <use x="264.914825" xlink:href="#Inter-Regular-35"/>
      </g>
     </g>
    </g>
    <g id="xtick_3">
     <g id="line2d_5">
      <path clip-path="url(#p49296a9407)" d="M 179.854545 301.48 
L 179.854545 14.520575 
" style="fill:none;stroke:#e5e7eb;stroke-dasharray:3.7,1.6;stroke-dashoffset:0;"/>
     </g>
     <g id="line2d_6">
      <g>
       <use style="stroke:#000000;stroke-width:0.8;" x="179.854545" xlink:href="#m59c0ae2105" y="301.48"/>
      </g>
     </g>
     <g id="text_3">
      <!-- −0.010 -->
      <g transform="translate(163.483452 315.753437)scale(0.1 -0.1)">
       <use xlink:href="#Inter-Regular-2212"/>
       <use x="65.909103" xlink:href="#Inter-Regular-30"/>
       <use x="128.409119" xlink:href="#Inter-Regular-2e"/>
       <use x="155.965942" xlink:href="#Inter-Regular-30"/>
       <use x="218.465958" xlink:href="#Inter-Regular-31"/>
       <use x="264.914825" xlink:href="#Inter-Regular-30"/>
      </g>
     </g>
    </g>
    <g id="xtick_4">
     <g id="line2d_7">
      <path clip-path="url(#p49296a9407)" d="M 240.064773 301.48 
L 240.064773 14.520575 
" style="fill:none;stroke:#e5e7eb;stroke-dasharray:3.7,1.6;stroke-dashoffset:0;"/>
     </g>
     <g id="line2d_8">
      <g>
       <use style="stroke:#000000;stroke-width:0.8;" x="240.064773" xlink:href="#m59c0ae2105" y="301.48"/>
      </g>
     </g>
     <g id="text_4">
      <!-- −0.005 -->
      <g transform="translate(222.976491 315.753437)scale(0.1 -0.1)">
       <use xlink:href="#Inter-Regular-2212"/>
       <use x="65.909103" xlink:href="#Inter-Regular-30"/>
       <use x="128.409119" xlink:href="#Inter-Regular-2e"/>
       <use x="155.965942" xlink:href="#Inter-Regular-30"/>
       <use x="218.465958" xlink:href="#Inter-Regular-30"/>
       <use x="280.965973" xlink:href="#Inter-Regular-35"/>
      </g>
     </g>
    </g>
    <g id="xtick_5">
     <g id="line2d_9">
      <path clip-path="url(#p49296a9407)" d="M 300.275 301.48 
L 300.275 14.520575 
" style="fill:none;stroke:#e5e7eb;stroke-dasharray:3.7,1.6;stroke-dashoffset:0;"/>
     </g>
     <g id="line2d_10">
      <g>
       <use style="stroke:#000000;stroke-width:0.8;" x="300.275" xlink:href="#m59c0ae2105" y="301.48"/>
      </g>
     </g>
     <g id="text_5">
      <!-- 0.000 -->
      <g transform="translate(286.396875 315.753437)scale(0.1 -0.1)">
       <use xlink:href="#Inter-Regular-30"/>
       <use x="62.500015" xlink:href="#Inter-Regular-2e"/>
       <use x="90.056839" xlink:href="#Inter-Regular-30"/>
       <use x="152.556854" xlink:href="#Inter-Regular-30"/>
       <use x="215.05687" xlink:href="#Inter-Regular-30"/>
      </g>
     </g>
    </g>
    <g id="xtick_6">
     <g id="line2d_11">
      <path clip-path="url(#p49296a9407)" d="M 360.485227 301.48 
L 360.485227 14.520575 
" style="fill:none;stroke:#e5e7eb;stroke-dasharray:3.7,1.6;stroke-dashoffset:0;"/>
     </g>
     <g id="line2d_12">
      <g>
       <use style="stroke:#000000;stroke-width:0.8;" x="360.485227" xlink:href="#m59c0ae2105" y="301.48"/>
      </g>
     </g>
     <g id="text_6">
      <!-- 0.005 -->
      <g transform="translate(346.692259 315.753437)scale(0.1 -0.1)">
       <use xlink:href="#Inter-Regular-30"/>
       <use x="62.500015" xlink:href="#Inter-Regular-2e"/>
       <use x="90.056839" xlink:href="#Inter-Regular-30"/>
       <use x="152.556854" xlink:href="#Inter-Regular-30"/>
       <use x="215.05687" xlink:href="#Inter-Regular-35"/>
      </g>
     </g>
    </g>
    <g id="xtick_7">
     <g id="line2d_13">
      <path clip-path="url(#p49296a9407)" d="M 420.695455 301.48 
L 420.695455 14.520575 
" style="fill:none;stroke:#e5e7eb;stroke-dasharray:3.7,1.6;stroke-dashoffset:0;"/>
     </g>
     <g id="line2d_14">
      <g>
       <use style="stroke:#000000;stroke-width:0.8;" x="420.695455" xlink:href="#m59c0ae2105" y="301.48"/>
      </g>
     </g>
     <g id="text_7">
      <!-- 0.010 -->
      <g transform="translate(407.619673 315.753437)scale(0.1 -0.1)">
       <use xlink:href="#Inter-Regular-30"/>
       <use x="62.500015" xlink:href="#Inter-Regular-2e"/>
       <use x="90.056839" xlink:href="#Inter-Regular-30"/>
       <use x="152.556854" xlink:href="#Inter-Regular-31"/>
       <use x="199.005722" xlink:href="#Inter-Regular-30"/>
      </g>
     </g>
    </g>
    <g id="xtick_8">
     <g id="line2d_15">
      <path clip-path="url(#p49296a9407)" d="M 480.905682 301.48 
L 480.905682 14.520575 
" style="fill:none;stroke:#e5e7eb;stroke-dasharray:3.7,1.6;stroke-dashoffset:0;"/>
     </g>
     <g id="line2d_16">
      <g>
       <use style="stroke:#000000;stroke-width:0.8;" x="480.905682" xlink:href="#m59c0ae2105" y="301.48"/>
      </g>
     </g>
     <g id="text_8">
      <!-- 0.015 -->
      <g transform="translate(467.915057 315.753437)scale(0.1 -0.1)">
       <use xlink:href="#Inter-Regular-30"/>
       <use x="62.500015" xlink:href="#Inter-Regular-2e"/>
       <use x="90.056839" xlink:href="#Inter-Regular-30"/>
       <use x="152.556854" xlink:href="#Inter-Regular-31"/>
       <use x="199.005722" xlink:href="#Inter-Regular-35"/>
      </g>
     </g>
    </g>
    <g id="xtick_9">
     <g id="line2d_17">
      <path clip-path="url(#p49296a9407)" d="M 541.115909 301.48 
L 541.115909 14.520575 
" style="fill:none;stroke:#e5e7eb;stroke-dasharray:3.7,1.6;stroke-dashoffset:0;"/>
     </g>
     <g id="line2d_18">
      <g>
       <use style="stroke:#000000;stroke-width:0.8;" x="541.115909" xlink:href="#m59c0ae2105" y="301.48"/>
      </g>
     </g>
     <g id="text_9">
      <!-- 0.020 -->
      <g transform="translate(527.337003 315.753437)scale(0.1 -0.1)">
       <use xlink:href="#Inter-Regular-30"/>
       <use x="62.500015" xlink:href="#Inter-Regular-2e"/>
       <use x="90.056839" xlink:href="#Inter-Regular-30"/>
       <use x="152.556854" xlink:href="#Inter-Regular-32"/>
       <use x="213.068237" xlink:href="#Inter-Regular-30"/>
      </g>
     </g>
    </g>
    <g id="text_10">
     <!-- $\Delta p / p$ -->
     <g transform="translate(288.775 329.09875)scale(0.1 -0.1)">
      <defs>
       <path d="M 2188 4044 
L 906 525 
L 3472 525 
L 2188 4044 
z
M 50 0 
L 1831 4666 
L 2547 4666 
L 4325 0 
L 50 0 
z
" id="DejaVuSans-394" transform="scale(0.015625)"/>
       <path d="M 3175 2156 
Q 3175 2616 2975 2859 
Q 2775 3103 2400 3103 
Q 2144 3103 1911 2972 
Q 1678 2841 1497 2591 
Q 1319 2344 1212 1994 
Q 1106 1644 1106 1300 
Q 1106 863 1306 627 
Q 1506 391 1875 391 
Q 2147 391 2380 519 
Q 2613 647 2778 891 
Q 2956 1147 3065 1494 
Q 3175 1841 3175 2156 
z
M 1394 2969 
Q 1625 3272 1939 3428 
Q 2253 3584 2638 3584 
Q 3175 3584 3472 3232 
Q 3769 2881 3769 2247 
Q 3769 1728 3584 1258 
Q 3400 788 3053 416 
Q 2822 169 2531 39 
Q 2241 -91 1919 -91 
Q 1547 -91 1294 64 
Q 1041 219 916 525 
L 556 -1331 
L -19 -1331 
L 922 3500 
L 1497 3500 
L 1394 2969 
z
" id="DejaVuSans-Oblique-70" transform="scale(0.015625)"/>
       <path d="M 1625 4666 
L 2156 4666 
L 531 -594 
L 0 -594 
L 1625 4666 
z
" id="DejaVuSans-2f" transform="scale(0.015625)"/>
      </defs>
      <use transform="translate(0 0.09375)" xlink:href="#DejaVuSans-394"/>
      <use transform="translate(68.408203 0.09375)" xlink:href="#DejaVuSans-Oblique-70"/>
      <use transform="translate(131.884766 0.09375)" xlink:href="#DejaVuSans-2f"/>
      <use transform="translate(165.576172 0.09375)" xlink:href="#DejaVuSans-Oblique-70"/>
     </g>
    </g>
   </g>
   <g id="matplotlib.axis_2">
    <g id="ytick_1">
     <g id="line2d_19">
      <path clip-path="url(#p49296a9407)" d="M 35.35 296.064457 
L 565.2 296.064457 
" style="fill:none;stroke:#e5e7eb;stroke-dasharray:3.7,1.6;stroke-dashoffset:0;"/>
     </g>
     <g id="line2d_20">
      <defs>
       <path d="M 0 0 
L -3.5 0 
" id="m492053be3e" style="stroke:#000000;stroke-width:0.8;"/>
      </defs>
      <g>
       <use style="stroke:#000000;stroke-width:0.8;" x="35.35" xlink:href="#m492053be3e" y="296.064457"/>
      </g>
     </g>
     <g id="text_11">
      <!-- −10 -->
      <g transform="translate(10.864062 299.701176)scale(0.1 -0.1)">
       <use xlink:href="#Inter-Regular-2212"/>
       <use x="65.909103" xlink:href="#Inter-Regular-31"/>
       <use x="112.357971" xlink:href="#Inter-Regular-30"/>
      </g>
     </g>
    </g>
    <g id="ytick_2">
     <g id="line2d_21">
      <path clip-path="url(#p49296a9407)" d="M 35.35 260.903745 
L 565.2 260.903745 
" style="fill:none;stroke:#e5e7eb;stroke-dasharray:3.7,1.6;stroke-dashoffset:0;"/>
     </g>
     <g id="line2d_22">
      <g>
       <use style="stroke:#000000;stroke-width:0.8;" x="35.35" xlink:href="#m492053be3e" y="260.903745"/>
      </g>
     </g>
     <g id="text_12">
      <!-- −8 -->
      <g transform="translate(15.59375 264.540464)scale(0.1 -0.1)">
       <defs>
        <path d="M 1973 -64 
C 2902 -64 3550 480 3555 1236 
C 3550 1825 3157 2325 2655 2418 
L 2655 2445 
C 3091 2559 3377 2986 3382 3482 
C 3377 4191 2782 4718 1973 4718 
C 1155 4718 559 4191 564 3482 
C 559 2986 846 2559 1291 2445 
L 1291 2418 
C 780 2325 386 1825 391 1236 
C 386 480 1034 -64 1973 -64 
z
M 1973 2645 
C 1464 2645 1105 2964 1109 3445 
C 1105 3918 1450 4227 1973 4227 
C 2486 4227 2832 3918 2836 3445 
C 2832 2964 2473 2645 1973 2645 
z
M 1973 436 
C 1334 436 941 764 946 1264 
C 941 1789 1375 2164 1973 2164 
C 2561 2164 2996 1789 3000 1264 
C 2996 764 2602 436 1973 436 
z
" id="Inter-Regular-38" transform="scale(0.015625)"/>
       </defs>
       <use xlink:href="#Inter-Regular-2212"/>
       <use x="65.909103" xlink:href="#Inter-Regular-38"/>
      </g>
     </g>
    </g>
    <g id="ytick_3">
     <g id="line2d_23">
      <path clip-path="url(#p49296a9407)" d="M 35.35 225.743032 
L 565.2 225.743032 
" style="fill:none;stroke:#e5e7eb;stroke-dasharray:3.7,1.6;stroke-dashoffset:0;"/>
     </g>
     <g id="line2d_24">
      <g>
       <use style="stroke:#000000;stroke-width:0.8;" x="35.35" xlink:href="#m492053be3e" y="225.743032"/>
      </g>
     </g>
     <g id="text_13">
      <!-- −6 -->
      <g transform="translate(15.523438 229.379751)scale(0.1 -0.1)">
       <defs>
        <path d="M 2027 -64 
C 2968 -75 3582 634 3582 1500 
C 3582 2400 2916 3045 2118 3045 
C 1639 3045 1227 2811 973 2427 
L 936 2427 
C 939 3570 1380 4227 2100 4227 
C 2591 4227 2886 3918 2991 3491 
L 3546 3491 
C 3432 4223 2882 4727 2100 4727 
C 1052 4727 409 3800 409 2145 
C 409 425 1264 -55 2027 -64 
z
M 2027 436 
C 1443 436 1016 934 1018 1491 
C 1021 2048 1468 2545 2046 2545 
C 2616 2545 3036 2077 3036 1500 
C 3036 909 2598 436 2027 436 
z
" id="Inter-Regular-36" transform="scale(0.015625)"/>
       </defs>
       <use xlink:href="#Inter-Regular-2212"/>
       <use x="65.909103" xlink:href="#Inter-Regular-36"/>
      </g>
     </g>
    </g>
    <g id="ytick_4">
     <g id="line2d_25">
      <path clip-path="url(#p49296a9407)" d="M 35.35 190.58232 
L 565.2 190.58232 
" style="fill:none;stroke:#e5e7eb;stroke-dasharray:3.7,1.6;stroke-dashoffset:0;"/>
     </g>
     <g id="line2d_26">
      <g>
       <use style="stroke:#000000;stroke-width:0.8;" x="35.35" xlink:href="#m492053be3e" y="190.58232"/>
      </g>
     </g>
     <g id="text_14">
      <!-- −4 -->
      <g transform="translate(15.339063 194.219038)scale(0.1 -0.1)">
       <defs>
        <path d="M 373 955 
L 2564 955 
L 2564 0 
L 3100 0 
L 3100 955 
L 3736 955 
L 3736 1455 
L 3100 1455 
L 3100 4655 
L 2418 4655 
L 373 1418 
L 373 955 
z
M 982 1455 
L 982 1491 
L 2527 3936 
L 2564 3936 
L 2564 1455 
L 982 1455 
z
" id="Inter-Regular-34" transform="scale(0.015625)"/>
       </defs>
       <use xlink:href="#Inter-Regular-2212"/>
       <use x="65.909103" xlink:href="#Inter-Regular-34"/>
      </g>
     </g>
    </g>
    <g id="ytick_5">
     <g id="line2d_27">
      <path clip-path="url(#p49296a9407)" d="M 35.35 155.421607 
L 565.2 155.421607 
" style="fill:none;stroke:#e5e7eb;stroke-dasharray:3.7,1.6;stroke-dashoffset:0;"/>
     </g>
     <g id="line2d_28">
      <g>
       <use style="stroke:#000000;stroke-width:0.8;" x="35.35" xlink:href="#m492053be3e" y="155.421607"/>
      </g>
     </g>
     <g id="text_15">
      <!-- −2 -->
      <g transform="translate(15.707813 159.058326)scale(0.1 -0.1)">
       <use xlink:href="#Inter-Regular-2212"/>
       <use x="65.909103" xlink:href="#Inter-Regular-32"/>
      </g>
     </g>
    </g>
    <g id="ytick_6">
     <g id="line2d_29">
      <path clip-path="url(#p49296a9407)" d="M 35.35 120.260894 
L 565.2 120.260894 
" style="fill:none;stroke:#e5e7eb;stroke-dasharray:3.7,1.6;stroke-dashoffset:0;"/>
     </g>
     <g id="line2d_30">
      <g>
       <use style="stroke:#000000;stroke-width:0.8;" x="35.35" xlink:href="#m492053be3e" y="120.260894"/>
      </g>
     </g>
     <g id="text_16">
      <!-- 0 -->
      <g transform="translate(22.1 123.897613)scale(0.1 -0.1)">
       <use xlink:href="#Inter-Regular-30"/>
      </g>
     </g>
    </g>
    <g id="ytick_7">
     <g id="line2d_31">
      <path clip-path="url(#p49296a9407)" d="M 35.35 85.100182 
L 565.2 85.100182 
" style="fill:none;stroke:#e5e7eb;stroke-dasharray:3.7,1.6;stroke-dashoffset:0;"/>
     </g>
     <g id="line2d_32">
      <g>
       <use style="stroke:#000000;stroke-width:0.8;" x="35.35" xlink:href="#m492053be3e" y="85.100182"/>
      </g>
     </g>
     <g id="text_17">
      <!-- 2 -->
      <g transform="translate(22.298438 88.736901)scale(0.1 -0.1)">
       <use xlink:href="#Inter-Regular-32"/>
      </g>
     </g>
    </g>
    <g id="ytick_8">
     <g id="line2d_33">
      <path clip-path="url(#p49296a9407)" d="M 35.35 49.939469 
L 565.2 49.939469 
" style="fill:none;stroke:#e5e7eb;stroke-dasharray:3.7,1.6;stroke-dashoffset:0;"/>
     </g>
     <g id="line2d_34">
      <g>
       <use style="stroke:#000000;stroke-width:0.8;" x="35.35" xlink:href="#m492053be3e" y="49.939469"/>
      </g>
     </g>
     <g id="text_18">
      <!-- 4 -->
      <g transform="translate(21.929688 53.576188)scale(0.1 -0.1)">
       <use xlink:href="#Inter-Regular-34"/>
      </g>
     </g>
    </g>
    <g id="ytick_9">
     <g id="line2d_35">
      <path clip-path="url(#p49296a9407)" d="M 35.35 14.778757 
L 565.2 14.778757 
" style="fill:none;stroke:#e5e7eb;stroke-dasharray:3.7,1.6;stroke-dashoffset:0;"/>
     </g>
     <g id="line2d_36">
      <g>
       <use style="stroke:#000000;stroke-width:0.8;" x="35.35" xlink:href="#m492053be3e" y="14.778757"/>
      </g>
     </g>
     <g id="text_19">
      <!-- 6 -->
      <g transform="translate(22.114063 18.415475)scale(0.1 -0.1)">
       <use xlink:href="#Inter-Regular-36"/>
      </g>
     </g>
    </g>
   </g>
   <g id="line2d_37">
    <path clip-path="url(#p49296a9407)" d="M 59.434091 27.564186 
L 64.299564 33.819151 
L 69.165037 39.790881 
L 74.03051 45.485851 
L 78.895983 50.910536 
L 83.761455 56.071411 
L 88.626928 60.974951 
L 93.492401 65.627631 
L 98.357874 70.035926 
L 103.223347 74.206312 
L 108.08882 78.145263 
L 112.954293 81.859254 
L 117.819766 85.35476 
L 122.685239 88.638257 
L 127.550712 91.716219 
L 132.416185 94.595121 
L 137.281657 97.28144 
L 142.14713 99.781648 
L 147.012603 102.102222 
L 151.878076 104.249637 
L 156.743549 106.230368 
L 161.609022 108.050889 
L 166.474495 109.717676 
L 171.339968 111.237204 
L 176.205441 112.615948 
L 181.070914 113.860382 
L 185.936387 114.976983 
L 190.80186 115.972224 
L 195.667332 116.852582 
L 200.532805 117.62453 
L 205.398278 118.294545 
L 210.263751 118.869101 
L 215.129224 119.354673 
L 219.994697 119.757737 
L 224.86017 120.084766 
L 229.725643 120.342237 
L 234.591116 120.536625 
L 239.456589 120.674404 
L 244.322062 120.762049 
L 249.187534 120.806036 
L 254.053007 120.812839 
L 258.91848 120.788934 
L 263.783953 120.740796 
L 268.649426 120.674899 
L 273.514899 120.597719 
L 278.380372 120.515731 
L 283.245845 120.435409 
L 288.111318 120.36323 
L 292.976791 120.305667 
L 297.842264 120.269197 
L 302.707736 120.260293 
L 307.573209 120.285432 
L 312.438682 120.351087 
L 317.304155 120.463735 
L 322.169628 120.62985 
L 327.035101 120.855907 
L 331.900574 121.148381 
L 336.766047 121.513748 
L 341.63152 121.958482 
L 346.496993 122.489058 
L 351.362466 123.111952 
L 356.227938 123.833639 
L 361.093411 124.660592 
L 365.958884 125.599289 
L 370.824357 126.656203 
L 375.68983 127.83781 
L 380.555303 129.150584 
L 385.420776 130.601001 
L 390.286249 132.195536 
L 395.151722 133.940664 
L 400.017195 135.84286 
L 404.882668 137.908599 
L 409.74814 140.144355 
L 414.613613 142.556605 
L 419.479086 145.151823 
L 424.344559 147.936483 
L 429.210032 150.917062 
L 434.075505 154.100035 
L 438.940978 157.491875 
L 443.806451 161.099059 
L 448.671924 164.928061 
L 453.537397 168.985356 
L 458.40287 173.27742 
L 463.268343 177.810727 
L 468.133815 182.591753 
L 472.999288 187.626972 
L 477.864761 192.92286 
L 482.730234 198.485892 
L 487.595707 204.322542 
L 492.46118 210.439286 
L 497.326653 216.842598 
L 502.192126 223.538955 
L 507.057599 230.53483 
L 511.923072 237.8367 
L 516.788545 245.451038 
L 521.654017 253.38432 
L 526.51949 261.643021 
L 531.384963 270.233617 
L 536.250436 279.162581 
L 541.115909 288.43639 
" style="fill:none;stroke:#1f77b4;stroke-linecap:square;stroke-width:1.5;"/>
   </g>
   <g id="line2d_38">
    <path clip-path="url(#p49296a9407)" d="M 59.434091 107.644301 
L 64.299564 108.282203 
L 69.165037 108.899435 
L 74.03051 109.496305 
L 78.895983 110.073121 
L 83.761455 110.630191 
L 88.626928 111.167823 
L 93.492401 111.686325 
L 98.357874 112.186004 
L 103.223347 112.667168 
L 108.08882 113.130127 
L 112.954293 113.575186 
L 117.819766 114.002655 
L 122.685239 114.41284 
L 127.550712 114.806051 
L 132.416185 115.182595 
L 137.281657 115.542779 
L 142.14713 115.886913 
L 147.012603 116.215302 
L 151.878076 116.528257 
L 156.743549 116.826084 
L 161.609022 117.109091 
L 166.474495 117.377586 
L 171.339968 117.631878 
L 176.205441 117.872274 
L 181.070914 118.099081 
L 185.936387 118.312609 
L 190.80186 118.513164 
L 195.667332 118.701054 
L 200.532805 118.876589 
L 205.398278 119.040075 
L 210.263751 119.19182 
L 215.129224 119.332132 
L 219.994697 119.46132 
L 224.86017 119.57969 
L 229.725643 119.687552 
L 234.591116 119.785212 
L 239.456589 119.87298 
L 244.322062 119.951162 
L 249.187534 120.020066 
L 254.053007 120.080001 
L 258.91848 120.131274 
L 263.783953 120.174194 
L 268.649426 120.209068 
L 273.514899 120.236203 
L 278.380372 120.255909 
L 283.245845 120.268493 
L 288.111318 120.274262 
L 292.976791 120.273526 
L 297.842264 120.26659 
L 302.707736 120.253765 
L 307.573209 120.235356 
L 312.438682 120.211673 
L 317.304155 120.183023 
L 322.169628 120.149714 
L 327.035101 120.112055 
L 331.900574 120.070352 
L 336.766047 120.024914 
L 341.63152 119.976048 
L 346.496993 119.924063 
L 351.362466 119.869267 
L 356.227938 119.811967 
L 361.093411 119.752472 
L 365.958884 119.691088 
L 370.824357 119.628125 
L 375.68983 119.56389 
L 380.555303 119.49869 
L 385.420776 119.432835 
L 390.286249 119.366631 
L 395.151722 119.300387 
L 400.017195 119.23441 
L 404.882668 119.169009 
L 409.74814 119.104491 
L 414.613613 119.041165 
L 419.479086 118.979337 
L 424.344559 118.919317 
L 429.210032 118.861411 
L 434.075505 118.805928 
L 438.940978 118.753176 
L 443.806451 118.703463 
L 448.671924 118.657096 
L 453.537397 118.614384 
L 458.40287 118.575634 
L 463.268343 118.541154 
L 468.133815 118.511252 
L 472.999288 118.486237 
L 477.864761 118.466415 
L 482.730234 118.452095 
L 487.595707 118.443585 
L 492.46118 118.441193 
L 497.326653 118.445226 
L 502.192126 118.455993 
L 507.057599 118.473801 
L 511.923072 118.498958 
L 516.788545 118.531773 
L 521.654017 118.572552 
L 526.51949 118.621605 
L 531.384963 118.679238 
L 536.250436 118.74576 
L 541.115909 118.821479 
" style="fill:none;stroke:#ff7f0e;stroke-linecap:square;stroke-width:1.5;"/>
   </g>
   <g id="patch_3">
    <path d="M 35.35 301.48 
L 35.35 14.520575 
" style="fill:none;stroke:#000000;stroke-linecap:square;stroke-linejoin:miter;stroke-width:0.8;"/>
   </g>
   <g id="patch_4">
    <path d="M 565.2 301.48 
L 565.2 14.520575 
" style="fill:none;stroke:#000000;stroke-linecap:square;stroke-linejoin:miter;stroke-width:0.8;"/>
   </g>
   <g id="patch_5">
    <path d="M 35.35 301.48 
L 565.2 301.48 
" style="fill:none;stroke:#000000;stroke-linecap:square;stroke-linejoin:miter;stroke-width:0.8;"/>
   </g>
   <g id="patch_6">
    <path d="M 35.35 14.520575 
L 565.2 14.520575 
" style="fill:none;stroke:#000000;stroke-linecap:square;stroke-linejoin:miter;stroke-width:0.8;"/>
   </g>
   <g id="legend_1">
    <g id="patch_7">
     <path d="M 516.1 52.212763 
L 558.2 52.212763 
Q 560.2 52.212763 560.2 50.212763 
L 560.2 21.520575 
Q 560.2 19.520575 558.2 19.520575 
L 516.1 19.520575 
Q 514.1 19.520575 514.1 21.520575 
L 514.1 50.212763 
Q 514.1 52.212763 516.1 52.212763 
z
" style="fill:#ffffff;opacity:0.8;stroke:#cccccc;stroke-linejoin:miter;"/>
    </g>
    <g id="line2d_39">
     <path d="M 518.1 27.294013 
L 538.1 27.294013 
" style="fill:none;stroke:#1f77b4;stroke-linecap:square;stroke-width:1.5;"/>
    </g>
    <g id="line2d_40"/>
    <g id="text_20">
     <!-- $\nu_x$ -->
     <g transform="translate(546.1 30.794013)scale(0.1 -0.1)">
      <defs>
       <path d="M 959 0 
L 572 3500 
L 1191 3500 
L 1522 563 
Q 1972 950 2391 1488 
Q 2706 1891 2788 2241 
Q 2825 2406 2809 2719 
Q 2794 3091 2544 3500 
L 3125 3500 
L 3125 3500 
Q 3288 3222 3353 2834 
Q 3416 2478 3369 2234 
Q 3250 1622 2719 1075 
Q 2025 363 1572 0 
L 959 0 
z
" id="DejaVuSans-Oblique-3bd" transform="scale(0.015625)"/>
       <path d="M 3841 3500 
L 2234 1784 
L 3219 0 
L 2559 0 
L 1819 1388 
L 531 0 
L -166 0 
L 1556 1844 
L 641 3500 
L 1300 3500 
L 1972 2234 
L 3144 3500 
L 3841 3500 
z
" id="DejaVuSans-Oblique-78" transform="scale(0.015625)"/>
      </defs>
      <use transform="translate(0 0.3125)" xlink:href="#DejaVuSans-Oblique-3bd"/>
      <use transform="translate(55.859375 -16.09375)scale(0.7)" xlink:href="#DejaVuSans-Oblique-78"/>
     </g>
    </g>
    <g id="line2d_41">
     <path d="M 518.1 41.612763 
L 538.1 41.612763 
" style="fill:none;stroke:#ff7f0e;stroke-linecap:square;stroke-width:1.5;"/>
    </g>
    <g id="line2d_42"/>
    <g id="text_21">
     <!-- $\nu_y$ -->
     <g transform="translate(546.1 45.112763)scale(0.1 -0.1)">
      <defs>
       <path d="M 1588 -325 
Q 1188 -997 936 -1164 
Q 684 -1331 294 -1331 
L -159 -1331 
L -63 -850 
L 269 -850 
Q 509 -850 678 -719 
Q 847 -588 1056 -206 
L 1234 128 
L 459 3500 
L 1069 3500 
L 1650 819 
L 3256 3500 
L 3859 3500 
L 1588 -325 
z
" id="DejaVuSans-Oblique-79" transform="scale(0.015625)"/>
      </defs>
      <use transform="translate(0 0.3125)" xlink:href="#DejaVuSans-Oblique-3bd"/>
      <use transform="translate(55.859375 -16.09375)scale(0.7)" xlink:href="#DejaVuSans-Oblique-79"/>
     </g>
    </g>
   </g>
  </g>
 </g>
 <defs>
  <clipPath id="p49296a9407">
   <rect height="286.959425" width="529.85" x="35.35" y="14.520575"/>
  </clipPath>
 </defs>
</svg>
