<?xml version="1.0" encoding="utf-8" standalone="no"?>
<!DOCTYPE svg PUBLIC "-//W3C//DTD SVG 1.1//EN"
  "http://www.w3.org/Graphics/SVG/1.1/DTD/svg11.dtd">
<svg height="345.6pt" version="1.1" viewBox="0 0 576 345.6" width="576pt" xmlns="http://www.w3.org/2000/svg" xmlns:xlink="http://www.w3.org/1999/xlink">
 <metadata>
  <rdf:RDF xmlns:cc="http://creativecommons.org/ns#" xmlns:dc="http://purl.org/dc/elements/1.1/" xmlns:rdf="http://www.w3.org/1999/02/22-rdf-syntax-ns#">
   <cc:Work>
    <dc:type rdf:resource="http://purl.org/dc/dcmitype/StillImage"/>
    <dc:date>2021-06-06T23:11:05.201446</dc:date>
    <dc:format>image/svg+xml</dc:format>
    <dc:creator>
     <cc:Agent>
      <dc:title>Matplotlib v3.4.2, https://matplotlib.org/</dc:title>
     </cc:Agent>
    </dc:creator>
   </cc:Work>
  </rdf:RDF>
 </metadata>
 <defs>
  <style type="text/css">*{stroke-linecap:butt;stroke-linejoin:round;}</style>
 </defs>
 <g id="figure_1">
  <g id="patch_1">
   <path d="M 0 345.6 
L 576 345.6 
L 576 0 
L 0 0 
z
" style="fill:#ffffff;"/>
  </g>
  <g id="axes_1">
   <g id="patch_2">
    <path clip-path="url(#p9fc309b33a)" d="M 76.376471 187.801141 
L 241.032486 187.801141 
" style="stroke:#000000;stroke-linejoin:miter;"/>
   </g>
   <g id="patch_3">
    <path clip-path="url(#p9fc309b33a)" d="M 241.032486 187.801141 
L 250.421282 187.801141 
" style="fill:#10b981;stroke:#10b981;stroke-linejoin:miter;stroke-width:6;"/>
   </g>
   <g id="patch_4">
    <path clip-path="url(#p9fc309b33a)" d="M 250.421282 187.801141 
L 259.399319 187.801141 
" style="stroke:#000000;stroke-linejoin:miter;"/>
   </g>
   <g id="patch_5">
    <path clip-path="url(#p9fc309b33a)" d="M 259.399319 187.801141 
L 288.739307 187.801141 
" style="fill:#ef4444;stroke:#ef4444;stroke-linejoin:miter;stroke-width:6;"/>
   </g>
   <g id="patch_6">
    <path clip-path="url(#p9fc309b33a)" d="M 288.739307 187.801141 
L 297.717343 187.801141 
" style="stroke:#000000;stroke-linejoin:miter;"/>
   </g>
   <g id="patch_7">
    <path clip-path="url(#p9fc309b33a)" d="M 297.717343 187.801141 
L 307.10614 187.801141 
" style="fill:#10b981;stroke:#10b981;stroke-linejoin:miter;stroke-width:6;"/>
   </g>
   <g id="patch_8">
    <path clip-path="url(#p9fc309b33a)" d="M 307.10614 187.801141 
L 316.084176 187.801141 
" style="stroke:#000000;stroke-linejoin:miter;"/>
   </g>
   <g id="patch_9">
    <path clip-path="url(#p9fc309b33a)" d="M 316.084176 187.801141 
L 330.75417 187.801141 
" style="fill:#ef4444;stroke:#ef4444;stroke-linejoin:miter;stroke-width:6;"/>
   </g>
   <g id="patch_10">
    <path clip-path="url(#p9fc309b33a)" d="M 330.75417 187.801141 
L 355.399761 187.801141 
" style="stroke:#000000;stroke-linejoin:miter;"/>
   </g>
   <g id="patch_11">
    <path clip-path="url(#p9fc309b33a)" d="M 355.399761 187.801141 
C 363.763336 187.801141 372.121871 187.390513 380.445173 186.570739 
C 388.768476 185.750965 397.046513 184.523034 405.249385 182.891382 
" style="fill:none;stroke:#fbbf24;stroke-linejoin:miter;stroke-width:6;"/>
   </g>
   <g id="patch_12">
    <path clip-path="url(#p9fc309b33a)" d="M 405.249385 182.891382 
L 429.421417 178.083265 
" style="stroke:#000000;stroke-linejoin:miter;"/>
   </g>
   <g id="patch_13">
    <path clip-path="url(#p9fc309b33a)" d="M 429.421417 178.083265 
L 440.931908 175.793686 
" style="fill:#ef4444;stroke:#ef4444;stroke-linejoin:miter;stroke-width:6;"/>
   </g>
   <g id="patch_14">
    <path clip-path="url(#p9fc309b33a)" d="M 440.931908 175.793686 
L 458.600513 172.279182 
" style="stroke:#000000;stroke-linejoin:miter;"/>
   </g>
   <g id="patch_15">
    <path clip-path="url(#p9fc309b33a)" d="M 458.600513 172.279182 
L 467.808906 170.447519 
" style="fill:#10b981;stroke:#10b981;stroke-linejoin:miter;stroke-width:6;"/>
   </g>
   <g id="patch_16">
    <path clip-path="url(#p9fc309b33a)" d="M 467.808906 170.447519 
L 484.384014 167.150525 
" style="stroke:#000000;stroke-linejoin:miter;"/>
   </g>
   <g id="patch_17">
    <path clip-path="url(#p9fc309b33a)" d="M 484.384014 167.150525 
L 498.772128 164.288551 
" style="fill:#ef4444;stroke:#ef4444;stroke-linejoin:miter;stroke-width:6;"/>
   </g>
   <g id="patch_18">
    <path clip-path="url(#p9fc309b33a)" d="M 498.772128 164.288551 
L 507.980521 162.456888 
" style="stroke:#000000;stroke-linejoin:miter;"/>
   </g>
   <g id="patch_19">
    <path clip-path="url(#p9fc309b33a)" d="M 507.980521 162.456888 
L 514.023529 161.254859 
" style="fill:#10b981;stroke:#10b981;stroke-linejoin:miter;stroke-width:6;"/>
   </g>
   <g id="text_1">
    <!-- q4d1 -->
    <g transform="translate(267.059157 218.709567)scale(0.06 -0.06)">
     <defs>
      <path d="M 3409 -1309 
L 3409 3491 
L 2891 3491 
L 2891 2936 
L 2827 2936 
C 2709 3118 2500 3536 1818 3536 
C 936 3536 327 2836 327 1736 
C 327 627 936 -73 1809 -73 
C 2482 -73 2709 345 2827 536 
L 2873 536 
L 2873 -1309 
L 3409 -1309 
z
M 2882 1745 
C 2882 955 2527 409 1882 409 
C 1209 409 864 1000 864 1745 
C 864 2482 1200 3055 1882 3055 
C 2536 3055 2882 2527 2882 1745 
z
" id="Inter-Regular-71" transform="scale(0.015625)"/>
      <path d="M 373 955 
L 2564 955 
L 2564 0 
L 3100 0 
L 3100 955 
L 3736 955 
L 3736 1455 
L 3100 1455 
L 3100 4655 
L 2418 4655 
L 373 1418 
L 373 955 
z
M 982 1455 
L 982 1491 
L 2527 3936 
L 2564 3936 
L 2564 1455 
L 982 1455 
z
" id="Inter-Regular-34" transform="scale(0.015625)"/>
      <path d="M 1809 -73 
C 2482 -73 2709 345 2827 536 
L 2891 536 
L 2891 0 
L 3409 0 
L 3409 4655 
L 2873 4655 
L 2873 2936 
L 2827 2936 
C 2709 3118 2500 3536 1818 3536 
C 936 3536 327 2836 327 1736 
C 327 627 936 -73 1809 -73 
z
M 1882 409 
C 1209 409 864 1000 864 1745 
C 864 2482 1200 3055 1882 3055 
C 2536 3055 2882 2527 2882 1745 
C 2882 955 2527 409 1882 409 
z
" id="Inter-Regular-64" transform="scale(0.015625)"/>
      <path d="M 2118 4655 
L 1555 4655 
L 391 3882 
L 391 3309 
L 1527 4064 
L 1555 4064 
L 1555 0 
L 2118 0 
L 2118 4655 
z
" id="Inter-Regular-31" transform="scale(0.015625)"/>
     </defs>
     <use xlink:href="#Inter-Regular-71"/>
     <use x="60.937515" xlink:href="#Inter-Regular-34"/>
     <use x="125.142075" xlink:href="#Inter-Regular-64"/>
     <use x="187.215958" xlink:href="#Inter-Regular-31"/>
    </g>
   </g>
   <g id="text_2">
    <!-- q3d1 -->
    <g transform="translate(316.425892 160.059121)scale(0.06 -0.06)">
     <defs>
      <path d="M 2055 -64 
C 2957 -64 3627 502 3627 1264 
C 3627 1855 3277 2284 2691 2382 
L 2691 2418 
C 3161 2561 3455 2948 3455 3473 
C 3455 4132 2934 4718 2073 4718 
C 1268 4718 600 4223 573 3491 
L 1118 3491 
C 1139 3955 1580 4227 2064 4227 
C 2577 4227 2909 3916 2909 3445 
C 2909 2955 2525 2636 1973 2636 
L 1600 2636 
L 1600 2136 
L 1973 2136 
C 2680 2136 3073 1777 3073 1264 
C 3073 770 2643 436 2046 436 
C 1507 436 1080 714 1046 1164 
L 473 1164 
C 507 432 1152 -64 2055 -64 
z
" id="Inter-Regular-33" transform="scale(0.015625)"/>
     </defs>
     <use xlink:href="#Inter-Regular-71"/>
     <use x="60.937515" xlink:href="#Inter-Regular-33"/>
     <use x="124.573898" xlink:href="#Inter-Regular-64"/>
     <use x="186.647781" xlink:href="#Inter-Regular-31"/>
    </g>
   </g>
   <g id="text_3">
    <!-- b -->
    <g transform="translate(381.338051 216.113407)scale(0.06 -0.06)">
     <defs>
      <path d="M 564 0 
L 1082 0 
L 1082 536 
L 1146 536 
C 1264 345 1491 -73 2164 -73 
C 3036 -73 3646 627 3646 1736 
C 3646 2836 3036 3536 2155 3536 
C 1473 3536 1264 3118 1146 2936 
L 1100 2936 
L 1100 4655 
L 564 4655 
L 564 0 
z
M 1091 1745 
C 1091 2527 1436 3055 2091 3055 
C 2773 3055 3109 2482 3109 1745 
C 3109 1000 2764 409 2091 409 
C 1446 409 1091 955 1091 1745 
z
" id="Inter-Regular-62" transform="scale(0.015625)"/>
     </defs>
     <use xlink:href="#Inter-Regular-62"/>
    </g>
   </g>
   <g id="text_4">
    <!-- q2d -->
    <g transform="translate(423.946777 149.760216)scale(0.06 -0.06)">
     <defs>
      <path d="M 482 0 
L 3418 0 
L 3418 500 
L 1255 500 
L 1255 536 
L 2300 1655 
C 3100 2511 3336 2911 3336 3427 
C 3336 4145 2755 4718 1936 4718 
C 1121 4718 500 4164 500 3345 
L 1036 3345 
C 1036 3875 1380 4227 1918 4227 
C 2423 4227 2809 3918 2809 3427 
C 2809 2998 2557 2680 2018 2091 
L 482 409 
L 482 0 
z
" id="Inter-Regular-32" transform="scale(0.015625)"/>
     </defs>
     <use xlink:href="#Inter-Regular-71"/>
     <use x="60.937515" xlink:href="#Inter-Regular-32"/>
     <use x="121.448898" xlink:href="#Inter-Regular-64"/>
    </g>
   </g>
   <g id="text_5">
    <!-- q1d -->
    <g transform="translate(492.217956 196.064205)scale(0.06 -0.06)">
     <use xlink:href="#Inter-Regular-71"/>
     <use x="60.937515" xlink:href="#Inter-Regular-31"/>
     <use x="107.386383" xlink:href="#Inter-Regular-64"/>
    </g>
   </g>
  </g>
 </g>
 <defs>
  <clipPath id="p9fc309b33a">
   <rect height="35.299223" width="446.4" x="72" y="156.878388"/>
  </clipPath>
 </defs>
</svg>
