<?xml version="1.0" encoding="utf-8" standalone="no"?>
<!DOCTYPE svg PUBLIC "-//W3C//DTD SVG 1.1//EN"
  "http://www.w3.org/Graphics/SVG/1.1/DTD/svg11.dtd">
<svg height="345.6pt" version="1.1" viewBox="0 0 576 345.6" width="576pt" xmlns="http://www.w3.org/2000/svg" xmlns:xlink="http://www.w3.org/1999/xlink">
 <metadata>
  <rdf:RDF xmlns:cc="http://creativecommons.org/ns#" xmlns:dc="http://purl.org/dc/elements/1.1/" xmlns:rdf="http://www.w3.org/1999/02/22-rdf-syntax-ns#">
   <cc:Work>
    <dc:type rdf:resource="http://purl.org/dc/dcmitype/StillImage"/>
    <dc:date>2021-06-06T23:11:09.206761</dc:date>
    <dc:format>image/svg+xml</dc:format>
    <dc:creator>
     <cc:Agent>
      <dc:title>Matplotlib v3.4.2, https://matplotlib.org/</dc:title>
     </cc:Agent>
    </dc:creator>
   </cc:Work>
  </rdf:RDF>
 </metadata>
 <defs>
  <style type="text/css">*{stroke-linecap:butt;stroke-linejoin:round;}</style>
 </defs>
 <g id="figure_1">
  <g id="patch_1">
   <path d="M 0 345.6 
L 576 345.6 
L 576 0 
L 0 0 
z
" style="fill:#ffffff;"/>
  </g>
  <g id="axes_1">
   <g id="patch_2">
    <path d="M 38.05 301.48 
L 565.2 301.48 
L 565.2 10.8 
L 38.05 10.8 
z
" style="fill:#ffffff;"/>
   </g>
   <g id="matplotlib.axis_1">
    <g id="xtick_1">
     <g id="line2d_1">
      <path clip-path="url(#p392429e059)" d="M 62.011364 301.48 
L 62.011364 10.8 
" style="fill:none;stroke:#e5e7eb;stroke-dasharray:3.7,1.6;stroke-dashoffset:0;"/>
     </g>
     <g id="line2d_2">
      <defs>
       <path d="M 0 0 
L 0 3.5 
" id="mb09b98309f" style="stroke:#000000;stroke-width:0.8;"/>
      </defs>
      <g>
       <use style="stroke:#000000;stroke-width:0.8;" x="62.011364" xlink:href="#mb09b98309f" y="301.48"/>
      </g>
     </g>
     <g id="text_1">
      <!-- −0.020 -->
      <g transform="translate(44.937145 315.753437)scale(0.1 -0.1)">
       <defs>
        <path d="M 3564 2073 
L 655 2073 
L 655 1564 
L 3564 1564 
L 3564 2073 
z
" id="Inter-Regular-2212" transform="scale(0.015625)"/>
        <path d="M 2000 -64 
C 3027 -64 3618 807 3618 2327 
C 3618 3836 3018 4718 2000 4718 
C 982 4718 382 3836 382 2327 
C 382 807 973 -64 2000 -64 
z
M 2000 436 
C 1323 436 927 1116 927 2327 
C 927 3536 1327 4227 2000 4227 
C 2673 4227 3073 3536 3073 2327 
C 3073 1116 2677 436 2000 436 
z
" id="Inter-Regular-30" transform="scale(0.015625)"/>
        <path d="M 882 -36 
C 1107 -36 1291 148 1291 373 
C 1291 598 1107 782 882 782 
C 657 782 473 598 473 373 
C 473 148 657 -36 882 -36 
z
" id="Inter-Regular-2e" transform="scale(0.015625)"/>
        <path d="M 482 0 
L 3418 0 
L 3418 500 
L 1255 500 
L 1255 536 
L 2300 1655 
C 3100 2511 3336 2911 3336 3427 
C 3336 4145 2755 4718 1936 4718 
C 1121 4718 500 4164 500 3345 
L 1036 3345 
C 1036 3875 1380 4227 1918 4227 
C 2423 4227 2809 3918 2809 3427 
C 2809 2998 2557 2680 2018 2091 
L 482 409 
L 482 0 
z
" id="Inter-Regular-32" transform="scale(0.015625)"/>
       </defs>
       <use xlink:href="#Inter-Regular-2212"/>
       <use x="65.909103" xlink:href="#Inter-Regular-30"/>
       <use x="128.409119" xlink:href="#Inter-Regular-2e"/>
       <use x="155.965942" xlink:href="#Inter-Regular-30"/>
       <use x="218.465958" xlink:href="#Inter-Regular-32"/>
       <use x="278.977341" xlink:href="#Inter-Regular-30"/>
      </g>
     </g>
    </g>
    <g id="xtick_2">
     <g id="line2d_3">
      <path clip-path="url(#p392429e059)" d="M 121.914773 301.48 
L 121.914773 10.8 
" style="fill:none;stroke:#e5e7eb;stroke-dasharray:3.7,1.6;stroke-dashoffset:0;"/>
     </g>
     <g id="line2d_4">
      <g>
       <use style="stroke:#000000;stroke-width:0.8;" x="121.914773" xlink:href="#mb09b98309f" y="301.48"/>
      </g>
     </g>
     <g id="text_2">
      <!-- −0.015 -->
      <g transform="translate(105.628835 315.753437)scale(0.1 -0.1)">
       <defs>
        <path d="M 2118 4655 
L 1555 4655 
L 391 3882 
L 391 3309 
L 1527 4064 
L 1555 4064 
L 1555 0 
L 2118 0 
L 2118 4655 
z
" id="Inter-Regular-31" transform="scale(0.015625)"/>
        <path d="M 1936 -64 
C 2823 -64 3473 591 3473 1482 
C 3473 2384 2846 3045 1991 3045 
C 1677 3045 1373 2934 1182 2782 
L 1155 2782 
L 1318 4155 
L 3264 4155 
L 3264 4655 
L 846 4655 
L 564 2364 
L 1091 2300 
C 1284 2439 1614 2539 1900 2536 
C 2493 2532 2927 2082 2927 1473 
C 2927 875 2509 436 1936 436 
C 1459 436 1080 743 1036 1164 
L 491 1164 
C 525 455 1136 -64 1936 -64 
z
" id="Inter-Regular-35" transform="scale(0.015625)"/>
       </defs>
       <use xlink:href="#Inter-Regular-2212"/>
       <use x="65.909103" xlink:href="#Inter-Regular-30"/>
       <use x="128.409119" xlink:href="#Inter-Regular-2e"/>
       <use x="155.965942" xlink:href="#Inter-Regular-30"/>
       <use x="218.465958" xlink:href="#Inter-Regular-31"/>
       <use x="264.914825" xlink:href="#Inter-Regular-35"/>
      </g>
     </g>
    </g>
    <g id="xtick_3">
     <g id="line2d_5">
      <path clip-path="url(#p392429e059)" d="M 181.818182 301.48 
L 181.818182 10.8 
" style="fill:none;stroke:#e5e7eb;stroke-dasharray:3.7,1.6;stroke-dashoffset:0;"/>
     </g>
     <g id="line2d_6">
      <g>
       <use style="stroke:#000000;stroke-width:0.8;" x="181.818182" xlink:href="#mb09b98309f" y="301.48"/>
      </g>
     </g>
     <g id="text_3">
      <!-- −0.010 -->
      <g transform="translate(165.447088 315.753437)scale(0.1 -0.1)">
       <use xlink:href="#Inter-Regular-2212"/>
       <use x="65.909103" xlink:href="#Inter-Regular-30"/>
       <use x="128.409119" xlink:href="#Inter-Regular-2e"/>
       <use x="155.965942" xlink:href="#Inter-Regular-30"/>
       <use x="218.465958" xlink:href="#Inter-Regular-31"/>
       <use x="264.914825" xlink:href="#Inter-Regular-30"/>
      </g>
     </g>
    </g>
    <g id="xtick_4">
     <g id="line2d_7">
      <path clip-path="url(#p392429e059)" d="M 241.721591 301.48 
L 241.721591 10.8 
" style="fill:none;stroke:#e5e7eb;stroke-dasharray:3.7,1.6;stroke-dashoffset:0;"/>
     </g>
     <g id="line2d_8">
      <g>
       <use style="stroke:#000000;stroke-width:0.8;" x="241.721591" xlink:href="#mb09b98309f" y="301.48"/>
      </g>
     </g>
     <g id="text_4">
      <!-- −0.005 -->
      <g transform="translate(224.63331 315.753437)scale(0.1 -0.1)">
       <use xlink:href="#Inter-Regular-2212"/>
       <use x="65.909103" xlink:href="#Inter-Regular-30"/>
       <use x="128.409119" xlink:href="#Inter-Regular-2e"/>
       <use x="155.965942" xlink:href="#Inter-Regular-30"/>
       <use x="218.465958" xlink:href="#Inter-Regular-30"/>
       <use x="280.965973" xlink:href="#Inter-Regular-35"/>
      </g>
     </g>
    </g>
    <g id="xtick_5">
     <g id="line2d_9">
      <path clip-path="url(#p392429e059)" d="M 301.625 301.48 
L 301.625 10.8 
" style="fill:none;stroke:#e5e7eb;stroke-dasharray:3.7,1.6;stroke-dashoffset:0;"/>
     </g>
     <g id="line2d_10">
      <g>
       <use style="stroke:#000000;stroke-width:0.8;" x="301.625" xlink:href="#mb09b98309f" y="301.48"/>
      </g>
     </g>
     <g id="text_5">
      <!-- 0.000 -->
      <g transform="translate(287.746875 315.753437)scale(0.1 -0.1)">
       <use xlink:href="#Inter-Regular-30"/>
       <use x="62.500015" xlink:href="#Inter-Regular-2e"/>
       <use x="90.056839" xlink:href="#Inter-Regular-30"/>
       <use x="152.556854" xlink:href="#Inter-Regular-30"/>
       <use x="215.05687" xlink:href="#Inter-Regular-30"/>
      </g>
     </g>
    </g>
    <g id="xtick_6">
     <g id="line2d_11">
      <path clip-path="url(#p392429e059)" d="M 361.528409 301.48 
L 361.528409 10.8 
" style="fill:none;stroke:#e5e7eb;stroke-dasharray:3.7,1.6;stroke-dashoffset:0;"/>
     </g>
     <g id="line2d_12">
      <g>
       <use style="stroke:#000000;stroke-width:0.8;" x="361.528409" xlink:href="#mb09b98309f" y="301.48"/>
      </g>
     </g>
     <g id="text_6">
      <!-- 0.005 -->
      <g transform="translate(347.73544 315.753437)scale(0.1 -0.1)">
       <use xlink:href="#Inter-Regular-30"/>
       <use x="62.500015" xlink:href="#Inter-Regular-2e"/>
       <use x="90.056839" xlink:href="#Inter-Regular-30"/>
       <use x="152.556854" xlink:href="#Inter-Regular-30"/>
       <use x="215.05687" xlink:href="#Inter-Regular-35"/>
      </g>
     </g>
    </g>
    <g id="xtick_7">
     <g id="line2d_13">
      <path clip-path="url(#p392429e059)" d="M 421.431818 301.48 
L 421.431818 10.8 
" style="fill:none;stroke:#e5e7eb;stroke-dasharray:3.7,1.6;stroke-dashoffset:0;"/>
     </g>
     <g id="line2d_14">
      <g>
       <use style="stroke:#000000;stroke-width:0.8;" x="421.431818" xlink:href="#mb09b98309f" y="301.48"/>
      </g>
     </g>
     <g id="text_7">
      <!-- 0.010 -->
      <g transform="translate(408.356037 315.753437)scale(0.1 -0.1)">
       <use xlink:href="#Inter-Regular-30"/>
       <use x="62.500015" xlink:href="#Inter-Regular-2e"/>
       <use x="90.056839" xlink:href="#Inter-Regular-30"/>
       <use x="152.556854" xlink:href="#Inter-Regular-31"/>
       <use x="199.005722" xlink:href="#Inter-Regular-30"/>
      </g>
     </g>
    </g>
    <g id="xtick_8">
     <g id="line2d_15">
      <path clip-path="url(#p392429e059)" d="M 481.335227 301.48 
L 481.335227 10.8 
" style="fill:none;stroke:#e5e7eb;stroke-dasharray:3.7,1.6;stroke-dashoffset:0;"/>
     </g>
     <g id="line2d_16">
      <g>
       <use style="stroke:#000000;stroke-width:0.8;" x="481.335227" xlink:href="#mb09b98309f" y="301.48"/>
      </g>
     </g>
     <g id="text_8">
      <!-- 0.015 -->
      <g transform="translate(468.344602 315.753437)scale(0.1 -0.1)">
       <use xlink:href="#Inter-Regular-30"/>
       <use x="62.500015" xlink:href="#Inter-Regular-2e"/>
       <use x="90.056839" xlink:href="#Inter-Regular-30"/>
       <use x="152.556854" xlink:href="#Inter-Regular-31"/>
       <use x="199.005722" xlink:href="#Inter-Regular-35"/>
      </g>
     </g>
    </g>
    <g id="xtick_9">
     <g id="line2d_17">
      <path clip-path="url(#p392429e059)" d="M 541.238636 301.48 
L 541.238636 10.8 
" style="fill:none;stroke:#e5e7eb;stroke-dasharray:3.7,1.6;stroke-dashoffset:0;"/>
     </g>
     <g id="line2d_18">
      <g>
       <use style="stroke:#000000;stroke-width:0.8;" x="541.238636" xlink:href="#mb09b98309f" y="301.48"/>
      </g>
     </g>
     <g id="text_9">
      <!-- 0.020 -->
      <g transform="translate(527.45973 315.753437)scale(0.1 -0.1)">
       <use xlink:href="#Inter-Regular-30"/>
       <use x="62.500015" xlink:href="#Inter-Regular-2e"/>
       <use x="90.056839" xlink:href="#Inter-Regular-30"/>
       <use x="152.556854" xlink:href="#Inter-Regular-32"/>
       <use x="213.068237" xlink:href="#Inter-Regular-30"/>
      </g>
     </g>
    </g>
    <g id="text_10">
     <!-- $\Delta p / p$ -->
     <g transform="translate(290.125 329.09875)scale(0.1 -0.1)">
      <defs>
       <path d="M 2188 4044 
L 906 525 
L 3472 525 
L 2188 4044 
z
M 50 0 
L 1831 4666 
L 2547 4666 
L 4325 0 
L 50 0 
z
" id="DejaVuSans-394" transform="scale(0.015625)"/>
       <path d="M 3175 2156 
Q 3175 2616 2975 2859 
Q 2775 3103 2400 3103 
Q 2144 3103 1911 2972 
Q 1678 2841 1497 2591 
Q 1319 2344 1212 1994 
Q 1106 1644 1106 1300 
Q 1106 863 1306 627 
Q 1506 391 1875 391 
Q 2147 391 2380 519 
Q 2613 647 2778 891 
Q 2956 1147 3065 1494 
Q 3175 1841 3175 2156 
z
M 1394 2969 
Q 1625 3272 1939 3428 
Q 2253 3584 2638 3584 
Q 3175 3584 3472 3232 
Q 3769 2881 3769 2247 
Q 3769 1728 3584 1258 
Q 3400 788 3053 416 
Q 2822 169 2531 39 
Q 2241 -91 1919 -91 
Q 1547 -91 1294 64 
Q 1041 219 916 525 
L 556 -1331 
L -19 -1331 
L 922 3500 
L 1497 3500 
L 1394 2969 
z
" id="DejaVuSans-Oblique-70" transform="scale(0.015625)"/>
       <path d="M 1625 4666 
L 2156 4666 
L 531 -594 
L 0 -594 
L 1625 4666 
z
" id="DejaVuSans-2f" transform="scale(0.015625)"/>
      </defs>
      <use transform="translate(0 0.09375)" xlink:href="#DejaVuSans-394"/>
      <use transform="translate(68.408203 0.09375)" xlink:href="#DejaVuSans-Oblique-70"/>
      <use transform="translate(131.884766 0.09375)" xlink:href="#DejaVuSans-2f"/>
      <use transform="translate(165.576172 0.09375)" xlink:href="#DejaVuSans-Oblique-70"/>
     </g>
    </g>
   </g>
   <g id="matplotlib.axis_2">
    <g id="ytick_1">
     <g id="line2d_19">
      <path clip-path="url(#p392429e059)" d="M 38.05 264.468971 
L 565.2 264.468971 
" style="fill:none;stroke:#e5e7eb;stroke-dasharray:3.7,1.6;stroke-dashoffset:0;"/>
     </g>
     <g id="line2d_20">
      <defs>
       <path d="M 0 0 
L -3.5 0 
" id="m8d263218fd" style="stroke:#000000;stroke-width:0.8;"/>
      </defs>
      <g>
       <use style="stroke:#000000;stroke-width:0.8;" x="38.05" xlink:href="#m8d263218fd" y="264.468971"/>
      </g>
     </g>
     <g id="text_11">
      <!-- −0.1 -->
      <g transform="translate(10.807813 268.105689)scale(0.1 -0.1)">
       <use xlink:href="#Inter-Regular-2212"/>
       <use x="65.909103" xlink:href="#Inter-Regular-30"/>
       <use x="128.409119" xlink:href="#Inter-Regular-2e"/>
       <use x="155.965942" xlink:href="#Inter-Regular-31"/>
      </g>
     </g>
    </g>
    <g id="ytick_2">
     <g id="line2d_21">
      <path clip-path="url(#p392429e059)" d="M 38.05 226.466275 
L 565.2 226.466275 
" style="fill:none;stroke:#e5e7eb;stroke-dasharray:3.7,1.6;stroke-dashoffset:0;"/>
     </g>
     <g id="line2d_22">
      <g>
       <use style="stroke:#000000;stroke-width:0.8;" x="38.05" xlink:href="#m8d263218fd" y="226.466275"/>
      </g>
     </g>
     <g id="text_12">
      <!-- 0.0 -->
      <g transform="translate(15.79375 230.102994)scale(0.1 -0.1)">
       <use xlink:href="#Inter-Regular-30"/>
       <use x="62.500015" xlink:href="#Inter-Regular-2e"/>
       <use x="90.056839" xlink:href="#Inter-Regular-30"/>
      </g>
     </g>
    </g>
    <g id="ytick_3">
     <g id="line2d_23">
      <path clip-path="url(#p392429e059)" d="M 38.05 188.46358 
L 565.2 188.46358 
" style="fill:none;stroke:#e5e7eb;stroke-dasharray:3.7,1.6;stroke-dashoffset:0;"/>
     </g>
     <g id="line2d_24">
      <g>
       <use style="stroke:#000000;stroke-width:0.8;" x="38.05" xlink:href="#m8d263218fd" y="188.46358"/>
      </g>
     </g>
     <g id="text_13">
      <!-- 0.1 -->
      <g transform="translate(17.398438 192.100299)scale(0.1 -0.1)">
       <use xlink:href="#Inter-Regular-30"/>
       <use x="62.500015" xlink:href="#Inter-Regular-2e"/>
       <use x="90.056839" xlink:href="#Inter-Regular-31"/>
      </g>
     </g>
    </g>
    <g id="ytick_4">
     <g id="line2d_25">
      <path clip-path="url(#p392429e059)" d="M 38.05 150.460884 
L 565.2 150.460884 
" style="fill:none;stroke:#e5e7eb;stroke-dasharray:3.7,1.6;stroke-dashoffset:0;"/>
     </g>
     <g id="line2d_26">
      <g>
       <use style="stroke:#000000;stroke-width:0.8;" x="38.05" xlink:href="#m8d263218fd" y="150.460884"/>
      </g>
     </g>
     <g id="text_14">
      <!-- 0.2 -->
      <g transform="translate(15.992188 154.097603)scale(0.1 -0.1)">
       <use xlink:href="#Inter-Regular-30"/>
       <use x="62.500015" xlink:href="#Inter-Regular-2e"/>
       <use x="90.056839" xlink:href="#Inter-Regular-32"/>
      </g>
     </g>
    </g>
    <g id="ytick_5">
     <g id="line2d_27">
      <path clip-path="url(#p392429e059)" d="M 38.05 112.458189 
L 565.2 112.458189 
" style="fill:none;stroke:#e5e7eb;stroke-dasharray:3.7,1.6;stroke-dashoffset:0;"/>
     </g>
     <g id="line2d_28">
      <g>
       <use style="stroke:#000000;stroke-width:0.8;" x="38.05" xlink:href="#m8d263218fd" y="112.458189"/>
      </g>
     </g>
     <g id="text_15">
      <!-- 0.3 -->
      <g transform="translate(15.679688 116.094908)scale(0.1 -0.1)">
       <defs>
        <path d="M 2055 -64 
C 2957 -64 3627 502 3627 1264 
C 3627 1855 3277 2284 2691 2382 
L 2691 2418 
C 3161 2561 3455 2948 3455 3473 
C 3455 4132 2934 4718 2073 4718 
C 1268 4718 600 4223 573 3491 
L 1118 3491 
C 1139 3955 1580 4227 2064 4227 
C 2577 4227 2909 3916 2909 3445 
C 2909 2955 2525 2636 1973 2636 
L 1600 2636 
L 1600 2136 
L 1973 2136 
C 2680 2136 3073 1777 3073 1264 
C 3073 770 2643 436 2046 436 
C 1507 436 1080 714 1046 1164 
L 473 1164 
C 507 432 1152 -64 2055 -64 
z
" id="Inter-Regular-33" transform="scale(0.015625)"/>
       </defs>
       <use xlink:href="#Inter-Regular-30"/>
       <use x="62.500015" xlink:href="#Inter-Regular-2e"/>
       <use x="90.056839" xlink:href="#Inter-Regular-33"/>
      </g>
     </g>
    </g>
    <g id="ytick_6">
     <g id="line2d_29">
      <path clip-path="url(#p392429e059)" d="M 38.05 74.455494 
L 565.2 74.455494 
" style="fill:none;stroke:#e5e7eb;stroke-dasharray:3.7,1.6;stroke-dashoffset:0;"/>
     </g>
     <g id="line2d_30">
      <g>
       <use style="stroke:#000000;stroke-width:0.8;" x="38.05" xlink:href="#m8d263218fd" y="74.455494"/>
      </g>
     </g>
     <g id="text_16">
      <!-- 0.4 -->
      <g transform="translate(15.623438 78.092212)scale(0.1 -0.1)">
       <defs>
        <path d="M 373 955 
L 2564 955 
L 2564 0 
L 3100 0 
L 3100 955 
L 3736 955 
L 3736 1455 
L 3100 1455 
L 3100 4655 
L 2418 4655 
L 373 1418 
L 373 955 
z
M 982 1455 
L 982 1491 
L 2527 3936 
L 2564 3936 
L 2564 1455 
L 982 1455 
z
" id="Inter-Regular-34" transform="scale(0.015625)"/>
       </defs>
       <use xlink:href="#Inter-Regular-30"/>
       <use x="62.500015" xlink:href="#Inter-Regular-2e"/>
       <use x="90.056839" xlink:href="#Inter-Regular-34"/>
      </g>
     </g>
    </g>
    <g id="ytick_7">
     <g id="line2d_31">
      <path clip-path="url(#p392429e059)" d="M 38.05 36.452798 
L 565.2 36.452798 
" style="fill:none;stroke:#e5e7eb;stroke-dasharray:3.7,1.6;stroke-dashoffset:0;"/>
     </g>
     <g id="line2d_32">
      <g>
       <use style="stroke:#000000;stroke-width:0.8;" x="38.05" xlink:href="#m8d263218fd" y="36.452798"/>
      </g>
     </g>
     <g id="text_17">
      <!-- 0.5 -->
      <g transform="translate(15.964063 40.089517)scale(0.1 -0.1)">
       <use xlink:href="#Inter-Regular-30"/>
       <use x="62.500015" xlink:href="#Inter-Regular-2e"/>
       <use x="90.056839" xlink:href="#Inter-Regular-35"/>
      </g>
     </g>
    </g>
   </g>
   <g id="line2d_33">
    <path clip-path="url(#p392429e059)" d="M 62.011364 83.787641 
L 66.852043 91.658386 
L 71.692723 99.239722 
L 76.533402 106.536933 
L 81.374082 113.555307 
L 86.214761 120.300131 
L 91.055441 126.776692 
L 95.89612 132.990275 
L 100.7368 138.946167 
L 105.577479 144.649656 
L 110.418159 150.106027 
L 115.258838 155.320568 
L 120.099518 160.298565 
L 124.940197 165.045305 
L 129.780877 169.566074 
L 134.621556 173.86616 
L 139.462236 177.950847 
L 144.302916 181.825425 
L 149.143595 185.495178 
L 153.984275 188.965394 
L 158.824954 192.241359 
L 163.665634 195.32836 
L 168.506313 198.231684 
L 173.346993 200.956617 
L 178.187672 203.508446 
L 183.028352 205.892458 
L 187.869031 208.113938 
L 192.709711 210.178175 
L 197.55039 212.090454 
L 202.39107 213.856062 
L 207.231749 215.480286 
L 212.072429 216.968412 
L 216.913108 218.325727 
L 221.753788 219.557518 
L 226.594467 220.669072 
L 231.435147 221.665674 
L 236.275826 222.552613 
L 241.116506 223.335173 
L 245.957185 224.018643 
L 250.797865 224.608308 
L 255.638545 225.109455 
L 260.479224 225.527372 
L 265.319904 225.867343 
L 270.160583 226.134658 
L 275.001263 226.334601 
L 279.841942 226.472459 
L 284.682622 226.55352 
L 289.523301 226.583069 
L 294.363981 226.566394 
L 299.20466 226.508781 
L 304.04534 226.415517 
L 308.886019 226.291888 
L 313.726699 226.143182 
L 318.567378 225.974684 
L 323.408058 225.791681 
L 328.248737 225.59946 
L 333.089417 225.403309 
L 337.930096 225.208512 
L 342.770776 225.020357 
L 347.611455 224.844131 
L 352.452135 224.68512 
L 357.292815 224.548611 
L 362.133494 224.439891 
L 366.974174 224.364246 
L 371.814853 224.326962 
L 376.655533 224.333328 
L 381.496212 224.388628 
L 386.336892 224.49815 
L 391.177571 224.667181 
L 396.018251 224.901006 
L 400.85893 225.204914 
L 405.69961 225.584189 
L 410.540289 226.04412 
L 415.380969 226.589993 
L 420.221648 227.227094 
L 425.062328 227.960709 
L 429.903007 228.796127 
L 434.743687 229.738633 
L 439.584366 230.793513 
L 444.425046 231.966056 
L 449.265725 233.261546 
L 454.106405 234.685271 
L 458.947084 236.242518 
L 463.787764 237.938573 
L 468.628444 239.778723 
L 473.469123 241.768255 
L 478.309803 243.912454 
L 483.150482 246.216609 
L 487.991162 248.686004 
L 492.831841 251.325928 
L 497.672521 254.141667 
L 502.5132 257.138506 
L 507.35388 260.321734 
L 512.194559 263.696637 
L 517.035239 267.268501 
L 521.875918 271.042613 
L 526.716598 275.024259 
L 531.557277 279.218727 
L 536.397957 283.631303 
L 541.238636 288.267273 
" style="fill:none;stroke:#1f77b4;stroke-linecap:square;stroke-width:1.5;"/>
   </g>
   <g id="line2d_34">
    <path clip-path="url(#p392429e059)" d="M 62.011364 24.012727 
L 66.852043 34.714459 
L 71.692723 45.046709 
L 76.533402 55.015591 
L 81.374082 64.627223 
L 86.214761 73.887719 
L 91.055441 82.803196 
L 95.89612 91.379768 
L 100.7368 99.623553 
L 105.577479 107.540665 
L 110.418159 115.137221 
L 115.258838 122.419336 
L 120.099518 129.393125 
L 124.940197 136.064706 
L 129.780877 142.440192 
L 134.621556 148.525701 
L 139.462236 154.327348 
L 144.302916 159.851248 
L 149.143595 165.103517 
L 153.984275 170.090272 
L 158.824954 174.817627 
L 163.665634 179.291699 
L 168.506313 183.518604 
L 173.346993 187.504456 
L 178.187672 191.255372 
L 183.028352 194.777468 
L 187.869031 198.076859 
L 192.709711 201.159661 
L 197.55039 204.03199 
L 202.39107 206.699961 
L 207.231749 209.169691 
L 212.072429 211.447295 
L 216.913108 213.538888 
L 221.753788 215.450587 
L 226.594467 217.188507 
L 231.435147 218.758764 
L 236.275826 220.167474 
L 241.116506 221.420753 
L 245.957185 222.524715 
L 250.797865 223.485478 
L 255.638545 224.309156 
L 260.479224 225.001866 
L 265.319904 225.569723 
L 270.160583 226.018843 
L 275.001263 226.355341 
L 279.841942 226.585334 
L 284.682622 226.714938 
L 289.523301 226.750267 
L 294.363981 226.697438 
L 299.20466 226.562566 
L 304.04534 226.351767 
L 308.886019 226.071158 
L 313.726699 225.726853 
L 318.567378 225.324968 
L 323.408058 224.871619 
L 328.248737 224.372923 
L 333.089417 223.834994 
L 337.930096 223.263948 
L 342.770776 222.665901 
L 347.611455 222.04697 
L 352.452135 221.413269 
L 357.292815 220.770914 
L 362.133494 220.126021 
L 366.974174 219.484706 
L 371.814853 218.853085 
L 376.655533 218.237273 
L 381.496212 217.643387 
L 386.336892 217.077541 
L 391.177571 216.545851 
L 396.018251 216.054434 
L 400.85893 215.609405 
L 405.69961 215.216879 
L 410.540289 214.882974 
L 415.380969 214.613803 
L 420.221648 214.415484 
L 425.062328 214.294131 
L 429.903007 214.255861 
L 434.743687 214.306789 
L 439.584366 214.453031 
L 444.425046 214.700703 
L 449.265725 215.05592 
L 454.106405 215.524798 
L 458.947084 216.113454 
L 463.787764 216.828002 
L 468.628444 217.674559 
L 473.469123 218.65924 
L 478.309803 219.788161 
L 483.150482 221.067437 
L 487.991162 222.503185 
L 492.831841 224.10152 
L 497.672521 225.868558 
L 502.5132 227.810415 
L 507.35388 229.933206 
L 512.194559 232.243048 
L 517.035239 234.746055 
L 521.875918 237.448344 
L 526.716598 240.35603 
L 531.557277 243.47523 
L 536.397957 246.812058 
L 541.238636 250.372631 
" style="fill:none;stroke:#ff7f0e;stroke-linecap:square;stroke-width:1.5;"/>
   </g>
   <g id="patch_3">
    <path d="M 38.05 301.48 
L 38.05 10.8 
" style="fill:none;stroke:#000000;stroke-linecap:square;stroke-linejoin:miter;stroke-width:0.8;"/>
   </g>
   <g id="patch_4">
    <path d="M 565.2 301.48 
L 565.2 10.8 
" style="fill:none;stroke:#000000;stroke-linecap:square;stroke-linejoin:miter;stroke-width:0.8;"/>
   </g>
   <g id="patch_5">
    <path d="M 38.05 301.48 
L 565.2 301.48 
" style="fill:none;stroke:#000000;stroke-linecap:square;stroke-linejoin:miter;stroke-width:0.8;"/>
   </g>
   <g id="patch_6">
    <path d="M 38.05 10.8 
L 565.2 10.8 
" style="fill:none;stroke:#000000;stroke-linecap:square;stroke-linejoin:miter;stroke-width:0.8;"/>
   </g>
   <g id="legend_1">
    <g id="patch_7">
     <path d="M 516.1 48.492188 
L 558.2 48.492188 
Q 560.2 48.492188 560.2 46.492188 
L 560.2 17.8 
Q 560.2 15.8 558.2 15.8 
L 516.1 15.8 
Q 514.1 15.8 514.1 17.8 
L 514.1 46.492188 
Q 514.1 48.492188 516.1 48.492188 
z
" style="fill:#ffffff;opacity:0.8;stroke:#cccccc;stroke-linejoin:miter;"/>
    </g>
    <g id="line2d_35">
     <path d="M 518.1 23.573438 
L 538.1 23.573438 
" style="fill:none;stroke:#1f77b4;stroke-linecap:square;stroke-width:1.5;"/>
    </g>
    <g id="line2d_36"/>
    <g id="text_18">
     <!-- $\nu_x$ -->
     <g transform="translate(546.1 27.073438)scale(0.1 -0.1)">
      <defs>
       <path d="M 959 0 
L 572 3500 
L 1191 3500 
L 1522 563 
Q 1972 950 2391 1488 
Q 2706 1891 2788 2241 
Q 2825 2406 2809 2719 
Q 2794 3091 2544 3500 
L 3125 3500 
L 3125 3500 
Q 3288 3222 3353 2834 
Q 3416 2478 3369 2234 
Q 3250 1622 2719 1075 
Q 2025 363 1572 0 
L 959 0 
z
" id="DejaVuSans-Oblique-3bd" transform="scale(0.015625)"/>
       <path d="M 3841 3500 
L 2234 1784 
L 3219 0 
L 2559 0 
L 1819 1388 
L 531 0 
L -166 0 
L 1556 1844 
L 641 3500 
L 1300 3500 
L 1972 2234 
L 3144 3500 
L 3841 3500 
z
" id="DejaVuSans-Oblique-78" transform="scale(0.015625)"/>
      </defs>
      <use transform="translate(0 0.3125)" xlink:href="#DejaVuSans-Oblique-3bd"/>
      <use transform="translate(55.859375 -16.09375)scale(0.7)" xlink:href="#DejaVuSans-Oblique-78"/>
     </g>
    </g>
    <g id="line2d_37">
     <path d="M 518.1 37.892188 
L 538.1 37.892188 
" style="fill:none;stroke:#ff7f0e;stroke-linecap:square;stroke-width:1.5;"/>
    </g>
    <g id="line2d_38"/>
    <g id="text_19">
     <!-- $\nu_y$ -->
     <g transform="translate(546.1 41.392188)scale(0.1 -0.1)">
      <defs>
       <path d="M 1588 -325 
Q 1188 -997 936 -1164 
Q 684 -1331 294 -1331 
L -159 -1331 
L -63 -850 
L 269 -850 
Q 509 -850 678 -719 
Q 847 -588 1056 -206 
L 1234 128 
L 459 3500 
L 1069 3500 
L 1650 819 
L 3256 3500 
L 3859 3500 
L 1588 -325 
z
" id="DejaVuSans-Oblique-79" transform="scale(0.015625)"/>
      </defs>
      <use transform="translate(0 0.3125)" xlink:href="#DejaVuSans-Oblique-3bd"/>
      <use transform="translate(55.859375 -16.09375)scale(0.7)" xlink:href="#DejaVuSans-Oblique-79"/>
     </g>
    </g>
   </g>
  </g>
 </g>
 <defs>
  <clipPath id="p392429e059">
   <rect height="290.68" width="527.15" x="38.05" y="10.8"/>
  </clipPath>
 </defs>
</svg>
